<svg width="48" height="54" viewBox="0 0 48 54" xmlns="http://www.w3.org/2000/svg"><g fill="none"><path d="m44.265 10.517-7.53-7.534C35.089 1.343 31.852 0 29.53 0H4.22A4.231 4.231 0 0 0 0 4.219V49.78A4.231 4.231 0 0 0 4.219 54H43.03a4.231 4.231 0 0 0 4.219-4.219V17.72c0-2.32-1.34-5.558-2.985-7.202Z" fill="#F37021"/><path d="M43.875 49.781a.86.86 0 0 1-.844.844H4.22a.857.857 0 0 1-.844-.844V4.22c0-.458.386-.844.844-.844h25.31c.253 0 .538.032.844.09V16.88H43.78c.063.306.095.59.095.844v32.063-.006Z" fill="#FFF"/><path d="M40.342 33.413c-.222.137-.855.221-1.255.221-1.308 0-2.911-.601-5.179-1.572a33.241 33.241 0 0 1 2.384-.094c1.308 0 1.687 0 2.974.327 1.276.316 1.287.98 1.076 1.117Zm-22.687.2a92.825 92.825 0 0 0 1.55-2.827c1.288-2.436 2.11-4.356 2.711-5.927 1.213 2.204 2.721 4.071 4.483 5.569.221.19.453.369.706.559-3.596.717-6.707 1.582-9.45 2.626Zm4.198-23.087c.717 0 1.129 1.8 1.16 3.497.032 1.688-.358 2.869-.854 3.755-.411-1.308-.601-3.354-.601-4.694 0 0-.032-2.558.295-2.558Zm-14.07 32.4c.412-1.108 2.015-3.301 4.388-5.253.148-.116.517-.464.854-.78-2.478 3.966-4.145 5.537-5.241 6.033Zm33.244-11.844c-.717-.707-2.32-1.076-4.746-1.108-1.645-.02-3.617.127-5.706.412-.928-.538-1.887-1.118-2.647-1.825-2.025-1.898-3.712-4.525-4.767-7.415.063-.274.127-.506.18-.748 0 0 1.138-6.487.832-8.68a2.345 2.345 0 0 0-.147-.623l-.095-.263c-.306-.713-.918-1.473-1.877-1.432l-.56-.018h-.01c-1.065 0-1.94.546-2.162 1.355-.696 2.563.021 6.38 1.318 11.327l-.337.812c-.928 2.257-2.089 4.535-3.112 6.54l-.137.263a109.782 109.782 0 0 1-2.942 5.421l-.918.485c-.063.042-1.635.865-2.004 1.086-3.122 1.867-5.197 3.987-5.541 5.675-.11.527-.028 1.213.528 1.54l.886.443c.383.19.794.284 1.206.284 2.225 0 4.81-2.763 8.363-8.975 4.114-1.34 8.797-2.458 12.9-3.07 3.121 1.762 6.96 2.986 9.386 2.986a4.21 4.21 0 0 0 1.107-.127c.464-.116.855-.38 1.097-.749.464-.707.57-1.677.433-2.679-.032-.295-.275-.664-.528-.917Z" fill="#F37021"/><path d="M41.882 12.899a4.2 4.2 0 0 1 .485.601H33.75V4.88c.232.16.432.325.601.49l7.53 7.529Z" fill="#FFF"/></g></svg>
