<svg width="20" height="20" viewBox="0 0 20 20" xmlns="http://www.w3.org/2000/svg"><path d="m7.655 19.11 3.798-1.612a2.132 2.132 0 0 1-3.798 1.613ZM13.447.099c2.224 1.216 3.894 2.776 4.993 4.678 1.098 1.902 1.615 4.129 1.555 6.663a.8.8 0 0 1-1.6-.038c.054-2.252-.396-4.188-1.34-5.825-.945-1.637-2.399-2.994-4.375-4.073a.8.8 0 1 1 .768-1.405ZM3.69 4.812a6.21 6.21 0 0 1 8.104 2.929l.105.223 1.373 3.083 1.81 1.568c.1.085.185.185.284.346l.063.122a1.333 1.333 0 0 1-.679 1.76l-11.013 4.87a1.333 1.333 0 0 1-1.871-1.219l-.001-2.498L.54 13.02a6.208 6.208 0 0 1 3.15-8.208Zm9.504-.874c1.032.562 1.858 1.38 2.47 2.44.612 1.062.907 2.187.879 3.36a.8.8 0 1 1-1.6-.039c.021-.876-.197-1.711-.664-2.52-.467-.81-1.081-1.419-1.85-1.837a.8.8 0 0 1 .765-1.404Z" fill="#F37021"/></svg>
