<svg width="25" height="19" viewBox="0 0 25 19" xmlns="http://www.w3.org/2000/svg"  fill="#FFF"><path d="M22.023 11.275v6.327c0 .442-.278.8-.887.8-.146 0-.511-.284-.961-.711V.71c.45-.428.812-.711.961-.711.666 0 .887.358.887.8v6.486c1.2.03 2.32.909 2.32 1.994 0 1.086-1.12 1.965-2.32 1.995Zm-13.115 1.26c.047 0 0-7.264 0-7.264 5.295 0 8.418-1.828 10.09-3.487v15.425c-1.672-1.66-4.795-4.675-10.09-4.675Zm-3.312 6.463L4 12.698H2.4s-.474-1.07-.69-2.38H.8a.797.797 0 0 1-.8-.794v-.795c0-.437.358-.795.8-.795h.909c.216-1.31.69-2.38.69-2.38l5.319-.203v7.124l-1.322.223.201.795h.798l.4 1.587H7L7.996 19h-2.4v-.002Z"/></svg>
