<svg width="61" height="47" viewBox="0 0 61 47" xmlns="http://www.w3.org/2000/svg"  fill="#F37021"><path d="M54.478 27.89v15.65c0 1.094-.688 1.98-2.194 1.98-.362 0-1.265-.701-2.378-1.758V1.757C51.02.7 51.916 0 52.284 0c1.647 0 2.194.885 2.194 1.979v16.043c2.968.074 5.739 2.249 5.739 4.934s-2.771 4.86-5.739 4.934Zm-32.443 3.116c.116 0 0-17.967 0-17.967 13.1 0 20.824-4.523 24.959-8.627V42.57c-4.135-4.105-11.86-11.564-24.96-11.564Zm-8.191 15.988L9.893 31.41H5.936s-1.174-2.648-1.709-5.886H1.98A1.97 1.97 0 0 1 0 23.558v-1.966c0-1.081.885-1.966 1.979-1.966h2.248c.535-3.238 1.709-5.887 1.709-5.887l13.155-.504v17.623l-3.269.553.498 1.966h1.972l.99 3.927h-1.967L19.78 47h-5.935v-.006Z"/></svg>
