<svg width="13" height="13" viewBox="0 0 13 13" xmlns="http://www.w3.org/2000/svg"><path d="M6.5 0 13 2.591v.864h-.867a.402.402 0 0 1-.138.304.463.463 0 0 1-.329.128H1.334a.468.468 0 0 1-.329-.128.4.4 0 0 1-.138-.304H0v-.864L6.5 0ZM1.733 4.319h1.734v5.183h.866V4.319h1.734v5.183h.866V4.319h1.734v5.183h.866V4.319h1.734v5.183h.4c.126 0 .235.042.328.128a.4.4 0 0 1 .138.304v.431H.867v-.431c0-.117.046-.219.138-.304a.463.463 0 0 1 .329-.128h.4V4.319Zm10.8 6.478c.126 0 .236.043.328.128a.4.4 0 0 1 .139.304v.864H0v-.864a.4.4 0 0 1 .139-.304.463.463 0 0 1 .328-.128h12.066Z"/></svg>
