<svg width="26" height="26" viewBox="0 0 26 26" xmlns="http://www.w3.org/2000/svg"><g fill="#F37021"><path d="M9.962 18.05a1.425 1.425 0 0 1-2.015-2.015l8.09-8.09a1.425 1.425 0 0 1 2.015 2.015l-8.09 8.09Z"/><path d="m14.264 8.356 5.252-5.252a.714.714 0 0 1 1.009 0l2.37 2.37a.714.714 0 0 1 0 1.008l-5.253 5.252a.711.711 0 0 1-.63.197l-1.994 1.993a3.6 3.6 0 0 0 4.749-.285l5.187-5.187a3.598 3.598 0 0 0 .002-5.07l-2.34-2.34a3.597 3.597 0 0 0-5.07.002l-5.187 5.187a3.6 3.6 0 0 0-.285 4.749l1.993-1.994a.71.71 0 0 1 .197-.63Zm-2.652 9.408L6.36 23.016a.713.713 0 0 1-1.009 0l-2.37-2.37a.713.713 0 0 1 0-1.008l5.253-5.252a.71.71 0 0 1 .63-.197l2.118-2.117a3.6 3.6 0 0 0-4.749.285l-5.187 5.187a3.597 3.597 0 0 0-.002 5.07l2.34 2.34a3.597 3.597 0 0 0 5.07-.002l5.187-5.187a3.6 3.6 0 0 0 .285-4.749l-2.117 2.118a.711.711 0 0 1-.197.63Z"/></g></svg>
