<svg width="20" height="19" viewBox="0 0 20 19" xmlns="http://www.w3.org/2000/svg" color="#1D1D1D"><g fill="none" fill-rule="evenodd"><path d="M0 0h20v20H0z"/><path d="M2.5 6.667V5H.833A.836.836 0 0 1 0 4.167c0-.459.375-.834.833-.834H2.5V1.667c0-.459.375-.834.833-.834.459 0 .834.375.834.834v1.666h1.666c.459 0 .834.375.834.834A.836.836 0 0 1 5.833 5H4.167v1.667a.836.836 0 0 1-.834.833.836.836 0 0 1-.833-.833Zm8.333 7.5a2.5 2.5 0 1 1 0-5 2.5 2.5 0 0 1 0 5ZM17.5 5c.917 0 1.667.75 1.667 1.667v10c0 .916-.75 1.666-1.667 1.666H4.167c-.917 0-1.667-.75-1.667-1.666V8.1c.25.142.525.233.833.233C4.25 8.333 5 7.583 5 6.667v-.834h.833c.917 0 1.667-.75 1.667-1.666 0-.309-.092-.584-.233-.834H12.6c.467 0 .917.2 1.225.542L14.858 5H17.5Zm-6.667 10.833c2.3 0 4.167-1.866 4.167-4.166 0-2.3-1.867-4.167-4.167-4.167a4.168 4.168 0 0 0-4.166 4.167c0 2.3 1.866 4.166 4.166 4.166Z" fill="currentColor" fill-rule="nonzero"/></g></svg>
