<svg width="16" height="15" viewBox="0 0 16 15" xmlns="http://www.w3.org/2000/svg"><g fill="none" fill-rule="evenodd"><path d="M0 0h16v16H0z"/><path d="M2 5.333V4H.667A.669.669 0 0 1 0 3.333c0-.366.3-.666.667-.666H2V1.333c0-.366.3-.666.667-.666.366 0 .666.3.666.666v1.334h1.334c.366 0 .666.3.666.666 0 .367-.3.667-.666.667H3.333v1.333c0 .367-.3.667-.666.667A.669.669 0 0 1 2 5.333Zm6.667 6a2 2 0 1 1 0-4 2 2 0 0 1 0 4ZM14 4c.733 0 1.333.6 1.333 1.333v8c0 .734-.6 1.334-1.333 1.334H3.333c-.733 0-1.333-.6-1.333-1.334V6.48c.2.113.42.187.667.187C3.4 6.667 4 6.067 4 5.333v-.666h.667C5.4 4.667 6 4.067 6 3.333c0-.246-.073-.466-.187-.666h4.267c.373 0 .733.16.98.433l.827.9H14Zm-5.333 8.667a3.335 3.335 0 0 0 0-6.667 3.335 3.335 0 0 0 0 6.667Z" fill="#F37021" fill-rule="nonzero"/></g></svg>
