<svg width="13" height="13" viewBox="0 0 13 13" xmlns="http://www.w3.org/2000/svg"><path d="M13 6.469V.929l-1.455 1.454A6.486 6.486 0 0 0 6.515 0a6.442 6.442 0 0 0-5.169 2.569L3.73 4.983A3.23 3.23 0 0 1 4.69 3.9c.417-.325 1.005-.588 1.825-.588a.98.98 0 0 1 .233.03 3.108 3.108 0 0 1 2.398 1.456L7.46 6.469c2.135 0 4.55-.015 5.54 0"/><path d="M6.469 0H.929l1.454 1.455A6.486 6.486 0 0 0 0 6.485a6.464 6.464 0 0 0 2.569 5.169L4.983 9.27A3.236 3.236 0 0 1 3.9 8.31c-.325-.417-.588-1.005-.588-1.825a.98.98 0 0 1 .03-.233 3.108 3.108 0 0 1 1.456-2.398L6.485 5.54C6.469 3.405 6.454.99 6.469 0"/><path d="M0 6.485v5.54l1.455-1.455a6.486 6.486 0 0 0 5.03 2.384 6.464 6.464 0 0 0 5.169-2.57L9.27 7.987a3.236 3.236 0 0 1-.96 1.083c-.417.325-1.005.588-1.825.588a.937.937 0 0 1-.233-.03A3.108 3.108 0 0 1 3.854 8.17L5.54 6.485C3.405 6.5.99 6.5 0 6.485"/></svg>
