<svg width="20" height="16" viewBox="0 0 20 16" xmlns="http://www.w3.org/2000/svg"><g fill="#F37021"><path d="M8.333 4h3.334c.184 0 .333-.15.333-.333V.333A.333.333 0 0 0 11.667 0H8.333A.333.333 0 0 0 8 .333v3.334c0 .184.15.333.333.333ZM8 8.667c0-1.103-.897-2-2-2s-2 .897-2 2c0 .616.286 1.16.725 1.528A4.63 4.63 0 0 0 3.131 11 3.322 3.322 0 0 0 6 12.667c1.227 0 2.29-.675 2.869-1.666a4.642 4.642 0 0 0-1.594-.806A1.99 1.99 0 0 0 8 8.667Z"/><path d="M18 2h-5a.333.333 0 0 0-.333.333v1.334c0 .551-.449 1-1 1H8.333c-.551 0-1-.449-1-1V2.333A.333.333 0 0 0 7 2H2C.897 2 0 2.897 0 4v9.333c0 1.103.897 2 2 2h16c1.103 0 2-.897 2-2V4c0-1.103-.897-2-2-2ZM6 13.333c-2.206 0-4-1.794-4-4s1.794-4 4-4 4 1.794 4 4-1.794 4-4 4Zm11.667-2h-6a.333.333 0 0 1 0-.666h6a.333.333 0 0 1 0 .666Zm0-2h-6a.333.333 0 0 1 0-.666h6a.333.333 0 0 1 0 .666Zm0-2h-6a.333.333 0 0 1 0-.666h6a.333.333 0 0 1 0 .666Z"/></g></svg>
