<svg viewBox="0 0 20 21" xmlns="http://www.w3.org/2000/svg"><g fill="#F37021"><path d="M20 16.844c-.29.055-.581.12-.876.17-.106.02-.171.051-.199.167a1.424 1.424 0 0 1-.157.373c-.027.051-.032.093.005.143.166.236.328.475.494.715.115.17.11.25-.033.392l-.645.646c-.13.13-.213.143-.365.037-.23-.157-.461-.31-.682-.475-.084-.06-.148-.074-.236-.019-.106.07-.23.106-.35.143-.07.023-.111.06-.125.139-.05.277-.106.553-.161.83-.037.19-.102.25-.3.25h-.927c-.17 0-.245-.052-.272-.218-.051-.29-.102-.576-.162-.862-.014-.074-.046-.12-.12-.143a1.645 1.645 0 0 1-.383-.162c-.046-.027-.087-.023-.133.01-.24.166-.48.327-.715.493-.148.106-.254.102-.378-.023-.217-.217-.434-.429-.646-.646-.134-.133-.143-.212-.042-.369.152-.23.305-.456.462-.678.055-.078.073-.147.027-.24a2.25 2.25 0 0 1-.147-.35.177.177 0 0 0-.153-.13c-.272-.05-.544-.115-.816-.156-.19-.028-.263-.115-.268-.305a26.597 26.597 0 0 1 0-.858c0-.23.065-.304.286-.35.254-.05.508-.097.761-.138.107-.019.171-.056.199-.166.027-.102.074-.203.124-.296.051-.097.033-.17-.027-.258-.157-.221-.31-.452-.462-.678-.101-.157-.092-.23.037-.364.217-.226.439-.448.655-.67.097-.1.212-.11.346-.022.235.157.475.318.706.484.074.05.134.07.212.014a1.18 1.18 0 0 1 .35-.148c.074-.023.111-.064.12-.138.051-.277.102-.554.157-.83.037-.203.102-.259.305-.259h.918c.18 0 .249.056.286.236.05.272.101.544.147.82.014.084.046.134.13.162.138.046.28.092.405.166.06.032.106.014.153-.023.216-.152.438-.3.66-.447.216-.153.294-.148.484.036.198.194.392.393.585.59.139.14.148.24.042.402-.162.235-.318.475-.484.706-.047.064-.056.115-.014.184.069.12.106.254.157.388.018.046.036.087.092.097.323.06.64.143.973.17v1.458Zm-4.064-2.26c-.807-.014-1.54.664-1.526 1.573a1.544 1.544 0 0 0 1.526 1.494c.858 0 1.513-.683 1.532-1.49a1.53 1.53 0 0 0-1.532-1.577Z"/><path d="M0 8.924c0-.415.005-.835 0-1.25 0-.217.028-.424.07-.636a8.898 8.898 0 0 1 2.6-4.613A8.786 8.786 0 0 1 6.149.391a8.93 8.93 0 0 1 3.04-.383c.594.023 1.18.125 1.761.263a8.724 8.724 0 0 1 4.258 2.505 9.064 9.064 0 0 1 1.199 1.577 8.77 8.77 0 0 1 .872 1.96 8.913 8.913 0 0 1 .369 3.077c-.014.245-.047.489-.07.733-.009.097-.046.134-.147.102a5.403 5.403 0 0 0-1.02-.166c-.106-.01-.124-.055-.11-.148a6.831 6.831 0 0 0 .055-1.563 8.516 8.516 0 0 0-.277-1.555 7.642 7.642 0 0 0-.904-1.997 7.49 7.49 0 0 0-2.2-2.256A7.46 7.46 0 0 0 9.6 1.314a7.513 7.513 0 0 0-2.814.22 7.551 7.551 0 0 0-2.417 1.14 7.86 7.86 0 0 0-1.564 1.485 7.7 7.7 0 0 0-1.162 2.048 7.407 7.407 0 0 0-.466 2.118 7.672 7.672 0 0 0 .337 2.91 7.478 7.478 0 0 0 1.208 2.32c.392.512.84.969 1.352 1.366a7.655 7.655 0 0 0 1.623.982 7.553 7.553 0 0 0 2.15.59 6.77 6.77 0 0 0 1.886-.018c.153-.023.171-.01.185.148.028.318.07.636.157.95.041.147.027.161-.125.184a9.084 9.084 0 0 1-1.734.07 8.66 8.66 0 0 1-2.49-.522 8.719 8.719 0 0 1-1.883-.96 8.904 8.904 0 0 1-3.017-3.423 8.908 8.908 0 0 1-.585-1.48c-.148-.493-.263-.996-.235-1.517.004-.323-.005-.66-.005-1Z"/><path d="M12.901 10.963c-.009-.789-.009-1.333-.009-2.786 0-.364-.327-.835-.655-.835h-.724V5.6a2.623 2.623 0 0 0-2.61-2.611 2.623 2.623 0 0 0-2.611 2.61v1.744h-.725a.652.652 0 0 0-.655.655v4.719c0 .364.291.655.655.655h5.06a6.018 6.018 0 0 1 2.274-2.408Zm-3.676-.466v1.052a.08.08 0 0 1-.074.074h-.544a.08.08 0 0 1-.074-.074v-1.052c-.253-.11-.433-.401-.433-.724 0-.434.364-.798.798-.798.433 0 .798.364.798.798a.993.993 0 0 1-.47.724ZM7.228 7.342v-1.67c0-.871.724-1.596 1.633-1.596a1.61 1.61 0 0 1 1.596 1.596v1.67h-3.23Z"/></g></svg>
