<svg viewBox="0 0 20 21" xmlns="http://www.w3.org/2000/svg"><g fill="#F37021"><path d="M15.158 11.251c-.567 0-1.001.434-1.001.969v1.035h2.003V12.22c-.033-.535-.467-.969-1.002-.969Zm.034 3.005a.514.514 0 0 0-.501.501c0 .2.1.368.267.434v.635c0 .033.033.033.033.033h.334c.034 0 .034-.033.034-.033v-.636a.656.656 0 0 0 .3-.434c0-.267-.2-.5-.467-.5Z"/><path d="M15.192 8.38s-4.875 1.369-4.875 1.636v4.908c0 2.47 3.606 4.675 4.574 5.276.167.1.368.1.534 0C16.461 19.632 20 17.428 20 14.924V9.983c.033-.234-4.808-1.603-4.808-1.603Zm2.07 8.58h-4.14a.386.386 0 0 1-.401-.4v-2.905c0-.233.167-.4.4-.4h.435v-1.069a1.603 1.603 0 0 1 3.205 0v1.069h.434c.2 0 .4.3.4.5 0 1.436 0 1.436.034 2.905.034.234-.133.3-.367.3Z"/><path d="M9.315 9.983c0-.901.668-1.102 3.139-1.87l1.002-.3c.066-.334.1-.701.1-1.035A6.783 6.783 0 0 0 6.778 0 6.783 6.783 0 0 0 0 6.778a6.783 6.783 0 0 0 6.778 6.778c.901 0 1.77-.167 2.57-.501V9.983h-.033ZM7.212 8.915h-.033v.734c0 .234-.2.468-.434.468-.234 0-.468-.2-.468-.434v-.768H5.275c-.233 0-.434-.2-.434-.468 0-.233.2-.434.434-.434h1.937c.3 0 .534-.233.534-.534 0-.3-.234-.534-.534-.534h-.868A1.496 1.496 0 0 1 4.84 5.442c0-.834.635-1.502 1.47-1.502v-.768c0-.234.2-.434.467-.434.234 0 .434.2.434.434v.734h1.102c.234 0 .467.2.467.435 0 .233-.2.467-.434.467H6.344c-.334 0-.601.267-.601.634 0 .334.267.601.6.601h.869c.801 0 1.436.635 1.436 1.436 0 .768-.635 1.436-1.436 1.436Z"/></g></svg>
