<svg width="26" height="23" viewBox="0 0 26 23" xmlns="http://www.w3.org/2000/svg" xmlns:xlink="http://www.w3.org/1999/xlink"><defs><path id="a" d="M0 0h22.286v21.048H0z"/><path id="c" d="M0 0h14.857v12.381H0z"/></defs><g fill="none" fill-rule="evenodd"><mask id="b" fill="#fff"><use xlink:href="#a"/></mask><g/><path d="M10.319 10.172h-.001a1.19 1.19 0 0 1 0-1.67 1.156 1.156 0 0 1 1.65.001 1.19 1.19 0 0 1 0 1.669c-.456.46-1.194.46-1.65 0M15.5 8.503a1.156 1.156 0 0 1 1.649 0v.002a1.19 1.19 0 0 1 0 1.668c-.455.46-1.193.46-1.649 0v-.001a1.19 1.19 0 0 1 0-1.669m-8.713 1.67c-.455.46-1.193.46-1.648-.001l-.001-.001a1.19 1.19 0 0 1 0-1.668 1.156 1.156 0 0 1 1.65 0v.001a1.19 1.19 0 0 1 0 1.668m15.499-.598C22.286 4.012 16.992 0 11.143 0 5.258 0 0 4.043 0 9.574a8.58 8.58 0 0 0 1.901 5.381c.05 1.75-.95 4.263-1.851 6.093 2.416-.449 5.851-1.442 7.407-2.426 8.577 2.148 14.829-3.257 14.829-9.048" fill="#F37021" mask="url(#b)"/><g transform="translate(11.143 11.143)"><mask id="d" fill="#fff"><use xlink:href="#c"/></mask><g/><path d="M13.364 8.042c1.682-2.191 1.628-5.73-.38-8.06C11.396 4.747 6.641 8.546-.012 8.283a9.247 9.247 0 0 0 9.43 2.534c1.151.663 3.658 1.278 5.416 1.534-.69-1.287-1.47-3.057-1.471-4.31" fill="#F37021" mask="url(#d)" transform="rotate(-4 7.412 6.167)"/></g></g></svg>
