<svg width="26" height="26" viewBox="0 0 26 26" xmlns="http://www.w3.org/2000/svg"><g fill="#F37021"><path d="M17.55 14.495h-2.821a4.197 4.197 0 0 1-4.199-4.199V7.475a.974.974 0 0 0-.975-.975H5.434C2.431 6.5 0 8.45 0 11.934v8.632C0 24.05 2.431 26 5.434 26h7.657c3.003 0 5.434-1.95 5.434-5.434V15.47a.974.974 0 0 0-.975-.975Z"/><path d="M20.566 0h-7.658c-2.937 0-5.316 1.872-5.42 5.213.078 0 .143-.013.22-.013h7.657c3.004 0 5.435 1.95 5.435 5.434v8.645c0 .078-.013.143-.013.208C23.686 19.396 26 17.472 26 14.079V5.434C26 1.95 23.569 0 20.566 0Z"/><path d="M12.975 6.697c-.403-.403-1.092-.13-1.092.43v3.405c0 1.43 1.209 2.6 2.69 2.6.924.013 2.21.013 3.316.013.559 0 .845-.65.455-1.04a1060.584 1060.584 0 0 1-5.37-5.408Z"/></g></svg>
