<svg width="13" height="13" viewBox="0 0 13 13" xmlns="http://www.w3.org/2000/svg" fill="#F37021"><g><path d="M8.775 7.248h-1.41a2.1 2.1 0 0 1-2.1-2.1v-1.41a.487.487 0 0 0-.487-.488H2.717C1.216 3.25 0 4.225 0 5.967v4.316C0 12.025 1.216 13 2.717 13h3.829c1.501 0 2.717-.975 2.717-2.717V7.735a.487.487 0 0 0-.488-.487Z"/><path d="M10.283 0H6.454c-1.469 0-2.658.936-2.71 2.607.039 0 .071-.007.11-.007h3.828c1.502 0 2.718.975 2.718 2.717V9.64c0 .04-.007.072-.007.105C11.843 9.698 13 8.736 13 7.04V2.717C13 .975 11.784 0 10.283 0Z"/><path d="M6.487 3.349c-.201-.202-.546-.065-.546.214v1.703c0 .715.605 1.3 1.346 1.3.461.007 1.105.007 1.657.007.28 0 .423-.325.228-.52-.709-.709-1.97-1.976-2.685-2.704Z"/></g></svg>
