<svg width="31" height="26" viewBox="0 0 31 26" xmlns="http://www.w3.org/2000/svg"><path d="m8.784 8.431 1.553 1.942H4.949c.043.183.07.372.07.568a2.51 2.51 0 0 1-2.51 2.51c-.098 0-.191-.018-.287-.03v7.588c.096-.01.19-.028.288-.028a2.51 2.51 0 0 1 2.51 2.51c0 .122-.02.24-.037.358h20.15c-.017-.118-.036-.236-.036-.36a2.51 2.51 0 0 1 3.033-2.453v-7.642a2.51 2.51 0 0 1-3.033-2.453c0-.196.028-.385.071-.568h-5.501l1.666-1.942h8.784V26H0V8.431h8.784Zm6.699 5.196v.887c.675.03 1.129.171 1.46.332l-.292 1.138c-.26-.11-.724-.342-1.45-.342-.655 0-.866.282-.866.563 0 .332.352.544 1.209.867 1.198.423 1.682.977 1.682 1.883 0 .897-.634 1.662-1.793 1.864v1.026h-.987v-.957c-.675-.03-1.33-.21-1.712-.432l.302-1.179a3.555 3.555 0 0 0 1.672.443c.574 0 .967-.22.967-.624 0-.383-.322-.625-1.068-.876-1.077-.363-1.813-.867-1.813-1.843 0-.887.625-1.581 1.703-1.793v-.957h.986ZM18.195 0v5.686h2.275l-5.49 6.588-5.49-6.588h2.431V0h6.274Z"/></svg>
