<svg width="31" height="26" viewBox="0 0 31 26" xmlns="http://www.w3.org/2000/svg"><path d="m8.784 8.431 1.553 1.942H4.949c.043.183.07.372.07.568a2.51 2.51 0 0 1-2.51 2.51c-.098 0-.191-.018-.287-.03v7.588c.096-.01.19-.028.288-.028a2.51 2.51 0 0 1 2.51 2.51c0 .122-.02.24-.037.358h20.15c-.017-.118-.036-.236-.036-.36a2.51 2.51 0 0 1 3.033-2.453v-7.642a2.51 2.51 0 0 1-3.033-2.453c0-.196.028-.385.071-.568h-5.501l1.666-1.942h8.784V26H0V8.431h8.784Zm10.004 5.012v1.868h-2.802v1.225c2.274.105 3.983.556 3.983 1.096s-1.71.991-3.983 1.096v3.926H13.96v-3.925c-2.278-.105-3.991-.556-3.991-1.097 0-.54 1.713-.992 3.99-1.096V15.31h-2.802v-1.868h7.631Zm-4.828 3.235c-2.013.09-3.515.44-3.515.859 0 .42 1.502.77 3.515.858.13.005.497.02 1.02.02.655 0 .949-.017 1.006-.021 2.008-.088 3.507-.438 3.507-.857 0-.418-1.499-.769-3.507-.858v1.368c-.059.005-.372.03-.997.03h-.168a14.679 14.679 0 0 1-.861-.03ZM18.195 0v5.686h2.275l-5.49 6.588-5.49-6.588h2.431V0h6.274Z" fill="#F37021"/></svg>
