<svg width="31" height="26" viewBox="0 0 31 26" xmlns="http://www.w3.org/2000/svg"><path d="m8.784 8.431 1.553 1.942H4.949c.043.183.07.372.07.568a2.51 2.51 0 0 1-2.51 2.51c-.098 0-.191-.018-.287-.03v7.588c.096-.01.19-.028.288-.028a2.51 2.51 0 0 1 2.51 2.51c0 .122-.02.24-.037.358h20.15c-.017-.118-.036-.236-.036-.36a2.51 2.51 0 0 1 3.033-2.453v-7.642a2.51 2.51 0 0 1-3.033-2.453c0-.196.028-.385.071-.568h-5.501l1.666-1.942h8.784V26H0V8.432h8.784Zm.814 6.593c4.692-.038 9.364-.02 14.037-.02.096 0 .192.02.346.02-.366.48-.673.885-1.02 1.288-.038.058-.192.039-.326.058h-6.346c-.076 0-.173.02-.288.02v3.672h-1.577v-3.673c-.134 0-.23-.019-.327-.019H9.502a8.42 8.42 0 0 0-.98.077c-.731.096-.981.404-.962 1.173 0 .654.327 1.019 1.019 1.057.654.039 1.327.039 2 0 .846-.038 1.192-.596 1.019-1.5 0-.076-.02-.134-.039-.23h1.539c.403.961-.135 2.288-1.212 2.711-1.5.596-3.057.596-4.557.02-.923-.366-1.365-1.174-1.327-2.193.039-1.096.52-1.846 1.52-2.153a7.538 7.538 0 0 1 2.076-.308Zm9.518 1.923c-.038.23-.115.48-.096.711.058.654.596 1.077 1.365 1.077 1.077.02 2.154 0 3.23-.02H24c-.365.482-.692.885-1 1.27-.02.038-.096.077-.154.077-1.096-.02-2.192.038-3.25-.116-1.364-.211-2.23-1.307-2.191-2.538.019-.153.057-.288.077-.461ZM18.196 0v5.686h2.274l-5.49 6.588-5.49-6.588h2.431V0h6.274Z" fill="#F37021"/></svg>
