<svg width="13" height="14" viewBox="0 0 13 14" xmlns="http://www.w3.org/2000/svg"><path d="M13 12.289V6.631L8.617 9.519zM0 6.631v5.658l4.383-2.77zm6.723 4.136a.406.406 0 0 1-.446 0l-1.15-.758-5.102 3.226a.802.802 0 0 0 .787.686h11.376a.802.802 0 0 0 .786-.686l-5.1-3.225-1.15.757Zm4.652-6.816V1.735a.812.812 0 0 0-.813-.814H2.438a.812.812 0 0 0-.813.813v2.217L0 4.983v.675L1.625 6.73l.406.268.406.269V1.733h8.126v5.534l.406-.269.406-.268L13 5.658v-.675l-1.625-1.031Z"/><path d="M3.656 3.359h5.688a.406.406 0 1 0 0-.813H3.656a.406.406 0 1 0 0 .813Zm0 1.625h5.688a.406.406 0 1 0 0-.813H3.656a.406.406 0 1 0 0 .813Z"/></svg>
