<svg width="42" height="42" viewBox="0 0 42 42" xmlns="http://www.w3.org/2000/svg" fill="#f37021"><path d="M39.184 10.459a20.912 20.912 0 0 0-7.642-7.643C28.324.94 24.81 0 21 0c-3.81 0-7.324.939-10.542 2.816a20.907 20.907 0 0 0-7.642 7.643C.939 13.677 0 17.19 0 21c0 3.81.939 7.323 2.816 10.541a20.917 20.917 0 0 0 7.643 7.643C13.677 41.06 17.19 42 21 42c3.81 0 7.324-.939 10.542-2.816a20.907 20.907 0 0 0 7.642-7.643C41.061 28.323 42 24.81 42 21.001c0-3.81-.939-7.325-2.816-10.542ZM24.501 34.098a.898.898 0 0 1-.247.642.797.797 0 0 1-.601.26h-5.25a.865.865 0 0 1-.63-.274.864.864 0 0 1-.272-.628v-5.195c0-.238.09-.447.273-.63a.865.865 0 0 1 .629-.273h5.25c.237 0 .438.087.601.26a.901.901 0 0 1 .247.643v5.195Zm-.055-9.406c-.018.182-.114.341-.287.478a1.007 1.007 0 0 1-.642.205h-5.059a1.06 1.06 0 0 1-.656-.205c-.183-.137-.274-.296-.274-.478L17.063 7.71c0-.22.091-.383.273-.493A1.02 1.02 0 0 1 17.993 7h6.016c.256 0 .474.073.656.218.183.11.273.274.273.493l-.492 16.98Z"/></svg>
