<svg width="15" height="11" viewBox="0 0 15 11" xmlns="http://www.w3.org/2000/svg" fill="#15191C"><path d="M9.432 5.114A1.6 1.6 0 0 1 7.84 3.523c0-.282.082-.544.213-.774-.071-.006-.14-.022-.213-.022a2.402 2.402 0 0 0-2.386 2.387A2.402 2.402 0 0 0 7.84 7.5a2.402 2.402 0 0 0 2.386-2.386c0-.074-.016-.142-.021-.214a1.56 1.56 0 0 1-.774.214Z"/><path d="M7.5 0C1.806 0 .095 4.834.08 4.883l-.08.23.078.231c.017.05 1.728 4.883 7.422 4.883s7.405-4.834 7.42-4.883l.08-.23-.078-.231C14.905 4.833 13.194 0 7.5 0Zm0 8.766c-3.992 0-5.538-2.81-5.913-3.652C1.963 4.268 3.511 1.46 7.5 1.46c3.992 0 5.538 2.81 5.913 3.653-.376.846-1.924 3.652-5.913 3.652Z"/></svg>
