<svg width="114" height="130" viewBox="0 0 114 130" xmlns="http://www.w3.org/2000/svg"><path d="M56.915 0c.542 0 1.084.18 1.626.452.27.18 25.837 14.816 51.584 14.816 1.807 0 3.343 1.535 3.252 3.342v46.526c0 20.597-9.666 38.304-28.005 51.313-9.887 7.025-19.633 10.818-24.519 12.46l-.395.131c-1.666.55-2.68.823-2.82.87-.272.09-.543.09-.814.09-.27 0-.542 0-.813-.09-.542-.09-14.093-3.614-27.825-13.28C9.756 103.71 0 85.914 0 65.226V18.61c0-1.807 1.536-3.342 3.343-3.342C28.819 15.268 55.017.632 55.288.452A3.381 3.381 0 0 1 56.915 0Zm21.887 42.21a5.283 5.283 0 0 0-7.245.246L56.775 57.238 41.978 42.44 41.48 42a5.287 5.287 0 0 0-6.98 7.92l14.797 14.796-14.78 14.782-.444.497a5.282 5.282 0 0 0 7.913 6.972l14.782-14.782 14.805 14.804.497.438a5.287 5.287 0 0 0 6.979-7.913L64.246 64.709l14.78-14.779.443-.502a5.282 5.282 0 0 0-.667-7.218Z"/></svg>
