<svg width="361" height="229" viewBox="0 0 361 229" xmlns="http://www.w3.org/2000/svg" xmlns:xlink="http://www.w3.org/1999/xlink"><defs><path id="a" d="M0 0h320v190H0z"/></defs><g fill="none" fill-rule="evenodd"><text font-family="Poppins-Regular, Poppins" font-size="14" fill="#F37021" transform="translate(.21)">
                    <tspan x="348.857" y="227.197">5</tspan>
                </text><text font-family="Poppins-Regular, Poppins" font-size="14" fill="#F37021" transform="translate(.21)">
                    <tspan x="303.56" y="227.197">4</tspan>
                </text><text font-family="Poppins-Regular, Poppins" font-size="14" fill="#F37021" transform="translate(.21)">
                    <tspan x="258.55" y="227.197">3</tspan>
                </text><text font-family="Poppins-Regular, Poppins" font-size="14" fill="#F37021" transform="translate(.21)">
                    <tspan x="213.358" y="227.197">2</tspan>
                </text><text font-family="Poppins-Regular, Poppins" font-size="14" fill="#FFF" transform="translate(.21)">
                    <tspan x="147.938" y="227.197">NOV</tspan>
                </text><text font-family="Poppins-Regular, Poppins" font-size="14" fill="#F37021" transform="translate(.21)">
                    <tspan x="100.44" y="227.197">31</tspan>
                </text><text font-family="Poppins-Regular, Poppins" font-size="14" fill="#F37021" transform="translate(.21)">
                    <tspan x="46.994" y="227.197">30</tspan>
                </text><text font-family="Poppins-Regular, Poppins" font-size="14" fill="#FFF" transform="translate(.21)">
                    <tspan x="0" y="176.517">$0.99</tspan>
                </text><text font-family="Poppins-Regular, Poppins" font-size="14" fill="#FFF" transform="translate(.21)">
                    <tspan x="0" y="146.257">$0.99</tspan>
                </text><text font-family="Poppins-Regular, Poppins" font-size="14" fill="#FFF" transform="translate(.21)">
                    <tspan x="0" y="115.997">$1.00</tspan>
                </text><text font-family="Poppins-Regular, Poppins" font-size="14" fill="#FFF" transform="translate(.21)">
                    <tspan x="0" y="85.737">$1.08</tspan>
                </text><text font-family="Poppins-Regular, Poppins" font-size="14" fill="#FFF" transform="translate(.21)">
                    <tspan x="0" y="55.477">$1.09</tspan>
                </text><text font-family="Poppins-Regular, Poppins" font-size="14" fill="#FFF" transform="translate(.21)">
                    <tspan x="0" y="25.217">$1.10</tspan>
                </text><text font-family="Poppins-Regular, Poppins" font-size="14" fill="#FFF" transform="translate(.21)">
                    <tspan x="0" y="206.777">$0.99</tspan>
                </text><g stroke="#F37021" stroke-width=".5"><path stroke-dasharray="2" d="M46.5 20.5h312M46.5.5v201"/><path d="M163.5 191.5v10m54-6.182v6.364m-110-6.364v6.364m-52-6.364v6.364m207-6.364v6.364m45-6.364v6.364m46-6.364v6.364"/><path stroke-dasharray="2" d="M46.5 50.8h312m-312 30.3h312m-312 30.3h312m-312 30.3h312M46.5 172h312m-312 30.3h312"/></g><g transform="matrix(-1 0 0 1 366 0)"><path d="M0 0h320v190H0z"/><path d="M0 0h320v190H0z"/><mask id="b" fill="#fff"><use xlink:href="#a"/></mask><g/><g mask="url(#b)" stroke="#00FF2D" stroke-linecap="round" stroke-width="2"><path d="m6.919 7.422 1.773 10.391m.178 0 1.774 13.359m.177 0 1.774 26.719m.178 0 1.773 29.687m.178 0 1.773-11.875m.178 0 1.773-4.453m2.129 0 1.774 35.625m.178-1.484 1.773-8.906m.178 0 1.773 14.843m.178 0 1.774-37.109m.177 0 1.774 4.453m.177-1.484 1.774 4.453m.178 0 1.773-11.875m.178 1.484 1.773-32.656m.178 0 1.774 14.844m1.153 0 1.773 29.687m.178-1.484 1.774 34.14m.177 0 1.774 13.36m.178-.042 1.773-4.37m2.129 1.443 1.774-16.328m.177 0 1.774 7.422m.178-1.485 1.773 25.235m.178.293 1.773-2.071m.178.293 1.773 22.266m.178-1.309 1.774 4.103m.177.175 1.774-5.938m.178-.122 1.773-4.209m.178.773 1.773-.306m.178-.589 1.774-8.906m.177 0 1.774 8.906m.177 0 1.774 10.391m.178 0 1.773-4.453m.178 0 1.773-8.907m2.129 0 1.774 8.907m.178.703 1.773-2.891m.178-.781 1.773-8.906m.178 0 1.774-4.453m-.798 0 1.773 4.453m.178 0 1.773 7.422m.178 1.484 1.774-7.422m.177 0 1.774 5.938m.178 0 1.773-17.813m.178-1.04 1.773.596m.178-.451 1.773.306m1.154.825 1.773 3.981m.178-1.248 1.774-20.781m2.128 1.484 1.774 5.937m.178 0 1.773-20.781m.178-1.484 1.773 23.75m.178.492 1.774.5m.177.231 1.774-.962m.178-.261 1.773 10.39m.178.756 1.773-2.996m.178-.4 1.773.828m.178.328 1.774-11.875m.177-.169 1.774-1.146m.178-.169 1.773 8.906m.178 1.484 1.773-8.906m.178 0 1.774-7.422m.177 0 1.774 8.906m2.129 0 1.773-26.718m.178 0 1.773-19.297m.178 0 1.774 10.39m.177.422 1.774-2.328m.178-.513 1.773.386m.178.549 1.773-20.781m.178-1.485 1.774 16.329m.177 0 1.774 13.359m.177.308 1.774-2.1m.178.308 1.773 8.906m.178 0L156.009 95m.178.943 1.774-.402m.177-.541 1.774 17.813m3.104 0 1.774-5.938m.178.244 1.773-1.972m.178.165 1.773-1.327m.178-.079 1.774-5.937m.177-.422 1.774 2.328m.178.398 1.773-3.124m.178-.2 1.773.556m.178.097 1.773-3.72m.178 1.118 1.774 7.422m.177 0 1.774 4.453m.178.74 1.773 2.974m.178.739 1.773-5.937m.178 0 1.774 11.875m1.153 0 1.773 16.328m1.154-1.484 1.773 10.39m.178 0 1.773-5.937m.178 0 1.774 25.234m.177 0 1.774-8.906m.178-.383 1.773-.719m.178-.058 1.773 3.804m.178.193 1.774-1.221m.177 1.353 1.774-5.938m.177 0 1.774 5.938m.178 0 1.773-7.422m.178 0 1.773 5.937m.178 0 1.774-7.422m.177 0 1.774 5.938m2.129-1.485 1.773 25.235m.178 0 1.774-7.422m1.153 0 1.773 7.422m.178 0 1.774-4.453m.177 0 1.774-11.875m.177-1.485 1.774-10.39m.178.697 1.773-2.879m.178.697 1.773-7.422m.178.421 1.774.643m.177-.496 1.774 3.318m-.798.568 1.773 4.453m.178-.117 1.774 1.718m.177-.511 1.774-.696m1.153-.394 1.774-5.938m1.153.558 1.774 3.337m.177-.926 1.774 14.844m.178-.454 1.773 2.392m.178.562 1.773 2.421m.178-.468 1.773-11.875m.178-.067 1.774-1.351m.177.75 1.774-3.118m.178.817 1.773 7.422m.178-.35 1.773-.784m.178.204 1.774 3.344m.177-.23 1.774-2.884m.177-.068 1.774 3.02m.178.717 1.773 11.875m1.154-1.022 1.773 3.528m1.153.543 1.774-1.646m.178.081 1.773 5.938m.178 0 1.773-7.422m1.154 0 1.773-4.453m.178 0 1.773-4.454m.178 0L290.644 95m.177 0 1.774 25.235m.178-1.485 1.773-4.453m.178 0 1.773 8.906m.178 0 1.773 7.422m.178 0 1.774-7.422m.177 0 1.774 7.422m1.153 0 1.774-4.453m1.153 0 1.774-4.453m.177 0 1.774-13.359m.177 0 1.774 22.265m.178.633 1.773.218m.178-.94 1.773-1.306"/></g></g></g></svg>
