<svg width="16" height="15" viewBox="0 0 16 15" xmlns="http://www.w3.org/2000/svg"><g fill="#F37021"><path d="M5.606 8.843a3.04 3.04 0 0 1-2.83-3.028 3.042 3.042 0 0 1 3.039-3.039c1.345 0 2.487.88 2.886 2.093.024 0 .046-.007.07-.007.183 0 .36.034.525.098.152-.342.434-.612.781-.754a4.524 4.524 0 0 0-.233-.524l.694-.694a.477.477 0 0 0 0-.675L9.316 1.092a.477.477 0 0 0-.675 0l-.694.694a4.531 4.531 0 0 0-.791-.33v-.98A.477.477 0 0 0 6.679 0H4.95a.477.477 0 0 0-.477.477v.98c-.276.084-.54.196-.792.329l-.693-.694a.477.477 0 0 0-.675 0L1.092 2.314a.477.477 0 0 0 0 .674l.694.694a4.537 4.537 0 0 0-.33.792h-.98A.477.477 0 0 0 0 4.95v1.728c0 .264.214.477.477.477h.98c.084.277.196.54.329.792l-.694.694a.477.477 0 0 0 0 .675l1.222 1.221a.477.477 0 0 0 .674 0l.694-.693c.251.133.516.245.792.33v.98c0 .263.214.476.477.476h1.117a1.446 1.446 0 0 1-.498-1.091c0-.278-.022-1.428.036-1.696Z"/><path d="M7.746 5.286c.059-.058.123-.108.19-.155a2.234 2.234 0 0 0-2.121-1.555 2.241 2.241 0 0 0-2.239 2.239 2.224 2.224 0 0 0 2.53 2.21c.1-.082.21-.151.328-.204-.422-1.092.465-1.688 1.312-2.535Zm3.572 2.7A1.86 1.86 0 0 0 9.46 9.844a1.86 1.86 0 0 0 1.858 1.857 1.86 1.86 0 0 0 1.858-1.857 1.86 1.86 0 0 0-1.858-1.858Z"/><path d="M16 9.148a.384.384 0 0 0-.384-.384h-.789a3.65 3.65 0 0 0-.265-.638l.558-.558a.384.384 0 0 0 0-.544l-.983-.983a.384.384 0 0 0-.543 0l-.56.559a3.63 3.63 0 0 0-.637-.265v-.789a.384.384 0 0 0-.384-.384h-1.39a.384.384 0 0 0-.384.384v.789A3.644 3.644 0 0 0 9.6 6.6l-.558-.559a.383.383 0 0 0-.543 0l-.984.984a.384.384 0 0 0 0 .543l.558.558a3.646 3.646 0 0 0-.265.638H7.02a.384.384 0 0 0-.383.384v1.391c0 .212.171.384.383.384h.789c.068.222.158.435.265.637l-.559.559a.384.384 0 0 0 0 .543l.984.984a.384.384 0 0 0 .543 0l.558-.559c.203.108.416.198.639.266v.789c0 .212.172.384.384.384h1.39a.384.384 0 0 0 .384-.384v-.79c.223-.067.436-.157.638-.265l.56.56a.382.382 0 0 0 .542 0l.984-.984a.384.384 0 0 0 0-.543l-.56-.56c.108-.201.198-.414.266-.637h.789a.384.384 0 0 0 .384-.384V9.148Zm-4.682 3.087a2.394 2.394 0 0 1-2.391-2.391 2.394 2.394 0 0 1 2.39-2.391 2.394 2.394 0 0 1 2.392 2.39 2.394 2.394 0 0 1-2.391 2.392Z"/></g></svg>
