<svg width="13" height="13" viewBox="0 0 13 13" xmlns="http://www.w3.org/2000/svg"><path d="M6.5 0a6.5 6.5 0 1 0 0 13 6.5 6.5 0 0 0 0-13Zm0 12.342A5.848 5.848 0 0 1 .658 6.5a5.81 5.81 0 0 1 1.126-3.434c.178-.1.3-.268.557-.212 0 .045.034.134.034.156.122-.022.19-.133.223-.267.19.19-.011.49-.078.68.658.089.435-.368.524-.758.078-.346.68-.49.58-.926a.861.861 0 0 0-.547.1c-.011-.022-.011-.044-.011-.077.212-.145.424-.28.647-.413.379-.011.457.335.067.48-.134.434.39.189.524.133.156-.078.133-.1.334-.134.178-.033.312.023.468-.066-.145.468-.736.468-.992.825-.368.535.58.368.88.122.19-.156.246-.423.425-.546.211-.145.501-.033.557-.323.011-.067-.19-.457-.2-.502-.112-.268-.257-.234 0-.546-.068.01-.134-.012-.201-.012V.702c.312-.044.624-.089.958-.089.301 0 .603.023.892.067.212.134.368.346.569.546.58.569-.301.39-.234.803.033.234.323.112.123.468-.112.201-.38.235-.335.48-.457.078-.714-.301-1.17-.123-.224.09-.469.223-.525.435-.078.368.223.334.457.524.201.156.179.156.123.49-.044.302-.033.424-.323.536-.134.044-.312.022-.435.1-.033.022-.078.2-.134.245-.156.112-.624.067-.502.413.179.022.28-.078.435-.078.335-.011.156.044.38.223.245.19.601.212.902.334.145.067.246.179.424.156.045.28-.19.346-.412.413-.335.1-.435.078-.625-.223-.245-.368-.3-.256-.77-.312-.2-.011-.735-.078-.869-.234-.156-.201.034-.48.201-.591.268-.19.334-.145.49-.413.201-.3.201-.2.48-.323.234-.1.424-.257.412-.535-.156-.034-.234-.179-.234-.324l-.278-.1c.022.123.39 1.048-.134.792-.2-.1 0-.993-.546-.814.022.256-.067.3-.246.446-.256.223-.267 0-.19.334.068.223.224.19.134.48-.044.19-.323.2-.078.446a.597.597 0 0 1-.345-.034c-.301.301-.134.39-.257.77-.122.39-.624.501-.892.78-.457.48-.58 1.717.067 2.074.502.278 1.004.01 1.505.2.335.123.435.324.48.647.044.368.368.58.424 1.026.033.368.01.613.256.903.123.134.368.368.546.446.301.122.39-.011.647-.134.09-.033.234-.067.323-.1.223-.112.123-.023.246-.212.122-.179.178-.39.334-.569.212-.212.279-.279.39-.557.09-.212.1-.435.19-.67.089-.222.312-.423.435-.612.133-.201.178-.469.334-.647-.2.011-.557.09-.758.022-.223-.078-.268-.323-.424-.502-.245-.323-.68-.813-.658-1.27.157-.023.625.825.725.992.335.49.558.345.992.145.212-.1 1.07-.591.714-.903-.234-.201-1.17.323-1.07-.257.379-.011.836-.033 1.215-.111.19-.034.334-.145.524-.123.033 0 .111.178.178.2.1.034.268 0 .38 0 .022.268.367 1.038.724.948.022-.59 0-1.137.145-1.705.145-.023.301-.012.457-.012.011.145.011.301.011.458-.01 3.255-2.63 5.875-5.853 5.875Z"/></svg>
