<svg width="84" height="84" viewBox="0 0 84 84" xmlns="http://www.w3.org/2000/svg"><g fill="none"><path d="M42 1c11.153 0 21.303 4.512 28.714 11.802 7.424 7.303 12.098 17.392 12.28 28.531L83 42c0 11.153-4.512 21.303-11.802 28.714-7.303 7.424-17.392 12.098-28.531 12.28L42 83c-11.153 0-21.303-4.512-28.714-11.802-7.424-7.303-12.098-17.392-12.28-28.531L1 42c0-11.153 4.512-21.303 11.802-28.714 7.303-7.424 17.392-12.098 28.531-12.28Z" stroke="#FFF" stroke-width="2" fill="#F37021"/><g fill="#000"><path d="M53 41c.5 0 1-.5 1.5-.5-2-.5-2 .5-4 .5 1.5.5 2 .5 2.5 0Zm-25 .5s-1-9 9.5-15.5c1-.5 3-2 4.5-3 13-9 6.5-17.5 6.5-17.5C49 9 47.5 12 45 14c-1 .5-1.5 1.5-3 2.5-2 1-4 2.5-6 4-1.5 1-4 3-5.5 5-1 1.5-2.5 3.5-3 6-1 3.5-1 7 .5 10Zm34.5 2 .5-.5h-1s.5 0 .5.5Zm-.5 0c0 .5.5 0 .5.5h.5c0-.5-.5-.5-1-.5Z"/><path d="M35 29.5c-5 4.5-6 10-4.5 14.5.5 2 1.5 3.5 2.5 5l2 2c.5 0 .5.5 1 1h.5c2 1 4.5 2 6.5 1.5.5 0 1.5 0 2-.5.5 0 .5 0 1-.5h1.5s.5 0 .5-.5h.5s.5 0 .5-.5h.5l.5-.5c.5 0 .5-.5 1-.5l.5-.5 1-1c-3.5 1.5-8 3.5-11.5 3-.5 0-1 0-1-.5-2 0-3-1-3.5-1.5-.5-1-1-2-1-2.5v-1c0-.5 0-.5.5-1V45s0-.5.5-.5v-2c0 1-.5 1.5-1 2l-1 1v-3C35 41 35.5 39 37 37s3.5-4 7-6c1-.5 2-1 3-2s2-1.5 3-2.5c3.5-4 4-9.5 2-12.5-.5 7.5-11 11-17 15.5Z"/><path d="M60 43h-.5s-.5-.5-.5-1c0 0 .5.5 1 .5 0 0 0-.5.5-.5 0 0 0 .5.5.5l.5.5s0-.5.5-.5c0 0 0-.5-.5-1-.5.5 0 .5.5.5h.5v-.5s-.5-.5-1 0c0 0 0-.5-.5-.5h1.5c0-.5-.5-.5-.5-.5V40h-2s-1 0-2 .5c-.5 0-.5 0-1 .5h-.5c-2 1-2 1-3 1 2 1 2.5 0 3.5-.5s1 .5 0 1h-1.5c.5.5.5.5 1 .5H55c.5 0 .5.5.5.5H54l-1 1h-2l-2-.5h-1.5c-1 0-6.5 1-6.5 1l-1.5-1H39c-.5 0-.5.5-.5.5v.5l-.5.5v.5l.5 1h.5-.5v-.5H40l.5-.5h.5s4 1 7 0c0 0-1 .5-1.5 1 0 0 1.5.5 2.5-.5v1h.5V47H53c0-.5-.5-.5-.5-.5h1c0 .5.5 1 .5 1h-1c-.5 0-.5 0-1 .5h-2l2.5-1s-.5.5-.5 1c-4 6.5-10 8-15.5 6H36c-.5 0-1-.5-1.5-.5 0 0-.5 0-.5-.5h-.5c-.5-.5-1.5-1-2-1.5-4.5-3.5-7-9-6-14C21 48 29 58 38.5 60c1-1 2.5-2 4-3l.5-.5h.5C44 56 45 56 45 56h.5c-.5 0-1 .5-1.5.5 0 0-.5 0-.5.5-.5 0-.5.5-1 .5-2 1.5-3 2-4.5 3-1 .5-1.5 1.5-1.5 1.5h-1c-.5 0-3 1-4 1.5H31s-.5 1-1.5 1.5c0 .5-.5.5-.5 1l-.5.5h1s-2 .5-2.5 1h-1c-.5 0-1 .5-1 1-.5.5-1 1-2 1.5 0 0-1 1.5-.5 2.5 0 0 .5.5.5 1h.5c-1.5-1.5 0-2.5 0-2.5 0 .5.5 1 .5 1 0-.5 1-1.5 1.5-2s1.5-1 2-1.5h.5c-.5.5-2.5 2-3.5 3v1s.5 0 .5.5v-1.5s2 0 4.5-2.5c0 0 3.5-1.5 6.5-2 1-.5 1.5-.5 1.5-.5s1.5 0 2.5-.5h1s4.5-2 6-3l-1 1s2-1 3.5-1.5c.5-.5 1.5-1 1.5-1 1 .5 2.5-1.5 2.5-1.5l.5.5c.5 0 1.5-.5 2-.5-.5 0-1.5.5-2 0 1.5 0 2-.5 3-2-1.5.5-2 1.5-4 .5 2 .5 3-1 6-2l.5-.5s-1-1-2-1c0 0-1-1-1-2 1 1 2 2.5 3 1.5l-2-1c0-.5-1-2-.5-2.5.5 1 1.5 3 3.5 3 0 0 0 .5.5.5s1-.5 1-1c-.5 0-1 0-1-.5 0 0-1-.5-1.5-2v1.5s-2-1.5-1-2c0-.5-.5-2-.5-3 0 0 1 2.5 1.5 3 0-.5-1-3.5-.5-3.5l-3-2v-.5h.5L56 44v-.5c.5 0 1 0 1.5.5 0 0 1 1 1 2v-1s1-1.5 1.5-1.5c-.5 1-1 2.5-1.5 3.5h.5c.5-.5 1.5 4.5 1.5 5.5 0-1 .5-4.5-.5-8l.5.5.5.5s1-.5 2-.5c0 0-.5.5-1 .5 0 0-.5 1-.5 2l1-2c1-.5 1.5-1 1.5-1l-3-1c-1 .5-1 0-1-.5Zm-7 1.5h-2.5L50 44c1.5-.5 3 0 3 0 .5-.5 1-.5 1-.5-1 .5-1 1-1 1Zm1.5 5S53 51 53 52v-.5c0-1.5 1-1.5 1.5-3V48v1.5ZM55 51v2c-1-1 0-2 0-2Zm-1.5 1v1.5c-.5-.5 0-1.5 0-1.5ZM51 54.5c0 .5 0 .5-.5.5v.5-1c0-.5 0-.5.5-1V53c-.5 1.5 0 1.5 0 1.5Zm1-3c0 .5 0 .5 0 0V53c-.5 0-2 1-2 1h-1c-.5 0-1 .5-1 .5-.5 0-1.5-.5-1.5-.5-.5 0-1.5.5-2 .5h-1 3c.5 0 .5-.5 1-.5h2c.5 0 .5 0 1-.5 0 0 0-.5.5-1 0-.5.5-1 .5-1-.5-1.5 0-2.5.5-3-.5 1.5 0 3 0 3 .5-.5.5-.5 0 0 0-.5 0-.5 0 0Zm.5 3.5c-.5-1 0-2 0-2v2Zm.5 2v-1c0 .5 1 1 1 1h-1Zm2.5-.5h-1c-.5-1-1-1.5-.5-2 .5.5 1.5 2 1.5 2ZM56 48c.5 1 0 2.5.5 3.5-.5 0-.5-.5-.5-.5-.5-.5-.5-1-.5-1.5s0-1-.5-1.5l-.5-.5h.5c.5-.5.5 0 1 .5Zm4 4.5s0 .5 0 0c0 .5 0 0 0 0Z"/><path d="M36.5 44.5s0 .5-.5.5v.5c0-.5 0-.5.5-1Z"/></g><g fill="#BA5C2D"><path d="M56.5 40s.5 0 1-.5c-.5 0-2-.5-2.5 0 .5.5 1 .5 1.5.5 0 .5 0 0 0 0Zm0 1c-1.5.5-2 1-3.5.5 1 0 1.5 0 3-1h-1.5c-.5 0-1 .5-1.5.5l-.5.5c-.5.5-1.5.5-2.5.5 1.5 1 2 .5 3 0s1.5-.5 2.5 0H57c.5-.5.5-1.5-.5-1Zm-18-4c-2.5 2-3.5 4-4 5.5v3c0-.5.5-.5 1-1s.5-1 1-2.5c.5.5.5 1 0 1.5.5-1.5.5-3.5 2-6.5ZM37 37c5-4 14-5 15.5-13.5 0 .5-.5 1.5-2.5 3-1 1-2 2-3 2.5-1 1-2 1.5-3 2-3.5 2-5.5 4-7 6Zm-1-16.5c2-1.5 4-3 6-4 1.5-1 2.5-1.5 3-2.5 1-1 1-2.5 1.5-4.5 0 3.5-12 11.5-16 16.5l.5-.5c1-2 3.5-4 5-5Z"/><path d="M52 48c.5-.5.5-1 .5-1s-.5.5-.5 1c-.5 0-.5 0 0 0l-1 1-.5.5c-.5 0-.5.5-1 .5l-.5.5h-.5s-.5 0-.5.5h-.5s-.5 0-.5.5h-1.5c-.5 0-.5 0-1 .5-.5 0-1.5.5-2 .5C40 53 38 52 36 51h-.5c-.5 0-1-.5-1-1-.5.5-1-.5-1.5-1-1-1.5-2-3-2.5-5C29 39.5 30 34 35 29.5c-4 2.5-9 10.5-5.5 19-1-1.5-2-2.5-2.5-4.5-.5-1.5.5-4-.5-5v1.5c0 1.5-1 1.5-1 0 0-2 1-2 0-4.5v1.5c-1 5 1.5 10.5 6 14 .5.5 1.5 1 2 1.5h.5s.5 0 .5.5c.5.5 1 .5 1.5.5h.5c5.5 2 11.5.5 15.5-6Z"/></g><g fill="#BA5C2D"><path d="M55 47c-.5 0-.5 0 0 0-.5 0-.5 0 0 0-.5 0-.5 0 0 0v.5c.5.5.5 1 .5 1.5s0 1 .5 1.5c0 .5.5.5.5.5-.5-1-.5-2.5-.5-3.5-.5 0-.5-.5-1-.5Zm-.5 1c0 .5 0 .5 0 0-.5 1.5-1.5 2-1.5 3.5v.5c.5-1 1.5-2.5 1.5-2.5V48Zm.5 5v-2s-1 1 0 2Zm-1.5 1v-1.5c0-.5-.5.5 0 1.5Zm-1 1v-2c0 .5-.5 1 0 2Zm-.5-3.5c0-.5 0-.5 0 0V51s-.5-1 0-3c0 .5-.5 1.5-.5 3 0 0 0 .5-.5 1 0 .5-.5 1-.5 1s-.5 0-1 .5h-2c-.5 0-.5 0-1 .5h-3 1c1 0 1.5-.5 2-.5 0 0 1 .5 1.5.5 0 0 .5 0 1-.5.5 0 1-.5 1 0 0 0 1.5-1 2-1v-1c0 .5 0 .5 0 0Zm-1.5 3c0 .5 0 .5 0 0 0 .5 0 .5 0 0-.5.5-.5 1-.5 1v1-.5c.5-1 .5-1 .5-1.5 0 .5 0 .5 0 0 0 .5.5.5 0 0 .5.5.5.5 0 0 .5 0 .5 0 0 0l.5-.5c0 .5 0 .5-.5.5.5 0 0 0 0 0Zm-5.5 1c-.5 0-1 0-2 .5h-.5l-.5.5c-1.5 1-2.5 2-4 3l-.5.5c2-1 2.5-1.5 4.5-3 .5 0 .5-.5 1-.5 0 0 .5 0 .5-.5.5 0 1.5 0 1.5-.5.5.5.5.5 0 0ZM30.5 63c-1 1-3 3.5-3 3.5-1.5 0-1.5 1-1.5 1-.5 0-1.5.5-1.5.5-1 1.5-3 2.5-3 2.5-1 1.5-.5 3-.5 3 0 .5.5.5 1 1-.5-.5-.5-1-.5-1-.5-1.5.5-3 .5-3 1-.5 1.5-1 2-1.5s.5-1 1-1h1c1-.5 2.5-1 2.5-1h-1l.5-.5s.5-.5.5-1l.5-.5c1.5-1 2-1.5 1.5-2 .5.5.5.5 0 0l.5.5c1.5-1 4-1.5 4.5-1.5-3 0-5 1-5 1Z"/><path d="M24.5 71c-.5.5-1.5 1.5-1.5 2 0 0-.5-.5-.5-1 0 0-1.5 1 0 2.5 0-.5.5-1 .5-1s.5 0 .5.5v-1c1-1 3-2.5 3.5-3h-.5c-.5 0-1.5.5-2 1ZM41 44.5c.5 0 5.5-.5 6.5-.5l1.5.5 1.5-.5h2l1-1H55l-.5-.5c-.5 0-.5-.5-1-.5l-1 1H51s-1 .5-1.5.5c0 0-1-.5-1.5-.5-.5.5-5.5 1-7 1.5Zm-2.5.5.5-.5s.5 0 .5-.5h.5-1c-.5 0-.5.5-.5 1-.5 0-.5.5 0 0-.5.5 0 0 0 0Z"/></g></g></svg>
