<svg width="20" height="16" viewBox="0 0 20 16" xmlns="http://www.w3.org/2000/svg"><g fill="#F37021"><path d="M12.568 10.147a.491.491 0 0 0-.485-.485H7.496a.491.491 0 0 0-.485.485c0 .274.233.485.485.485h4.59c.252.022.482-.21.482-.485ZM7.496 6.041h4.59a.491.491 0 0 0 .485-.485.507.507 0 0 0-.485-.485h-4.59a.491.491 0 0 0-.485.485c0 .256.21.485.485.485Zm0 2.297h4.59a.491.491 0 0 0 .485-.485.491.491 0 0 0-.485-.485h-4.59a.491.491 0 0 0-.485.485c-.022.275.21.485.485.485Z"/><path d="M18.82 0H5.305c-.655 0-1.18.526-1.18 1.18v4.4c.379.064.758.17 1.093.357V3.432h13.684v8.421a.396.396 0 0 1-.398.399H8.128c.146.338.252.695.293 1.094h10.083c.82 0 1.496-.673 1.496-1.496V1.18C20 .526 19.474 0 18.82 0ZM6.17 2.338a.633.633 0 0 1-.632-.631.632.632 0 0 1 1.263 0c-.023.357-.297.631-.632.631Zm1.894 0a.633.633 0 0 1-.632-.631.633.633 0 0 1 1.263 0 .621.621 0 0 1-.631.631Zm1.913 0a.633.633 0 0 1-.631-.631.632.632 0 0 1 1.263 0c-.019.357-.293.631-.632.631ZM5.83 11.432a3.283 3.283 0 0 1-2.168.801 3.28 3.28 0 0 1-2.147-.8C.655 11.852 0 12.608 0 13.852v1.391c0 .252.21.463.462.463h6.399c.252 0 .462-.21.462-.463v-1.39c.004-1.245-.65-2-1.492-2.422Z"/><path d="M5.872 8.883a2.21 2.21 0 0 1-2.21 2.211 2.21 2.21 0 0 1-2.21-2.21 2.21 2.21 0 0 1 2.21-2.211 2.21 2.21 0 0 1 2.21 2.21m10.151 1.222a.59.59 0 0 1-.59.59.589.589 0 0 1-.59-.59.591.591 0 0 1 1.18 0m.21-1.872c.17-.128.399-.293.632-.59a1.626 1.626 0 0 0 .127-1.684c-.293-.59-.906-.925-1.62-.925-1.135 0-1.707.778-1.83 1.579a.276.276 0 0 0 .274.316h.42a.292.292 0 0 0 .275-.234c.064-.315.252-.695.865-.695.485 0 .673.252.76.398.105.234.105.485-.042.673-.128.188-.274.275-.421.38-.357.252-.654.526-.714 1.263-.023.17.105.294.274.294h.421c.147 0 .275-.106.275-.252.03-.335.112-.399.304-.523Z"/></g></svg>
