<svg width="20" height="17" viewBox="0 0 20 17" xmlns="http://www.w3.org/2000/svg"><path d="M18.462 0H1.538C.692 0 0 .692 0 1.538v13.847c0 .846.692 1.538 1.538 1.538h16.924c.846 0 1.538-.692 1.538-1.538V1.538C20 .692 19.308 0 18.462 0ZM3.846 15.385H1.538v-2.308h2.308v2.308Zm0-3.847H1.538V9.231h2.308v2.307Zm0-3.846H1.538V5.385h2.308v2.307Zm0-3.846H1.538V1.538h2.308v2.308Zm6.308 9.077c-.539 0-.923-.385-.923-.923s.384-.923.923-.923c.538 0 .923.385.923.923s-.462.923-.923.923Zm2.23-4.846c-.384.461-.769.77-1 .923-.307.23-.46.308-.46.846 0 .23-.232.385-.462.385h-.693a.496.496 0 0 1-.461-.462c.077-1.154.538-1.615 1.154-2 .23-.154.461-.307.692-.615.23-.23.23-.616.077-1-.154-.23-.462-.616-1.231-.616-1 0-1.308.616-1.385 1.077 0 .231-.23.385-.461.385h-.616c-.23 0-.461-.23-.461-.538.23-1.308 1.077-2.539 2.923-2.539 1.154 0 2.077.539 2.538 1.462.462.923.385 1.923-.153 2.692Zm6.078 7.308h-2.308v-2.308h2.308v2.308Zm0-3.847h-2.308V9.231h2.308v2.307Zm0-3.846h-2.308V5.385h2.308v2.307Zm0-3.846h-2.308V1.538h2.308v2.308Z" fill="#F37021"/></svg>
