<svg width="50" height="51" viewBox="0 0 50 51" xmlns="http://www.w3.org/2000/svg" xmlns:xlink="http://www.w3.org/1999/xlink"><defs><linearGradient x1="84.195%" y1="26.724%" x2="5.46%" y2="85.919%" id="a"><stop stop-color="#FFF" offset="0%"/><stop stop-color="#D8D8D8" stop-opacity=".622" offset="100%"/></linearGradient><linearGradient x1="50%" y1="0%" x2="50%" y2="100%" id="b"><stop stop-color="#FFF" offset="0%"/><stop stop-color="#E7E7E7" offset="100%"/></linearGradient><filter x="-15.5%" y="-15.5%" width="131.1%" height="131.1%" filterUnits="objectBoundingBox" id="d"><feMorphology radius="3" in="SourceAlpha" result="shadowSpreadInner1"/><feGaussianBlur stdDeviation="5" in="shadowSpreadInner1" result="shadowBlurInner1"/><feOffset in="shadowBlurInner1" result="shadowOffsetInner1"/><feComposite in="shadowOffsetInner1" in2="SourceAlpha" operator="arithmetic" k2="-1" k3="1" result="shadowInnerInner1"/><feColorMatrix values="0 0 0 0 0.890196078 0 0 0 0 0.898039216 0 0 0 0 0.925490196 0 0 0 1 0" in="shadowInnerInner1" result="shadowMatrixInner1"/><feOffset in="SourceAlpha" result="shadowOffsetInner2"/><feComposite in="shadowOffsetInner2" in2="SourceAlpha" operator="arithmetic" k2="-1" k3="1" result="shadowInnerInner2"/><feColorMatrix values="0 0 0 0 0 0 0 0 0 0 0 0 0 0 0 0 0 0 0.154629794 0" in="shadowInnerInner2" result="shadowMatrixInner2"/><feMerge><feMergeNode in="shadowMatrixInner1"/><feMergeNode in="shadowMatrixInner2"/></feMerge></filter><path d="M24.081 45.152c11.545 0 20.904-9.359 20.904-20.904 0-11.544-9.359-20.903-20.904-20.903S3.177 12.704 3.177 24.248c0 11.545 9.36 20.904 20.904 20.904Z" id="c"/></defs><g fill="none" fill-rule="evenodd"><g transform="translate(.994 1.354)"><circle stroke="url(#a)" stroke-width=".5" fill="#EAEAEA" cx="24.248" cy="24.248" r="24.498"/><use fill="url(#b)" xlink:href="#c"/><use fill="#000" filter="url(#d)" xlink:href="#c"/><path d="M24.081 3.345c11.545 0 20.904 9.359 20.904 20.903 0 11.545-9.359 20.904-20.904 20.904S3.177 35.793 3.177 24.248c0-11.544 9.36-20.903 20.904-20.903Zm0 .669c-11.175 0-20.235 9.059-20.235 20.234 0 11.176 9.06 20.235 20.235 20.235 11.176 0 20.235-9.06 20.235-20.235 0-11.175-9.06-20.234-20.235-20.234Z" fill="#C7C7C7"/></g><path d="M20.728 33.338h9.835c1.22 0 1.94-.718 1.94-1.88v-6.51l.675.56c.218.19.48.32.741.32.56 0 .952-.349.952-.887a.99.99 0 0 0-.378-.769l-1.99-1.67v-3.233c0-.342-.218-.56-.552-.56h-1.337c-.341 0-.566.218-.566.56v1.162l-3.11-2.608c-.77-.646-1.772-.646-2.542 0l-7.569 6.356a.994.994 0 0 0-.377.756c0 .508.37.893.951.893.27 0 .53-.13.748-.32l.64-.53v6.48c0 1.162.719 1.88 1.94 1.88Zm7.01-6.464c0-.349-.226-.574-.574-.574h-3.007c-.35 0-.581.225-.581.574v4.59h-2.238c-.436 0-.675-.246-.675-.682v-7.38l4.605-3.857c.254-.225.537-.225.806 0l4.555 3.828v7.409c0 .436-.24.683-.669.683h-2.222v-4.591Z" fill="#F37021" fill-rule="nonzero"/></g></svg>
