<svg width="13" height="11" viewBox="0 0 13 11" xmlns="http://www.w3.org/2000/svg"><path d="M11.917 0H1.083C.485 0 0 .485 0 1.083v.361h13v-.36C13 .484 12.515 0 11.917 0ZM0 9.028c0 .598.485 1.083 1.083 1.083h10.834c.598 0 1.083-.485 1.083-1.083V2.167H0v6.86Zm7.944-5.236c0-.1.082-.18.181-.18h3.25c.1 0 .18.08.18.18v.36c0 .1-.08.181-.18.181h-3.25a.18.18 0 0 1-.18-.18v-.361Zm0 1.444c0-.1.082-.18.181-.18h3.25c.1 0 .18.08.18.18v.361c0 .1-.08.18-.18.18h-3.25a.18.18 0 0 1-.18-.18v-.36Zm0 1.445c0-.1.082-.181.181-.181h3.25c.1 0 .18.081.18.18v.362a.18.18 0 0 1-.18.18h-3.25a.18.18 0 0 1-.18-.18V6.68ZM3.972 3.61a1.446 1.446 0 0 1 0 2.889 1.446 1.446 0 0 1-1.444-1.444c0-.797.648-1.445 1.444-1.445ZM1.514 8.22c.19-.58.734-.998 1.375-.998h.185a2.338 2.338 0 0 0 1.796 0h.186c.64 0 1.184.418 1.374.998.072.223-.117.447-.352.447H1.866c-.234 0-.424-.226-.352-.447Z"/></svg>
