<svg width="20" height="20" viewBox="0 0 20 20" xmlns="http://www.w3.org/2000/svg"><g fill="#F37021"><path d="m6.111 9.167-.555 1.722h1.11z"/><path d="M16.833 1.667H7.944v2.777h2.223v1.112H2.944c-.944 0-1.666.722-1.666 1.666v6.111C1.278 14.278 2 15 2.944 15H3.5v2.833L7 15h3.722v-3.889h6.111c.945 0 1.667-.722 1.667-1.667v-6.11c0-.945-.722-1.667-1.667-1.667ZM7.278 12.722 7 11.833H5.278l-.334.89H3.611l1.833-4.945h1.334l1.833 4.944H7.278Zm8.444-4.389v1.111c-.722 0-1.5-.222-2.166-.555-.667.333-1.445.5-2.223.555l-.055-1.11a4.23 4.23 0 0 0 1.166-.167c-.5-.5-.833-1.111-1-1.778h1.167c.167.5.5.889.889 1.222.611-.5 1-1.222 1.056-2.055h-3.334V4.444h1.667v-1.11H14v1.11h1.833L15.89 5a4.224 4.224 0 0 1-1.222 3.167c.389.11.722.166 1.055.166Z"/><path d="M0 0h20v20H0z" fill="none"/></g></svg>
