<svg width="16" height="16" viewBox="0 0 16 16" xmlns="http://www.w3.org/2000/svg"><g fill="#FFF"><path d="M2.088 16c-.195-.037-.39-.068-.576-.133A2.302 2.302 0 0 1 0 13.789V2.883C0 1.74.78.802 1.908.603c.337-.058.684-.04 1.024-.024.285.015.504.281.501.572a.564.564 0 0 1-.516.557c-.192.012-.384.006-.576.006-.708 0-1.197.489-1.197 1.194v10.76c0 .705.489 1.19 1.194 1.19h11.326c.706 0 1.191-.485 1.191-1.193V2.914c0-.711-.485-1.2-1.197-1.2-.17 0-.337.003-.507 0a.572.572 0 1 1 .006-1.141c.322.003.647-.022.965.034a2.285 2.285 0 0 1 1.856 1.954c.003.028-.003.06.018.08V13.91c-.006.031-.015.062-.018.093-.142.903-.64 1.522-1.485 1.859-.188.074-.386.099-.584.136C9.97 16 6.03 16 2.088 16Z"/><path d="M9.322 4.272c1.237 0 2.471.006 3.708-.003a.577.577 0 0 1 .517.84.523.523 0 0 1-.483.307c-.096.003-.191 0-.287 0-2.388 0-4.779-.003-7.166.003a.58.58 0 0 1-.526-.841.533.533 0 0 1 .513-.306h3.724Zm-.006 4.571H5.598a.542.542 0 0 1-.538-.356.594.594 0 0 1 .133-.637.552.552 0 0 1 .408-.151c1.16.003 2.32 0 3.48 0h3.946c.238 0 .415.099.517.312.105.22.08.436-.068.631-.115.152-.276.204-.464.204-1.231-.003-2.462 0-3.696-.003Zm.003 2.27h3.718c.262 0 .457.14.54.378a.593.593 0 0 1-.182.65.575.575 0 0 1-.386.117H5.595a.542.542 0 0 1-.532-.353.592.592 0 0 1 .13-.637.554.554 0 0 1 .408-.155c1.033.003 2.063 0 3.096 0h.622ZM7.973 1.714c-.473 0-.946.003-1.416 0-.371-.003-.643-.18-.792-.52-.142-.328-.083-.64.152-.909a.78.78 0 0 1 .606-.281c.971-.004 1.942-.007 2.91 0 .452.003.82.383.83.838a.843.843 0 0 1-.808.866c-.492.012-.987.003-1.482.006 0-.003 0-.003 0 0ZM2.994 12.558a.836.836 0 1 1 .019-1.67c.457.006.825.39.822.85a.836.836 0 0 1-.841.82Zm-.829-7.674a.836.836 0 0 1 1.67 0A.84.84 0 0 1 3 5.72a.834.834 0 0 1-.835-.835Zm.832 4.266a.835.835 0 1 1 .012-1.67.836.836 0 0 1-.012 1.67Z"/></g></svg>
