<svg width="20" height="23" viewBox="0 0 20 23" xmlns="http://www.w3.org/2000/svg" fill="#F37021"><path d="M10 0C4.5 0 0 4.5 0 10v2.5a4.126 4.126 0 0 0 4.167 4.167c.5 0 .833-.334.833-.834V9.167c0-.5-.333-.834-.833-.834-.917 0-1.75.334-2.417.834.417-4.167 4-7.5 8.25-7.5s7.833 3.25 8.25 7.5c-.667-.5-1.5-.834-2.417-.834-.5 0-.833.334-.833.834v6.666c0 .5.333.834.833.834.5 0 1.084-.084 1.5-.334-.916 1.667-2.333 3-4.083 3.75-.167-1-1-1.833-2.083-1.833-1.084 0-2 .917-2 2 0 .583.25 1.167.75 1.583.416.334.833.5 1.333.5h.333C16.333 21.667 20 17.417 20 12.5V10c0-5.5-4.5-10-10-10Z"/></svg>
