<svg width="13" height="17" viewBox="0 0 13 17" xmlns="http://www.w3.org/2000/svg"><path d="M3.765 7.059V4.353c0-1.412 1.176-2.588 2.647-2.588A2.611 2.611 0 0 1 9 4.353v2.706H3.765ZM7 12.176v1.706a.127.127 0 0 1-.118.118H6a.127.127 0 0 1-.118-.118v-1.706C5.471 12 5.176 11.53 5.176 11c0-.706.589-1.294 1.295-1.294.705 0 1.294.588 1.294 1.294-.06.47-.353.941-.765 1.176Zm5.941-3.764c0-.588-.53-1.353-1.059-1.353h-1.176V4.235C10.706 1.941 8.824 0 6.47 0 4.176 0 2.235 1.882 2.235 4.235V7.06H1.06A1.053 1.053 0 0 0 0 8.118v7.647c0 .588.47 1.059 1.059 1.059H11.94c.588 0 1.059-.177 1.059-.765-.059-3.883-.059-3.883-.059-7.647Z" fill="#15191C" fill-rule="evenodd"/></svg>
