<svg width="13" height="17" viewBox="0 0 13 17" xmlns="http://www.w3.org/2000/svg"><path d="M3.765 7.059V4.353c0-1.412 1.176-2.588 2.647-2.588A2.611 2.611 0 0 1 9 4.353v2.706H3.765Zm6.13 3.784-3.973 3.972a.686.686 0 0 1-1.01 0l-1.77-1.769a.794.794 0 0 1-.145-.975.722.722 0 0 1 1.12-.072l1.3 1.3 3.466-3.467a.722.722 0 0 1 1.011 1.011Zm3.046-2.431c0-.588-.53-1.353-1.059-1.353h-1.176V4.235C10.706 1.941 8.824 0 6.47 0 4.176 0 2.235 1.882 2.235 4.235V7.06H1.06A1.053 1.053 0 0 0 0 8.118v7.647c0 .588.47 1.059 1.059 1.059H11.94c.588 0 1.059-.177 1.059-.765-.059-3.883-.059-3.883-.059-7.647Z" fill="#15191C" fill-rule="evenodd"/></svg>
