<svg width="13" height="17" viewBox="0 0 13 17" xmlns="http://www.w3.org/2000/svg"><path d="M3.765 7.138V4.432c0-1.412 1.176-2.588 2.647-2.588A2.611 2.611 0 0 1 9 4.432v2.706H3.765ZM7 12.255v1.706a.127.127 0 0 1-.118.118H6a.127.127 0 0 1-.118-.118v-1.706c-.411-.176-.706-.646-.706-1.176 0-.706.589-1.294 1.295-1.294.705 0 1.294.588 1.294 1.294-.06.47-.353.941-.765 1.176Zm5.941-3.764c0-.588-.53-1.353-1.059-1.353h-1.176V4.314C10.706 2.02 8.824.079 6.47.079c-2.294 0-4.235 1.882-4.235 4.235v2.825H1.06A1.053 1.053 0 0 0 0 8.197v7.647c0 .588.47 1.059 1.059 1.059H11.94c.588 0 1.059-.177 1.059-.765-.059-3.883-.059-3.883-.059-7.647Z" fill="#15191C" fill-rule="evenodd"/></svg>
