<svg width="26" height="26" viewBox="0 0 18 18" fill="#9EA7BB" xmlns="http://www.w3.org/2000/svg"><path fill-rule="evenodd" d="M6.502 6.313c0-.154.155-.205.259-.103l2.89 2.152.051.051c.052 0 .052.103 0 .154l-2.89 2.152c-.103.102-.258 0-.258-.103V9.182h-6.4C.053 9.182 0 9.13 0 9.028V7.952c0-.102.052-.154.155-.154h6.347V6.313M9.38 0C6.335 0 3.6 1.588 2.103 3.996c-.103.103 0 .256.103.256H3.6a.396.396 0 0 0 .258-.102c.154-.154.31-.359.464-.512A7.405 7.405 0 0 1 6.592 2.1a7.313 7.313 0 0 1 2.788-.564 7.3 7.3 0 0 1 2.786.564c.826.358 1.6.87 2.271 1.537a7.347 7.347 0 0 1 1.548 2.254c.362.87.568 1.844.568 2.766a7.17 7.17 0 0 1-.568 2.767 6.277 6.277 0 0 1-1.548 2.254 7.405 7.405 0 0 1-2.27 1.537 6.028 6.028 0 0 1-2.787.666c-.98 0-1.91-.205-2.787-.563a7.405 7.405 0 0 1-2.27-1.537 4.631 4.631 0 0 1-.465-.513.396.396 0 0 0-.258-.102H2.206c-.103 0-.206.154-.155.256C3.6 15.831 6.283 17.42 9.328 17.42c4.748 0 8.618-3.842 8.67-8.607A8.594 8.594 0 0 0 9.38 0"/></svg>
