<svg width="20" height="21" viewBox="0 0 20 21" xmlns="http://www.w3.org/2000/svg"><path d="M12.663 7.902c.17 0 .228.172.114.287l-2.391 3.21-.057.058c0 .057-.114.057-.17 0l-2.392-3.21c-.113-.115 0-.287.114-.287h1.594V.849c0-.115.057-.172.171-.172h1.195c.114 0 .171.057.171.172v7.053h1.651m7.014 3.197c0-3.383-1.765-6.422-4.44-8.085-.114-.115-.285 0-.285.114v1.549a.44.44 0 0 0 .114.286c.17.172.398.344.57.516a8.228 8.228 0 0 1 1.707 2.523 8.126 8.126 0 0 1 .626 3.097c0 1.09-.227 2.121-.626 3.096a8.228 8.228 0 0 1-1.708 2.523 8.163 8.163 0 0 1-2.504 1.72 8.18 8.18 0 0 1-3.074.631 7.987 7.987 0 0 1-3.074-.63c-.968-.402-1.822-.975-2.505-1.72a8.228 8.228 0 0 1-1.708-2.524c-.512-.975-.74-2.064-.74-3.096a8.126 8.126 0 0 1 .626-3.097 8.228 8.228 0 0 1 1.708-2.523c.17-.172.341-.344.57-.516a.44.44 0 0 0 .113-.286v-1.55c0-.114-.17-.229-.285-.172C2.087 4.675.322 7.657.322 11.04c0 5.276 4.27 9.576 9.564 9.634a9.55 9.55 0 0 0 9.791-9.575" fill="#F37021" fill-rule="evenodd"/></svg>
