<svg width="175" height="196" viewBox="0 0 175 196" xmlns="http://www.w3.org/2000/svg"><defs><filter x="-12.2%" y="-10.7%" width="124.3%" height="121.4%" filterUnits="objectBoundingBox" id="a"><feOffset dx="-5" dy="-1" in="SourceAlpha" result="shadowOffsetOuter1"/><feGaussianBlur stdDeviation="2.5" in="shadowOffsetOuter1" result="shadowBlurOuter1"/><feColorMatrix values="0 0 0 0 1 0 0 0 0 0.541176471 0 0 0 0 0 0 0 0 1 0" in="shadowBlurOuter1" result="shadowMatrixOuter1"/><feMerge><feMergeNode in="shadowMatrixOuter1"/><feMergeNode in="SourceGraphic"/></feMerge></filter></defs><g filter="url(#a)" transform="translate(10 5)" fill="none"><g fill="#000"><path d="M104.358 71.407c1.056-.377 1.96-.905 3.092-1.282.075 0 .226-.075.301-.075-4.147-1.358-4.373.904-8.37.904 2.263 1.056 3.77.905 4.977.453Zm-2.338 13.497c-.15.15-.226.302-.301.452 0-.075.15-.226.302-.452ZM54.592 72.538s-2.036-17.946 18.474-30.84c2.262-1.508 6.258-4.298 9.274-6.485C107.676 16.89 94.933 0 94.933 0c.905 7.39-2.112 12.668-6.862 17.267-1.357 1.66-3.242 3.167-5.881 4.977-3.394 2.413-7.842 5.429-11.462 8.068-3.317 2.488-7.917 6.259-10.782 9.727-2.79 3.393-5.052 7.39-6.41 12.065-2.186 6.937-1.81 14.025 1.056 20.434Zm68.843 3.318c.528-.302.603-.98.679-1.056 0 0-.98.377-1.81.15 0 0 .603.453 1.131.906Zm-1.357.226s-.15.301-.226.528c0 0 .83-.076 1.357.15 0 0-.377.151-.452.302 0 0 .377.076.829.377-.075-.15-.075-.301-.075-.301l.075-.151-.15-.227c.15-.15.3-.301.3-.377-.075-.075-.829-.527-1.658-.301Z"/><path d="M67.863 48.71c-9.652 9.35-11.461 20.133-8.747 29.03 1.056 3.545 2.866 6.787 5.128 9.502a27.47 27.47 0 0 0 3.996 3.845c.754.603 1.433 1.131 2.262 1.584.226.15.452.301.679.377 3.996 2.337 8.52 3.468 13.195 3.016 1.282-.151 2.564-.377 3.846-.754.528-.151 1.055-.377 1.583-.604.151-.075.377-.15.528-.226.377-.15.754-.301 1.131-.528.226-.075.377-.226.603-.301.302-.151.679-.377.98-.528.227-.15.378-.226.604-.377.377-.226.678-.452 1.056-.679.226-.15.377-.226.603-.377l1.13-.905c.152-.075.302-.226.378-.301.528-.453 1.055-.905 1.508-1.357l.377-.377 1.13-1.131a52.522 52.522 0 0 0 1.81-2.112c-5.127 4.449-14.1 8.52-21.263 7.767-.15 0-.302-.076-.377-.076-.83-.075-1.659-.301-2.488-.527-2.866-.83-4.75-2.036-6.033-3.469-1.508-1.659-2.036-3.544-2.186-4.977 0-.15-.076-.301-.076-.377-.075-.452 0-.904 0-1.357 0-.377.076-.603.076-.603.15-.603.377-1.282.678-1.96.076-.151.151-.378.226-.528.227-.377.453-.754.604-1.131v-.076c0-.075.075-.075.075-.15.15-.378.302-.755.377-1.132.15-.83.15-1.81-.452-3.167-.227 2.112-.905 3.318-1.735 4.298-.603.754-1.13 1.358-1.583 2.036-.075-.678-.15-1.282-.226-2.036-.076-.83-.076-2.036.15-3.544.378-2.94 1.584-6.861 4.45-10.933 2.79-4.072 7.238-8.219 14.1-11.688 2.186-1.281 4.524-2.79 6.334-4.222 2.186-1.508 3.996-3.167 5.504-4.977 7.088-8.143 7.767-18.398 4.072-24.581-.528 14.402-21.188 21.263-34.007 30.613Z"/><path d="M117.704 75.705s-.829.226-1.13.15c0 0-1.132-.904-1.207-2.186v-.15c.226.15 1.056.829 1.885.98 0 0 .075-.528.528-1.056 0 0 .302.905 1.056 1.432l.301-.301s.528.678 1.131 1.206c0 0 .226-.83.679-1.357 0 0-.226-1.056-.98-1.583 0 0 1.281.603 2.035.603 0 0 .453-.226.98-.076 0-.075-.3-1.508-.3-1.508l-.453.151s-.604-.83-2.187-.452c0 0-.377-.83-1.056-1.433 0 0 1.508-.226 2.64.075-.378-.527-.755-.904-.755-.904v-.83h-.075c-.528.076-2.488-.452-3.846-.226-.15 0-.226.075-.377.075h-.15c-.453.076-2.187.377-3.62.754-.83.227-1.508.377-1.81.604-.075.075-.226.15-.301.15a2.24 2.24 0 0 1-.603.302c-3.544 1.96-4.072 1.583-6.108 1.81 3.62 1.508 4.977.075 7.465-.754 2.036-.754 1.81 1.282-.15 1.885a6.427 6.427 0 0 1-1.735.226c-.452 0-.905 0-1.282-.075.528.603 1.056.98 1.584 1.206-.98.075-2.112-.15-3.243-.15.603.225.98.527.98.527l-1.055-.15-1.508-.227-1.735 1.734-3.619.226-3.167 1.207-3.242-.679c-2.187-.075-12.743 1.66-12.743 1.66l-2.79-1.509-.603.15c-.528.227-1.131.529-1.131.529-.076.075-.227.301-.378.603-.301.452-.678.905-.678.905l-.302.905.83 1.508.905-.151c-.302-.076-.528-.076-.68 0 0 0-.075-.453.453-.679.377-.15 1.584 0 2.489 0 .377-.226.83-.528 1.281-.754l.905-.452s8.445 2.036 13.648-.151c0 0-1.81 1.206-2.94 1.734 0 0 2.639.528 4.675-.754 0 0 .075.905.452 1.508l1.433.227c-.076-.68-.076-1.433-.076-1.433 2.489-.377 6.108-.377 6.787-.302h.15l-.075-.075c-.452-.679-1.131-1.207-1.131-1.207.302-.075.679 0 1.056.076.226 0 .452.075.678.15.226.076.453.076.453.076 0 .98 1.13 2.187 1.13 2.187-.527.15-1.055-.302-1.055-.302-.226.075-.377.15-.603.226-.528.227-1.131.377-1.66.528-1.658.377-3.166.453-4.222.377l3.62.528v.075-.075c0 .302-.528 1.357-.754 1.734-.076.076-.076.151-.076.151-.075.15-.226.302-.301.452-8.069 12.97-19.982 15.458-30.463 12.14-.377-.075-.679-.226-1.056-.377a47.685 47.685 0 0 1-3.468-1.432c-.377-.151-.68-.377-1.056-.528-.226-.15-.528-.302-.754-.453a33.235 33.235 0 0 1-3.997-2.639c-8.822-6.786-14.402-17.569-11.687-27.823v.075c-8.445 20.51 6.71 40.265 25.637 44.186 2.338-2.036 4.901-4.222 7.465-6.032a6.512 6.512 0 0 1 1.206-.754l.68-.452c1.432-.905 2.714-.905 3.468-.754h.226c.377.075.678.226.678.226-.678.226-2.262.678-2.94.905l-.905.678c-.679.453-1.357.98-1.96 1.433-4.299 3.091-5.505 3.62-9.049 5.881-1.508 1.282-3.016 3.243-2.94 3.243-.453-.076-1.056-.076-1.66-.076-.829.226-5.806 1.584-8.37 2.866-.15.075-.376.15-.527.301 0 0-1.207 1.584-2.64 3.167-.452.528-.98 1.056-1.432 1.508l-.302.302c-.377.377-.678.678-.98.905 0 0 .679 0 1.508.301 0 0-3.468.754-5.353 2.187-1.056-.075-1.81.075-2.413.377-.98.452-1.508 1.206-2.338 2.187-.83.98-1.96 2.186-3.996 3.317 0 0-1.96 2.941-1.433 5.279 0 0 .603.904 1.433 1.583a4.234 4.234 0 0 0 1.357.226c-3.242-2.714-.15-4.826-.15-4.826-.302 1.433.753 1.961.753 1.961.453-1.131 1.885-2.79 3.243-3.996 1.13-1.056 2.639-1.886 4.147-2.489.301-.15.603-.226.98-.301-1.433 1.13-5.127 4.071-6.937 6.409-.075.452-.075 1.056.15 1.583.302.151.604.377.906.528-.227-.678-.453-1.81-.076-2.79 0 0 3.846-.301 8.822-5.353 0 0 6.56-3.318 12.593-3.77 1.734-.528 2.94-.905 2.94-.905.227 0 2.866-.377 4.977-.754.302-.076.603 0 .83 0l.678-.227c.377-.15 8.445-3.468 11.763-5.73 0 0-.98 1.13-2.036 2.036 0 0 4.374-1.96 6.636-3.167.905-.83 2.79-1.584 2.79-1.584 1.658.528 4.825-2.79 4.976-2.94.226.226.603.527.98.754.302-.151.453-.302.453-.302 1.206.075 3.091-.98 3.92-1.433-.904.302-3.09.98-4.373.151 3.017-.302 3.921-.98 6.334-3.845-2.639 1.055-3.845 3.166-7.992 1.281 3.996.83 5.504-2.262 11.838-4.147 0 0 .905-.603 1.433-1.206 0 0-1.509-1.81-3.921-2.036 0 .15-1.81-2.262-1.885-4.072 1.81 1.508 3.619 4.6 6.409 2.564 0 0-2.262-1.131-3.62-2.262-.452-.754-1.81-3.997-1.432-5.279.678 2.112 3.318 5.882 6.786 6.184 0 0-.377.904 1.131 1.357v-.076c1.207-.452 1.885-1.508 2.111-1.96-.678.075-1.508 0-2.035-.754 0 0-1.81-.98-2.79-3.77 0 0-.453 1.282.377 2.714 0 0-3.921-2.563-2.262-3.77-.378-1.433-1.282-4.449-1.207-6.183 0 .226 1.659 4.826 2.488 6.183-.301-1.131-1.583-6.635-1.508-7.239-.15-.075-3.242-2.262-5.58-3.694v-.076l.076-1.206c.528 0 1.056 0 1.433.075-.227-.15-.755-.603-1.358-.98v-.754c1.056.075 2.413.302 3.393.679 0 0 1.735 2.186 2.489 4.147 0 0-.076-1.885-.377-2.413 0 0 2.413-2.64 3.393-3.318-.754 1.584-2.262 4.901-2.564 6.862 0 0 .453-.151.679-.453.678-.83 3.167 9.049 3.393 11.386.15-1.885.679-9.199-.98-15.457 0 0 .527.678.754 1.13l.678.528s1.96-.829 3.544-.904c0 0-1.282.603-2.186 1.432 0 0-.528 2.112-1.131 3.62 1.055-1.81 1.81-3.62 1.81-3.62 1.733-.83 2.94-1.885 3.166-2.036-.301-.15-3.091-1.13-5.58-1.508-.075.151-.528-.905-.528-1.583Zm-13.874 2.714c-1.206-.226-5.278.227-5.278.227-.302-.377-1.206-.98-1.206-.98 2.488-.68 5.881-.378 5.881-.378.83-.754 2.338-1.055 2.338-1.055-1.358.904-1.735 2.186-1.735 2.186Zm3.469 9.727c-.453.453-2.564 3.318-3.167 4.977v.151c-.075.15-.075.301-.075.377a2.491 2.491 0 0 1 0-1.056c0-.075 0-.226.075-.301v-.076c.377-2.79 2.413-3.468 3.091-5.957.076-.15.076-.377.151-.603-.15 0 .076 1.734-.075 2.488Zm.678 3.318-.15 3.921c-1.735-2.111.15-3.92.15-3.92Zm-2.639 2.111-.15 3.394c-1.509-1.886.15-3.394.15-3.394Zm-5.052 4.072c0 .076 0 .076 0 0v.076c0 .075-.075.15-.075.226a5.182 5.182 0 0 1-.452.98c0 .075-.076.075-.076.15-.075.076-.075.152-.15.302 0 .076-.076.076-.076.151 0 .076-.075.076-.075.151v.075c-.076.227-.151.453-.302.604 0 .075-.076.15-.076.226 0 .075-.075.075-.075.15 0 .076-.075.152-.075.227 0 .075-.076.075-.076.15 0 .076 0 .076-.075.152-.076.075-.076.226-.15.301-.076.151-.076.226-.152.377v.076c0 .075 0 .075-.075.15 0 0 0 .076-.076.076 0 .075 0 .075-.075.075v.151c-.15-.603-.15-1.206-.075-1.81.075-.603.301-1.13.527-1.583a1.05 1.05 0 0 0 .227-.302c.15-.15.226-.377.377-.528.301-.377.603-.603.83-.754.15.227.3.151.225.151.076 0 .076 0 0 0Zm1.96-4.976c-.075.377-.225.678-.3.98 0 .075-.076.15-.076.226-.076.302-.226.603-.302.905a16.04 16.04 0 0 0-.452 1.433c-1.207.452-3.997 1.96-3.997 1.96-.603-.15-1.583.075-2.412.377-.98.377-1.81.754-1.735.83-1.13-.302-3.167-.83-3.167-.83-1.357.377-2.865.83-4.448 1.282-.076 0-.227.075-.302.075l-1.584.453c.076-.076.227-.076.302-.151.15-.076.377-.15.528-.226.075-.076.15-.076.301-.151.076 0 .151-.076.227-.076.075 0 .075-.075.15-.075.076 0 .151-.075.151-.075.076-.076.151-.076.302-.151l.452-.226c.076-.076.227-.076.302-.151.075-.076.226-.076.302-.151.226-.075.377-.15.603-.302.075-.075.15-.075.226-.15.075 0 .075-.076.15-.076l.453-.226c.076-.075.151-.075.302-.15 0 0 .075 0 .075-.076.151-.076.226-.076.377-.151.226-.075.377-.15.603-.302.076 0 .151-.075.151-.075.076 0 .151-.075.226-.075.227.075.453.075.604.075h.226c.075 0 .15 0 .226.075h.226c.377.076.679.076.98.151.227 0 .453.076.68.076.602-.377 1.432-.604 2.11-.754.076 0 .151 0 .227-.076 1.13-.15 2.036-.15 1.96-.15.226-.151.453-.227.754-.378.302-.15.603-.301.905-.377.075 0 .075-.075.15-.075.076-.075.227-.075.302-.15.604-.227 1.207-.453 1.509-.529.075-.452.377-1.282.603-2.111 0-.075.075-.15.075-.226l.754-2.262c-.603-2.715.377-4.826.754-5.505l.151-.301c0 .075 0 .15-.075.226-.83 3.016.15 5.504.15 5.504v.076c-.075.15-.15.527-.301.905v.15c-.226.377-.302.679-.377.98 0-.075 0-.075 0 0Zm.755 6.635c-1.357-2.337.377-3.544.377-3.544l-.377 3.544Zm.98 3.62c-.302-.83-.226-1.509-.15-2.036.376.603 1.658 1.658 1.658 1.658-.83.528-1.508.377-1.508.377Zm5.354-.98c-.754.452-1.81.376-1.81.376-1.206-1.508-1.659-3.016-1.357-4.147.754 1.282 3.091 3.695 3.167 3.77Zm.528-16.363c.678 2.036.301 4.675 1.508 6.861-.528-.377-.98-.83-1.207-1.357-.603-1.056-.678-2.262-.83-3.468-.15-1.056-.3-2.112-.829-3.017-.226-.452-.603-.829-1.055-1.206-.076-.075-.151-.15-.227-.15.076 0 .151 0 .227.075h.15c.151.075.377.075.604.15.603.227 1.282.754 1.659 2.112Z"/><path d="M118.006 94.254c0 .302-.075.452-.075.452.15 0 .15-.15.075-.452ZM70.88 78.269c-.227.377-.378.754-.604 1.13-.076.227-.15.378-.226.528.301-.603.603-1.13.83-1.658Z"/></g><g fill="#E6E7E8"><path d="M110.993 69.748c.302-.15.98-.377 1.81-.603-1.508-.075-3.77-.905-5.127 0 1.055 0 2.111.302 3.016.754.075-.075.226-.075.301-.15Zm.452 1.508c-2.487.905-3.77 2.263-7.464.755 1.96-.227 2.564.15 6.108-1.81a6.294 6.294 0 0 0-2.64-.076c-1.13.302-2.035.905-3.091 1.282-.452.302-.905.528-1.433.83-1.13.678-2.413 1.206-4.524 1.13 2.64 1.584 3.997.68 5.655.076 1.96-.678 3.092-.754 4.6-.452.377.075.679.226.98.301.603 0 1.207-.075 1.735-.226 1.885-.452 2.11-2.488.075-1.81Zm-36.042-7.615c-5.429 3.92-7.163 7.54-7.917 11.009-.226 1.508-.226 2.714-.151 3.544l.226 2.035c.453-.678.98-1.281 1.584-2.035.83-.98 1.583-2.187 1.734-4.298.528 1.357.603 2.337.452 3.167 1.282-3.921.604-7.465 4.072-13.422Zm-3.393 0c9.802-8.52 28.352-10.632 31.519-27.447-.604 1.357-1.886 3.62-5.58 6.56-1.508 1.734-3.318 3.469-5.505 4.977-1.81 1.432-4.071 2.94-6.334 4.222-6.861 3.469-11.31 7.616-14.1 11.688Zm-1.282-33.328c3.544-2.64 7.993-5.656 11.461-8.069 2.64-1.885 4.6-3.317 5.882-4.976 1.734-2.187 2.488-4.75 2.639-9.124-.377 7.239-24.129 22.847-31.368 32.65.151-.227.377-.528.604-.754 2.79-3.469 7.464-7.24 10.782-9.727Z"/><path d="M102.171 85.357c.076-.15.227-.302.302-.453 0 0 .075-.075.075-.15.227-.453.754-1.433.754-1.735v.076c-.15.226-1.055 1.583-1.281 1.885-.151.15-.227.302-.378.528 0 .075-.075.075-.075.075a52.522 52.522 0 0 1-1.81 2.111 6030539.036 6030539.036 0 0 1-1.508 1.508c-.527.528-.98.98-1.508 1.358-.15.075-.301.226-.377.301l-1.13.905c-.227.151-.378.302-.604.377-.377.226-.679.453-1.056.679-.226.15-.377.226-.603.377-.301.226-.679.377-.98.528-.226.075-.377.226-.603.301-.377.151-.754.302-1.131.528-.151.075-.377.15-.528.226-.528.227-1.056.377-1.584.604-1.282.377-2.563.678-3.845.754-4.675.527-9.275-.68-13.196-3.017-.226-.15-.452-.301-.678-.377-.754-.452-1.509-1.055-2.263-1.583a27.47 27.47 0 0 1-3.996-3.846c-2.262-2.714-4.072-5.956-5.127-9.5-2.64-9.049-.83-19.831 8.822-29.106-7.088 4.523-17.72 20.585-10.029 37.325-2.337-2.413-4.298-5.203-5.278-8.596-.754-2.64 1.206-7.842-.98-10.255.301 1.13.226 1.583.15 2.865-.075 2.865-1.734 3.242-1.583.226.226-3.694 1.659-4.222-.302-9.199a8.632 8.632 0 0 1-.226 3.242v-.075c-2.714 10.255 2.866 21.038 11.688 27.824a33.287 33.287 0 0 0 3.996 2.639c.226.15.528.302.754.452.377.151.679.377 1.056.528 1.13.528 2.262 1.056 3.468 1.433.377.15.679.226 1.056.377 10.556 3.318 22.47.83 30.538-12.14Z"/></g><g fill="#E6E7E8"><path d="M108.052 83.472a1.42 1.42 0 0 0-.603-.151h-.15c-.076 0-.151 0-.227-.076.076.076.151.151.226.151.453.377.83.754 1.056 1.207.528.905.679 1.96.83 3.016.15 1.206.301 2.413.829 3.468.302.528.679.98 1.206 1.358-1.206-2.187-.83-4.902-1.508-6.862-.226-1.357-.905-1.885-1.659-2.111Zm-.829 2.186c0 .227-.075.377-.15.604-.68 2.563-2.715 3.166-3.092 5.956v.076c0 .075 0 .226-.076.301 0 .302-.075.754 0 1.056 0-.15.076-.226.076-.377v-.151c.678-1.734 2.79-4.524 3.167-4.976.301-.754.075-2.489.075-2.489Zm.603 9.727.151-3.92s-1.885 1.809-.15 3.92Zm-2.564 1.584.151-3.393c-.075 0-1.734 1.508-.15 3.393ZM103 99.306l.377-3.544s-1.734 1.207-.377 3.544Zm-.527-7.465v-.15c.15-.377.226-.754.301-.905v-.076s-.905-2.488-.15-5.504c0-.076 0-.15.075-.226 0 0-.076.075-.151.301-.377.679-1.357 2.79-.754 5.505 0 .075-.377 1.13-.754 2.262 0 .075-.075.15-.075.226-.302.83-.528 1.659-.604 2.111-.301.076-.83.302-1.508.528-.075.076-.226.076-.301.151-.076 0-.076.075-.151.075-.302.151-.603.302-.905.377-.302.151-.528.302-.754.377 0 0-.905-.075-1.96.151-.076 0-.151 0-.227.076-.754.15-1.508.377-2.111.754-.226-.076-.452-.076-.679-.076-.301-.075-.603-.075-.98-.15h-.226c-.076 0-.15 0-.226-.076h-.227c-.15 0-.377-.075-.603-.075-.075 0-.15.075-.226.075-.075 0-.075.075-.15.075-.152.076-.378.151-.604.302-.15.075-.226.075-.377.15 0 0-.075 0-.075.076-.076.076-.151.076-.302.151l-.452.226c-.076 0-.076.076-.151.076-.076.075-.151.075-.226.15a2.26 2.26 0 0 0-.604.302c-.075.075-.226.075-.301.15-.076.076-.227.076-.302.152l-.452.226c-.076.075-.151.075-.302.15-.075 0-.15.076-.15.076-.076 0-.152.076-.152.076-.075 0-.15.075-.226.075-.075.075-.15.075-.301.15-.227.076-.377.152-.528.227-.076.075-.226.075-.302.15.528-.15 1.056-.3 1.584-.452.075 0 .226-.075.301-.075 1.584-.453 3.092-.905 4.449-1.282 0 0 2.036.528 3.167.83-.075 0 .754-.453 1.734-.83.83-.302 1.81-.528 2.413-.377 0 0 2.79-1.508 3.997-1.96 0 0 .226-.604.452-1.433.075-.302.226-.603.302-.905 0-.075.075-.15.075-.226.075-.302.226-.603.302-.905v-.075c.226-.453.301-.754.377-.98Zm-3.243 6.711c-.15.151-.226.302-.377.528-.075.075-.15.15-.226.302-.226.452-.452.98-.528 1.583a4.996 4.996 0 0 0 .076 1.81v-.151s0-.075.075-.075c0 0 0-.076.075-.076 0-.075 0-.075.076-.15v-.076c.075-.075.075-.226.15-.377.076-.075.076-.226.151-.302 0-.075 0-.075.076-.15 0-.076.075-.076.075-.151 0-.076.076-.151.076-.226 0-.076.075-.076.075-.151 0-.076.075-.151.075-.226.076-.227.151-.453.302-.604v-.075c0-.075.075-.075.075-.15 0-.076.076-.076.076-.152.075-.075.075-.226.15-.301 0-.076.076-.076.076-.151.15-.453.302-.754.452-.98 0-.076.076-.151.076-.227v-.075s-.076.075-.226.15c-.151-.15-.453.076-.83.453Zm-10.933 2.036h-.151c-.754-.15-2.036-.15-3.469.754l-.678.453c-.377.226-.754.527-1.207.754-2.563 1.81-5.127 3.996-7.465 6.032-.377.301-.904.83-1.281 1.13 3.544-2.261 4.75-2.714 9.048-5.88.679-.453 1.357-.98 1.96-1.433l.905-.679c.679-.226 2.338-.754 2.941-.905.075 0-.15-.15-.603-.226Zm-28.729 14.628c-1.583 2.112-5.58 6.711-5.58 6.711-2.639.302-3.317 1.584-3.317 1.584-1.433 0-3.243 1.055-3.243 1.055-2.111 3.092-5.73 5.128-5.73 5.128-1.735 2.714-1.131 6.032-1.131 6.032.377.83 1.281 1.282 2.035 1.508-.829-.679-1.432-1.583-1.432-1.583-.603-2.338 1.432-5.279 1.432-5.279 2.112-1.13 3.167-2.337 3.997-3.317.83-.98 1.357-1.81 2.337-2.187.604-.302 1.358-.377 2.413-.377 1.885-1.433 5.354-2.187 5.354-2.187-.83-.301-1.508-.301-1.508-.301.301-.227.678-.528.98-.905l.302-.302c.452-.452.98-.98 1.432-1.508.377-.377.679-.754.98-1.13a44.47 44.47 0 0 1 1.66-1.961c.15-.076.301-.151.527-.302 2.564-1.282 7.54-2.64 8.37-2.865-6.032-.377-9.878 2.186-9.878 2.186Z"/><path d="M47.805 130.523c-1.357 1.207-2.79 2.867-3.242 3.997 0 0-1.056-.528-.754-1.96 0 0-3.092 2.11.15 4.825h.076c.075-.528 1.207-2.262 1.207-2.262s0-.076.075-.076c.226.227.528.377.83.604-.151-.604-.227-1.131-.151-1.584 1.885-2.262 5.504-5.278 6.937-6.41-.302.076-.604.227-.98.303-1.509.678-3.017 1.583-4.148 2.563Zm32.047-52.179.603.302s10.556-1.734 12.743-1.66l3.242.68 3.167-1.207 3.62-.226 1.885-1.659 1.508.226 1.055.151s-.452-.226-.98-.528c-.603-.226-1.282-.528-1.81-.603 0 0-1.432.754-2.262 1.508 0 0-1.734.075-3.393.226 0 0-2.111.754-3.167 1.207 0 0-2.036-.679-3.091-.83 0 .076-9.426 1.584-13.12 2.413Zm-4.902.98s.377-.452.679-.904c.15-.227.302-.453.377-.604 0 0 .603-.301 1.131-.527l.603-.151s-1.282-.151-2.036.226c0 0-.678 1.056-1.13 1.659 0 0-.076.754.15 1.13 0 0 .151-.527.226-.829Z"/></g><path d="M71.407 143.417h21.716v1.131H71.407zm-55.647 31.82c-.906.151-1.735.302-2.715.377-.905.076-1.96.151-3.243.151-1.658 0-3.091-.226-4.373-.754-1.206-.528-2.262-1.206-3.092-2.036-.829-.905-1.432-1.885-1.81-3.091-.299-1.282-.527-2.64-.527-3.997 0-1.13.226-2.337.603-3.468.377-1.131.98-2.187 1.81-3.167.83-.905 1.81-1.734 3.016-2.262 1.206-.603 2.64-.905 4.298-.905.603 0 1.131 0 1.659.075.528 0 1.056.076 1.583.151.528.076 1.056.151 1.584.302.528.075 1.13.226 1.734.377.076.678.076 1.357.226 2.111.076.754.227 1.433.453 2.111-.076.076-.151.076-.226.076h-.302c-.302 0-.528-.151-.603-.377-.377-1.282-.98-2.262-1.81-2.79-.83-.528-2.036-.83-3.62-.83-1.281 0-2.337.227-3.242.604a6.589 6.589 0 0 0-2.337 1.659c-.603.678-1.056 1.583-1.357 2.563-.302.98-.453 2.036-.453 3.167a11.5 11.5 0 0 0 .603 3.695c.377 1.131.98 2.111 1.66 2.94.678.83 1.507 1.433 2.488 1.886a7.13 7.13 0 0 0 3.091.678c.528 0 1.131-.075 1.734-.15.604-.076 1.056-.151 1.433-.302v-4.449c0-.528-.15-.905-.452-1.13-.302-.227-.83-.378-1.584-.453-.15 0-.226-.076-.302-.226-.075-.151-.075-.227-.075-.378 0-.15 0-.301.075-.452.528.075 1.207.075 1.886.075.678 0 1.281.076 1.81.076.527 0 1.055 0 1.734-.076.678 0 1.206-.075 1.734-.075.075.226.075.377.075.452 0 .227 0 .302-.075.377-.076.076-.151.076-.226.151-.604.076-1.056.227-1.282.377-.226.151-.377.453-.377.83v5.203c0 .15-.076.301-.151.452a2.252 2.252 0 0 1-1.056.452Zm17.945-17.644v7.465h4.524c.377 0 .68-.226.83-.603.15-.377.301-.83.377-1.357.075-.227.226-.378.528-.378h.226c.075 0 .15.076.226.076-.075.452-.075.905-.075 1.433 0 .527-.076 1.055-.076 1.432v1.207c0 .452.076.98.151 1.583-.15.076-.301.076-.452.076-.302 0-.528-.151-.528-.377a5.848 5.848 0 0 0-.377-1.358c-.15-.377-.453-.603-.83-.603h-4.524v6.862c0 .377.226.678.754.83.528.15 1.358.225 2.564.225h1.583c.528 0 1.056-.075 1.509-.226.452-.15.754-.377 1.13-.678.302-.302.604-.604.83-.98.226-.378.528-.83.754-1.283.075-.15.226-.226.452-.226.076 0 .227 0 .302.076.075.075.226.15.302.15-.151.377-.302.83-.453 1.358-.15.528-.226.98-.377 1.508-.15.452-.226.83-.377 1.206-.15.302-.301.528-.452.528h-.679c-.301 0-.603 0-.98-.075-.377 0-.679 0-1.056-.076h-7.314c-.528 0-1.13 0-1.81.076-.678 0-1.281.075-1.81.075-.075-.226-.075-.377-.075-.452 0-.302.076-.453.302-.453.754-.15 1.282-.301 1.584-.452.301-.151.452-.453.452-.83v-14.854c0-.377-.15-.679-.453-.83-.301-.15-.829-.301-1.658-.452-.227-.075-.302-.226-.302-.528v-.226c0-.075 0-.15.075-.226.83.075 1.508.075 2.112.15h7.238c.905 0 1.66 0 2.263-.075.678-.075 1.055-.075 1.281-.075.227 0 .453.15.528.452.076.302.151.679.226 1.131.076.453.151.905.227 1.433.075.528.226.905.452 1.282-.15.15-.302.15-.528.15-.226 0-.452-.075-.528-.226a9.945 9.945 0 0 0-.678-1.281c-.226-.377-.453-.68-.754-.905-.302-.227-.604-.377-1.056-.528-.377-.15-.905-.15-1.508-.15h-4.072Zm35.741 13.12v-12.215c0-.453-.15-.754-.452-.905-.302-.15-.83-.302-1.584-.377-.226 0-.301-.15-.301-.528 0-.15 0-.301.075-.452.453.075.98.075 1.508.075s.98.076 1.433.076c.452 0 .905 0 1.357-.076.453 0 .905-.075 1.358-.075.075.226.075.377.075.452 0 .302-.075.453-.302.528-.678.075-1.13.226-1.357.377-.226.15-.377.452-.377.83v17.191c-.075 0-.075 0-.226.076h-.226c-.151 0-.227 0-.377-.076-.151-.075-.227-.226-.377-.452l-11.839-15.608v13.723c0 .377.151.679.377.83.302.15.83.301 1.584.452.226.075.301.226.301.452 0 .151 0 .302-.075.453-.452-.076-.98-.076-1.508-.076s-.98-.075-1.357-.075-.83 0-1.358.075c-.527 0-.98.076-1.432.076-.076-.227-.076-.377-.076-.453 0-.301.076-.452.302-.452.679-.151 1.206-.302 1.433-.453.226-.15.377-.452.377-.83v-14.928c0-.302-.076-.528-.302-.679-.226-.15-.679-.301-1.357-.377-.226-.075-.302-.226-.302-.527v-.454c.377.076.754.076 1.131.076.302 0 .679 0 .98.075h.905c.528 0 .905 0 1.131.075.151.076.302.151.453.302l10.405 13.874Zm19.454-13.12v7.465h4.525c.377 0 .678-.226.829-.603.15-.377.302-.83.377-1.357.075-.227.226-.378.528-.378h.226c.075 0 .15.076.226.076-.075.452-.075.905-.075 1.433 0 .527-.076 1.055-.076 1.432v1.207c0 .452.076.98.151 1.583-.15.076-.301.076-.452.076-.302 0-.528-.151-.528-.377a5.848 5.848 0 0 0-.377-1.358c-.15-.377-.452-.603-.83-.603H88.9v6.862c0 .377.227.678.754.83.528.15 1.358.225 2.564.225h1.584c.527 0 1.055-.075 1.508-.226.452-.15.754-.377 1.13-.678.302-.302.604-.604.83-.98.226-.378.528-.83.754-1.283.076-.15.226-.226.453-.226.075 0 .226 0 .301.076.076.075.226.15.302.15-.151.377-.302.83-.453 1.358-.15.528-.226.98-.377 1.508-.15.452-.226.83-.377 1.206-.15.302-.301.528-.452.528h-.679c-.301 0-.603 0-.98-.075-.377 0-.679 0-1.056-.076h-7.314c-.527 0-1.13 0-1.81.076-.678 0-1.281.075-1.809.075-.075-.226-.075-.377-.075-.452 0-.302.075-.453.301-.453.754-.15 1.282-.301 1.584-.452.301-.151.452-.453.452-.83v-14.854c0-.377-.15-.679-.452-.83-.302-.15-.83-.301-1.66-.452-.225-.075-.3-.226-.3-.528v-.226c0-.075 0-.15.075-.226.829.075 1.508.075 2.11.15h7.24c.905 0 1.66 0 2.263-.075.678-.075 1.055-.075 1.282-.075.226 0 .452.15.527.452.076.302.151.679.227 1.131.075.453.15.905.226 1.433.075.528.226.905.452 1.282-.15.15-.301.15-.528.15-.226 0-.452-.075-.527-.226a9.935 9.935 0 0 0-.68-1.281c-.225-.377-.451-.68-.753-.905-.302-.227-.603-.377-1.056-.528-.377-.15-.905-.15-1.508-.15H88.9Zm33.404 3.393c-.226.076-.377.076-.452.076-.227 0-.453-.076-.528-.151-.151-.076-.226-.226-.226-.302-.528-1.13-1.131-1.885-1.81-2.413-.679-.528-1.659-.754-2.865-.754a4.27 4.27 0 0 0-1.358.226 5.196 5.196 0 0 0-1.13.528c-.302.226-.529.528-.755.905-.15.377-.301.754-.301 1.131 0 .905.377 1.659 1.13 2.262.755.604 1.886 1.207 3.394 1.81 1.885.754 3.242 1.583 4.147 2.488.905.905 1.357 2.036 1.357 3.318 0 .83-.15 1.508-.377 2.262a4.585 4.585 0 0 1-1.13 1.81c-.529.528-1.207.905-2.037 1.206-.83.302-1.81.453-2.94.453-1.207 0-2.338-.151-3.318-.377a9.513 9.513 0 0 1-2.488-.98c-.076-.83-.151-1.584-.227-2.338-.15-.754-.226-1.508-.377-2.262.151-.076.302-.076.528-.076.226 0 .377.076.528.151.15.076.226.302.302.528.452 1.433 1.13 2.413 1.885 3.092.754.678 1.81.98 3.242.98a5.88 5.88 0 0 0 1.659-.226c.452-.151.83-.453 1.13-.754.303-.302.529-.68.68-1.056.15-.377.226-.83.226-1.282 0-.98-.377-1.81-1.056-2.413-.679-.603-1.659-1.13-2.94-1.583-.83-.302-1.584-.604-2.263-.98-.678-.378-1.282-.755-1.734-1.207a6.038 6.038 0 0 1-1.131-1.583 5.868 5.868 0 0 1-.377-2.112c0-.754.15-1.432.377-2.036.226-.603.679-1.206 1.131-1.659a7.342 7.342 0 0 1 1.81-1.13c.678-.302 1.508-.378 2.337-.378.905 0 1.81.076 2.64.227.829.15 1.809.452 2.865.904.075.604.075 1.207.15 1.886.076.603.151 1.206.302 1.81Zm16.287 12.291c0 .377.15.679.377.83.302.15.754.301 1.508.452.226.075.302.226.302.452 0 .151 0 .302-.076.453-.603-.076-1.206-.076-1.81-.076-.602 0-1.206-.075-1.734-.075-.527 0-1.13 0-1.734.075-.603 0-1.206.076-1.81.076-.075-.227-.075-.377-.075-.453 0-.301.076-.452.302-.452.754-.151 1.282-.302 1.508-.453.301-.15.377-.452.377-.83v-14.852c0-.378-.151-.68-.377-.83-.302-.15-.754-.302-1.508-.452-.151 0-.226-.076-.226-.151-.076-.076-.076-.226-.076-.302 0-.15 0-.301.076-.452.603.075 1.206.075 1.81.075.602 0 1.206.076 1.733.076.453 0 1.056 0 1.66-.076.603 0 1.281-.075 1.884-.075.076.226.076.377.076.452 0 .302-.076.453-.302.528-.754.15-1.282.226-1.508.452-.301.151-.377.453-.377.83v14.779Zm25.26-12.291c-.226.076-.377.076-.452.076-.226 0-.453-.076-.528-.151-.15-.076-.226-.226-.226-.302-.528-1.13-1.131-1.885-1.81-2.413-.679-.528-1.659-.754-2.865-.754a4.27 4.27 0 0 0-1.357.226 5.212 5.212 0 0 0-1.132.528c-.301.226-.527.528-.754.905-.15.377-.301.754-.301 1.131 0 .905.377 1.659 1.13 2.262.755.604 1.886 1.207 3.394 1.81 1.885.754 3.242 1.583 4.147 2.488.905.905 1.357 2.036 1.357 3.318 0 .83-.15 1.508-.377 2.262a4.585 4.585 0 0 1-1.13 1.81c-.528.528-1.207.905-2.037 1.206-.829.302-1.81.453-2.94.453-1.207 0-2.338-.151-3.318-.377a9.513 9.513 0 0 1-2.488-.98c-.076-.83-.151-1.584-.226-2.338-.151-.754-.227-1.508-.378-2.262.151-.076.302-.076.528-.076.227 0 .377.076.528.151.15.076.226.302.302.528.452 1.433 1.13 2.413 1.885 3.092.754.678 1.81.98 3.242.98a5.88 5.88 0 0 0 1.659-.226c.452-.151.83-.453 1.131-.754.302-.302.528-.68.679-1.056.15-.377.226-.83.226-1.282 0-.98-.377-1.81-1.056-2.413-.678-.603-1.659-1.13-2.94-1.583-.83-.302-1.584-.604-2.263-.98-.678-.378-1.281-.755-1.734-1.207a6.038 6.038 0 0 1-1.13-1.583 5.868 5.868 0 0 1-.378-2.112c0-.754.15-1.432.377-2.036.226-.603.679-1.206 1.131-1.659a7.342 7.342 0 0 1 1.81-1.13c.678-.302 1.508-.378 2.337-.378.905 0 1.81.076 2.64.227.829.15 1.81.452 2.865.904.075.604.075 1.207.15 1.886.076.603.227 1.206.302 1.81ZM14.93 186.924a3.52 3.52 0 0 1-1.282-.226 2.711 2.711 0 0 1-.904-.603 2.203 2.203 0 0 1-.529-.905c-.15-.377-.15-.754-.15-1.13 0-.302.075-.68.15-1.057.152-.377.302-.678.529-.904.226-.302.527-.528.904-.679.377-.15.754-.226 1.282-.226h.528c.151 0 .302 0 .453.075.15 0 .301.076.452.076.15 0 .302.075.452.075 0 .15 0 .377.076.603 0 .226.075.453.15.679h-.301l-.075-.076a1.71 1.71 0 0 0-.453-.829c-.226-.15-.528-.226-.98-.226-.377 0-.679.075-.905.15-.302.151-.528.302-.679.453-.15.226-.301.452-.452.754-.075.302-.15.603-.15.98s.075.754.15 1.056c.15.302.302.603.452.83.227.226.453.452.68.527.3.151.527.226.904.226.226 0 .452 0 .603-.075l.453-.226.301-.302.226-.452c.076-.076.076-.151.227-.151h.15l-.226.679c-.075.226-.15.452-.15.754-.302.075-.604.075-.83.075-.377.075-.679.075-1.056.075Zm9.652-2.186h-1.885l-.528 1.357c0 .075-.075.15-.075.15 0 .152.15.227.527.227.076 0 .076 0 .076.075v.226h-1.734v-.225l.075-.075c.15 0 .302-.075.377-.075.075-.076.15-.076.226-.227l2.036-4.977c.075-.076.075-.151.15-.151h.076l2.112 5.127c0 .076.075.151.226.227.15.075.226.075.377.075 0 0 .075 0 .075.075v.226h-2.111v-.225h.075c.151 0 .302-.075.377-.075.076 0 .151-.075.151-.15v-.152l-.603-1.432Zm-.15-.302-.83-2.111-.83 2.111h1.66Zm7.841-.075v1.734c0 .15.075.226.226.302.151.075.302.075.604.15.075 0 .075.076.075.151v.151H30.84v-.15c0-.076 0-.152.076-.152.226-.075.377-.075.452-.15.076-.076.151-.151.151-.227v-4.373c0-.15-.075-.226-.15-.226-.076-.076-.227-.076-.453-.151-.076 0-.076-.075-.076-.15v-.153h2.263c.603 0 1.055.151 1.357.453.301.301.452.678.452 1.13 0 .152-.075.378-.15.529-.076.15-.227.377-.378.528-.15.15-.377.301-.603.377-.226.075-.528.15-.754.15h-.754v.076Zm.452-.302c.378 0 .68-.075.905-.301.227-.151.302-.453.302-.905 0-.151 0-.377-.075-.528-.076-.151-.076-.302-.227-.377-.075-.151-.226-.226-.377-.302-.15-.075-.377-.075-.603-.075h-.452v2.488h.527Zm7.54 2.111c0 .151.076.227.152.227.075.075.226.075.452.15.075 0 .075.076.075.151v.151h-2.111v-.15c0-.076 0-.152.076-.152.226-.075.377-.075.452-.15.075-.076.15-.151.15-.227v-4.373c0-.15-.075-.226-.15-.226-.075-.076-.226-.076-.452-.151 0 0-.076 0-.076-.075v-.226h2.111v.15c0 .076 0 .151-.075.151-.226 0-.377.075-.452.15-.076.076-.151.152-.151.227v4.373Zm7.692-4.599v4.6c0 .15.075.226.15.301.076.075.302.075.529.15.075 0 .075.076.075.152v.15h-2.413v-.15c0-.076 0-.151.075-.151.227 0 .453-.076.528-.151.151-.075.151-.15.151-.302v-4.6h-.905c-.15 0-.301 0-.452.076-.151 0-.226.076-.302.151-.075.075-.15.15-.226.302-.075.075-.15.226-.226.377 0 0 0 .075-.076.075h-.075c-.075 0-.15 0-.15-.075.075-.227.075-.377.15-.528 0-.151.075-.302.075-.377 0-.076.076-.151.076-.226 0-.076.075-.076.15-.076h4.751c.075 0 .075 0 .15.076 0 .075.076.15.076.226 0 .075.076.226.076.377 0 .15.075.301.15.528h-.226s-.075 0-.075-.076c-.076-.15-.151-.301-.226-.377-.076-.075-.151-.226-.227-.301-.075-.076-.15-.151-.301-.151s-.226-.076-.453-.076h-.83v.076Zm9.048 3.167H55.12l-.528 1.357c0 .075-.075.15-.075.15 0 .152.15.227.528.227.075 0 .075 0 .075.075v.226h-1.734v-.225l.075-.075c.151 0 .302-.075.377-.075.076-.076.151-.076.227-.227l2.035-4.977c.076-.076.076-.151.151-.151h.076l2.111 5.127c0 .076.075.151.226.227.151.075.226.075.377.075 0 0 .076 0 .076.075v.226h-2.112v-.225h.076c.15 0 .301-.075.377-.075.075 0 .15-.075.15-.15v-.152l-.603-1.432Zm-.075-.302-.83-2.111-.829 2.111h1.659Zm7.842 1.734c0 .076.075.151.15.227.076.075.227.075.378.075h.905c.15 0 .301 0 .452-.075.15-.076.226-.076.302-.151.075-.076.15-.151.226-.302.075-.15.15-.226.15-.377 0-.075.076-.075.076-.075h.075s.076 0 .076.075c-.076.151-.076.377-.151.528 0 .226-.075.377-.075.679 0 .075 0 .075-.076.15h-4.072v-.15c0-.076 0-.151.076-.151.226-.076.377-.076.452-.151.076-.075.151-.15.151-.226v-4.374c0-.15-.075-.226-.15-.226-.076-.075-.227-.075-.453-.15 0 0-.076 0-.076-.076v-.226h2.262v.149c0 .076 0 .151-.075.151-.226 0-.452.076-.528.151-.15.076-.15.151-.15.302v4.222h.075Zm14.1-1.885h-.603v1.885c0 .151.075.227.15.227.152.075.302.075.529.075.075 0 .075.075.075.15v.152h-2.262v-.151c0-.076 0-.151.075-.151.227 0 .377-.075.453-.15.075-.076.15-.152.15-.227v-4.373c0-.076-.075-.227-.15-.227-.076-.075-.226-.075-.453-.15-.075 0-.075-.076-.075-.151v-.151h2.186c.604 0 1.056.15 1.433.377.302.302.453.603.453 1.131 0 .15 0 .226-.076.377-.075.15-.075.302-.226.377-.075.15-.226.226-.377.377-.15.076-.302.226-.528.302l1.433 1.96c.075.151.226.226.377.302.15.075.226.075.377.15.075 0 .075.076.075.151v.151h-.98c-.15 0-.226-.075-.377-.15-.15-.076-.226-.227-.377-.378l-1.282-1.885Zm-.226-.377c.377 0 .679-.075.905-.226.226-.15.301-.452.301-.905 0-.15 0-.377-.075-.452-.075-.151-.15-.302-.226-.377-.076-.076-.226-.226-.377-.226-.15-.076-.377-.076-.603-.076h-.453v2.338h.528v-.076Zm8.822-2.337v2.187h1.357c.151 0 .227-.076.227-.151.075-.076.075-.227.15-.377 0-.076.076-.076.151-.076h.151v1.735h-.15c-.076 0-.151 0-.151-.076a.576.576 0 0 0-.151-.377c-.076-.075-.151-.15-.227-.15h-1.357v2.035c0 .151.076.226.226.226.151.076.377.076.754.076h.453c.15 0 .302 0 .452-.076.151-.075.227-.15.302-.226.075-.075.15-.15.226-.301.076-.151.15-.227.226-.377 0-.076.076-.076.151-.076h.076s.075 0 .075.076c-.075.075-.075.226-.15.377 0 .15-.076.301-.076.452 0 .15-.076.226-.076.377 0 .075-.075.15-.15.15h-4.072v-.15c0-.075 0-.15.075-.15.226-.076.377-.076.453-.152.075-.075.15-.15.15-.226v-4.373c0-.151-.075-.226-.15-.226-.076-.076-.227-.076-.453-.151-.075 0-.075-.076-.075-.151v-.151h3.77c.075 0 .15.076.15.151s.076.226.076.302c0 .15 0 .301.076.452 0 .15.075.302.15.377-.075 0-.075.075-.15.075-.076 0-.151 0-.151-.075-.076-.15-.151-.302-.226-.377-.076-.075-.151-.226-.227-.226-.075-.076-.15-.151-.301-.151s-.227-.075-.453-.075h-1.13v-.151Zm10.783.98h-.15c-.076 0-.152 0-.152-.075l-.075-.076c-.15-.301-.302-.528-.528-.678-.226-.151-.452-.227-.83-.227-.15 0-.301 0-.376.076-.151 0-.227.075-.302.15l-.226.227c-.076.075-.076.226-.076.377 0 .301.076.452.302.678.226.151.528.377.98.528.528.227.98.453 1.207.754.226.302.377.604.377.98 0 .227 0 .453-.076.68-.075.225-.15.376-.301.527-.151.15-.377.302-.604.377a2.71 2.71 0 0 1-.829.15c-.377 0-.679 0-.98-.075-.302-.075-.528-.15-.754-.301 0-.226-.076-.453-.076-.679 0-.226-.075-.452-.15-.678h.15c.076 0 .151 0 .151.075 0 0 .076.075.076.15.15.378.301.68.527.906.227.226.528.301.98.301.151 0 .378 0 .453-.075.15-.076.226-.151.377-.226.075-.076.15-.227.226-.302.076-.075.076-.226.076-.377 0-.302-.076-.528-.302-.679a5.02 5.02 0 0 0-.905-.452c-.226-.075-.452-.15-.678-.302-.227-.075-.377-.226-.528-.377a1.577 1.577 0 0 1-.302-.452 1.42 1.42 0 0 1-.15-.603c0-.227.075-.377.15-.604.076-.15.226-.377.302-.452.15-.15.301-.226.528-.302.226-.075.452-.15.678-.15.302 0 .528 0 .754.075.226.075.528.15.83.226 0 .151 0 .377.075.528.075.075.075.226.15.377Zm4.374 1.432c0-.376.075-.753.225-1.13.151-.377.302-.679.604-.905.226-.226.528-.453.83-.603.3-.151.678-.227 1.055-.227.528 0 .905.076 1.282.227.377.15.678.377.904.603.227.301.453.603.528.905.151.377.151.678.151 1.13 0 .453-.075.83-.226 1.207-.15.377-.377.679-.603.905-.227.226-.604.452-.905.603-.377.151-.754.226-1.131.226s-.754-.075-1.131-.226c-.302-.15-.603-.301-.905-.603a2.711 2.711 0 0 1-.603-.905c0-.377-.076-.754-.076-1.206Zm2.94 2.49c.302 0 .528-.075.754-.15a1.18 1.18 0 0 0 .603-.453c.151-.151.302-.377.377-.679a2.71 2.71 0 0 0 .151-.83 5.15 5.15 0 0 0-.15-1.13 2.516 2.516 0 0 0-.378-.905 1.78 1.78 0 0 0-.678-.603 2.008 2.008 0 0 0-.905-.227c-.226 0-.453.076-.679.151-.226.076-.377.226-.603.377a1.65 1.65 0 0 0-.377.603 2.71 2.71 0 0 0-.15.83c0 .452.075.83.15 1.206.075.377.226.679.377.98.15.302.377.453.679.604.226.15.527.226.829.226Zm11.838-1.735c0 .301 0 .603-.075.905a1.458 1.458 0 0 1-.377.678c-.15.226-.377.377-.679.453a4.45 4.45 0 0 1-1.055.15c-.528 0-.905-.075-1.207-.15-.301-.151-.528-.302-.678-.453-.151-.226-.302-.452-.302-.678-.075-.227-.075-.528-.075-.83v-2.94c0-.151-.076-.227-.151-.227-.076-.075-.227-.075-.453-.15-.075 0-.075-.076-.075-.151v-.152h2.111v.15c0 .076 0 .151-.075.151-.226 0-.377.076-.453.151-.075.076-.15.151-.15.226v2.715c0 .603.15 1.056.377 1.357.226.302.603.453 1.206.453.302 0 .603 0 .83-.076.226-.075.376-.15.527-.301.151-.151.226-.377.302-.604.075-.226.075-.527.075-.829v-2.714c0-.15-.075-.226-.15-.226-.076-.075-.227-.075-.453-.15-.075 0-.075-.076-.075-.151v-.152h1.734v.227l-.075.075c-.227 0-.377.076-.453.151-.075.076-.15.151-.15.226v2.866Zm6.937-.453h-.603v1.885c0 .151.076.227.151.227.15.075.302.075.528.075.075 0 .075.075.075.15v.152h-2.262v-.151c0-.076 0-.151.076-.151.226 0 .377-.075.452-.15.075-.076.15-.152.15-.227v-4.373c0-.076-.075-.227-.15-.227-.075-.075-.226-.075-.452-.15-.076 0-.076-.076-.076-.151v-.151h2.186c.604 0 1.056.15 1.433.377.302.302.453.603.453 1.131 0 .15 0 .226-.076.377-.075.15-.075.302-.226.377-.075.15-.226.226-.377.377-.15.076-.301.226-.528.302l1.433 1.96c.075.151.226.226.377.302.15.075.226.075.377.15.076 0 .076.076.076.151v.151h-.982c-.15 0-.226-.075-.377-.15-.15-.076-.226-.227-.377-.378l-1.282-1.885Zm-.15-.377c.377 0 .678-.075.904-.226.227-.15.302-.452.302-.905 0-.15 0-.377-.075-.452-.076-.151-.151-.302-.227-.377-.075-.076-.226-.226-.377-.226-.15-.076-.377-.076-.603-.076h-.452v2.338h.528v-.076Zm9.651 3.016a3.52 3.52 0 0 1-1.282-.226 2.711 2.711 0 0 1-.904-.603 2.19 2.19 0 0 1-.528-.905c-.151-.377-.151-.754-.151-1.13 0-.302.075-.68.15-1.057.151-.377.302-.678.529-.904.226-.302.527-.528.904-.679.377-.15.754-.226 1.282-.226h.528c.15 0 .302 0 .452.075.151 0 .302.076.453.076.15 0 .301.075.452.075 0 .15 0 .377.076.603 0 .226.075.453.15.679h-.301l-.076-.076a1.71 1.71 0 0 0-.452-.829c-.226-.15-.528-.226-.98-.226-.377 0-.679.075-.905.15-.302.151-.528.302-.679.453-.15.226-.301.452-.452.754-.075.302-.15.603-.15.98s.075.754.15 1.056c.15.302.302.603.452.83.227.226.453.452.679.527.302.151.528.226.905.226.226 0 .452 0 .603-.075l.452-.226.302-.302.226-.452c.076-.076.076-.151.227-.151h.15l-.226.679c-.075.226-.15.452-.15.754-.302.075-.604.075-.83.075-.453.075-.754.075-1.056.075Zm7.691-5.353v2.187h1.358c.15 0 .226-.076.226-.151.075-.076.075-.227.15-.377 0-.076.076-.076.151-.076h.151v1.735h-.15c-.076 0-.151 0-.151-.076a.576.576 0 0 0-.151-.377c-.076-.075-.151-.15-.226-.15h-1.358v2.035c0 .151.076.226.227.226.15.076.377.076.754.076h.452c.15 0 .302 0 .452-.076.151-.075.227-.15.302-.226.075-.075.15-.15.226-.301.076-.151.151-.227.226-.377 0-.076.076-.076.151-.076h.076s.075 0 .075.076c-.075.075-.075.226-.15.377 0 .15-.076.301-.076.452 0 .15-.076.226-.076.377 0 .075-.075.15-.15.15h-4.072v-.15c0-.075 0-.15.075-.15.226-.076.377-.076.453-.152.075-.075.15-.15.15-.226v-4.373c0-.151-.075-.226-.15-.226-.076-.076-.227-.076-.453-.151-.075 0-.075-.076-.075-.151v-.151h3.77c.075 0 .15.076.15.151s.076.226.076.302c0 .15 0 .301.076.452 0 .15.075.302.15.377-.075 0-.075.075-.15.075-.076 0-.151 0-.151-.075-.076-.15-.151-.302-.226-.377-.076-.075-.151-.226-.227-.226-.075-.076-.15-.151-.301-.151s-.226-.075-.453-.075h-1.13v-.151Zm10.708.98h-.151c-.076 0-.151 0-.151-.075l-.075-.076c-.151-.301-.302-.528-.528-.678-.226-.151-.453-.227-.83-.227-.15 0-.301 0-.377.076-.15 0-.226.075-.301.15l-.227.227c-.075.075-.075.226-.075.377 0 .301.075.452.302.678.226.151.528.377.98.528.528.227.98.453 1.206.754.227.302.377.604.377.98 0 .227 0 .453-.075.68-.075.225-.15.376-.302.527-.15.15-.377.302-.603.377a2.71 2.71 0 0 1-.83.15c-.376 0-.678 0-.98-.075-.301-.075-.527-.15-.754-.301 0-.226-.075-.453-.075-.679 0-.226-.075-.452-.15-.678h.15c.075 0 .15 0 .15.075 0 0 .076.075.076.15.151.378.302.68.528.906.226.226.528.301.98.301.151 0 .377 0 .453-.075.15-.076.226-.151.377-.226.075-.076.15-.227.226-.302.075-.15.075-.226.075-.377 0-.302-.075-.528-.301-.679a5.02 5.02 0 0 0-.905-.452c-.226-.075-.453-.15-.679-.302-.226-.075-.377-.226-.528-.377a1.577 1.577 0 0 1-.301-.452 1.42 1.42 0 0 1-.151-.603c0-.227.075-.377.15-.604.076-.15.227-.377.302-.452.151-.15.302-.226.528-.302.226-.075.453-.15.679-.15.302 0 .528 0 .754.075.226.075.528.15.83.226 0 .151 0 .377.075.528.075.075.15.226.15.377Z" fill="#000"/></g></svg>
