<svg width="243" height="274" viewBox="0 0 243 274" xmlns="http://www.w3.org/2000/svg"><defs><filter x="-8.6%" y="-7.6%" width="117.2%" height="115.1%" filterUnits="objectBoundingBox" id="a"><feOffset dx="-5" dy="-1" in="SourceAlpha" result="shadowOffsetOuter1"/><feGaussianBlur stdDeviation="2.5" in="shadowOffsetOuter1" result="shadowBlurOuter1"/><feColorMatrix values="0 0 0 0 1 0 0 0 0 0.541176471 0 0 0 0 0 0 0 0 1 0" in="shadowBlurOuter1" result="shadowMatrixOuter1"/><feMerge><feMergeNode in="shadowMatrixOuter1"/><feMergeNode in="SourceGraphic"/></feMerge></filter></defs><g filter="url(#a)" transform="translate(10 5)" fill="none"><g fill="#000"><path d="M147.463 100.901c1.492-.532 2.77-1.278 4.369-1.811.106 0 .32-.107.426-.107-5.86-1.917-6.18 1.279-11.827 1.279 3.196 1.492 5.327 1.279 7.032.64Zm-3.303 19.072c-.213.214-.32.427-.426.64 0-.107.213-.32.426-.64ZM77.141 102.5s-2.877-25.36 26.104-43.58c3.197-2.13 8.844-6.073 13.106-9.163C152.151 23.867 134.144 0 134.144 0c1.28 10.442-2.983 17.9-9.695 24.4-1.918 2.344-4.582 4.475-8.311 7.032-4.795 3.41-11.081 7.671-16.196 11.4-4.688 3.517-11.187 8.844-15.236 13.745-3.942 4.795-7.139 10.442-9.057 17.048-3.09 9.802-2.557 19.818 1.492 28.875Zm97.279 4.688c.746-.427.852-1.385.959-1.492 0 0-1.385.533-2.557.213 0 0 .852.64 1.598 1.279Zm-1.918.319s-.213.427-.32.746c0 0 1.172-.106 1.918.213 0 0-.533.213-.64.426 0 0 .534.107 1.173.533-.107-.213-.107-.426-.107-.426l.107-.213-.213-.32c.213-.213.426-.426.426-.532-.107-.107-1.172-.746-2.344-.427Z"/><path d="M95.894 68.83c-13.639 13.212-16.196 28.45-12.36 41.021 1.492 5.008 4.049 9.59 7.245 13.425 1.705 2.025 3.623 3.836 5.647 5.434 1.066.853 2.025 1.599 3.197 2.238.32.213.64.426.959.533 5.647 3.303 12.04 4.9 18.646 4.262 1.811-.213 3.622-.533 5.434-1.066.746-.213 1.491-.533 2.237-.852.213-.107.533-.213.746-.32.533-.213 1.066-.426 1.598-.746.32-.106.533-.32.853-.426.426-.213.959-.533 1.385-.746.32-.213.533-.32.852-.532.533-.32.96-.64 1.492-.96.32-.213.533-.32.852-.532l1.598-1.279c.214-.106.427-.32.533-.426.746-.64 1.492-1.279 2.131-1.918l.533-.533 1.598-1.598c.853-.959 1.705-1.918 2.557-2.983-7.245 6.286-19.924 12.04-30.046 10.974-.213 0-.427-.106-.533-.106-1.172-.107-2.344-.426-3.516-.746-4.049-1.172-6.713-2.877-8.524-4.901-2.131-2.344-2.877-5.008-3.09-7.032 0-.214-.107-.427-.107-.533-.106-.64 0-1.279 0-1.918 0-.533.107-.852.107-.852.213-.853.533-1.812.959-2.77.107-.214.213-.533.32-.747.32-.532.639-1.065.852-1.598v-.106c0-.107.107-.107.107-.213.213-.533.426-1.066.532-1.599.213-1.172.213-2.557-.639-4.475-.32 2.984-1.279 4.688-2.45 6.074-.853 1.065-1.599 1.917-2.238 2.876-.107-.959-.213-1.81-.32-2.876-.106-1.172-.106-2.877.213-5.008.533-4.156 2.238-9.696 6.287-15.45 3.942-5.753 10.228-11.613 19.924-16.515 3.09-1.811 6.393-3.942 8.95-5.966 3.09-2.131 5.647-4.475 7.778-7.033 10.016-11.506 10.975-25.996 5.755-34.734-.746 20.35-29.94 30.046-48.053 43.258Z"/><path d="M166.322 106.975s-1.172.32-1.598.213c0 0-1.598-1.279-1.705-3.09v-.213c.32.213 1.492 1.172 2.664 1.385 0 0 .106-.746.746-1.492 0 0 .426 1.279 1.491 2.025l.427-.427s.745.96 1.598 1.705c0 0 .32-1.172.959-1.918 0 0-.32-1.491-1.385-2.237 0 0 1.81.852 2.876.852 0 0 .64-.32 1.385-.106 0-.107-.426-2.131-.426-2.131l-.639.213s-.852-1.172-3.09-.64c0 0-.533-1.172-1.492-2.024 0 0 2.131-.32 3.73.107-.533-.746-1.066-1.279-1.066-1.279v-1.172h-.106c-.746.106-3.517-.64-5.434-.32-.213 0-.32.107-.533.107h-.213c-.64.106-3.09.533-5.115 1.065-1.172.32-2.13.533-2.557.853-.106.106-.32.213-.426.213a3.19 3.19 0 0 1-.852.426c-5.008 2.77-5.754 2.238-8.63 2.557 5.114 2.131 7.031.107 10.548-1.065 2.876-1.066 2.557 1.811-.214 2.663a9.082 9.082 0 0 1-2.45.32c-.64 0-1.279 0-1.811-.107.745.853 1.491 1.386 2.237 1.705-1.385.107-2.983-.213-4.582-.213.853.32 1.386.746 1.386.746l-1.492-.213-2.131-.32-2.45 2.45-5.115.32-4.475 1.705-4.582-.959c-3.09-.106-18.006 2.344-18.006 2.344l-3.943-2.13-.852.213c-.746.32-1.598.745-1.598.745-.107.107-.32.427-.533.853-.426.64-.959 1.278-.959 1.278l-.426 1.279 1.172 2.13 1.279-.212c-.427-.107-.746-.107-.96 0 0 0-.106-.64.64-.96.533-.212 2.237 0 3.516 0 .533-.319 1.172-.745 1.811-1.065l1.279-.639s11.933 2.877 19.285-.213c0 0-2.557 1.705-4.155 2.45 0 0 3.729.746 6.606-1.065 0 0 .106 1.279.64 2.131l2.024.32c-.107-.96-.107-2.025-.107-2.025 3.516-.532 8.63-.532 9.59-.426h.212l-.106-.106c-.64-.96-1.598-1.705-1.598-1.705.426-.107.959 0 1.491.106.32 0 .64.107.96.213.319.107.639.107.639.107 0 1.385 1.598 3.09 1.598 3.09-.746.213-1.492-.426-1.492-.426-.32.106-.533.213-.852.32-.746.319-1.599.532-2.344.745-2.344.533-4.475.64-5.967.533l5.114.746v.106-.106c0 .426-.746 1.918-1.065 2.45-.107.107-.107.213-.107.213-.106.214-.32.427-.426.64-11.4 18.326-28.235 21.842-43.046 17.154-.532-.106-.958-.32-1.491-.533-1.705-.639-3.303-1.278-4.901-2.024-.533-.213-.96-.533-1.492-.746-.32-.213-.746-.426-1.066-.64-1.917-1.065-3.835-2.343-5.647-3.728-12.466-9.59-20.35-24.826-16.515-39.317v.107c-11.933 28.98 9.483 56.897 36.227 62.437 3.303-2.877 6.925-5.967 10.548-8.524a9.196 9.196 0 0 1 1.705-1.065l.959-.64c2.024-1.278 3.836-1.278 4.901-1.065h.32c.532.107.959.32.959.32-.96.32-3.197.959-4.156 1.278l-1.278.96c-.96.638-1.918 1.384-2.77 2.024-6.074 4.368-7.779 5.114-12.786 8.31-2.131 1.812-4.262 4.582-4.156 4.582-.64-.107-1.491-.107-2.344-.107-1.172.32-8.204 2.238-11.827 4.05-.213.106-.532.212-.746.425 0 0-1.704 2.238-3.729 4.475-.64.746-1.385 1.492-2.024 2.131l-.426.427c-.533.532-.96.959-1.386 1.278 0 0 .96 0 2.131.426 0 0-4.9 1.066-7.564 3.09-1.492-.106-2.558.107-3.41.533-1.385.64-2.131 1.705-3.303 3.09-1.172 1.385-2.77 3.09-5.647 4.688 0 0-2.77 4.155-2.025 7.458 0 0 .853 1.279 2.025 2.238.959.32 1.705.32 1.918.32-4.582-3.836-.213-6.82-.213-6.82-.427 2.025 1.065 2.77 1.065 2.77.64-1.597 2.664-3.942 4.582-5.646 1.598-1.492 3.729-2.664 5.86-3.516.426-.213.852-.32 1.385-.427-2.024 1.599-7.245 5.754-9.802 9.057-.107.64-.107 1.492.213 2.238.426.213.852.532 1.278.745-.32-.959-.639-2.557-.106-3.942 0 0 5.434-.426 12.466-7.565 0 0 9.27-4.688 17.793-5.327a640.146 640.146 0 0 0 4.156-1.279c.32 0 4.049-.533 7.032-1.065.426-.107.852 0 1.172 0l.959-.32c.533-.213 11.933-4.901 16.622-8.098 0 0-1.386 1.599-2.877 2.877 0 0 6.18-2.77 9.376-4.475 1.279-1.172 3.942-2.237 3.942-2.237 2.344.745 6.82-3.943 7.032-4.156.32.32.853.746 1.386 1.066.426-.213.639-.426.639-.426 1.705.106 4.368-1.386 5.54-2.025-1.278.426-4.368 1.385-6.18.213 4.263-.426 5.541-1.385 8.95-5.434-3.729 1.492-5.433 4.475-11.293 1.812 5.647 1.172 7.778-3.197 16.728-5.86 0 0 1.278-.853 2.024-1.705 0 0-2.13-2.558-5.54-2.877 0 .213-2.558-3.197-2.664-5.754 2.557 2.131 5.114 6.5 9.056 3.623 0 0-3.196-1.598-5.114-3.197-.64-1.065-2.557-5.647-2.024-7.458.959 2.983 4.688 8.31 9.59 8.737 0 0-.534 1.279 1.597 1.918v-.107c1.705-.639 2.664-2.13 2.984-2.77-.96.107-2.131 0-2.877-1.065 0 0-2.557-1.386-3.942-5.328 0 0-.64 1.811.532 3.836 0 0-5.54-3.623-3.196-5.328-.533-2.024-1.811-6.286-1.705-8.737 0 .32 2.344 6.82 3.516 8.737-.426-1.598-2.237-9.376-2.13-10.228-.214-.107-4.582-3.197-7.885-5.221v-.107l.106-1.704c.746 0 1.492 0 2.025.106-.32-.213-1.066-.852-1.918-1.385v-1.065c1.491.106 3.41.426 4.794.958 0 0 2.451 3.09 3.516 5.86 0 0-.106-2.663-.532-3.409 0 0 3.41-3.73 4.794-4.688-1.065 2.237-3.196 6.926-3.622 9.696 0 0 .64-.213.959-.64.959-1.171 4.475 12.786 4.794 16.09.213-2.664.96-13-1.385-21.843 0 0 .746.959 1.066 1.598l.959.746s2.77-1.172 5.007-1.279c0 0-1.81.853-3.09 2.025 0 0-.745 2.983-1.598 5.114 1.492-2.557 2.557-5.114 2.557-5.114 2.451-1.172 4.156-2.664 4.476-2.877-.427-.213-4.369-1.598-7.885-2.13-.107.212-.746-1.28-.746-2.238Zm-19.604 3.835c-1.705-.32-7.458.32-7.458.32-.426-.533-1.705-1.385-1.705-1.385 3.516-.96 8.31-.533 8.31-.533 1.173-1.065 3.304-1.492 3.304-1.492-1.918 1.279-2.45 3.09-2.45 3.09Zm4.901 13.745c-.639.64-3.622 4.688-4.475 7.032v.213c-.106.213-.106.427-.106.533a3.52 3.52 0 0 1 0-1.492c0-.106 0-.32.106-.426v-.106c.533-3.943 3.41-4.902 4.369-8.418.106-.213.106-.532.213-.852-.213 0 .107 2.45-.107 3.516Zm.96 4.688-.214 5.54c-2.45-2.983.213-5.54.213-5.54Zm-3.73 2.984-.213 4.794c-2.13-2.663.213-4.794.213-4.794Zm-7.139 5.753c0 .107 0 .107 0 0v.107c0 .106-.106.213-.106.32-.107.319-.32.852-.64 1.384 0 .107-.106.107-.106.214-.107.106-.107.213-.213.426 0 .106-.107.106-.107.213 0 .106-.106.106-.106.213v.107c-.107.32-.213.639-.426.852 0 .106-.107.213-.107.32 0 .106-.106.106-.106.213 0 .106-.107.213-.107.32 0 .106-.107.106-.107.212 0 .107 0 .107-.106.213-.107.107-.107.32-.213.427-.107.213-.107.32-.213.532v.107c0 .107 0 .107-.107.213 0 0 0 .107-.106.107 0 .106 0 .106-.107.106v.213c-.213-.852-.213-1.705-.106-2.557.106-.852.426-1.598.745-2.237.107-.107.213-.214.32-.427.213-.213.32-.532.533-.745a5.007 5.007 0 0 1 1.172-1.066c.213.32.426.213.32.213.106 0 .106 0 0 0Zm2.77-7.032c-.106.533-.319.959-.426 1.385 0 .107-.106.213-.106.32-.107.426-.32.852-.426 1.278-.426 1.172-.64 2.025-.64 2.025-1.704.639-5.647 2.77-5.647 2.77-.852-.213-2.237.107-3.41.533-1.384.532-2.556 1.065-2.45 1.172-1.598-.426-4.475-1.172-4.475-1.172-1.918.532-4.049 1.172-6.286 1.811-.107 0-.32.107-.426.107l-2.238.639c.107-.107.32-.107.426-.213.213-.107.533-.213.746-.32.107-.106.213-.106.426-.213.107 0 .213-.106.32-.106.107 0 .107-.107.213-.107.107 0 .213-.107.213-.107.107-.106.213-.106.426-.213l.64-.32c.106-.106.32-.106.426-.212.106-.107.32-.107.426-.214a3.19 3.19 0 0 0 .852-.426c.107-.106.214-.106.32-.213.107 0 .107-.106.213-.106l.64-.32c.106-.107.213-.107.426-.213 0 0 .106 0 .106-.107.213-.106.32-.106.533-.213a3.19 3.19 0 0 0 .852-.426c.107 0 .213-.106.213-.106.107 0 .214-.107.32-.107.32.107.64.107.852.107h.32c.107 0 .213 0 .32.106h.32c.532.107.958.107 1.385.213.32 0 .639.107.958.107.853-.533 2.025-.853 2.984-1.066.106 0 .213 0 .32-.106 1.598-.213 2.876-.213 2.77-.213.32-.214.639-.32 1.065-.533.426-.213.853-.426 1.279-.533.106 0 .106-.106.213-.106.106-.107.32-.107.426-.214.852-.32 1.705-.639 2.131-.745.107-.64.533-1.812.852-2.984 0-.106.107-.213.107-.32l1.065-3.196c-.852-3.836.533-6.819 1.066-7.778l.213-.426c0 .106 0 .213-.106.32-1.173 4.262.213 7.778.213 7.778v.106c-.107.213-.213.746-.427 1.279v.213c-.32.533-.426.959-.532 1.385 0-.107 0-.107 0 0Zm1.066 9.376c-1.918-3.303.533-5.008.533-5.008l-.533 5.008Zm1.385 5.115c-.426-1.172-.32-2.131-.213-2.877.533.852 2.344 2.344 2.344 2.344-1.172.746-2.13.533-2.13.533Zm7.565-1.386c-1.065.64-2.557.533-2.557.533-1.705-2.13-2.344-4.262-1.918-5.86 1.066 1.811 4.369 5.22 4.475 5.327Zm.746-23.12c.959 2.876.426 6.605 2.131 9.695-.746-.532-1.385-1.172-1.705-1.918-.852-1.491-.959-3.196-1.172-4.9-.213-1.492-.426-2.984-1.172-4.263-.32-.639-.852-1.172-1.491-1.704-.107-.107-.214-.214-.32-.214.106 0 .213 0 .32.107h.213c.213.107.532.107.852.213.852.32 1.811 1.066 2.344 2.983Z"/><path d="M166.748 133.185c0 .427-.106.64-.106.64.213 0 .213-.213.106-.64Zm-66.592-22.588c-.32.533-.533 1.066-.853 1.598-.106.32-.213.533-.32.746.427-.852.853-1.598 1.173-2.344Z"/></g><g fill="#E6E7E8"><path d="M156.84 98.557c.426-.213 1.385-.533 2.557-.852-2.131-.107-5.327-1.279-7.245 0 1.491 0 2.983.426 4.262 1.065.106-.106.32-.106.426-.213Zm.639 2.131c-3.516 1.279-5.327 3.196-10.548 1.065 2.77-.32 3.622.214 8.63-2.557-1.385-.32-2.557-.32-3.729-.106-1.598.426-2.877 1.278-4.368 1.811-.64.426-1.28.746-2.025 1.172-1.598.96-3.41 1.705-6.393 1.598 3.73 2.238 5.647.96 7.991.107 2.77-.959 4.369-1.066 6.5-.64.533.107.959.32 1.385.427.852 0 1.705-.107 2.45-.32 2.664-.64 2.984-3.516.107-2.557Zm-50.93-10.761c-7.672 5.54-10.122 10.654-11.188 15.556-.32 2.13-.32 3.835-.213 5.007l.32 2.877c.64-.959 1.385-1.811 2.237-2.877 1.172-1.385 2.238-3.09 2.451-6.073.746 1.918.852 3.303.64 4.475 1.81-5.54.852-10.548 5.753-18.965Zm-4.795 0c13.852-12.04 40.062-15.024 44.537-38.784-.852 1.918-2.663 5.114-7.884 9.27-2.131 2.45-4.688 4.9-7.778 7.032-2.557 2.024-5.754 4.155-8.95 5.967-9.696 4.9-15.982 10.761-19.925 16.515Zm-1.811-47.095c5.008-3.729 11.294-7.99 16.195-11.4 3.73-2.664 6.5-4.689 8.311-7.033 2.45-3.09 3.516-6.712 3.73-12.892-.533 10.229-34.096 32.284-44.325 46.135.213-.32.533-.745.853-1.065 3.942-4.901 10.548-10.229 15.236-13.745Z"/><path d="M144.374 120.613c.106-.214.32-.427.426-.64 0 0 .106-.106.106-.213.32-.64 1.066-2.024 1.066-2.45v.106c-.213.32-1.492 2.238-1.811 2.664-.214.213-.32.426-.533.746 0 .106-.107.106-.107.106-.852 1.066-1.705 2.025-2.557 2.984l-1.598 1.598-.533.533c-.746.745-1.385 1.385-2.13 1.917-.214.107-.427.32-.534.427l-1.598 1.278c-.32.213-.533.426-.852.533-.533.32-.96.64-1.492.959-.32.213-.533.32-.852.533-.426.32-.96.532-1.385.745-.32.107-.533.32-.853.427-.533.213-1.065.426-1.598.745-.213.107-.533.214-.746.32-.746.32-1.492.533-2.237.852-1.812.533-3.623.96-5.434 1.066-6.606.746-13.106-.959-18.646-4.262-.32-.213-.64-.426-.96-.533-1.065-.639-2.13-1.491-3.196-2.237-2.024-1.598-3.942-3.41-5.647-5.434-3.196-3.836-5.753-8.418-7.245-13.425-3.73-12.786-1.172-28.023 12.466-41.128-10.015 6.393-25.039 29.088-14.17 52.741-3.304-3.41-6.074-7.351-7.46-12.146-1.065-3.73 1.706-11.081-1.384-14.49.426 1.598.32 2.237.213 4.048-.107 4.05-2.45 4.582-2.238.32.32-5.221 2.344-5.967-.426-12.999.213 1.918 0 3.303-.32 4.582v-.107c-3.835 14.49 4.05 29.727 16.515 39.316 1.812 1.385 3.73 2.664 5.647 3.73.32.213.746.426 1.066.639.533.213.959.533 1.492.746 1.598.746 3.196 1.491 4.9 2.024.534.213.96.32 1.493.533 14.916 4.688 31.75 1.172 43.152-17.154Z"/></g><g fill="#E6E7E8"><path d="M152.684 117.948a2.007 2.007 0 0 0-.852-.213h-.213c-.107 0-.213 0-.32-.106.107.106.213.213.32.213.64.532 1.172 1.065 1.491 1.704.746 1.279.96 2.77 1.172 4.262.214 1.705.427 3.41 1.173 4.902.426.745.958 1.385 1.704 1.917-1.704-3.09-1.172-6.925-2.13-9.695-.32-1.918-1.28-2.664-2.345-2.984Zm-1.172 3.09c0 .32-.106.533-.213.852-.959 3.623-3.836 4.476-4.368 8.418v.106c0 .107 0 .32-.107.427 0 .426-.106 1.065 0 1.491 0-.213.107-.32.107-.533v-.213c.959-2.45 3.942-6.393 4.475-7.032.426-1.065.106-3.516.106-3.516Zm.853 13.745.213-5.54s-2.664 2.556-.213 5.54Zm-3.623 2.237.213-4.794c-.106 0-2.45 2.13-.213 4.794Zm-3.196 3.303.532-5.007s-2.45 1.704-.532 5.007Zm-.746-10.548v-.213c.213-.533.32-1.066.426-1.279v-.106s-1.279-3.516-.213-7.778c0-.107 0-.213.106-.32 0 0-.106.107-.213.426-.533.96-1.918 3.943-1.065 7.778 0 .107-.533 1.599-1.066 3.197 0 .106-.106.213-.106.32-.426 1.172-.746 2.344-.853 2.983-.426.106-1.172.426-2.13.746-.107.106-.32.106-.427.213-.106 0-.106.106-.213.106-.426.213-.852.427-1.279.533-.426.213-.745.426-1.065.533 0 0-1.279-.107-2.77.213-.107 0-.213 0-.32.106-1.065.214-2.13.533-2.983 1.066-.32-.107-.64-.107-.96-.107-.425-.106-.852-.106-1.384-.213h-.32c-.107 0-.213 0-.32-.106h-.32c-.212 0-.532-.107-.852-.107-.106 0-.213.107-.32.107-.106 0-.106.106-.212.106-.213.107-.533.213-.853.426-.213.107-.32.107-.533.214 0 0-.106 0-.106.106-.107.107-.213.107-.426.213l-.64.32c-.106 0-.106.106-.213.106-.106.107-.213.107-.32.214a3.19 3.19 0 0 0-.852.426c-.106.106-.32.106-.426.213-.106.106-.32.106-.426.213l-.64.32c-.106.106-.212.106-.426.213-.106 0-.213.106-.213.106-.106 0-.213.107-.213.107-.106 0-.213.106-.32.106-.106.107-.212.107-.426.213-.32.107-.532.213-.745.32-.107.107-.32.107-.427.213l2.238-.64c.106 0 .32-.106.426-.106 2.238-.639 4.369-1.278 6.286-1.811 0 0 2.877.746 4.475 1.172-.106 0 1.066-.64 2.451-1.172 1.172-.426 2.557-.746 3.41-.533 0 0 3.942-2.13 5.647-2.77 0 0 .32-.852.639-2.024.107-.427.32-.853.426-1.279 0-.107.107-.213.107-.32.106-.426.32-.852.426-1.278v-.107c.32-.64.426-1.065.533-1.385Zm-4.582 9.483c-.213.213-.32.426-.533.746-.106.106-.213.213-.32.426-.319.64-.639 1.385-.745 2.237a7.06 7.06 0 0 0 .106 2.558v-.215s0-.106.107-.106c0 0 0-.107.107-.107 0-.106 0-.106.106-.213v-.106c.107-.107.107-.32.213-.533.107-.107.107-.32.213-.426 0-.107 0-.107.107-.213 0-.107.106-.107.106-.213 0-.107.107-.213.107-.32 0-.107.106-.107.106-.213 0-.107.107-.213.107-.32.107-.32.213-.64.426-.852v-.107c0-.106.107-.106.107-.213 0-.106.106-.106.106-.213.107-.106.107-.32.213-.426 0-.107.107-.107.107-.213.213-.64.426-1.066.64-1.385 0-.107.106-.213.106-.32v-.107s-.107.107-.32.214c-.213-.214-.64.106-1.172.639Zm-15.449 2.877h-.214c-1.065-.213-2.876-.213-4.9 1.065l-.96.64c-.532.32-1.065.745-1.704 1.065-3.623 2.557-7.246 5.647-10.549 8.524-.532.426-1.278 1.172-1.811 1.598 5.008-3.196 6.712-3.836 12.786-8.31.959-.64 1.918-1.386 2.77-2.025l1.279-.96c.959-.319 3.303-1.065 4.155-1.278.107 0-.213-.213-.852-.32Zm-40.595 20.67c-2.238 2.983-7.885 9.483-7.885 9.483-3.73.426-4.688 2.237-4.688 2.237-2.024 0-4.582 1.492-4.582 1.492-2.983 4.369-8.097 7.245-8.097 7.245-2.45 3.836-1.599 8.524-1.599 8.524.533 1.172 1.812 1.812 2.877 2.131-1.172-.959-2.024-2.237-2.024-2.237-.853-3.303 2.024-7.46 2.024-7.46 2.984-1.598 4.475-3.303 5.647-4.688 1.172-1.385 1.918-2.557 3.303-3.09.853-.426 1.918-.532 3.41-.532 2.664-2.025 7.565-3.09 7.565-3.09-1.172-.427-2.131-.427-2.131-.427.426-.32.959-.745 1.385-1.278l.426-.426c.64-.64 1.385-1.385 2.025-2.131.532-.533.959-1.066 1.385-1.599a64.031 64.031 0 0 1 2.344-2.77 6.08 6.08 0 0 0 .746-.426c3.622-1.811 10.654-3.73 11.826-4.049-8.523-.533-13.957 3.09-13.957 3.09Z"/><path d="M67.552 184.434c-1.918 1.705-3.942 4.05-4.581 5.647 0 0-1.492-.745-1.066-2.77 0 0-4.368 2.984.213 6.82h.107c.106-.747 1.704-3.197 1.704-3.197s0-.107.107-.107c.32.32.746.533 1.172.853-.213-.853-.32-1.599-.213-2.238 2.664-3.196 7.778-7.458 9.802-9.056-.426.106-.852.32-1.385.426-2.13.959-4.262 2.237-5.86 3.622Zm45.283-73.731.853.426s14.916-2.45 18.006-2.344l4.582.959 4.475-1.705 5.114-.32 2.664-2.344 2.13.32 1.493.213s-.64-.32-1.386-.746c-.852-.32-1.81-.745-2.556-.852 0 0-2.024 1.065-3.196 2.131 0 0-2.45.107-4.795.32 0 0-2.983 1.065-4.475 1.704 0 0-2.877-.959-4.368-1.172 0 .107-13.319 2.238-18.54 3.41Zm-6.925 1.385s.532-.64.958-1.279c.214-.32.427-.639.533-.852 0 0 .853-.426 1.598-.746l.853-.213s-1.812-.213-2.877.32c0 0-.959 1.491-1.598 2.344 0 0-.107 1.065.213 1.598 0 0 .213-.746.32-1.172Z"/></g><path d="M100.901 202.655h30.686v1.598h-30.686zm-78.632 44.963c-1.279.213-2.451.426-3.836.533a53.08 53.08 0 0 1-4.582.213c-2.344 0-4.368-.32-6.18-1.065-1.704-.746-3.196-1.705-4.368-2.877-1.172-1.279-2.024-2.664-2.557-4.369C.32 238.242 0 236.325 0 234.406c0-1.598.32-3.303.852-4.9.533-1.6 1.386-3.09 2.558-4.476 1.172-1.279 2.557-2.45 4.261-3.196 1.705-.853 3.73-1.279 6.074-1.279.852 0 1.598 0 2.344.107.746 0 1.491.106 2.237.213.746.106 1.492.213 2.238.426.746.106 1.598.32 2.45.533.107.959.107 1.917.32 2.983.107 1.065.32 2.024.64 2.983-.107.107-.214.107-.32.107h-.426c-.427 0-.746-.213-.853-.533-.533-1.811-1.385-3.196-2.557-3.942s-2.877-1.172-5.114-1.172c-1.812 0-3.303.32-4.582.852a9.31 9.31 0 0 0-3.302 2.344c-.852.96-1.492 2.238-1.918 3.623-.426 1.385-.64 2.877-.64 4.475 0 1.918.32 3.623.853 5.22.533 1.599 1.385 2.984 2.344 4.156.96 1.172 2.131 2.025 3.516 2.664 1.386.64 2.77.959 4.369.959.746 0 1.598-.107 2.45-.213.853-.107 1.492-.213 2.025-.426v-6.287c0-.746-.213-1.278-.64-1.598-.425-.32-1.171-.533-2.237-.64-.213 0-.32-.106-.426-.319-.107-.213-.107-.32-.107-.533 0-.213 0-.426.107-.639.746.107 1.705.107 2.664.107.959 0 1.811.106 2.557.106s1.492 0 2.45-.106c.96 0 1.705-.107 2.451-.107.107.32.107.533.107.64 0 .319 0 .425-.107.532-.106.107-.213.107-.32.213-.852.107-1.491.32-1.81.533-.32.213-.534.64-.534 1.172v7.352c0 .213-.106.426-.213.639-.426.32-.852.533-1.491.64Zm25.358-24.932v10.548h6.393c.533 0 .959-.32 1.172-.852a8.264 8.264 0 0 0 .533-1.918c.106-.32.32-.533.746-.533h.32c.106 0 .212.107.319.107-.107.64-.107 1.278-.107 2.024s-.106 1.492-.106 2.025v1.704c0 .64.106 1.386.213 2.238-.213.106-.426.106-.64.106-.426 0-.745-.213-.745-.532a8.264 8.264 0 0 0-.533-1.918c-.213-.533-.64-.853-1.172-.853h-6.393v9.696c0 .533.32.96 1.066 1.172.745.214 1.917.32 3.622.32h2.238c.746 0 1.491-.106 2.13-.32.64-.213 1.066-.532 1.599-.959.426-.426.852-.852 1.172-1.385.32-.532.746-1.172 1.065-1.811.107-.213.32-.32.64-.32.106 0 .32 0 .426.107.107.106.32.213.426.213a20.115 20.115 0 0 0-.64 1.918c-.212.746-.319 1.385-.532 2.13-.213.64-.32 1.173-.533 1.706-.213.426-.426.745-.639.745h-.959c-.426 0-.852 0-1.385-.106-.533 0-.959 0-1.492-.107H45.496c-.746 0-1.598 0-2.557.107-.959 0-1.811.106-2.557.106-.107-.32-.107-.532-.107-.639 0-.426.107-.64.426-.64 1.066-.212 1.812-.425 2.238-.638.426-.213.64-.64.64-1.172v-20.99c0-.533-.214-.96-.64-1.172-.426-.214-1.172-.427-2.344-.64-.32-.106-.426-.32-.426-.746v-.32c0-.106 0-.212.106-.319 1.172.107 2.131.107 2.984.213h10.228c1.279 0 2.344 0 3.197-.106.959-.107 1.491-.107 1.811-.107.32 0 .64.213.746.64a21 21 0 0 1 .32 1.598c.106.639.213 1.278.32 2.024.106.746.319 1.279.638 1.811-.213.213-.426.213-.745.213-.32 0-.64-.106-.746-.32-.32-.745-.64-1.278-.96-1.81-.319-.533-.638-.96-1.065-1.28-.426-.319-.852-.532-1.491-.745-.533-.213-1.279-.213-2.131-.213h-5.754Zm50.504 18.539v-17.26c0-.64-.213-1.066-.64-1.279-.425-.213-1.171-.426-2.237-.533-.32 0-.426-.213-.426-.746 0-.213 0-.426.107-.639.639.107 1.385.107 2.13.107.746 0 1.386.106 2.025.106.64 0 1.279 0 1.918-.106.64 0 1.278-.107 1.918-.107.106.32.106.533.106.64 0 .426-.106.639-.426.745-.959.107-1.598.32-1.918.533-.32.213-.533.64-.533 1.172v24.293c-.106 0-.106 0-.32.107h-.319c-.213 0-.32 0-.533-.107-.213-.107-.32-.32-.532-.64l-16.728-22.054v19.392c0 .533.213.959.532 1.172.427.213 1.172.426 2.238.64.32.106.426.319.426.639 0 .213 0 .426-.106.639-.64-.107-1.386-.107-2.131-.107-.746 0-1.386-.106-1.918-.106-.533 0-1.172 0-1.918.106-.746 0-1.385.107-2.025.107-.106-.32-.106-.533-.106-.64 0-.426.106-.639.426-.639.959-.213 1.705-.426 2.024-.639.32-.213.533-.64.533-1.172v-21.098c0-.426-.106-.745-.426-.958-.32-.214-.959-.427-1.918-.533-.32-.107-.426-.32-.426-.746v-.64c.533.107 1.065.107 1.598.107.426 0 .96 0 1.385.107h1.279c.746 0 1.278 0 1.598.106.213.107.426.213.64.426l14.702 19.605Zm27.489-18.539v10.548h6.393c.533 0 .96-.32 1.172-.852a8.264 8.264 0 0 0 .533-1.918c.107-.32.32-.533.746-.533h.32c.106 0 .213.107.32.107-.107.64-.107 1.278-.107 2.024s-.107 1.492-.107 2.025v1.704c0 .64.107 1.386.213 2.238-.213.106-.426.106-.639.106-.426 0-.746-.213-.746-.532a8.264 8.264 0 0 0-.533-1.918c-.213-.533-.639-.853-1.172-.853h-6.392v9.696c0 .533.32.96 1.065 1.172.746.214 1.918.32 3.623.32h2.237c.746 0 1.492-.106 2.131-.32.64-.213 1.066-.532 1.598-.959.427-.426.853-.852 1.172-1.385.32-.532.746-1.172 1.066-1.811.106-.213.32-.32.64-.32.106 0 .319 0 .425.107.107.106.32.213.427.213a20.115 20.115 0 0 0-.64 1.918c-.213.746-.32 1.385-.532 2.13-.214.64-.32 1.173-.533 1.706-.213.426-.426.745-.64.745h-.958c-.427 0-.853 0-1.386-.106-.532 0-.958 0-1.491-.107H123.49c-.746 0-1.599 0-2.558.107-.959 0-1.81.106-2.557.106-.106-.32-.106-.532-.106-.639 0-.426.106-.64.426-.64 1.065-.212 1.811-.425 2.237-.638.427-.213.64-.64.64-1.172v-20.99c0-.533-.213-.96-.64-1.172-.426-.214-1.172-.427-2.344-.64-.32-.106-.426-.32-.426-.746v-.32c0-.106 0-.212.107-.319 1.172.107 2.13.107 2.983.213h10.229c1.278 0 2.344 0 3.196-.106.96-.107 1.492-.107 1.811-.107.32 0 .64.213.746.64.107.426.213.958.32 1.598.107.639.213 1.278.32 2.024.106.746.32 1.279.639 1.811-.213.213-.426.213-.746.213s-.64-.106-.746-.32c-.32-.745-.64-1.278-.959-1.81-.32-.533-.639-.96-1.065-1.28-.426-.319-.853-.532-1.492-.745-.533-.213-1.278-.213-2.13-.213h-5.754Zm47.201 4.795c-.32.106-.532.106-.639.106-.32 0-.64-.106-.746-.213-.213-.106-.32-.32-.32-.426-.745-1.598-1.598-2.664-2.556-3.41-.96-.745-2.345-1.065-4.05-1.065-.639 0-1.278.106-1.917.32a7.345 7.345 0 0 0-1.598.745c-.427.32-.746.746-1.066 1.279-.213.533-.426 1.065-.426 1.598 0 1.279.533 2.344 1.598 3.197 1.066.852 2.664 1.704 4.795 2.557 2.664 1.065 4.581 2.237 5.86 3.516 1.279 1.278 1.918 2.877 1.918 4.688 0 1.172-.213 2.131-.533 3.196a6.478 6.478 0 0 1-1.598 2.558c-.746.745-1.705 1.278-2.877 1.704-1.172.427-2.557.64-4.155.64a20.98 20.98 0 0 1-4.688-.533c-1.386-.32-2.558-.852-3.517-1.385a357.484 357.484 0 0 0-.32-3.303c-.212-1.066-.319-2.131-.532-3.197.213-.106.426-.106.746-.106s.533.106.746.213c.213.106.32.426.426.746.64 2.024 1.598 3.41 2.664 4.368 1.065.96 2.557 1.385 4.581 1.385a8.31 8.31 0 0 0 2.344-.32c.64-.212 1.172-.639 1.599-1.065a4.47 4.47 0 0 0 .958-1.491c.214-.533.32-1.172.32-1.812 0-1.385-.533-2.557-1.492-3.41-.958-.852-2.344-1.598-4.155-2.237-1.172-.426-2.237-.852-3.196-1.385-.96-.533-1.812-1.065-2.451-1.705a8.532 8.532 0 0 1-1.598-2.237 8.291 8.291 0 0 1-.533-2.984c0-1.065.213-2.024.533-2.876.32-.853.959-1.705 1.598-2.344a10.375 10.375 0 0 1 2.557-1.599c.96-.426 2.131-.532 3.303-.532 1.279 0 2.557.106 3.73.32 1.171.212 2.557.638 4.048 1.278.107.852.107 1.705.213 2.663.107.853.213 1.705.426 2.558Zm23.015 17.367c0 .533.213.959.533 1.172.426.213 1.065.426 2.13.64.32.106.427.319.427.639 0 .213 0 .426-.107.639-.852-.107-1.704-.107-2.557-.107-.852 0-1.705-.106-2.45-.106-.746 0-1.599 0-2.451.106-.852 0-1.705.107-2.557.107-.107-.32-.107-.533-.107-.64 0-.426.107-.639.426-.639 1.066-.213 1.812-.426 2.131-.639.427-.213.533-.64.533-1.172v-20.99c0-.533-.213-.959-.533-1.172-.426-.213-1.065-.426-2.13-.64-.214 0-.32-.106-.32-.212-.107-.107-.107-.32-.107-.427 0-.213 0-.426.107-.639.852.107 1.705.107 2.557.107.852 0 1.705.106 2.45.106.64 0 1.492 0 2.345-.106.852 0 1.81-.107 2.663-.107.107.32.107.533.107.64 0 .426-.107.639-.426.745-1.066.213-1.812.32-2.131.64-.427.213-.533.639-.533 1.172v20.883Zm35.694-17.367c-.32.106-.533.106-.64.106-.32 0-.639-.106-.745-.213-.214-.106-.32-.32-.32-.426-.746-1.598-1.598-2.664-2.557-3.41-.96-.745-2.344-1.065-4.05-1.065-.638 0-1.278.106-1.917.32a7.345 7.345 0 0 0-1.598.745c-.426.32-.746.746-1.066 1.279-.213.533-.426 1.065-.426 1.598 0 1.279.533 2.344 1.598 3.197 1.066.852 2.664 1.704 4.795 2.557 2.664 1.065 4.582 2.237 5.86 3.516 1.279 1.278 1.918 2.877 1.918 4.688 0 1.172-.213 2.131-.533 3.196a6.478 6.478 0 0 1-1.598 2.558c-.746.745-1.705 1.278-2.877 1.704-1.172.427-2.557.64-4.155.64a20.98 20.98 0 0 1-4.688-.533c-1.385-.32-2.557-.852-3.516-1.385a355.555 355.555 0 0 0-.32-3.303c-.213-1.066-.32-2.131-.533-3.197.213-.106.426-.106.746-.106s.533.106.746.213c.213.106.32.426.426.746.64 2.024 1.598 3.41 2.664 4.368 1.065.96 2.557 1.385 4.581 1.385a8.31 8.31 0 0 0 2.344-.32c.64-.212 1.173-.639 1.599-1.065a4.47 4.47 0 0 0 .959-1.491c.213-.533.32-1.172.32-1.812 0-1.385-.533-2.557-1.492-3.41-.96-.852-2.344-1.598-4.156-2.237-1.172-.426-2.237-.852-3.196-1.385-.96-.533-1.812-1.065-2.45-1.705a8.532 8.532 0 0 1-1.6-2.237 8.291 8.291 0 0 1-.532-2.984c0-1.065.213-2.024.533-2.876.32-.853.959-1.705 1.598-2.344a10.375 10.375 0 0 1 2.558-1.599c.96-.426 2.131-.532 3.303-.532 1.279 0 2.557.106 3.73.32 1.172.212 2.557.638 4.048 1.278.107.852.107 1.705.213 2.663.107.853.32 1.705.427 2.558ZM21.097 264.133c-.64 0-1.279-.106-1.811-.319a3.831 3.831 0 0 1-1.28-.852c-.318-.32-.638-.853-.744-1.279-.214-.533-.214-1.065-.214-1.598 0-.426.107-.959.213-1.492.213-.532.426-.959.746-1.278.32-.427.746-.746 1.279-.96.532-.212 1.065-.318 1.81-.318h.747c.213 0 .426 0 .639.107.213 0 .426.106.64.106.212 0 .425.107.639.107 0 .213 0 .532.106.852 0 .32.107.64.213.96h-.426l-.107-.107a2.417 2.417 0 0 0-.639-1.173c-.32-.213-.746-.32-1.385-.32-.533 0-.959.107-1.279.214-.426.213-.745.426-.958.64a9.37 9.37 0 0 0-.64 1.065c-.106.426-.213.852-.213 1.385s.107 1.065.213 1.492c.213.426.426.852.64 1.172.32.32.639.639.958.745.427.213.746.32 1.279.32.32 0 .64 0 .852-.107l.64-.32.426-.425.32-.64c.106-.106.106-.213.32-.213h.212l-.32.96c-.106.319-.212.638-.212 1.065-.427.106-.853.106-1.172.106-.533.107-.96.107-1.492.107Zm13.638-3.09h-2.664l-.746 1.919c0 .106-.106.213-.106.213 0 .213.213.32.746.32.106 0 .106 0 .106.106v.32h-2.45v-.32l.106-.107c.213 0 .426-.106.533-.106.107-.107.213-.107.32-.32l2.876-7.032c.107-.106.107-.213.214-.213h.106l2.983 7.245c0 .107.107.213.32.32.213.106.32.106.533.106 0 0 .106 0 .106.107v.32h-2.983v-.32h.107c.213 0 .426-.107.532-.107a.23.23 0 0 0 .213-.213v-.213l-.852-2.024Zm-.213-.425-1.172-2.985-1.172 2.985h2.344Zm11.081-.107v2.45c0 .214.107.32.32.427.213.106.426.106.852.213.107 0 .107.107.107.213v.213h-3.304v-.213c0-.106 0-.213.106-.213.32-.107.533-.107.64-.213.106-.107.212-.213.212-.32v-6.18c0-.213-.106-.32-.213-.32-.106-.106-.32-.106-.639-.212-.106 0-.106-.107-.106-.213v-.213h3.196c.852 0 1.492.213 1.918.639.426.426.64.959.64 1.598 0 .213-.107.533-.214.746-.106.213-.32.533-.533.746a2.32 2.32 0 0 1-.852.532c-.32.107-.746.214-1.066.214h-1.065v.106Zm.64-.426c.532 0 .958-.107 1.278-.426.32-.213.426-.64.426-1.279 0-.213 0-.533-.107-.746-.106-.213-.106-.426-.32-.532-.106-.214-.319-.32-.532-.427-.213-.106-.533-.106-.852-.106h-.64v3.516h.746Zm10.655 2.983c0 .213.106.32.212.32.107.106.32.106.64.213.106 0 .106.107.106.213v.213h-2.983v-.213c0-.106 0-.213.106-.213.32-.107.533-.107.64-.213.106-.107.213-.213.213-.32v-6.18c0-.213-.107-.32-.213-.32-.107-.106-.32-.106-.64-.212 0 0-.106 0-.106-.107v-.319h2.983v.213c0 .106 0 .213-.107.213-.32 0-.532.106-.639.213-.106.106-.213.213-.213.32v6.18Zm10.867-6.499v6.5c0 .212.107.319.213.425.107.107.426.107.746.214.107 0 .107.106.107.213v.213h-3.41v-.213c0-.107 0-.213.107-.213.32 0 .639-.107.745-.214.213-.106.213-.213.213-.426v-6.5h-1.278c-.213 0-.426 0-.64.107-.213 0-.32.107-.426.213a1.47 1.47 0 0 0-.32.427c-.106.106-.212.32-.319.532 0 0 0 .107-.106.107h-.107c-.107 0-.213 0-.213-.107.106-.32.106-.532.213-.745 0-.214.107-.427.107-.533 0-.107.106-.213.106-.32 0-.106.107-.106.213-.106h6.713c.106 0 .106 0 .213.106 0 .107.106.213.106.32 0 .106.107.32.107.533 0 .213.106.426.213.745h-.32s-.106 0-.106-.106c-.107-.213-.213-.426-.32-.533-.106-.106-.213-.32-.32-.426-.106-.107-.213-.213-.426-.213s-.32-.107-.639-.107h-1.172v.107Zm12.786 4.474h-2.664l-.746 1.919c0 .106-.106.213-.106.213 0 .213.213.32.746.32.106 0 .106 0 .106.106v.32h-2.45v-.32l.106-.107c.213 0 .426-.106.533-.106.106-.107.213-.107.32-.32l2.875-7.032c.107-.106.107-.213.213-.213h.107l2.983 7.245c0 .107.107.213.32.32.213.106.32.106.533.106 0 0 .106 0 .106.107v.32H80.55v-.32h.106c.213 0 .427-.107.533-.107a.23.23 0 0 0 .213-.213v-.213l-.852-2.024Zm-.107-.425-1.172-2.985-1.172 2.984h2.344Zm11.081 2.45c0 .107.107.213.213.32.107.106.32.106.533.106h1.279c.213 0 .426 0 .639-.106.213-.107.32-.107.426-.213.107-.107.213-.213.32-.426.106-.213.213-.32.213-.533 0-.107.107-.107.107-.107h.106s.107 0 .107.107c-.107.213-.107.533-.213.746 0 .32-.107.532-.107.959 0 .106 0 .106-.107.213h-5.753v-.213c0-.107 0-.213.106-.213.32-.107.533-.107.64-.214.106-.106.213-.213.213-.32v-6.178c0-.213-.107-.32-.213-.32-.107-.106-.32-.106-.64-.213 0 0-.106 0-.106-.106v-.32h3.196v.213c0 .107 0 .213-.106.213-.32 0-.64.107-.746.213-.213.107-.213.213-.213.427v5.966h.106Zm19.925-2.663h-.853v2.663c0 .213.107.32.214.32.213.106.426.106.745.106.107 0 .107.107.107.214v.213h-3.196v-.213c0-.107 0-.214.106-.214.32 0 .533-.106.64-.213.106-.106.212-.213.212-.32v-6.179c0-.106-.106-.319-.213-.319-.106-.106-.32-.106-.639-.213-.106 0-.106-.106-.106-.213v-.214h3.089c.853 0 1.492.213 2.025.533.426.426.64.852.64 1.598 0 .213 0 .32-.107.533-.107.213-.107.426-.32.532-.107.214-.32.32-.533.533-.213.107-.426.32-.746.426l2.025 2.77c.106.214.32.32.533.427.213.106.32.106.532.213.107 0 .107.106.107.213v.213h-1.385c-.213 0-.32-.106-.533-.213-.213-.107-.32-.32-.533-.533l-1.811-2.663Zm-.32-.533c.533 0 .96-.107 1.279-.32.32-.213.426-.64.426-1.278 0-.213 0-.533-.107-.64-.106-.213-.213-.426-.32-.532-.106-.107-.319-.32-.532-.32-.213-.107-.533-.107-.852-.107h-.64v3.303h.746v-.105Zm12.466-3.303v3.09h1.918c.213 0 .32-.107.32-.213.106-.107.106-.32.213-.533 0-.107.107-.107.213-.107h.213v2.451h-.213c-.106 0-.213 0-.213-.107a.814.814 0 0 0-.213-.532c-.107-.107-.213-.213-.32-.213h-1.918v2.876c0 .213.107.32.32.32.213.107.533.107 1.066.107h.639c.213 0 .426 0 .64-.107a1.47 1.47 0 0 0 .425-.32 1.47 1.47 0 0 0 .32-.426c.106-.213.213-.32.32-.533 0-.106.106-.106.213-.106h.106s.107 0 .107.106c-.107.107-.107.32-.213.533 0 .213-.107.426-.107.64 0 .213-.106.32-.106.532a.23.23 0 0 1-.214.213h-5.753v-.213c0-.106 0-.213.106-.213.32-.106.533-.106.64-.213.106-.107.213-.213.213-.32v-6.18c0-.213-.107-.32-.213-.32-.107-.106-.32-.106-.64-.212-.106 0-.106-.107-.106-.213v-.213h5.327a.23.23 0 0 1 .213.213c0 .106.107.32.107.426 0 .213 0 .426.106.64 0 .212.107.425.214.532-.107 0-.107.107-.214.107-.106 0-.213 0-.213-.107-.106-.213-.213-.426-.32-.533-.106-.106-.212-.32-.319-.32-.106-.106-.213-.213-.426-.213s-.32-.106-.64-.106h-1.598v-.213Zm15.237 1.385h-.213c-.107 0-.213 0-.213-.107l-.107-.106c-.213-.426-.426-.746-.746-.96-.32-.212-.64-.319-1.172-.319-.213 0-.426 0-.533.107-.213 0-.32.106-.426.213l-.32.32c-.106.106-.106.32-.106.532 0 .427.107.64.426.96.32.212.746.532 1.385.745.746.32 1.386.64 1.705 1.066.32.426.533.852.533 1.385 0 .32 0 .639-.107.959-.106.32-.213.532-.426.745a2.32 2.32 0 0 1-.852.533 3.83 3.83 0 0 1-1.172.213c-.533 0-.96 0-1.385-.106-.427-.107-.746-.213-1.066-.426 0-.32-.106-.64-.106-.96 0-.319-.107-.639-.214-.958h.214c.106 0 .213 0 .213.106 0 0 .106.107.106.213.213.533.426.96.746 1.279.32.32.746.426 1.385.426.213 0 .533 0 .64-.106.213-.107.32-.214.532-.32.107-.107.213-.32.32-.426.106-.107.106-.32.106-.533 0-.426-.106-.746-.426-.959-.32-.213-.746-.426-1.278-.64-.32-.106-.64-.212-.96-.425-.319-.107-.532-.32-.745-.533-.213-.213-.32-.426-.426-.64a2.007 2.007 0 0 1-.213-.852c0-.32.106-.533.213-.852a3.34 3.34 0 0 1 .426-.64c.213-.213.426-.32.746-.426.32-.106.639-.213.959-.213.426 0 .745 0 1.065.107.32.106.746.213 1.172.32 0 .212 0 .532.107.745.106.107.106.32.213.533Zm6.18 2.024c0-.532.106-1.065.32-1.598.212-.533.425-.959.852-1.278.32-.32.745-.64 1.172-.853.426-.213.959-.32 1.491-.32.746 0 1.279.107 1.812.32.532.213.959.533 1.278.853.32.426.64.852.746 1.278.213.533.213.96.213 1.598a4.4 4.4 0 0 1-.32 1.705 3.831 3.831 0 0 1-.852 1.279c-.32.32-.852.639-1.278.852a4.275 4.275 0 0 1-1.599.32 4.275 4.275 0 0 1-1.598-.32c-.426-.213-.852-.426-1.278-.852-.32-.32-.64-.746-.853-1.279 0-.533-.106-1.065-.106-1.705Zm4.155 3.516c.426 0 .746-.106 1.065-.213.32-.106.64-.32.853-.639a2.06 2.06 0 0 0 .533-.959 3.83 3.83 0 0 0 .213-1.172 7.25 7.25 0 0 0-.213-1.598 3.556 3.556 0 0 0-.533-1.279 2.516 2.516 0 0 0-.96-.852 2.837 2.837 0 0 0-1.278-.32c-.32 0-.639.107-.959.213-.32.107-.532.32-.852.533a2.32 2.32 0 0 0-.533.853 3.83 3.83 0 0 0-.213 1.172c0 .639.107 1.172.213 1.704.107.533.32.96.533 1.385.213.427.533.64.959.853.32.213.746.32 1.172.32Zm16.728-2.451c0 .427 0 .853-.106 1.28a2.06 2.06 0 0 1-.533.958c-.213.32-.533.533-.96.64-.425.106-.958.213-1.49.213a6.677 6.677 0 0 1-1.706-.213c-.426-.213-.745-.427-.959-.64-.213-.32-.426-.639-.426-.959-.106-.32-.106-.745-.106-1.172v-4.155c0-.213-.107-.32-.213-.32-.107-.106-.32-.106-.64-.213-.106 0-.106-.106-.106-.213v-.213h2.983v.213c0 .107 0 .213-.106.213-.32 0-.533.107-.64.213-.106.107-.213.213-.213.32v3.836c0 .852.213 1.491.533 1.918.32.426.852.639 1.705.639.426 0 .852 0 1.172-.107.32-.106.533-.213.746-.426.213-.213.32-.533.426-.852.106-.32.106-.746.106-1.172v-3.836c0-.213-.106-.32-.213-.32-.106-.106-.32-.106-.639-.213-.107 0-.107-.106-.107-.213v-.213h2.451v.32l-.107.106c-.32 0-.532.107-.639.213-.106.107-.213.213-.213.32v4.049Zm9.802-.638h-.852v2.663c0 .213.107.32.213.32.213.106.426.106.746.106.107 0 .107.107.107.214v.213h-3.197v-.213c0-.107 0-.214.107-.214.32 0 .532-.106.639-.213.107-.106.213-.213.213-.32v-6.179c0-.106-.106-.319-.213-.319-.107-.106-.32-.106-.64-.213-.106 0-.106-.106-.106-.213v-.214h3.09c.852 0 1.492.213 2.025.533.426.426.639.852.639 1.598 0 .213 0 .32-.107.533-.106.213-.106.426-.32.532-.106.214-.319.32-.532.533-.213.107-.426.32-.746.426l2.024 2.77c.107.214.32.32.533.427.213.106.32.106.533.213.106 0 .106.106.106.213v.213h-1.385c-.213 0-.32-.106-.532-.213-.213-.107-.32-.32-.533-.533l-1.811-2.663Zm-.213-.533c.533 0 .96-.107 1.279-.32.32-.213.426-.64.426-1.278 0-.213 0-.533-.106-.64-.107-.213-.213-.426-.32-.532-.107-.107-.32-.32-.533-.32-.213-.107-.532-.107-.852-.107h-.64v3.303h.746v-.105Zm13.639 4.261c-.64 0-1.279-.106-1.812-.319a3.831 3.831 0 0 1-1.278-.852c-.32-.32-.64-.853-.746-1.279-.213-.533-.213-1.065-.213-1.598 0-.426.106-.959.213-1.492.213-.532.426-.959.746-1.278.32-.427.746-.746 1.278-.96.533-.212 1.066-.319 1.812-.319h.745c.214 0 .427 0 .64.107.213 0 .426.106.64.106.212 0 .425.107.638.107 0 .213 0 .532.107.852 0 .32.106.64.213.96h-.426l-.107-.107a2.417 2.417 0 0 0-.639-1.173c-.32-.213-.746-.32-1.385-.32-.533 0-.96.107-1.279.214-.426.213-.746.426-.959.64a9.322 9.322 0 0 0-.639 1.065c-.107.426-.213.852-.213 1.385s.106 1.065.213 1.492c.213.426.426.852.64 1.172.319.32.639.639.958.745.426.213.746.32 1.279.32.32 0 .64 0 .852-.107l.64-.32.426-.425.32-.64c.106-.106.106-.213.319-.213h.213l-.32.96c-.106.319-.213.638-.213 1.065-.426.106-.852.106-1.172.106-.639.107-1.065.107-1.491.107Zm10.868-7.564v3.09h1.917c.214 0 .32-.107.32-.213.107-.107.107-.32.213-.533 0-.107.107-.107.213-.107h.213v2.451h-.213c-.106 0-.213 0-.213-.107a.814.814 0 0 0-.213-.532c-.106-.107-.213-.213-.32-.213h-1.917v2.876c0 .213.106.32.32.32.212.107.532.107 1.065.107h.639c.213 0 .426 0 .64-.107a1.47 1.47 0 0 0 .425-.32c.107-.106.214-.213.32-.426.107-.213.213-.32.32-.533 0-.106.106-.106.213-.106h.106s.107 0 .107.106c-.107.107-.107.32-.213.533 0 .213-.107.426-.107.64 0 .213-.106.32-.106.532a.23.23 0 0 1-.213.213h-5.754v-.213c0-.106 0-.213.107-.213.32-.106.532-.106.639-.213.106-.107.213-.213.213-.32v-6.18c0-.213-.107-.32-.213-.32-.107-.106-.32-.106-.64-.212-.106 0-.106-.107-.106-.213v-.213h5.327a.23.23 0 0 1 .214.213c0 .106.106.32.106.426 0 .213 0 .426.107.64 0 .212.106.425.213.532-.107 0-.107.107-.213.107-.107 0-.213 0-.213-.107-.107-.213-.214-.426-.32-.533-.107-.106-.213-.32-.32-.32-.106-.106-.213-.213-.426-.213s-.32-.106-.64-.106h-1.597v-.213Zm15.129 1.385h-.213c-.106 0-.213 0-.213-.107l-.106-.106c-.213-.426-.426-.746-.746-.96-.32-.212-.64-.319-1.172-.319-.213 0-.426 0-.533.107-.213 0-.32.106-.426.213l-.32.32c-.106.106-.106.32-.106.532 0 .427.106.64.426.96.32.212.746.532 1.385.745.746.32 1.385.64 1.705 1.066.32.426.533.852.533 1.385 0 .32 0 .639-.107.959-.107.32-.213.532-.426.745a2.32 2.32 0 0 1-.853.533 3.83 3.83 0 0 1-1.172.213c-.532 0-.959 0-1.385-.106-.426-.107-.746-.213-1.065-.426 0-.32-.107-.64-.107-.96 0-.319-.106-.639-.213-.958h.213c.107 0 .213 0 .213.106 0 0 .107.107.107.213.213.533.426.96.746 1.279.32.32.746.426 1.385.426.213 0 .533 0 .64-.106.212-.107.319-.214.532-.32.106-.107.213-.32.32-.426.106-.213.106-.32.106-.533 0-.426-.106-.746-.426-.959-.32-.213-.746-.426-1.279-.64-.32-.106-.639-.212-.959-.425-.32-.107-.532-.32-.745-.533-.214-.213-.32-.426-.427-.64a2.007 2.007 0 0 1-.213-.852c0-.32.107-.533.213-.852.107-.213.32-.533.427-.64.213-.213.426-.32.745-.426.32-.106.64-.213.96-.213.425 0 .745 0 1.065.107.32.106.746.213 1.172.32 0 .212 0 .532.106.745.107.107.213.32.213.533Z" fill="#000"/></g></svg>
