<svg width="100" height="114" viewBox="0 0 100 114" xmlns="http://www.w3.org/2000/svg"><g fill="none"><g fill="#F37021"><path d="M63.474 43.4c.641-.229 1.191-.55 1.879-.779.046 0 .137-.045.183-.045-2.52-.825-2.658.55-5.087.55 1.375.641 2.292.55 3.025.275Zm-1.421 8.204c-.092.092-.137.183-.183.275 0-.046.091-.137.183-.275Zm-28.827-7.516s-1.237-10.907 11.229-18.744a208.17 208.17 0 0 0 5.637-3.942C65.49 10.266 57.745 0 57.745 0c.55 4.491-1.283 7.7-4.17 10.495-.825 1.008-1.971 1.925-3.575 3.025-2.062 1.466-4.766 3.3-6.966 4.903-2.017 1.513-4.812 3.804-6.554 5.912-1.695 2.063-3.07 4.492-3.895 7.333-1.33 4.217-1.1 8.524.641 12.42Zm41.842 2.016c.321-.183.367-.595.413-.641 0 0-.596.229-1.1.092 0 0 .367.275.688.55Zm-.824.138s-.092.183-.138.32c0 0 .504-.045.825.092 0 0-.229.092-.275.184 0 0 .23.046.504.229-.046-.092-.046-.183-.046-.183l.046-.092-.091-.138c.091-.091.183-.183.183-.229a1.268 1.268 0 0 0-1.008-.183Z"/><path d="M41.292 29.606c-5.866 5.683-6.966 12.236-5.316 17.644a16.386 16.386 0 0 0 3.116 5.775c.734.87 1.559 1.65 2.43 2.337.458.367.87.687 1.374.962.138.092.275.184.413.23 2.429 1.42 5.179 2.108 8.02 1.833a14.04 14.04 0 0 0 2.337-.458c.321-.092.642-.23.963-.367.091-.046.229-.092.32-.138.23-.091.459-.183.688-.32.137-.046.23-.138.367-.184.183-.091.412-.229.595-.32.138-.092.23-.138.367-.23.23-.137.412-.275.642-.412.137-.092.229-.138.366-.23l.688-.55a1 1 0 0 0 .229-.183c.32-.275.641-.55.916-.825l.23-.229.687-.687c.367-.413.733-.825 1.1-1.283-3.116 2.704-8.57 5.178-12.924 4.72-.092 0-.183-.046-.23-.046-.503-.046-1.007-.183-1.512-.32-1.741-.505-2.887-1.238-3.666-2.109-.916-1.008-1.237-2.154-1.329-3.024 0-.092-.046-.184-.046-.23-.046-.275 0-.55 0-.825 0-.229.046-.366.046-.366.092-.367.23-.78.413-1.192.045-.091.091-.229.137-.32.138-.23.275-.459.367-.688v-.046c0-.046.045-.046.045-.091.092-.23.184-.459.23-.688.091-.504.091-1.1-.275-1.925-.138 1.283-.55 2.017-1.054 2.613-.367.458-.688.824-.963 1.237-.046-.413-.091-.78-.137-1.237-.046-.505-.046-1.238.091-2.154.23-1.788.963-4.17 2.704-6.646 1.696-2.475 4.4-4.995 8.57-7.103 1.33-.78 2.75-1.696 3.85-2.567a16.496 16.496 0 0 0 3.346-3.024c4.308-4.95 4.72-11.183 2.474-14.94-.32 8.753-12.878 12.923-20.669 18.606Z"/><path d="M71.586 46.013s-.505.137-.688.091c0 0-.687-.55-.733-1.329v-.091c.137.091.642.504 1.146.596 0 0 .045-.321.32-.642 0 0 .184.55.642.87l.183-.183s.321.413.688.734c0 0 .137-.504.412-.825 0 0-.137-.642-.595-.963 0 0 .779.367 1.237.367 0 0 .275-.138.596-.046 0-.046-.184-.916-.184-.916l-.275.091s-.366-.504-1.329-.275c0 0-.229-.504-.641-.87 0 0 .916-.138 1.604.045-.23-.32-.459-.55-.459-.55v-.504h-.045c-.321.046-1.513-.275-2.338-.137-.091 0-.137.046-.229.046h-.091a27.38 27.38 0 0 0-2.2.458c-.504.137-.917.229-1.1.366a.347.347 0 0 1-.184.092 1.334 1.334 0 0 1-.366.183c-2.154 1.192-2.475.963-3.712 1.1 2.2.917 3.024.046 4.537-.458 1.237-.458 1.1.78-.092 1.146-.32.091-.687.137-1.054.137-.275 0-.55 0-.78-.046.322.367.643.596.963.734-.595.046-1.283-.092-1.97-.092.366.138.595.32.595.32l-.641-.09-.917-.138-1.054 1.054-2.2.137-1.924.734-1.971-.413c-1.33-.046-7.745 1.008-7.745 1.008l-1.696-.916-.367.091c-.32.138-.687.321-.687.321a1.73 1.73 0 0 0-.23.367c-.183.275-.412.55-.412.55l-.183.55.504.916.55-.091c-.183-.046-.32-.046-.412 0 0 0-.046-.275.275-.413.229-.091.962 0 1.512 0 .23-.137.504-.32.779-.458l.55-.275s5.133 1.237 8.295-.092c0 0-1.1.734-1.787 1.054 0 0 1.604.321 2.841-.458 0 0 .046.55.275.917l.87.137c-.045-.412-.045-.87-.045-.87 1.512-.23 3.712-.23 4.125-.184h.091l-.045-.046c-.275-.412-.688-.733-.688-.733.183-.046.413 0 .642.046.137 0 .275.046.412.091a.982.982 0 0 0 .275.046c0 .596.688 1.33.688 1.33-.321.091-.642-.184-.642-.184-.137.046-.23.092-.367.138-.32.137-.687.229-1.008.32-1.008.23-1.925.275-2.566.23l2.2.32v.046-.046c0 .184-.321.825-.459 1.054-.046.046-.046.092-.046.092-.045.092-.137.183-.183.275-4.904 7.883-12.145 9.395-18.515 7.379-.23-.046-.413-.138-.642-.23-.733-.275-1.42-.55-2.108-.87-.229-.092-.412-.23-.641-.321-.138-.092-.321-.183-.459-.275a20.2 20.2 0 0 1-2.429-1.604c-5.361-4.125-8.753-10.678-7.103-16.911v.046c-5.133 12.465 4.079 24.473 15.582 26.856 1.42-1.238 2.979-2.567 4.537-3.667.229-.183.458-.32.733-.458l.413-.275c.87-.55 1.65-.55 2.108-.458h.137c.23.046.413.137.413.137-.413.138-1.375.413-1.833.55l-.55.413c-.413.275-.825.595-1.192.87-2.612 1.88-3.346 2.2-5.5 3.575-.916.78-1.833 1.97-1.787 1.97-.275-.045-.641-.045-1.008-.045-.504.137-3.529.962-5.087 1.741-.092.046-.23.092-.321.184 0 0-.733.962-1.604 1.925-.275.32-.596.641-.87.916l-.184.184c-.23.229-.413.412-.596.55 0 0 .413 0 .917.183 0 0-2.108.458-3.254 1.329-.642-.046-1.1.046-1.467.229-.596.275-.916.733-1.42 1.33a8.245 8.245 0 0 1-2.43 2.016s-1.191 1.787-.87 3.208c0 0 .366.55.87.962.413.138.734.138.826.138-1.971-1.65-.092-2.934-.092-2.934-.183.871.458 1.192.458 1.192.275-.687 1.146-1.696 1.97-2.429.688-.642 1.605-1.146 2.521-1.512.184-.092.367-.138.596-.184-.87.688-3.116 2.475-4.216 3.896-.046.275-.046.641.092.962.183.092.366.23.55.321-.138-.412-.275-1.1-.046-1.696 0 0 2.337-.183 5.362-3.253 0 0 3.987-2.017 7.653-2.292 1.054-.32 1.788-.55 1.788-.55.137 0 1.741-.23 3.024-.458.184-.046.367 0 .505 0l.412-.138c.23-.091 5.133-2.108 7.15-3.483 0 0-.596.688-1.238 1.238 0 0 2.658-1.192 4.033-1.925.55-.504 1.696-.963 1.696-.963 1.008.321 2.933-1.695 3.024-1.787.138.138.367.32.596.458.184-.091.275-.183.275-.183.733.046 1.88-.596 2.383-.87-.55.183-1.879.595-2.658.09 1.833-.182 2.383-.595 3.85-2.336-1.604.641-2.337 1.924-4.858.779 2.429.504 3.346-1.375 7.195-2.52 0 0 .55-.368.871-.734 0 0-.917-1.1-2.383-1.238 0 .092-1.1-1.374-1.146-2.474 1.1.916 2.2 2.795 3.896 1.558 0 0-1.375-.688-2.2-1.375-.275-.458-1.1-2.429-.871-3.208.412 1.283 2.017 3.575 4.125 3.758 0 0-.23.55.687.825v-.046c.733-.275 1.146-.917 1.283-1.192-.412.046-.916 0-1.237-.458 0 0-1.1-.596-1.696-2.291 0 0-.275.779.23 1.65 0 0-2.384-1.559-1.375-2.292-.23-.87-.78-2.704-.734-3.758 0 .138 1.008 2.933 1.513 3.758-.184-.687-.963-4.033-.917-4.4-.092-.045-1.97-1.374-3.391-2.245v-.046l.045-.733c.321 0 .642 0 .871.046-.137-.092-.458-.367-.825-.596v-.459c.642.046 1.467.184 2.063.413 0 0 1.054 1.329 1.512 2.52 0 0-.046-1.145-.23-1.466 0 0 1.467-1.604 2.063-2.017-.458.963-1.375 2.98-1.558 4.171 0 0 .275-.092.412-.275.413-.504 1.925 5.5 2.063 6.92.091-1.146.412-5.591-.596-9.395 0 0 .32.413.458.688l.413.32s1.191-.504 2.154-.55c0 0-.78.367-1.33.871 0 0-.32 1.283-.687 2.2.642-1.1 1.1-2.2 1.1-2.2 1.054-.504 1.787-1.145 1.925-1.237-.183-.092-1.879-.688-3.391-.917 0 .092-.275-.55-.275-.962Zm-8.433 1.65c-.733-.138-3.208.137-3.208.137-.183-.229-.733-.596-.733-.596 1.512-.412 3.574-.229 3.574-.229.504-.458 1.421-.641 1.421-.641-.825.55-1.054 1.329-1.054 1.329Zm2.108 5.912c-.275.275-1.558 2.016-1.925 3.024v.092c-.046.092-.046.183-.046.23a1.514 1.514 0 0 1 0-.642c0-.046 0-.138.046-.184v-.046c.23-1.695 1.467-2.108 1.88-3.62.045-.092.045-.23.091-.367-.092 0 .046 1.054-.046 1.513Zm.413 2.016-.092 2.383c-1.054-1.283.092-2.383.092-2.383Zm-1.604 1.283-.092 2.063c-.917-1.146.092-2.063.092-2.063Zm-3.072 2.476c0 .046 0 .046 0 0v.046c0 .046-.046.092-.046.138a3.15 3.15 0 0 1-.275.595c0 .046-.046.046-.046.092-.045.046-.045.092-.091.183 0 .046-.046.046-.046.092s-.046.046-.046.092v.045c-.046.138-.092.275-.183.367 0 .046-.046.092-.046.138 0 .045-.046.045-.046.091s-.046.092-.046.138c0 .046-.046.046-.046.091 0 .046 0 .046-.045.092-.046.046-.046.138-.092.183-.046.092-.046.138-.092.23v.045c0 .046 0 .046-.046.092 0 0 0 .046-.045.046 0 .046 0 .046-.046.046v.091a2.966 2.966 0 0 1-.046-1.1c.046-.366.183-.687.32-.962a.633.633 0 0 0 .138-.183c.092-.092.138-.23.23-.321.183-.23.366-.367.504-.458.091.137.183.091.137.091.046 0 .046 0 0 0Zm1.192-3.025c-.046.23-.138.413-.184.596 0 .046-.046.092-.046.138-.045.183-.137.366-.183.55-.183.504-.275.87-.275.87-.733.275-2.429 1.192-2.429 1.192-.366-.092-.962.046-1.466.23-.596.228-1.1.457-1.054.503-.688-.183-1.925-.504-1.925-.504-.825.23-1.742.504-2.704.78-.046 0-.138.045-.184.045l-.962.275c.046-.046.138-.046.183-.092.092-.045.23-.091.321-.137.046-.046.092-.046.183-.092.046 0 .092-.046.138-.046.046 0 .046-.045.092-.045.045 0 .091-.046.091-.046.046-.046.092-.046.184-.092l.275-.137c.045-.046.137-.046.183-.092.046-.046.137-.046.183-.092.138-.046.23-.091.367-.183.046-.046.091-.046.137-.092.046 0 .046-.045.092-.045l.275-.138c.046-.046.092-.046.183-.092 0 0 .046 0 .046-.045.092-.046.138-.046.23-.092.137-.046.228-.092.366-.183.046 0 .092-.046.092-.046.045 0 .091-.046.137-.046.138.046.275.046.367.046h.137c.046 0 .092 0 .138.046h.137c.23.045.413.045.596.091.137 0 .275.046.412.046.367-.23.871-.367 1.284-.458.045 0 .091 0 .137-.046.688-.092 1.238-.092 1.192-.092.137-.091.275-.137.458-.229s.367-.183.55-.229c.046 0 .046-.046.092-.046.045-.046.137-.046.183-.092.367-.137.733-.274.916-.32.046-.275.23-.78.367-1.284 0-.045.046-.091.046-.137.23-.687.458-1.375.458-1.375a4.85 4.85 0 0 1 .459-3.345l.091-.184c0 .046 0 .092-.046.138-.504 1.833.092 3.345.092 3.345v.046c-.046.092-.092.32-.183.55v.092c-.138.229-.184.412-.23.595 0-.045 0-.045 0 0Zm.458 4.033c-.825-1.42.229-2.154.229-2.154l-.23 2.154Zm.596 2.2c-.184-.504-.138-.916-.092-1.237.23.367 1.008 1.008 1.008 1.008-.504.32-.916.23-.916.23Zm3.254-.595c-.459.274-1.1.229-1.1.229-.734-.917-1.009-1.834-.825-2.521.458.78 1.879 2.246 1.925 2.292Zm.32-9.946c.413 1.238.184 2.842.917 4.171-.32-.23-.596-.504-.733-.825-.367-.642-.413-1.375-.504-2.108-.092-.642-.184-1.283-.505-1.833-.137-.275-.366-.504-.641-.734-.046-.045-.092-.091-.138-.091.046 0 .092 0 .138.046h.091c.092.045.23.045.367.091.367.138.78.459 1.008 1.283Z"/><path d="M71.768 57.287c0 .183-.045.275-.045.275.092 0 .092-.092.046-.275Zm-28.643-9.716c-.137.23-.229.458-.366.687-.046.138-.092.23-.138.321.184-.366.367-.687.504-1.008Z"/></g><g fill="#BA5C2D"><path d="M67.507 42.393c.183-.092.596-.23 1.1-.367-.917-.046-2.292-.55-3.117 0 .642 0 1.283.183 1.833.458.046-.045.138-.045.184-.091Zm.275.917c-1.513.55-2.292 1.374-4.537.458 1.191-.138 1.558.091 3.712-1.1a3.825 3.825 0 0 0-1.604-.046c-.688.183-1.238.55-1.88.779-.274.183-.55.32-.87.504-.687.413-1.467.733-2.75.688 1.604.962 2.43.412 3.437.045 1.192-.412 1.88-.458 2.796-.275.23.046.413.138.596.184.366 0 .733-.046 1.054-.138 1.146-.275 1.283-1.512.046-1.1Zm-21.907-4.63c-3.3 2.384-4.354 4.583-4.812 6.692-.137.916-.137 1.65-.092 2.154l.138 1.237c.275-.412.596-.78.962-1.237.505-.596.963-1.33 1.054-2.613.321.825.367 1.421.275 1.925.78-2.383.367-4.537 2.475-8.157Zm-2.063 0c5.959-5.178 17.233-6.461 19.158-16.681-.367.825-1.146 2.2-3.392 3.987a17.958 17.958 0 0 1-3.345 3.024 31.17 31.17 0 0 1-3.85 2.567c-4.17 2.108-6.874 4.629-8.57 7.104Zm-.778-20.256c2.154-1.604 4.858-3.437 6.966-4.904 1.604-1.146 2.795-2.016 3.575-3.025 1.054-1.329 1.512-2.887 1.604-5.545-.23 4.4-14.666 13.886-19.065 19.844.091-.137.229-.32.366-.458 1.696-2.108 4.537-4.4 6.554-5.912Z"/><path d="M62.145 51.88c.046-.092.137-.184.183-.276 0 0 .046-.045.046-.091.137-.275.458-.871.458-1.054v.046c-.092.137-.641.962-.779 1.145-.092.092-.137.184-.23.321 0 .046-.045.046-.045.046-.367.458-.733.87-1.1 1.283l-.687.688-.23.229c-.32.32-.595.596-.916.825-.092.045-.183.137-.23.183l-.687.55c-.137.092-.229.183-.366.23-.23.137-.413.274-.642.412-.137.091-.229.137-.366.229-.184.137-.413.229-.596.32-.138.046-.23.138-.367.184-.23.091-.458.183-.687.32-.092.046-.23.092-.321.138-.321.138-.642.23-.963.367-.779.229-1.558.412-2.337.458-2.841.32-5.637-.412-8.02-1.833a1.858 1.858 0 0 0-.413-.23c-.458-.274-.916-.64-1.374-.962a16.696 16.696 0 0 1-2.43-2.337 16.386 16.386 0 0 1-3.116-5.775c-1.604-5.5-.504-12.053 5.362-17.69-4.308 2.75-10.77 12.512-6.095 22.686-1.42-1.467-2.612-3.162-3.208-5.225-.458-1.604.733-4.766-.596-6.232.183.687.138.962.092 1.741-.046 1.742-1.054 1.97-.963.138.138-2.246 1.009-2.567-.183-5.592.092.825 0 1.421-.137 1.971v-.046c-1.65 6.233 1.74 12.787 7.103 16.911a20.2 20.2 0 0 0 2.43 1.604c.137.092.32.184.457.275.23.092.413.23.642.321.687.32 1.375.642 2.108.87.23.092.413.138.642.23 6.416 2.016 13.657.504 18.56-7.379Z"/></g><g fill="#BA5C2D"><path d="M65.72 50.733a.863.863 0 0 0-.368-.091h-.091c-.046 0-.092 0-.138-.046.046.046.092.091.138.091.275.23.504.459.641.734.321.55.413 1.191.505 1.833.091.733.183 1.466.504 2.108.183.32.412.596.733.825-.733-1.33-.504-2.979-.917-4.17-.137-.826-.55-1.146-1.008-1.284Zm-.505 1.329c0 .138-.046.23-.092.367-.412 1.558-1.65 1.925-1.879 3.62v.046c0 .046 0 .138-.045.184 0 .183-.046.458 0 .641 0-.091.045-.137.045-.229v-.092c.413-1.054 1.696-2.75 1.925-3.024.183-.459.046-1.513.046-1.513Zm.367 5.912.091-2.383s-1.145 1.1-.091 2.383Zm-1.559.963.092-2.063c-.046 0-1.054.917-.092 2.063Zm-1.374 1.42.229-2.154s-1.054.734-.23 2.154Zm-.321-4.537v-.091c.091-.23.137-.459.183-.55v-.046s-.55-1.513-.092-3.346c0-.046 0-.091.046-.137 0 0-.046.046-.091.183a4.85 4.85 0 0 0-.459 3.346c0 .045-.229.687-.458 1.375 0 .045-.046.091-.046.137a8.407 8.407 0 0 0-.366 1.283c-.184.046-.505.184-.917.321-.046.046-.138.046-.183.092-.046 0-.046.046-.092.046-.183.091-.367.183-.55.229-.183.091-.32.183-.458.229 0 0-.55-.046-1.192.091-.046 0-.092 0-.137.046-.459.092-.917.23-1.284.459-.137-.046-.275-.046-.412-.046-.183-.046-.367-.046-.596-.092h-.137c-.046 0-.092 0-.138-.046h-.137c-.092 0-.23-.046-.367-.046-.046 0-.092.046-.137.046-.046 0-.046.046-.092.046-.092.046-.23.092-.367.183-.091.046-.137.046-.229.092 0 0-.046 0-.046.046-.046.046-.091.046-.183.092l-.275.137c-.046 0-.046.046-.092.046-.045.046-.091.046-.137.092-.138.045-.23.091-.367.183-.046.046-.137.046-.183.092-.046.045-.138.045-.183.091l-.275.138c-.046.046-.092.046-.184.091-.046 0-.091.046-.091.046-.046 0-.092.046-.092.046-.046 0-.092.046-.138.046-.045.046-.091.046-.183.092a2.11 2.11 0 0 0-.32.137c-.046.046-.138.046-.184.092l.962-.275c.046 0 .138-.046.184-.046.962-.275 1.879-.55 2.704-.78 0 0 1.237.322 1.925.505-.046 0 .458-.275 1.054-.504.504-.184 1.1-.321 1.466-.23 0 0 1.696-.916 2.43-1.191 0 0 .137-.367.274-.87.046-.184.138-.367.183-.55 0-.047.046-.092.046-.138.046-.183.138-.367.184-.55v-.046c.137-.275.183-.458.229-.596Zm-1.971 4.079c-.092.092-.137.183-.23.32a.633.633 0 0 0-.137.184c-.137.275-.275.596-.32.963-.046.32-.046.687.045 1.1v-.092s0-.046.046-.046c0 0 0-.046.046-.046 0-.046 0-.046.046-.091v-.046c.046-.046.046-.138.092-.23.045-.045.045-.137.091-.183 0-.046 0-.046.046-.091 0-.046.046-.046.046-.092s.046-.092.046-.138c0-.045.046-.045.046-.091s.045-.092.045-.138c.046-.137.092-.275.184-.366v-.046c0-.046.046-.046.046-.092s.045-.046.045-.091c.046-.046.046-.138.092-.184 0-.046.046-.046.046-.091.092-.275.183-.459.275-.596 0-.046.046-.092.046-.138v-.046s-.046.046-.138.092c-.091-.092-.275.046-.504.275Zm-6.645 1.238h-.092c-.458-.092-1.237-.092-2.108.458l-.412.275c-.23.137-.459.32-.734.458-1.558 1.1-3.116 2.429-4.537 3.666-.229.184-.55.505-.779.688 2.154-1.375 2.887-1.65 5.5-3.575.412-.275.824-.596 1.191-.87l.55-.413c.413-.138 1.42-.458 1.833-.55 0 0-.137-.092-.412-.138Zm-17.462 8.89c-.962 1.284-3.39 4.08-3.39 4.08-1.605.183-2.017.962-2.017.962-.87 0-1.97.641-1.97.641-1.285 1.88-3.485 3.117-3.485 3.117-1.054 1.65-.687 3.666-.687 3.666.229.504.779.78 1.237.917-.504-.413-.87-.963-.87-.963-.367-1.42.87-3.208.87-3.208 1.283-.687 1.925-1.42 2.43-2.016.503-.596.824-1.1 1.42-1.33.366-.183.825-.229 1.466-.229 1.146-.87 3.254-1.329 3.254-1.329-.504-.183-.916-.183-.916-.183.183-.137.412-.32.595-.55l.184-.183c.275-.275.596-.596.87-.917.23-.229.413-.458.596-.687.55-.688 1.009-1.192 1.009-1.192.091-.046.183-.091.32-.183 1.559-.78 4.583-1.604 5.087-1.742-3.666-.229-6.003 1.33-6.003 1.33Z"/><path d="M29.101 79.331c-.825.733-1.695 1.741-1.97 2.429 0 0-.642-.321-.459-1.192 0 0-1.879 1.283.092 2.933h.046c.046-.32.733-1.375.733-1.375s0-.045.046-.045c.137.137.32.229.504.366-.092-.366-.137-.687-.092-.962 1.146-1.375 3.346-3.208 4.217-3.896-.184.046-.367.138-.596.184-.917.412-1.833.962-2.52 1.558Zm19.478-31.714.367.183s6.416-1.054 7.745-1.008l1.97.412 1.925-.733 2.2-.137 1.146-1.009.916.138.642.091s-.275-.137-.596-.32c-.366-.138-.779-.321-1.1-.367 0 0-.87.458-1.375.917 0 0-1.054.045-2.062.137 0 0-1.283.458-1.925.733 0 0-1.237-.412-1.879-.504 0 .046-5.728.963-7.974 1.467Zm-2.979.596s.23-.275.412-.55c.092-.138.184-.275.23-.367 0 0 .366-.183.687-.32l.367-.093s-.78-.091-1.238.138c0 0-.412.642-.687 1.008 0 0-.046.459.091.688 0 0 .092-.321.138-.504Z"/></g><path fill="#BA5C2D" d="M43.446 87.168h13.199v1H43.446z"/><path d="M9.624 106.6c-.55.092-1.054.183-1.65.229-.55.046-1.191.092-1.97.092-1.009 0-1.88-.138-2.658-.459-.734-.32-1.375-.733-1.88-1.237a4.851 4.851 0 0 1-1.1-1.879A7.872 7.872 0 0 1 0 100.963c0-.688.137-1.42.367-2.108a5.785 5.785 0 0 1 1.1-1.925c.503-.55 1.1-1.055 1.833-1.375.733-.367 1.604-.55 2.612-.55.367 0 .687 0 1.008.046.321 0 .642.046.963.091.32.046.641.092.962.184.32.046.688.137 1.054.229.046.412.046.825.138 1.283.045.458.137.87.275 1.283-.046.046-.092.046-.138.046h-.183c-.183 0-.321-.091-.367-.229-.229-.779-.596-1.375-1.1-1.696-.504-.32-1.237-.504-2.2-.504-.779 0-1.42.138-1.97.367-.55.23-1.054.596-1.42 1.008-.368.413-.643.963-.826 1.558a6.514 6.514 0 0 0-.275 1.925c0 .825.138 1.558.367 2.246a5.672 5.672 0 0 0 1.008 1.787c.413.504.917.871 1.512 1.146a4.333 4.333 0 0 0 1.88.412c.32 0 .687-.045 1.054-.091.366-.046.641-.092.87-.184v-2.704c0-.32-.091-.55-.275-.687-.183-.137-.504-.23-.962-.275-.092 0-.138-.046-.183-.137-.046-.092-.046-.138-.046-.23 0-.091 0-.183.046-.275.32.046.733.046 1.145.046.413 0 .78.046 1.1.046.321 0 .642 0 1.054-.046.413 0 .734-.046 1.054-.046.046.138.046.23.046.275 0 .138 0 .184-.046.23-.045.045-.091.045-.137.091-.367.046-.642.138-.78.23-.137.091-.228.274-.228.504v3.162c0 .091-.046.183-.092.275-.138.137-.32.183-.596.229Zm10.908-10.678v4.537h2.75c.229 0 .412-.138.504-.367.091-.23.183-.504.229-.825.045-.137.137-.229.32-.229h.138c.046 0 .092.046.137.046-.045.275-.045.55-.045.87 0 .321-.046.642-.046.871v.734c0 .275.046.595.091.962-.091.046-.183.046-.275.046-.183 0-.32-.092-.32-.23a3.554 3.554 0 0 0-.23-.824c-.091-.23-.274-.367-.504-.367h-2.75v4.17c0 .23.138.413.459.505.32.091.825.137 1.558.137h.963c.32 0 .641-.046.916-.137.275-.092.458-.23.688-.413.183-.183.366-.366.504-.595.137-.23.32-.505.458-.78.046-.091.137-.137.275-.137.046 0 .137 0 .183.046a.347.347 0 0 0 .184.091c-.092.23-.184.505-.275.825-.092.321-.138.596-.23.917-.091.275-.137.504-.229.733-.091.184-.183.321-.275.321h-.412c-.183 0-.367 0-.596-.046-.229 0-.412 0-.642-.046h-4.445c-.32 0-.687 0-1.1.046-.412.046-.687 0-1.054 0-.046-.137-.046-.229-.046-.275 0-.183.046-.275.184-.275.458-.091.779-.183.962-.275.183-.091.275-.275.275-.504v-9.028c0-.23-.092-.413-.275-.504-.183-.092-.504-.184-1.008-.275-.138-.046-.184-.138-.184-.321v-.138c0-.046 0-.091.046-.137.504.046.917.046 1.283.091h4.4c.55 0 1.008 0 1.375-.045.412-.046.642-.046.78-.046.137 0 .274.091.32.275.046.183.092.412.137.687.046.275.092.55.138.871.046.32.137.55.275.78-.092.09-.183.09-.321.09-.137 0-.275-.045-.32-.137-.138-.32-.276-.55-.413-.779-.138-.229-.275-.412-.459-.55a2.1 2.1 0 0 0-.641-.32c-.23-.092-.55-.092-.917-.092h-2.52v.046Zm21.723 7.973v-7.422c0-.275-.092-.459-.275-.55-.183-.092-.504-.184-.963-.23-.137 0-.183-.091-.183-.32 0-.092 0-.184.046-.275.275.045.596.045.917.045.32 0 .595.046.87.046s.55 0 .825-.046c.275 0 .55-.045.825-.045.046.137.046.229.046.275 0 .183-.046.275-.183.32-.413.046-.688.138-.825.23-.138.091-.23.275-.23.504v10.448c-.045 0-.045 0-.137.046h-.137c-.092 0-.138 0-.23-.046-.091-.046-.137-.138-.229-.275l-7.195-9.487v8.341c0 .23.092.413.23.504.183.092.503.184.962.275.137.046.183.138.183.275 0 .092 0 .184-.046.275-.275-.046-.596-.046-.916-.046-.321 0-.596-.045-.825-.045-.23 0-.505 0-.825.045-.321 0-.596.046-.871.046-.046-.137-.046-.229-.046-.275 0-.183.046-.275.183-.275.413-.091.734-.183.871-.275.138-.091.23-.275.23-.504v-9.119c0-.183-.047-.32-.184-.412-.138-.092-.412-.184-.825-.23-.137-.045-.183-.137-.183-.32v-.276c.229.045.458.045.687.045.183 0 .413 0 .596.046h.55c.32 0 .55 0 .687.046a.959.959 0 0 1 .275.183l6.325 8.479Zm11.824-7.973v4.537h2.75c.229 0 .412-.138.504-.367.091-.23.183-.504.229-.825.046-.137.137-.229.32-.229h.138c.046 0 .092.046.138.046-.046.275-.046.55-.046.87 0 .321-.046.642-.046.871v.734c0 .275.046.595.092.962-.092.046-.184.046-.275.046-.184 0-.321-.092-.321-.23a3.554 3.554 0 0 0-.23-.824c-.09-.23-.274-.367-.503-.367h-2.75v4.17c0 .23.137.413.458.505.32.091.825.137 1.558.137h.963c.32 0 .641-.046.916-.137.275-.092.459-.23.688-.413.183-.183.366-.366.504-.595.137-.23.32-.505.458-.78.046-.091.138-.137.275-.137.046 0 .138 0 .183.046a.347.347 0 0 0 .184.091c-.092.23-.184.505-.275.825-.092.321-.138.596-.23.917-.091.275-.137.504-.228.733-.092.184-.184.321-.275.321h-.413c-.183 0-.367 0-.596-.046-.229 0-.412 0-.641-.046h-4.446c-.32 0-.687 0-1.1.046-.412.046-.779.046-1.1.046-.045-.137-.045-.23-.045-.275 0-.183.045-.275.183-.275.458-.092.779-.183.962-.275.184-.092.275-.275.275-.504v-9.028c0-.23-.091-.413-.275-.505-.183-.091-.504-.183-1.008-.275-.137-.045-.183-.137-.183-.32v-.138c0-.046 0-.092.046-.137.504.045.916.045 1.283.091h4.399c.55 0 1.009 0 1.375-.046.413-.045.642-.045.78-.045.137 0 .274.091.32.275.046.183.092.412.138.687.046.275.091.55.137.87.046.322.138.55.275.78-.091.092-.183.092-.32.092-.138 0-.276-.046-.321-.138a6.06 6.06 0 0 0-.413-.779c-.137-.23-.275-.412-.458-.55a2.1 2.1 0 0 0-.642-.32c-.229-.092-.55-.092-.916-.092h-2.475Zm20.302 2.062c-.137.046-.229.046-.275.046-.137 0-.275-.046-.32-.092-.092-.046-.138-.137-.138-.183-.32-.688-.687-1.146-1.1-1.467-.412-.32-1.008-.458-1.741-.458-.275 0-.55.046-.825.137a3.16 3.16 0 0 0-.688.321c-.183.138-.32.321-.458.55-.092.23-.183.458-.183.688 0 .55.229 1.008.687 1.375.458.366 1.146.733 2.062 1.1 1.146.458 1.971.962 2.521 1.512.55.55.825 1.237.825 2.016 0 .504-.092.917-.23 1.375-.137.413-.366.78-.687 1.1-.32.32-.733.55-1.237.733-.504.184-1.1.275-1.787.275a9.007 9.007 0 0 1-2.017-.229 5.782 5.782 0 0 1-1.512-.596c-.046-.504-.092-.962-.138-1.42-.091-.459-.137-.917-.229-1.375.092-.046.183-.046.32-.046.138 0 .23.046.322.092.091.045.137.183.183.32.275.871.687 1.467 1.146 1.88.458.412 1.1.595 1.97.595.367 0 .688-.046 1.009-.137.275-.092.504-.275.687-.459.183-.183.32-.412.413-.641a2.14 2.14 0 0 0 .137-.78c0-.595-.23-1.1-.642-1.466-.412-.366-1.008-.687-1.787-.962-.504-.184-.962-.367-1.375-.596-.412-.23-.779-.458-1.054-.733a3.67 3.67 0 0 1-.687-.963 3.566 3.566 0 0 1 0-2.52c.137-.367.412-.734.687-1.009a4.464 4.464 0 0 1 1.1-.687c.413-.183.917-.23 1.42-.23.55 0 1.1.047 1.605.138a8.31 8.31 0 0 1 1.741.55c.046.367.046.734.092 1.146.046.367.092.733.183 1.1Zm9.899 7.471c0 .228.092.412.23.503.183.092.458.184.916.275.138.046.184.138.184.275 0 .092 0 .184-.046.275-.367-.046-.734-.046-1.1-.046-.367 0-.733-.045-1.054-.045-.321 0-.688 0-1.054.045-.367 0-.734.046-1.1.046-.046-.137-.046-.229-.046-.275 0-.183.046-.275.183-.275.459-.091.78-.183.917-.275.183-.091.229-.275.229-.504v-9.028c0-.23-.092-.413-.23-.504-.183-.092-.457-.184-.916-.275-.091 0-.137-.046-.137-.092-.046-.046-.046-.138-.046-.183 0-.092 0-.184.046-.275a8.83 8.83 0 0 0 1.1.045c.366 0 .733.046 1.054.046.275 0 .641 0 1.008-.046.367 0 .78-.045 1.146-.045.046.137.046.229.046.275 0 .183-.046.275-.184.32-.458.092-.779.138-.916.275-.184.092-.23.275-.23.505v8.982Zm15.353-7.471c-.137.046-.229.046-.275.046-.137 0-.275-.046-.32-.092-.092-.046-.138-.137-.138-.183-.32-.688-.687-1.146-1.1-1.467-.412-.32-1.008-.458-1.741-.458-.275 0-.55.046-.825.137a3.16 3.16 0 0 0-.688.321c-.183.138-.32.321-.458.55-.092.23-.183.458-.183.688 0 .55.229 1.008.687 1.375.458.366 1.146.733 2.062 1.1 1.146.458 1.971.962 2.521 1.512.55.55.825 1.237.825 2.016 0 .504-.092.917-.23 1.375-.137.413-.366.78-.687 1.1-.32.32-.733.55-1.237.733-.504.184-1.1.275-1.787.275a9.007 9.007 0 0 1-2.017-.229 5.782 5.782 0 0 1-1.512-.596c-.046-.504-.092-.962-.138-1.42-.091-.459-.137-.917-.229-1.375.092-.046.183-.046.321-.046.137 0 .23.046.32.092.092.045.138.183.184.32.275.871.688 1.467 1.146 1.88.458.412 1.1.595 1.97.595.367 0 .688-.046 1.009-.137.275-.092.504-.275.687-.459.184-.183.321-.412.413-.641a2.14 2.14 0 0 0 .137-.78c0-.595-.229-1.1-.641-1.466-.413-.366-1.009-.687-1.788-.962-.504-.184-.962-.367-1.375-.596-.412-.23-.779-.458-1.054-.733a3.67 3.67 0 0 1-.687-.963 3.566 3.566 0 0 1 0-2.52c.137-.367.412-.734.687-1.009a4.464 4.464 0 0 1 1.1-.687c.413-.183.917-.23 1.42-.23.55 0 1.1.047 1.605.138a8.31 8.31 0 0 1 1.741.55c.046.367.046.734.092 1.146.046.367.138.733.183 1.1ZM9.121 113.75a2.14 2.14 0 0 1-.78-.138 1.648 1.648 0 0 1-.55-.366 1.34 1.34 0 0 1-.32-.55c-.092-.231-.092-.459-.092-.688 0-.183.046-.412.092-.641.091-.23.183-.413.32-.55.138-.184.321-.322.55-.413.23-.092.459-.137.78-.137h.32c.092 0 .184 0 .275.045.092 0 .184.046.275.046.092 0 .184.046.275.046 0 .092 0 .23.046.367 0 .137.046.275.092.412h-.185l-.044-.046a1.04 1.04 0 0 0-.276-.504c-.137-.091-.32-.137-.595-.137-.23 0-.413.046-.55.091a1.6 1.6 0 0 0-.413.275c-.091.138-.182.275-.275.459a2.322 2.322 0 0 0-.091.596c0 .229.046.458.091.641.092.183.184.367.275.504.138.138.275.275.413.321.183.092.32.138.55.138.137 0 .275 0 .366-.046l.275-.138.184-.183.137-.275c.046-.046.046-.092.138-.092h.091l-.137.413a1.356 1.356 0 0 0-.092.458c-.183.046-.366.046-.504.046-.229 0-.412.046-.641.046Zm5.866-1.329h-1.146l-.32.825c0 .045-.047.091-.047.091 0 .092.092.138.321.138.046 0 .046 0 .046.046v.137h-1.055v-.137l.047-.046c.091 0 .183-.046.229-.046.046-.046.092-.046.137-.138l1.238-3.024c.046-.046.046-.092.091-.092h.046l1.283 3.116c0 .046.046.092.138.138.092.046.137.046.23.046 0 0 .045 0 .045.046v.137h-1.283v-.137h.046c.091 0 .183-.046.229-.046a.099.099 0 0 0 .091-.092v-.092l-.366-.87Zm-.092-.23-.504-1.283-.504 1.283h1.008Zm4.766 0v1.055c0 .091.046.137.138.183.091.046.183.046.366.092.046 0 .046.045.046.091v.092h-1.42v-.092c0-.046 0-.091.045-.091.138-.046.23-.046.275-.092.046-.046.092-.092.092-.138v-2.658c0-.091-.046-.137-.092-.137-.045-.046-.137-.046-.275-.092-.045 0-.045-.046-.045-.092v-.091h1.374c.367 0 .642.091.825.275a.933.933 0 0 1 .275.687.85.85 0 0 1-.091.321c-.046.138-.138.23-.23.32a.998.998 0 0 1-.366.23c-.138.046-.32.092-.458.092h-.459v.045Zm.275-.229c.23 0 .413-.045.55-.183.138-.092.184-.275.184-.55 0-.092 0-.23-.046-.32-.046-.092-.046-.184-.138-.23-.046-.092-.137-.137-.229-.183-.092-.046-.23-.046-.367-.046h-.275v1.512h.321Zm4.583 1.329c0 .092.046.138.092.138.046.046.137.046.275.092.046 0 .046.045.046.091v.092h-1.283v-.092c0-.046 0-.091.045-.091.138-.046.23-.046.275-.092.046-.046.092-.092.092-.138v-2.658c0-.091-.046-.137-.092-.137-.046-.046-.137-.046-.275-.092 0 0-.046 0-.046-.046v-.137h1.284v.091c0 .046 0 .092-.046.092-.138 0-.23.046-.275.092-.046.046-.092.091-.092.137v2.658Zm4.675-2.796v2.796c0 .092.046.138.092.184.045.046.183.046.32.091.046 0 .046.046.046.092v.092h-1.466v-.092c0-.046 0-.092.045-.092.138 0 .275-.045.321-.091.092-.046.092-.092.092-.184v-2.795h-.55c-.092 0-.183 0-.275.046-.092 0-.138.045-.183.091a.633.633 0 0 0-.138.184.943.943 0 0 0-.137.229s0 .046-.046.046h-.046c-.046 0-.092 0-.092-.046.046-.138.046-.23.092-.321 0-.092.046-.183.046-.23 0-.045.046-.09.046-.137 0-.046.045-.046.091-.046h2.888c.045 0 .045 0 .091.046 0 .046.046.092.046.138 0 .046.046.137.046.229s.046.183.092.32h-.138s-.046 0-.046-.045a1.002 1.002 0 0 0-.137-.23c-.046-.045-.092-.137-.138-.183-.046-.045-.091-.091-.183-.091s-.138-.046-.275-.046h-.504v.046Zm5.499 1.926h-1.144l-.321.825c0 .045-.046.091-.046.091 0 .092.092.138.32.138.047 0 .047 0 .047.046v.137h-1.054v-.137l.045-.046c.092 0 .184-.046.23-.046.045-.046.091-.046.137-.138l1.236-3.024c.046-.046.046-.092.092-.092h.046l1.283 3.116c0 .046.046.092.138.138a.413.413 0 0 0 .229.046s.046 0 .046.046v.137h-1.284v-.137h.046c.092 0 .184-.046.23-.046a.099.099 0 0 0 .091-.092v-.092l-.367-.87Zm-.045-.23-.505-1.283-.504 1.283h1.009Zm4.766 1.1c0 .046.046.092.091.138.046.046.138.046.23.046h.55c.091 0 .183 0 .275-.046.091-.046.137-.046.183-.092a.633.633 0 0 0 .137-.183c.046-.092.092-.138.092-.23 0-.045.046-.045.046-.045h.046s.046 0 .046.046c-.046.091-.046.229-.092.32 0 .138-.046.23-.046.413 0 .046 0 .046-.046.092h-2.475v-.092c0-.046 0-.092.046-.092.138-.045.23-.045.275-.091.046-.046.092-.092.092-.138v-2.658c0-.092-.046-.137-.092-.137-.046-.046-.137-.046-.275-.092 0 0-.046 0-.046-.046v-.137h1.375v.091c0 .046 0 .092-.046.092-.137 0-.275.046-.32.092-.092.045-.092.091-.092.183v2.566h.046Zm8.57-1.146h-.367v1.146c0 .092.046.138.092.138.092.046.183.046.32.046.047 0 .047.046.047.091v.092h-1.375v-.092c0-.045 0-.091.046-.091.137 0 .229-.046.275-.092.045-.046.091-.092.091-.137v-2.659c0-.045-.046-.137-.091-.137-.046-.046-.138-.046-.275-.092-.046 0-.046-.046-.046-.091v-.092h1.329c.366 0 .641.092.87.23.184.182.276.366.276.687 0 .091 0 .137-.046.229-.046.091-.046.183-.138.229-.046.092-.137.137-.229.229-.092.046-.183.138-.32.183l.87 1.192c.046.092.137.137.23.183.09.046.137.046.228.092.046 0 .046.046.046.092v.091h-.595c-.092 0-.138-.046-.23-.091-.091-.046-.137-.138-.229-.23l-.78-1.145Zm-.138-.228c.23 0 .413-.046.55-.138.138-.092.184-.275.184-.55 0-.092 0-.23-.046-.275a.996.996 0 0 0-.138-.229c-.045-.046-.137-.138-.229-.138-.091-.045-.229-.045-.366-.045h-.275v1.42h.32v-.045Zm5.363-1.422v1.33h.824c.092 0 .138-.046.138-.092.046-.046.046-.137.092-.229 0-.046.045-.046.091-.046h.092v1.054h-.092c-.046 0-.091 0-.091-.046a.35.35 0 0 0-.092-.229c-.046-.046-.092-.091-.138-.091h-.824v1.237c0 .092.045.138.137.138.092.045.23.045.458.045h.275c.092 0 .184 0 .275-.045a.633.633 0 0 0 .184-.138.633.633 0 0 0 .137-.183c.046-.092.092-.138.138-.23 0-.045.045-.045.091-.045h.046s.046 0 .046.046c-.046.045-.046.137-.092.229 0 .091-.046.183-.046.275 0 .091-.045.137-.045.229a.099.099 0 0 1-.092.092h-2.474v-.092c0-.046 0-.092.045-.092.137-.046.23-.046.275-.091.046-.046.092-.092.092-.138v-2.658c0-.092-.046-.138-.092-.138-.046-.045-.138-.045-.275-.091-.046 0-.046-.046-.046-.092v-.092h2.292c.045 0 .091.046.091.092s.046.138.046.183c0 .092 0 .184.046.275a.35.35 0 0 0 .092.23c-.046 0-.046.045-.092.045s-.092 0-.092-.045c-.046-.092-.091-.184-.137-.23-.046-.045-.092-.137-.138-.137-.046-.046-.091-.092-.183-.092s-.138-.046-.275-.046h-.687v-.091Zm6.553.597h-.092c-.045 0-.091 0-.091-.046l-.046-.046c-.092-.183-.183-.32-.32-.413a.832.832 0 0 0-.505-.137c-.092 0-.183 0-.23.046-.09 0-.137.046-.182.091l-.138.138c-.046.046-.046.137-.046.23 0 .182.046.274.184.412.137.091.32.229.595.32.321.138.596.275.734.459.137.183.229.366.229.595 0 .138 0 .275-.046.413a.739.739 0 0 1-.183.32.998.998 0 0 1-.367.23c-.137.046-.32.092-.504.092-.23 0-.413 0-.596-.046a1.372 1.372 0 0 1-.458-.184c0-.137-.046-.275-.046-.412 0-.138-.046-.275-.092-.413h.092c.046 0 .092 0 .092.046 0 0 .045.046.045.092.092.23.184.412.321.55.138.137.321.183.596.183.092 0 .23 0 .275-.046.092-.045.138-.091.23-.137.09-.046.09-.138.137-.183.045-.092.045-.138.045-.23 0-.183-.045-.32-.183-.412a3.051 3.051 0 0 0-.55-.275c-.137-.046-.275-.092-.412-.183-.138-.046-.23-.138-.321-.23a.959.959 0 0 1-.183-.274.863.863 0 0 1-.092-.367c0-.138.046-.23.092-.367.045-.091.137-.229.183-.275a.739.739 0 0 1 .32-.183c.138-.046.276-.092.413-.092.184 0 .321 0 .459.046.137.046.32.092.504.138 0 .091 0 .229.045.32.046 0 .046.138.092.23Zm2.658.87c0-.229.046-.458.138-.687.091-.23.183-.413.366-.55.138-.138.321-.275.504-.367.184-.091.413-.137.642-.137.32 0 .55.046.78.137.228.092.412.23.55.367.137.183.274.367.32.55.092.23.092.412.092.687a1.9 1.9 0 0 1-.138.734 1.667 1.667 0 0 1-.366.55 2.312 2.312 0 0 1-.55.366 1.84 1.84 0 0 1-.688.138 1.83 1.83 0 0 1-.687-.138c-.184-.091-.367-.183-.55-.366a1.648 1.648 0 0 1-.367-.55c0-.23-.046-.459-.046-.734Zm1.789 1.513c.183 0 .32-.046.458-.092a.713.713 0 0 0 .367-.275.886.886 0 0 0 .229-.412c.046-.138.091-.321.091-.505 0-.229-.045-.504-.091-.687a1.53 1.53 0 0 0-.23-.55 1.082 1.082 0 0 0-.412-.367 1.22 1.22 0 0 0-.55-.137c-.137 0-.275.046-.412.092-.138.045-.23.137-.367.229a.998.998 0 0 0-.23.366 1.68 1.68 0 0 0-.09.505c0 .275.045.504.09.733.047.229.138.412.23.596.092.183.23.275.412.366a.924.924 0 0 0 .505.138Zm7.194-1.054c0 .183 0 .366-.046.55a.886.886 0 0 1-.23.412.667.667 0 0 1-.412.275 2.705 2.705 0 0 1-.641.092c-.321 0-.55-.046-.733-.092a1.6 1.6 0 0 1-.413-.275c-.092-.137-.183-.275-.183-.412-.046-.138-.046-.321-.046-.505v-1.787c0-.092-.046-.137-.092-.137-.046-.046-.137-.046-.275-.092-.046 0-.046-.046-.046-.092v-.091h1.284v.091c0 .046 0 .092-.046.092-.138 0-.23.046-.275.092-.046.045-.092.091-.092.137v1.65c0 .367.092.642.23.825.137.183.366.275.733.275.183 0 .366 0 .504-.046a.739.739 0 0 0 .32-.183c.092-.092.138-.23.184-.367.046-.137.046-.32.046-.504v-1.65c0-.092-.046-.137-.092-.137-.046-.046-.137-.046-.275-.092-.046 0-.046-.046-.046-.092v-.091h1.054v.137l-.046.046c-.137 0-.229.046-.275.092-.045.045-.091.091-.091.137v1.742Zm4.216-.276h-.366v1.146c0 .092.045.138.091.138.092.046.183.046.321.046.046 0 .046.046.046.091v.092h-1.375v-.092c0-.045 0-.091.046-.091.137 0 .229-.046.275-.092.046-.046.091-.092.091-.137v-2.659c0-.045-.045-.137-.091-.137-.046-.046-.138-.046-.275-.092-.046 0-.046-.046-.046-.091v-.092h1.329c.367 0 .642.092.87.23.184.182.276.366.276.687 0 .091 0 .137-.046.229-.046.091-.046.183-.138.229-.045.092-.137.137-.229.229-.091.046-.183.138-.32.183l.87 1.192c.046.092.138.137.23.183.091.046.137.046.228.092.046 0 .046.046.046.092v.091h-.595c-.092 0-.138-.046-.23-.091-.091-.046-.137-.138-.229-.23l-.779-1.145Zm-.092-.228c.23 0 .413-.046.55-.138.138-.092.184-.275.184-.55 0-.092 0-.23-.046-.275a1.002 1.002 0 0 0-.138-.229c-.045-.046-.137-.138-.229-.138-.091-.045-.229-.045-.366-.045h-.275v1.42h.32v-.045Zm5.867 1.833a2.14 2.14 0 0 1-.78-.138 1.648 1.648 0 0 1-.55-.366 1.34 1.34 0 0 1-.32-.55c-.092-.23-.092-.459-.092-.688 0-.183.046-.412.092-.641.091-.23.183-.413.32-.55.138-.184.321-.321.55-.413.23-.092.459-.137.78-.137h.32c.092 0 .184 0 .275.045.092 0 .184.046.275.046.092 0 .184.046.275.046 0 .092 0 .23.046.367 0 .137.046.275.092.412h-.183l-.046-.046a1.04 1.04 0 0 0-.275-.504c-.138-.091-.321-.137-.596-.137-.23 0-.412.046-.55.091a1.6 1.6 0 0 0-.412.275c-.092.138-.184.275-.275.459a2.322 2.322 0 0 0-.092.596c0 .229.046.458.092.641.045.183.183.367.275.504.137.138.275.275.412.321.183.092.32.138.55.138.137 0 .275 0 .367-.046l.275-.138.183-.183.137-.275c.046-.046.046-.092.138-.092h.092l-.138.413a1.356 1.356 0 0 0-.092.458c-.183.046-.366.046-.504.046-.275 0-.458.046-.641.046Zm4.675-3.255v1.33h.824c.092 0 .138-.046.138-.092.046-.046.046-.137.091-.229 0-.046.046-.046.092-.046h.092v1.054h-.092c-.046 0-.092 0-.092-.046a.35.35 0 0 0-.091-.229c-.046-.046-.092-.091-.138-.091h-.825v1.237c0 .092.046.138.138.138.091.045.229.045.458.045h.275c.092 0 .183 0 .275-.045a.633.633 0 0 0 .183-.138c.046-.046.092-.092.138-.183.046-.092.091-.138.137-.23 0-.045.046-.045.092-.045h.046s.046 0 .046.046c-.046.045-.046.137-.092.229 0 .091-.046.183-.046.275 0 .091-.046.137-.046.229a.099.099 0 0 1-.091.092h-2.475v-.092c0-.046 0-.092.046-.092.137-.046.229-.046.275-.091.045-.046.091-.092.091-.138v-2.658c0-.092-.046-.138-.091-.138-.046-.045-.138-.045-.275-.091-.046 0-.046-.046-.046-.092v-.092h2.292c.045 0 .091.046.091.092s.046.138.046.183c0 .092 0 .184.046.275a.35.35 0 0 0 .091.23c-.046 0-.046.045-.091.045-.046 0-.092 0-.092-.045-.046-.092-.092-.184-.137-.23-.046-.045-.092-.137-.138-.137-.046-.046-.092-.092-.183-.092-.092 0-.138-.046-.275-.046h-.688v-.091Zm6.507.597h-.092c-.045 0-.091 0-.091-.046l-.046-.046c-.092-.183-.183-.32-.32-.413a.832.832 0 0 0-.505-.137c-.092 0-.183 0-.23.046-.09 0-.137.046-.182.091l-.138.138c-.046.046-.046.137-.046.23 0 .182.046.274.184.412.137.091.32.229.595.32.321.138.596.275.734.459.137.183.229.366.229.595 0 .138 0 .275-.046.413a.739.739 0 0 1-.183.32.998.998 0 0 1-.367.23 1.64 1.64 0 0 1-.504.092c-.23 0-.413 0-.596-.046a1.372 1.372 0 0 1-.458-.184c0-.137-.046-.275-.046-.412 0-.138-.046-.275-.092-.413h.092c.046 0 .092 0 .092.046 0 0 .045.046.045.092.092.23.184.412.321.55.138.137.321.183.596.183.092 0 .23 0 .275-.046.092-.045.137-.091.23-.137.045-.046.09-.138.137-.183.045-.046.045-.138.045-.23 0-.183-.045-.32-.183-.412a3.051 3.051 0 0 0-.55-.275 1.628 1.628 0 0 1-.412-.183c-.138-.046-.23-.138-.321-.23a.93.93 0 0 1-.183-.274.863.863 0 0 1-.092-.367c0-.138.046-.23.092-.367.045-.091.137-.229.183-.275a.739.739 0 0 1 .32-.183c.138-.046.276-.092.413-.092.183 0 .321 0 .458.046.138.046.321.092.505.138 0 .091 0 .229.045.32.046 0 .092.138.092.23Z" fill="#F37021"/></g></svg>
