<svg width="60" height="61" viewBox="0 0 60 61" xmlns="http://www.w3.org/2000/svg"><path d="M37.99 21.707c.512 0 .683.516.342.86L31.159 32.2l-.17.172c0 .172-.342.172-.513 0l-7.173-9.633c-.341-.344 0-.86.342-.86h4.782V.549c0-.345.17-.517.512-.517h3.586c.342 0 .513.172.513.516v21.159h4.952m21.042 9.59c0-10.15-5.294-19.265-13.32-24.255-.342-.344-.855 0-.855.344v4.645c0 .344.171.688.342.86.512.516 1.195 1.032 1.708 1.548a24.683 24.683 0 0 1 5.123 7.569c1.196 2.924 1.879 6.02 1.879 9.29 0 3.268-.683 6.364-1.879 9.289a24.683 24.683 0 0 1-5.123 7.569 24.489 24.489 0 0 1-7.514 5.16c-2.904 1.205-6.148 1.893-9.222 1.893-3.245 0-6.32-.688-9.222-1.893-2.904-1.204-5.465-2.924-7.515-5.16a24.683 24.683 0 0 1-5.123-7.57c-1.537-2.924-2.22-6.192-2.22-9.289 0-3.268.683-6.365 1.878-9.289a24.683 24.683 0 0 1 5.124-7.569c.512-.516 1.024-1.032 1.708-1.548a1.319 1.319 0 0 0 .341-.86V7.386c0-.344-.512-.688-.854-.516C6.262 12.03.968 20.976.968 31.125c0 15.826 12.808 28.728 28.69 28.9a28.647 28.647 0 0 0 29.374-28.728" fill="#F37021" fill-rule="evenodd"/></svg>
