<svg version="1.1" id="Layer_1" xmlns="http://www.w3.org/2000/svg" x="0" y="0" viewBox="0 0 16 16" style="enable-background:new 0 0 16 16" xml:space="preserve"><style>.st1{fill:#ba5c2d}</style><path d="M8 16c-4.4 0-8-3.6-8-8s3.6-8 8-8 8 3.6 8 8-3.6 8-8 8z" style="fill:#f37021"/><path d="M10.2 7.8c.1 0 .2-.1.3-.1-.4-.1-.4.1-.8.1.3.1.4.1.5 0zM10 9.2zm0 0zM5.2 7.9S5 6.1 7.1 4.8c.2-.1.6-.4.9-.6C10.6 2.4 9.3.7 9.3.7c.1.7-.2 1.3-.7 1.7-.2.1-.3.3-.6.5-.4.2-.8.5-1.2.8-.3.2-.8.6-1.1 1-.2.3-.5.7-.6 1.2-.2.7-.2 1.4.1 2zm6.9.4.1-.1H12s.1 0 .1.1zm-.1 0c0 .1.1 0 .1.1h.1c0-.1-.1-.1-.2-.1z"/><path d="M6.6 5.5c-1 .9-1.2 2-.9 2.9.1.4.3.7.5 1l.4.4c.1 0 .1.1.2.2h.1c.4.2.9.4 1.3.3.1 0 .3 0 .4-.1.1 0 .1 0 .2-.1h.3s.1 0 .1-.1h.1s.1 0 .1-.1h.1l.1-.1c.1 0 .1-.1.2-.1l.1-.1.2-.2c-.7.3-1.6.7-2.3.6-.1 0-.2 0-.2-.1-.4 0-.6-.2-.7-.3-.1-.2-.2-.4-.2-.5v-.2c0-.1 0-.1.1-.2v-.1s0-.1.1-.1v-.4c0 .2-.1.3-.2.4l-.2.2v-.6c.1-.3.2-.7.5-1.1.3-.4.7-.8 1.4-1.2.2-.1.4-.2.6-.4.2-.2.4-.3.6-.5.7-.8.8-1.9.4-2.5-.1 1.5-2.2 2.2-3.4 3.1z"/><path d="M11.6 8.2h-.1s-.1-.1-.1-.2c0 0 .1.1.2.1 0 0 0-.1.1-.1 0 0 0 .1.1.1l.1.1s0-.1.1-.1c0 0 0-.1-.1-.2-.1.1 0 .1.1.1h.1v-.1s-.1-.1-.2 0c0 0 0-.1-.1-.1h.3c0-.1-.1-.1-.1-.1v-.1h-.4s-.2 0-.4.1c-.1 0-.1 0-.2.1h-.1c-.4.2-.4.2-.6.2.4.2.5 0 .7-.1.2-.1.2.1 0 .2h-.3c.1.1.1.1.2.1h-.3c.1 0 .1.1.1.1h-.3l-.2.2h-.4l-.4-.1h-.3c-.2 0-1.3.2-1.3.2l-.3-.2h-.1c-.1 0-.1.1-.1.1v.1l-.1.1v.1l.1.2h.1-.1v-.1h.3l.1-.1h.1s.8.2 1.4 0c0 0-.2.1-.3.2 0 0 .3.1.5-.1v.2h.1V9h.7c0-.1-.1-.1-.1-.1h.2c0 .1.1.2.1.2h-.2c-.1 0-.1 0-.2.1h-.4l.5-.2s-.1.1-.1.2c-.8 1.3-2 1.6-3.1 1.2h-.1c-.1 0-.2-.1-.3-.1 0 0-.1 0-.1-.1h-.1c-.1-.1-.3-.2-.4-.3-.9-.7-1.4-1.8-1.2-2.8-.9 2.1.7 4.1 2.6 4.5.2-.2.5-.4.8-.6l.1-.1h.1c.1-.1.3-.1.3-.1h.1c-.1 0-.2.1-.3.1 0 0-.1 0-.1.1-.1 0-.1.1-.2.1-.4.3-.6.4-.9.6-.2.1-.3.3-.3.3h-.2c-.1 0-.6.2-.8.3h-.1s-.1.2-.3.3c0 .1-.1.1-.1.2l-.1.1h.2s-.4.1-.5.2h-.2c-.1 0-.2.1-.2.2-.1.1-.2.2-.4.3 0 0-.2.3-.1.5 0 0 .1.1.1.2h.1c-.3-.3 0-.5 0-.5 0 .1.1.2.1.2 0-.1.2-.3.3-.4.1-.1.3-.2.4-.3h.1c-.1.1-.5.4-.7.6v.2s.1 0 .1.1v-.3s.4 0 .9-.5c0 0 .7-.3 1.3-.4.2-.1.3-.1.3-.1s.3 0 .5-.1h.2s.9-.4 1.2-.6l-.2.2s.4-.2.7-.3c.1-.1.3-.2.3-.2.2.1.5-.3.5-.3l.1.1c.1 0 .3-.1.4-.1-.1 0-.3.1-.4 0 .3 0 .4-.1.6-.4-.3.1-.4.3-.8.1.4.1.6-.2 1.2-.4l.1-.1s-.2-.2-.4-.2c0 0-.2-.2-.2-.4.2.2.4.5.6.3l-.4-.2c0-.1-.2-.4-.1-.5.1.2.3.6.7.6 0 0 0 .1.1.1s.2-.1.2-.2c-.1 0-.2 0-.2-.1 0 0-.2-.1-.3-.4v.3s-.4-.3-.2-.4c0-.1-.1-.4-.1-.6 0 0 .2.5.3.6 0-.1-.2-.7-.1-.7l-.6-.4v-.1h.1l-.1-.1v-.1c.1 0 .2 0 .3.1 0 0 .2.2.2.4v-.2s.2-.3.3-.3c-.1.2-.2.5-.3.7h.1c.1-.1.3.9.3 1.1 0-.2.1-.9-.1-1.6l.1.1.1.1s.2-.1.4-.1c0 0-.1.1-.2.1 0 0-.1.2-.1.4l.2-.4c.2-.1.3-.2.3-.2l-.6-.2c-.2.1-.2 0-.2-.1zm-1.4.3h-.5l-.1-.1c.3-.1.6 0 .6 0 .1-.1.2-.1.2-.1-.2.1-.2.2-.2.2zm.3 1s-.3.3-.3.5v-.1c0-.3.2-.3.3-.6v-.1.3zm.1.3v.4c-.2-.2 0-.4 0-.4zm-.3.2v.3c-.1-.1 0-.3 0-.3zm-.5.5c0 .1 0 .1-.1.1v.1-.2c0-.1 0-.1.1-.2v-.1c-.1.3 0 .3 0 .3zm.2-.6c0 .1 0 .1 0 0v.3c-.1 0-.4.2-.4.2h-.2c-.1 0-.2.1-.2.1-.1 0-.3-.1-.3-.1-.1 0-.3.1-.4.1h-.2.6c.1 0 .1-.1.2-.1h.4c.1 0 .1 0 .2-.1 0 0 0-.1.1-.2 0-.1.1-.2.1-.2-.1-.3 0-.5.1-.6-.1.3 0 .6 0 .6.1-.1.1-.1 0 0 0-.1 0-.1 0 0zm.1.7c-.1-.2 0-.4 0-.4v.4zm.1.4v-.2c0 .1.2.2.2.2h-.2zm.5-.1h-.2c-.1-.2-.2-.3-.1-.4.1.1.3.4.3.4zm.1-1.7c.1.2 0 .5.1.7-.1 0-.1-.1-.1-.1-.1-.1-.1-.2-.1-.3 0-.1 0-.2-.1-.3l-.1-.1h.1c.1-.1.1 0 .2.1zm.8.9s0 .1 0 0c0 .1 0 0 0 0z"/><path d="M6.9 8.5s0 .1-.1.1v.1c0-.1 0-.1.1-.2z"/><path class="st1" d="M10.9 7.6s.1 0 .2-.1c-.1 0-.4-.1-.5 0 .1.1.2.1.3.1 0 .1 0 0 0 0zm0 .2c-.3.1-.4.2-.7.1.2 0 .3 0 .6-.2h-.3c-.1 0-.2.1-.3.1l-.1.1c-.1.1-.3.1-.5.1.3.2.4.1.6 0 .2-.1.3-.1.5 0h.3c.1-.1.1-.3-.1-.2zM7.3 7c-.5.4-.7.8-.8 1.1v.6c0-.1.1-.1.2-.2s.1-.2.2-.5c.1.1.1.2 0 .3.1-.3.1-.7.4-1.3zM7 7c1-.8 2.8-1 3.1-2.7 0 .1-.1.3-.5.6-.2.2-.4.4-.6.5-.2.2-.4.3-.6.4-.7.4-1.1.8-1.4 1.2zm-.2-3.3c.4-.3.8-.6 1.2-.8.3-.2.5-.3.6-.5.2-.2.2-.5.3-.9 0 .7-2.4 2.3-3.2 3.3l.1-.1c.2-.4.7-.8 1-1z"/><path class="st1" d="M10 9.2c.1-.1.1-.2.1-.2s-.1.1-.1.2c-.1 0-.1 0 0 0l-.2.2-.1.1c-.1 0-.1.1-.2.1l-.1.1h-.1s-.1 0-.1.1h-.1s-.1 0-.1.1h-.3c-.1 0-.1 0-.2.1-.1 0-.3.1-.4.1-.5.1-.9-.1-1.3-.3h-.1c-.1 0-.2-.1-.2-.2-.1.1-.2-.1-.3-.2-.2-.3-.4-.6-.5-1-.3-.9-.1-2 .9-2.9-.8.5-1.8 2.1-1.1 3.8-.2-.3-.4-.5-.5-.9-.1-.3.1-.8-.1-1v.3c0 .3-.2.3-.2 0 0-.4.2-.4 0-.9v.3c-.2 1 .3 2.1 1.2 2.8.1.1.3.2.4.3h.1s.1 0 .1.1c.1.1.2.1.3.1h.1c1.1.4 2.3.1 3.1-1.2zm.6-.2c-.1 0-.1 0 0 0-.1 0-.1 0 0 0-.1 0-.1 0 0 0v.1c.1.1.1.2.1.3 0 .1 0 .2.1.3 0 .1.1.1.1.1-.1-.2-.1-.5-.1-.7-.1 0-.1-.1-.2-.1zm-.1.2c0 .1 0 .1 0 0-.1.3-.3.4-.3.7v.1c.1-.2.3-.5.3-.5v-.3zm.1 1v-.4s-.2.2 0 .4zm-.3.2v-.3c0-.1-.1.1 0 .3zm-.2.2v-.4c0 .1-.1.2 0 .4z"/><path class="st1" d="M10 9.9c0-.1 0-.1 0 0v-.1s-.1-.2 0-.6c0 .1-.1.3-.1.6 0 0 0 .1-.1.2 0 .1-.1.2-.1.2s-.1 0-.2.1h-.4c-.1 0-.1 0-.2.1h-.6.2c.2 0 .3-.1.4-.1 0 0 .2.1.3.1 0 0 .1 0 .2-.1.1 0 .2-.1.2 0 0 0 .3-.2.4-.2v-.2c0 .1 0 .1 0 0zm-.3.6c0 .1 0 .1 0 0 0 .1 0 .1 0 0-.1.1-.1.2-.1.2v.2-.1c.1-.2.1-.2.1-.3 0 .1 0 .1 0 0 0 .1.1.1 0 0 .1.1.1.1 0 0 .1 0 .1 0 0 0l.1-.1c0 .1 0 .1-.1.1.1 0 0 0 0 0zm-1.1.2c-.1 0-.2 0-.4.1h-.1l-.1.1c-.3.2-.5.4-.8.6l-.1.1c.4-.2.5-.3.9-.6.1 0 .1-.1.2-.1 0 0 .1 0 .1-.1.1 0 .3 0 .3-.1.1.1.1.1 0 0zm-2.9 1.5c-.2.2-.6.7-.6.7-.3 0-.3.2-.3.2-.1 0-.3.1-.3.1-.2.3-.6.5-.6.5-.2.3-.1.6-.1.6 0 .1.1.1.2.2-.1-.1-.1-.2-.1-.2-.1-.3.1-.6.1-.6.2-.1.3-.2.4-.3.1-.1.1-.2.2-.2h.2c.2-.1.5-.2.5-.2h-.2l.1-.1s.1-.1.1-.2l.1-.1c.3-.2.4-.3.3-.4.1.1.1.1 0 0l.1.1c.3-.2.8-.3.9-.3-.6 0-1 .2-1 .2z"/><path class="st1" d="M4.5 13.8c-.1.1-.3.3-.3.4 0 0-.1-.1-.1-.2 0 0-.3.2 0 .5 0-.1.1-.2.1-.2s.1 0 .1.1v-.2c.2-.2.6-.5.7-.6h-.1c-.1 0-.3.1-.4.2zm3.3-5.3c.1 0 1.1-.1 1.3-.1l.3.1.3-.1h.4l.2-.2h.3l-.1-.1c-.1 0-.1-.1-.2-.1l-.2.2h-.3s-.2.1-.3.1c0 0-.2-.1-.3-.1-.1.1-1.1.2-1.4.3zm-.5.1.1-.1s.1 0 .1-.1h.1-.2c-.1 0-.1.1-.1.2-.1 0-.1.1 0 0-.1.1 0 0 0 0z"/></svg>
