<svg width="110" height="123" viewBox="0 0 110 123" xmlns="http://www.w3.org/2000/svg"><defs><filter x="-20%" y="-17.6%" width="140%" height="135.2%" filterUnits="objectBoundingBox" id="a"><feOffset dx="-5" dy="-1" in="SourceAlpha" result="shadowOffsetOuter1"/><feGaussianBlur stdDeviation="2.5" in="shadowOffsetOuter1" result="shadowBlurOuter1"/><feColorMatrix values="0 0 0 0 1 0 0 0 0 0.541176471 0 0 0 0 0 0 0 0 1 0" in="shadowBlurOuter1" result="shadowMatrixOuter1"/><feMerge><feMergeNode in="shadowMatrixOuter1"/><feMergeNode in="SourceGraphic"/></feMerge></filter></defs><g filter="url(#a)" transform="translate(10 5)" fill="none"><g fill="#000"><path d="M63.458 43.42c.642-.229 1.192-.55 1.88-.779.045 0 .137-.046.183-.046-2.522-.825-2.66.55-5.09.55 1.376.642 2.293.55 3.027.275Zm-1.422 8.208c-.091.091-.137.183-.183.275 0-.046.092-.138.183-.275Zm-28.84-7.52S31.958 33.196 44.43 25.355a208.265 208.265 0 0 0 5.64-3.943C65.474 10.271 57.725 0 57.725 0c.55 4.493-1.284 7.703-4.172 10.5-.825 1.008-1.972 1.925-3.576 3.026-2.064 1.467-4.769 3.301-6.97 4.906-2.017 1.513-4.814 3.806-6.556 5.915-1.696 2.063-3.071 4.493-3.897 7.336-1.33 4.218-1.1 8.528.642 12.425Zm41.862 2.018c.32-.184.367-.596.412-.642 0 0-.596.229-1.1.091 0 0 .367.276.688.55Zm-.826.137s-.091.184-.137.321c0 0 .504-.046.825.092 0 0-.229.092-.275.183 0 0 .23.046.504.23-.045-.092-.045-.184-.045-.184l.045-.092-.091-.137c.091-.092.183-.184.183-.23a1.269 1.269 0 0 0-1.009-.183Z"/><path d="M41.266 29.62c-5.869 5.685-6.97 12.242-5.319 17.652a16.394 16.394 0 0 0 3.118 5.777 16.75 16.75 0 0 0 2.43 2.338c.459.367.871.688 1.376.963.137.092.275.184.412.23 2.43 1.42 5.181 2.109 8.024 1.834.78-.092 1.56-.23 2.339-.459.32-.092.641-.23.962-.367.092-.046.23-.091.321-.137a4.67 4.67 0 0 0 .688-.321c.138-.046.23-.138.367-.184.183-.091.413-.229.596-.32.138-.092.23-.138.367-.23.23-.137.412-.275.642-.413.137-.091.229-.137.367-.229l.687-.55a1 1 0 0 0 .23-.183 16.54 16.54 0 0 0 1.146-1.055l.688-.688c.366-.412.733-.825 1.1-1.284-3.118 2.706-8.574 5.182-12.93 4.723-.092 0-.183-.046-.23-.046-.503-.046-1.008-.183-1.512-.32-1.743-.505-2.889-1.239-3.668-2.11-.917-1.009-1.238-2.155-1.33-3.026 0-.092-.046-.183-.046-.23-.046-.274 0-.55 0-.825 0-.229.046-.366.046-.366.092-.367.23-.78.413-1.192.046-.092.091-.23.137-.321.138-.23.275-.459.367-.688v-.046c0-.046.046-.046.046-.092.092-.229.183-.458.23-.687.09-.505.09-1.1-.276-1.926-.137 1.284-.55 2.017-1.054 2.613-.367.459-.688.826-.963 1.238-.046-.412-.092-.78-.138-1.238-.046-.504-.046-1.238.092-2.155.23-1.788.963-4.172 2.705-6.648 1.696-2.476 4.402-4.998 8.574-7.107 1.33-.78 2.751-1.696 3.852-2.567a16.504 16.504 0 0 0 3.347-3.027c4.31-4.951 4.722-11.187 2.476-14.947-.321 8.758-12.884 12.93-20.68 18.615Z"/><path d="M71.573 46.034s-.504.137-.688.092c0 0-.687-.55-.733-1.33v-.092c.137.092.642.505 1.146.596 0 0 .046-.32.321-.642 0 0 .183.55.642.872l.183-.184s.321.413.688.734c0 0 .138-.505.413-.826 0 0-.138-.641-.596-.962 0 0 .78.366 1.238.366 0 0 .275-.137.596-.045 0-.046-.184-.917-.184-.917l-.275.091s-.367-.504-1.33-.275c0 0-.229-.504-.641-.871 0 0 .917-.138 1.604.046-.229-.321-.458-.55-.458-.55v-.505h-.046c-.32.046-1.513-.275-2.338-.137-.092 0-.138.046-.23.046h-.091a27.47 27.47 0 0 0-2.201.458c-.504.138-.917.23-1.1.367a.348.348 0 0 1-.184.092c-.138.091-.23.137-.367.183-2.155 1.192-2.476.963-3.714 1.1 2.201.917 3.026.046 4.54-.458 1.238-.459 1.1.78-.092 1.146a3.908 3.908 0 0 1-1.055.138c-.275 0-.55 0-.78-.046.322.367.643.596.964.733-.596.046-1.284-.091-1.972-.091.367.137.596.32.596.32l-.642-.091-.917-.138-1.054 1.055-2.201.138-1.926.733-1.971-.412c-1.33-.046-7.75 1.008-7.75 1.008l-1.696-.917-.366.092c-.321.137-.688.32-.688.32a1.73 1.73 0 0 0-.23.368c-.183.275-.412.55-.412.55l-.184.55.505.917.55-.092c-.183-.045-.32-.045-.413 0 0 0-.045-.275.276-.412.229-.092.962 0 1.513 0 .229-.138.504-.321.779-.459l.55-.275s5.135 1.238 8.3-.092c0 0-1.101.734-1.789 1.055 0 0 1.605.321 2.843-.458 0 0 .046.55.275.917l.871.137c-.046-.413-.046-.871-.046-.871 1.513-.23 3.714-.23 4.127-.183h.091l-.045-.046a3.626 3.626 0 0 0-.688-.734c.183-.046.412 0 .642.046.137 0 .275.046.412.092a.982.982 0 0 0 .275.045c0 .597.688 1.33.688 1.33-.32.092-.642-.183-.642-.183-.137.046-.229.091-.366.137-.321.138-.688.23-1.01.321-1.008.23-1.925.275-2.567.23l2.201.32v.046-.046c0 .184-.321.826-.459 1.055-.045.046-.045.092-.045.092-.046.091-.138.183-.184.275-4.906 7.886-12.15 9.4-18.523 7.382-.23-.046-.413-.138-.642-.23a28.996 28.996 0 0 1-2.11-.87c-.229-.092-.412-.23-.641-.322-.138-.091-.321-.183-.459-.275a20.21 20.21 0 0 1-2.43-1.605c-5.364-4.126-8.757-10.683-7.107-16.918v.045c-5.134 12.472 4.081 24.485 15.59 26.87 1.42-1.238 2.98-2.568 4.539-3.668a3.96 3.96 0 0 1 .733-.459l.413-.275c.871-.55 1.65-.55 2.109-.458h.138c.229.046.412.137.412.137-.412.138-1.375.413-1.788.55l-.55.413c-.413.275-.825.596-1.192.871-2.614 1.88-3.347 2.201-5.502 3.577-.917.78-1.834 1.971-1.788 1.971-.276-.046-.642-.046-1.01-.046-.504.138-3.53.963-5.089 1.743-.091.046-.229.091-.32.183 0 0-.734.963-1.605 1.926-.275.32-.596.642-.871.917l-.184.183a5.97 5.97 0 0 1-.596.55s.413 0 .917.184c0 0-2.11.458-3.255 1.33-.642-.046-1.1.045-1.468.229-.596.275-.917.733-1.42 1.33a8.249 8.249 0 0 1-2.431 2.017s-1.192 1.788-.871 3.21c0 0 .367.55.871.962.413.138.734.138.825.138-1.971-1.65-.091-2.935-.091-2.935-.184.872.458 1.192.458 1.192.275-.687 1.146-1.696 1.972-2.43.687-.641 1.604-1.146 2.521-1.513a2.27 2.27 0 0 1 .597-.183c-.872.688-3.118 2.476-4.219 3.897-.046.275-.046.642.092.963.183.092.367.23.55.321-.137-.413-.275-1.1-.046-1.696 0 0 2.339-.184 5.365-3.256 0 0 3.989-2.017 7.657-2.292a278.53 278.53 0 0 0 1.788-.55c.138 0 1.742-.23 3.026-.459.184-.046.367 0 .505 0l.412-.138c.23-.091 5.135-2.109 7.153-3.484 0 0-.596.688-1.238 1.238 0 0 2.66-1.192 4.035-1.926.55-.504 1.696-.963 1.696-.963 1.009.321 2.935-1.696 3.026-1.788.138.138.367.32.596.458.184-.091.276-.183.276-.183.733.046 1.88-.596 2.384-.871-.55.183-1.88.596-2.66.092 1.834-.184 2.385-.596 3.852-2.339-1.605.642-2.338 1.926-4.86.78 2.43.504 3.347-1.376 7.198-2.522 0 0 .55-.367.871-.734 0 0-.917-1.1-2.384-1.238 0 .092-1.1-1.375-1.146-2.476 1.1.917 2.2 2.797 3.897 1.56 0 0-1.375-.688-2.2-1.376-.276-.459-1.101-2.43-.872-3.21.413 1.284 2.018 3.577 4.127 3.76 0 0-.23.55.688.825v-.046c.733-.275 1.146-.917 1.283-1.192-.412.046-.917 0-1.238-.458 0 0-1.1-.596-1.696-2.293 0 0-.275.78.23 1.651 0 0-2.385-1.559-1.376-2.293-.23-.87-.78-2.705-.734-3.76 0 .138 1.009 2.935 1.513 3.76-.183-.687-.963-4.034-.917-4.401-.092-.046-1.971-1.376-3.393-2.247v-.046l.046-.733c.321 0 .642 0 .871.046-.137-.092-.458-.367-.825-.597v-.458c.642.046 1.467.183 2.063.413 0 0 1.055 1.33 1.513 2.521 0 0-.046-1.146-.229-1.467 0 0 1.467-1.605 2.063-2.017-.458.963-1.375 2.98-1.559 4.172 0 0 .275-.092.413-.275.413-.504 1.926 5.502 2.063 6.923.092-1.146.413-5.593-.596-9.399 0 0 .321.413.459.688l.412.32s1.192-.504 2.155-.55c0 0-.78.367-1.33.872 0 0-.32 1.284-.687 2.2.642-1.1 1.1-2.2 1.1-2.2 1.055-.505 1.788-1.146 1.926-1.238-.183-.092-1.88-.688-3.393-.917-.046.091-.32-.55-.32-.963Zm-8.436 1.65c-.734-.137-3.21.138-3.21.138-.183-.23-.733-.596-.733-.596 1.513-.413 3.576-.23 3.576-.23.504-.458 1.421-.641 1.421-.641-.825.55-1.054 1.33-1.054 1.33Zm2.109 5.915c-.275.275-1.56 2.018-1.926 3.026v.092c-.046.092-.046.184-.046.23a1.515 1.515 0 0 1 0-.643c0-.045 0-.137.046-.183v-.046c.23-1.696 1.467-2.109 1.88-3.622.046-.092.046-.23.092-.367-.092 0 .045 1.055-.046 1.513Zm.412 2.018L65.567 58c-1.055-1.284.091-2.384.091-2.384ZM64.054 56.9l-.092 2.063c-.917-1.146.092-2.063.092-2.063Zm-3.072 2.475c0 .046 0 .046 0 0v.046c0 .046-.046.092-.046.138a3.151 3.151 0 0 1-.275.596c0 .046-.046.046-.046.092-.046.045-.046.091-.092.183 0 .046-.046.046-.046.092s-.046.046-.046.091v.046c-.045.138-.091.275-.183.367 0 .046-.046.092-.046.138 0 .045-.046.045-.046.091s-.045.092-.045.138c0 .046-.046.046-.046.092 0 .045 0 .045-.046.091s-.046.138-.092.184c-.046.091-.046.137-.092.229v.046c0 .046 0 .046-.045.091 0 0 0 .046-.046.046 0 .046 0 .046-.046.046v.092a2.968 2.968 0 0 1-.046-1.1c.046-.367.183-.688.321-.963a.633.633 0 0 0 .138-.184c.091-.092.137-.23.229-.32a2.16 2.16 0 0 1 .504-.46c.092.138.184.092.138.092.046 0 .046 0 0 0Zm1.192-3.026c-.046.23-.138.413-.184.596 0 .046-.045.092-.045.138-.046.183-.138.367-.184.55-.183.504-.275.871-.275.871-.734.275-2.43 1.192-2.43 1.192-.367-.091-.963.046-1.467.23-.596.229-1.1.458-1.055.504-.688-.183-1.926-.504-1.926-.504-.825.229-1.742.504-2.705.78-.046 0-.137.045-.183.045l-.963.275c.046-.046.138-.046.183-.092.092-.045.23-.091.321-.137.046-.046.092-.046.184-.092.046 0 .091-.046.137-.046.046 0 .046-.046.092-.046s.092-.045.092-.045c.046-.046.091-.046.183-.092l.275-.138c.046-.046.138-.046.184-.091.045-.046.137-.046.183-.092.138-.046.23-.092.367-.184.046-.045.092-.045.137-.091.046 0 .046-.046.092-.046l.275-.138c.046-.045.092-.045.184-.091 0 0 .045 0 .045-.046.092-.046.138-.046.23-.092.137-.046.229-.092.366-.183.046 0 .092-.046.092-.046.046 0 .092-.046.138-.046.137.046.275.046.367.046h.137c.046 0 .092 0 .138.046h.137c.23.046.413.046.596.091.138 0 .275.046.413.046.367-.229.871-.367 1.284-.458.046 0 .091 0 .137-.046.688-.092 1.238-.092 1.192-.092.138-.091.276-.137.459-.229s.367-.183.55-.23c.046 0 .046-.045.092-.045.046-.046.137-.046.183-.092.367-.137.734-.275.917-.32.046-.276.23-.78.367-1.285 0-.045.046-.091.046-.137l.458-1.376a4.852 4.852 0 0 1 .459-3.347l.092-.183c0 .046 0 .092-.046.137-.505 1.834.091 3.347.091 3.347v.046c-.045.092-.091.321-.183.55v.092c-.138.23-.183.413-.23.596 0-.046 0-.046 0 0Zm.458 4.035c-.825-1.421.23-2.155.23-2.155l-.23 2.155Zm.596 2.201c-.183-.504-.137-.917-.091-1.238.229.367 1.008 1.009 1.008 1.009-.504.32-.917.229-.917.229Zm3.256-.596c-.459.275-1.1.23-1.1.23-.734-.918-1.01-1.835-.826-2.523.459.78 1.88 2.247 1.926 2.293Zm.32-9.95c.413 1.238.184 2.843.918 4.173-.321-.23-.596-.505-.734-.826-.367-.641-.413-1.375-.504-2.109-.092-.642-.184-1.284-.505-1.834-.137-.275-.366-.504-.642-.733-.045-.046-.091-.092-.137-.092.046 0 .092 0 .137.046h.092c.092.046.23.046.367.092.367.137.78.458 1.009 1.283Z"/><path d="M71.757 57.313c0 .184-.046.275-.046.275.091 0 .091-.091.046-.275ZM43.1 47.593c-.138.23-.23.458-.367.688-.046.137-.092.229-.137.32.183-.366.366-.687.504-1.008Z"/></g><g fill="#E6E7E8"><path d="M67.492 42.412c.183-.092.596-.23 1.1-.367-.917-.046-2.292-.55-3.117 0 .642 0 1.283.183 1.834.459.046-.046.137-.046.183-.092Zm.275.917c-1.513.55-2.292 1.375-4.539.458 1.192-.137 1.559.092 3.714-1.1a3.827 3.827 0 0 0-1.605-.046c-.688.184-1.238.55-1.88.78-.275.183-.55.32-.87.504-.689.413-1.468.734-2.752.688 1.605.963 2.43.412 3.439.046 1.192-.413 1.88-.459 2.797-.276.229.046.412.138.596.184.367 0 .733-.046 1.054-.138 1.147-.275 1.284-1.513.046-1.1ZM45.85 38.698c-3.3 2.384-4.355 4.585-4.814 6.694-.137.917-.137 1.65-.091 2.155l.137 1.238c.275-.413.596-.78.963-1.238.504-.596.963-1.33 1.055-2.613.32.825.366 1.421.275 1.925.78-2.384.366-4.539 2.476-8.161Zm-2.063 0c5.96-5.181 17.24-6.465 19.166-16.69-.367.826-1.146 2.201-3.393 3.99a17.966 17.966 0 0 1-3.347 3.026 31.219 31.219 0 0 1-3.852 2.567c-4.172 2.11-6.877 4.631-8.574 7.107Zm-.779-20.266c2.155-1.605 4.86-3.439 6.97-4.906 1.604-1.146 2.796-2.017 3.576-3.026 1.054-1.33 1.513-2.889 1.604-5.548-.229 4.402-14.672 13.893-19.074 19.853.092-.137.23-.32.367-.458 1.697-2.11 4.54-4.402 6.557-5.915Z"/><path d="M62.128 51.902c.045-.09.137-.182.183-.274 0 0 .046-.046.046-.092.137-.275.458-.871.458-1.054v.045c-.091.138-.642.963-.78 1.147-.09.091-.137.183-.228.32 0 .046-.046.046-.046.046-.367.459-.734.872-1.1 1.284l-.688.688-.23.23c-.32.32-.596.595-.917.825a.99.99 0 0 0-.229.183l-.688.55c-.137.092-.229.184-.367.23-.229.137-.412.275-.641.412-.138.092-.23.138-.367.23-.184.137-.413.229-.596.32-.138.046-.23.138-.367.184-.23.091-.459.183-.688.32-.092.047-.23.092-.32.138-.322.138-.643.23-.964.367-.78.23-1.559.413-2.338.459-2.843.32-5.64-.413-8.024-1.834a1.837 1.837 0 0 0-.413-.23c-.458-.275-.917-.642-1.375-.963a16.704 16.704 0 0 1-2.43-2.338 16.394 16.394 0 0 1-3.118-5.777c-1.605-5.502-.504-12.059 5.365-17.698-4.31 2.75-10.776 12.517-6.099 22.696-1.42-1.468-2.613-3.164-3.21-5.227-.458-1.605.735-4.769-.595-6.236.183.688.137.963.092 1.742-.046 1.743-1.055 1.972-.963.138.137-2.247 1.008-2.568-.184-5.594a5.25 5.25 0 0 1-.137 1.973v-.046c-1.65 6.235 1.742 12.792 7.107 16.919a20.21 20.21 0 0 0 2.43 1.604c.137.092.32.184.458.276.23.091.413.229.642.32.688.321 1.376.642 2.11.872.228.091.412.137.641.229 6.42 2.017 13.664.504 18.57-7.382Z"/></g><g fill="#E6E7E8"><path d="M65.704 50.757a.864.864 0 0 0-.367-.092h-.092c-.045 0-.091 0-.137-.046.046.046.092.092.137.092.276.23.505.459.642.734.321.55.413 1.192.505 1.834.091.733.183 1.467.504 2.109.183.32.413.596.734.825-.734-1.33-.505-2.98-.917-4.172-.138-.826-.55-1.147-1.009-1.284Zm-.504 1.33c0 .137-.046.229-.092.366-.413 1.56-1.65 1.926-1.88 3.623v.045c0 .046 0 .138-.046.184 0 .183-.046.458 0 .642 0-.092.046-.138.046-.23v-.091c.413-1.055 1.696-2.751 1.926-3.026.183-.459.046-1.513.046-1.513Zm.366 5.914.092-2.384s-1.146 1.1-.092 2.384Zm-1.559.963.092-2.063c-.046 0-1.054.917-.092 2.063Zm-1.375 1.421.23-2.154s-1.055.733-.23 2.154Zm-.321-4.539v-.091c.092-.23.138-.459.183-.55v-.046s-.55-1.514-.091-3.348c0-.045 0-.091.046-.137 0 0-.046.046-.092.183a4.852 4.852 0 0 0-.459 3.347c0 .046-.229.688-.458 1.376 0 .046-.046.092-.046.137a8.41 8.41 0 0 0-.367 1.284c-.183.046-.504.184-.917.321-.046.046-.137.046-.183.092-.046 0-.046.046-.092.046-.183.091-.367.183-.55.229-.184.092-.321.183-.459.23 0 0-.55-.047-1.192.091-.046 0-.091 0-.137.046-.459.092-.917.23-1.284.458-.138-.046-.275-.046-.413-.046-.183-.045-.367-.045-.596-.091h-.137c-.046 0-.092 0-.138-.046h-.137c-.092 0-.23-.046-.367-.046-.046 0-.092.046-.138.046-.046 0-.046.046-.092.046-.091.046-.229.091-.366.183-.092.046-.138.046-.23.092 0 0-.045 0-.045.046-.046.046-.092.046-.184.091l-.275.138c-.046 0-.046.046-.092.046-.045.046-.091.046-.137.092-.138.045-.23.091-.367.183-.046.046-.138.046-.183.092-.046.045-.138.045-.184.091l-.275.138c-.046.046-.092.046-.183.092-.046 0-.092.045-.092.045-.046 0-.092.046-.092.046-.046 0-.091.046-.137.046-.046.046-.092.046-.184.092-.137.046-.229.092-.32.137-.046.046-.138.046-.184.092l.963-.275c.046 0 .137-.046.183-.046.963-.275 1.88-.55 2.705-.78 0 0 1.238.322 1.926.505-.046 0 .459-.275 1.055-.504.504-.184 1.1-.321 1.467-.23 0 0 1.696-.917 2.43-1.192 0 0 .138-.366.275-.87.046-.184.138-.368.184-.551 0-.046.045-.092.045-.138.046-.183.138-.366.184-.55v-.046c.137-.275.183-.458.229-.596Zm-1.972 4.081c-.091.092-.137.183-.229.32-.046.047-.092.093-.137.184-.138.275-.275.596-.321.963-.046.321-.046.688.046 1.1v-.091s0-.046.045-.046c0 0 0-.046.046-.046 0-.046 0-.046.046-.092v-.045c.046-.046.046-.138.092-.23.046-.045.046-.137.091-.183 0-.046 0-.046.046-.092 0-.046.046-.046.046-.091 0-.046.046-.092.046-.138 0-.046.046-.046.046-.092s.046-.091.046-.137c.046-.138.091-.275.183-.367v-.046c0-.046.046-.046.046-.092 0-.045.046-.045.046-.091.046-.046.046-.138.092-.184 0-.046.045-.046.045-.091a2.44 2.44 0 0 1 .276-.596c0-.046.045-.092.045-.138v-.046s-.045.046-.137.092c-.092-.092-.275.046-.505.275Zm-6.648 1.238h-.092c-.458-.092-1.238-.092-2.109.458l-.412.276c-.23.137-.459.32-.734.458-1.559 1.1-3.118 2.43-4.54 3.668-.228.183-.55.504-.779.688 2.155-1.376 2.889-1.65 5.502-3.576.413-.276.826-.597 1.193-.872l.55-.412a38.443 38.443 0 0 1 1.788-.55c.046 0-.092-.092-.367-.138ZM36.222 70.06c-.963 1.284-3.393 4.08-3.393 4.08-1.605.184-2.017.963-2.017.963-.871 0-1.972.642-1.972.642-1.284 1.88-3.484 3.118-3.484 3.118-1.054 1.65-.687 3.668-.687 3.668.229.505.78.78 1.238.917-.505-.412-.871-.963-.871-.963-.367-1.42.87-3.21.87-3.21 1.285-.687 1.926-1.42 2.43-2.017.505-.596.826-1.1 1.422-1.33.367-.183.825-.228 1.467-.228 1.147-.872 3.256-1.33 3.256-1.33-.505-.184-.917-.184-.917-.184.183-.137.412-.32.596-.55l.183-.183c.275-.275.596-.596.871-.917.23-.23.413-.459.596-.688.55-.688 1.01-1.192 1.01-1.192.09-.046.183-.092.32-.183 1.559-.78 4.585-1.605 5.09-1.743-3.669-.229-6.007 1.33-6.007 1.33Z"/><path d="M29.069 79.368c-.825.733-1.696 1.742-1.971 2.43 0 0-.642-.321-.459-1.192 0 0-1.88 1.283.092 2.934h.046c.046-.321.733-1.376.733-1.376s0-.045.046-.045c.138.137.321.229.505.366-.092-.366-.138-.687-.092-.962 1.146-1.376 3.347-3.21 4.218-3.898-.183.046-.367.138-.596.184-.917.412-1.834.963-2.522 1.559Zm19.487-31.729.367.183s6.419-1.054 7.748-1.008l1.972.412 1.926-.733 2.2-.138 1.147-1.007.917.137.642.092s-.275-.138-.596-.321c-.367-.138-.78-.321-1.1-.367 0 0-.872.459-1.376.917 0 0-1.055.046-2.064.138 0 0-1.283.458-1.925.733 0 0-1.238-.412-1.88-.504 0 .046-5.731.963-7.978 1.467Zm-2.98.596s.229-.275.412-.55c.092-.138.184-.275.23-.367 0 0 .366-.183.687-.32l.367-.093s-.78-.091-1.238.138c0 0-.413.642-.688 1.009 0 0-.046.458.092.687 0 0 .092-.32.138-.504Z"/></g><path d="M43.42 87.208h13.205v1H43.42zM9.583 106.557c-.55.092-1.055.183-1.65.23a23.26 23.26 0 0 1-1.972.091c-1.01 0-1.88-.138-2.66-.459-.733-.32-1.375-.733-1.88-1.237a4.853 4.853 0 0 1-1.1-1.88c-.183-.781-.321-1.605-.321-2.431 0-.688.138-1.422.367-2.11a5.83 5.83 0 0 1 1.1-1.925c.505-.55 1.1-1.055 1.834-1.376.734-.366 1.605-.549 2.614-.549.367 0 .687 0 1.008.046.321 0 .642.046.963.092.321.045.642.091.963.183.321.046.688.138 1.055.23.046.412.046.825.137 1.283.046.459.138.871.275 1.284-.045.046-.091.046-.137.046h-.184c-.183 0-.32-.092-.366-.23-.23-.779-.596-1.375-1.1-1.696-.506-.321-1.239-.504-2.203-.504-.78 0-1.421.137-1.971.366-.55.23-1.055.596-1.422 1.01-.366.412-.641.962-.825 1.558a6.517 6.517 0 0 0-.275 1.926c0 .825.138 1.559.367 2.246.23.688.596 1.284 1.009 1.789.412.504.917.87 1.513 1.146a4.335 4.335 0 0 0 1.88.413c.32 0 .687-.046 1.054-.092s.642-.092.871-.184v-2.705c0-.32-.092-.55-.275-.688-.183-.137-.504-.229-.963-.275-.091 0-.137-.045-.183-.137-.046-.092-.046-.138-.046-.23 0-.091 0-.183.046-.275.32.046.733.046 1.146.046.413 0 .78.046 1.1.046.321 0 .642 0 1.055-.046.413 0 .734-.046 1.055-.046.045.138.045.23.045.276 0 .137 0 .183-.045.229-.046.046-.092.046-.138.092-.367.045-.642.137-.78.229-.137.091-.229.275-.229.504v3.164a.648.648 0 0 1-.091.275 1.37 1.37 0 0 1-.642.275Zm10.912-10.729v4.54h2.751c.23 0 .413-.138.505-.368.091-.229.183-.504.229-.825.046-.137.137-.23.32-.23h.138c.046 0 .092.047.138.047-.046.275-.046.55-.046.87 0 .322-.046.643-.046.872v.734c0 .275.046.596.092.962-.092.046-.184.046-.275.046-.184 0-.321-.091-.321-.229a3.556 3.556 0 0 0-.23-.825c-.091-.23-.275-.367-.504-.367h-2.75v4.172c0 .23.137.413.458.505.32.091.825.137 1.559.137h.962c.321 0 .642-.046.917-.137.276-.092.459-.23.688-.413.184-.183.367-.367.505-.596.137-.23.32-.504.458-.78.046-.091.138-.137.275-.137.046 0 .138 0 .184.046a.348.348 0 0 0 .183.092 8.621 8.621 0 0 0-.275.825c-.092.32-.138.596-.23.917-.091.275-.137.504-.229.733-.091.184-.183.321-.275.321h-.412c-.184 0-.367 0-.596-.045-.23 0-.413 0-.642-.046h-4.448c-.32 0-.688 0-1.1.046-.413 0-.78.045-1.1.045-.047-.137-.047-.229-.047-.275 0-.183.046-.275.184-.275.458-.091.78-.183.963-.275.183-.092.275-.275.275-.504v-9.033c0-.229-.092-.412-.275-.504-.184-.092-.505-.184-1.009-.275-.138-.046-.183-.138-.183-.321v-.138c0-.046 0-.091.045-.137.505.046.918.046 1.284.091h4.402c.55 0 1.009 0 1.375-.045.413-.046.642-.046.78-.046.137 0 .275.091.32.275.047.183.093.412.138.688.046.275.092.55.138.87.046.322.138.55.275.78-.092.092-.183.092-.32.092-.138 0-.276-.046-.322-.138a6.022 6.022 0 0 0-.412-.78c-.138-.228-.276-.412-.459-.55a2.1 2.1 0 0 0-.642-.32c-.23-.092-.55-.092-.917-.092h-2.476Zm21.733 7.978v-7.428c0-.275-.091-.458-.275-.55-.183-.092-.504-.183-.963-.23-.137 0-.183-.09-.183-.32 0-.092 0-.184.046-.275.275.046.596.046.917.046.32 0 .596.045.871.045s.55 0 .825-.045c.275 0 .55-.046.826-.046.045.137.045.229.045.275 0 .183-.045.275-.183.32-.413.047-.688.138-.825.23-.138.092-.23.275-.23.504v10.454c-.045 0-.045 0-.137.046h-.138c-.091 0-.137 0-.229-.046s-.137-.137-.23-.275l-7.198-9.49v8.344c0 .23.092.413.23.504.183.092.504.184.962.275.138.046.184.138.184.275 0 .092 0 .184-.046.276-.275-.046-.596-.046-.917-.046-.32 0-.596-.046-.825-.046-.23 0-.505 0-.826.046-.32 0-.596.046-.87.046-.047-.138-.047-.23-.047-.276 0-.183.046-.275.184-.275.412-.091.733-.183.87-.275.138-.091.23-.275.23-.504v-9.078c0-.184-.046-.321-.183-.413-.138-.092-.413-.184-.826-.23-.137-.045-.183-.137-.183-.32v-.275c.23.045.459.045.688.045.183 0 .412 0 .596.046h.55c.321 0 .55 0 .688.046a.96.96 0 0 1 .274.185l6.327 8.436Zm11.83-7.978v4.54h2.75c.23 0 .413-.138.505-.368a3.54 3.54 0 0 0 .23-.825c.045-.137.137-.23.32-.23h.138c.046 0 .092.047.137.047-.045.275-.045.55-.045.87 0 .322-.046.643-.046.872v.734c0 .275.046.596.091.962-.091.046-.183.046-.275.046-.183 0-.32-.091-.32-.229a3.556 3.556 0 0 0-.23-.825c-.092-.23-.275-.367-.504-.367h-2.751v4.172c0 .23.137.413.458.505.321.091.826.137 1.56.137h.962c.321 0 .642-.046.917-.137.275-.092.459-.23.688-.413.183-.183.367-.367.504-.596.138-.23.321-.504.459-.78.046-.091.137-.137.275-.137.046 0 .137 0 .183.046a.348.348 0 0 0 .184.092 8.6 8.6 0 0 0-.276.825c-.091.32-.137.596-.229.917-.091.275-.137.504-.229.733-.092.184-.183.321-.275.321h-.413c-.183 0-.367 0-.596-.045-.23 0-.412 0-.642-.046h-4.447c-.321 0-.688 0-1.1.046-.413 0-.78.045-1.101.045-.046-.137-.046-.229-.046-.275 0-.183.046-.275.183-.275.459-.091.78-.183.963-.275.184-.092.275-.275.275-.504v-9.033c0-.229-.091-.412-.275-.504-.183-.092-.504-.184-1.008-.275-.138-.046-.184-.138-.184-.321v-.138c0-.046 0-.091.046-.137.504.046.917.046 1.284.091h4.402c.55 0 1.008 0 1.375-.045.413-.046.642-.046.78-.046.137 0 .275.091.32.275.046.183.092.412.138.688.046.275.092.55.138.87.045.322.137.55.275.78-.092.092-.184.092-.321.092-.138 0-.275-.046-.321-.138a6.022 6.022 0 0 0-.413-.78c-.137-.228-.275-.412-.458-.55a2.1 2.1 0 0 0-.642-.32c-.23-.092-.55-.092-.917-.092h-2.476Zm20.312 2.063c-.138.046-.23.046-.276.046-.137 0-.275-.046-.32-.092-.092-.045-.138-.137-.138-.183-.321-.688-.688-1.146-1.1-1.467-.413-.321-1.01-.459-1.743-.459-.275 0-.55.046-.825.138a3.16 3.16 0 0 0-.688.32c-.183.138-.32.322-.458.551-.092.23-.184.459-.184.688 0 .55.23 1.008.688 1.375.459.367 1.146.734 2.063 1.1 1.147.46 1.972.964 2.522 1.514.55.55.825 1.238.825 2.017 0 .505-.091.917-.229 1.376-.137.412-.367.78-.688 1.1-.32.321-.733.55-1.238.734-.504.183-1.1.275-1.788.275a9.04 9.04 0 0 1-2.017-.23 5.785 5.785 0 0 1-1.513-.595c-.046-.505-.092-.963-.138-1.422-.092-.458-.137-.917-.23-1.375.093-.046.184-.046.322-.046.137 0 .23.046.32.091.093.046.138.184.184.321.275.872.688 1.468 1.146 1.88.459.413 1.1.596 1.972.596.367 0 .688-.045 1.009-.137.275-.092.504-.275.688-.459.183-.183.32-.412.412-.642.092-.229.138-.504.138-.779 0-.596-.23-1.1-.642-1.467-.413-.367-1.009-.688-1.788-.963-.505-.184-.963-.367-1.376-.596-.413-.23-.78-.459-1.054-.734a3.672 3.672 0 0 1-.688-.963 3.568 3.568 0 0 1 0-2.521c.137-.367.412-.734.688-1.01a4.464 4.464 0 0 1 1.1-.687c.413-.183.917-.23 1.421-.23.55 0 1.1.047 1.605.138.504.092 1.1.276 1.742.55.046.367.046.734.092 1.147.046.367.092.733.184 1.1Zm9.903 7.474c0 .23.092.413.23.504.183.092.458.184.917.275.137.046.183.138.183.275 0 .092 0 .184-.046.276-.367-.046-.734-.046-1.1-.046-.367 0-.734-.046-1.055-.046-.32 0-.688 0-1.054.046-.367 0-.734.046-1.1.046-.047-.138-.047-.23-.047-.276 0-.183.046-.275.184-.275.458-.091.78-.183.917-.275.183-.091.229-.275.229-.504v-9.034c0-.229-.092-.412-.23-.504-.183-.092-.458-.183-.916-.275-.092 0-.138-.046-.138-.092-.046-.046-.046-.137-.046-.183 0-.092 0-.184.046-.275.367.046.734.046 1.1.046.367 0 .734.045 1.055.045.275 0 .642 0 1.009-.045.367 0 .78-.046 1.146-.046.046.137.046.229.046.275 0 .183-.046.275-.183.32-.459.092-.78.138-.917.276-.184.092-.23.275-.23.504v8.987Zm15.36-7.474c-.137.046-.23.046-.275.046-.137 0-.275-.046-.32-.092-.093-.045-.138-.137-.138-.183-.321-.688-.688-1.146-1.1-1.467-.413-.321-1.01-.459-1.743-.459-.275 0-.55.046-.825.138a3.16 3.16 0 0 0-.688.32c-.184.138-.321.322-.459.551-.091.23-.183.459-.183.688 0 .55.23 1.008.688 1.375.458.367 1.146.734 2.063 1.1 1.146.46 1.971.964 2.522 1.514.55.55.825 1.238.825 2.017 0 .505-.092.917-.23 1.376-.137.412-.366.78-.687 1.1-.321.321-.734.55-1.238.734-.504.183-1.1.275-1.788.275a9.04 9.04 0 0 1-2.018-.23 5.785 5.785 0 0 1-1.513-.595c-.045-.505-.091-.963-.137-1.422-.092-.458-.138-.917-.23-1.375.092-.046.184-.046.322-.046.137 0 .229.046.32.091.092.046.138.184.184.321.275.872.688 1.468 1.146 1.88.459.413 1.1.596 1.972.596a3.56 3.56 0 0 0 1.008-.137c.276-.092.505-.275.688-.459.184-.183.321-.412.413-.642.092-.229.137-.504.137-.779 0-.596-.229-1.1-.642-1.467-.412-.367-1.008-.688-1.788-.963-.504-.184-.963-.367-1.375-.596-.413-.23-.78-.459-1.055-.734a3.672 3.672 0 0 1-.688-.963 3.568 3.568 0 0 1 0-2.521c.138-.367.413-.734.688-1.01a4.464 4.464 0 0 1 1.1-.687c.413-.183.918-.23 1.422-.23.55 0 1.1.047 1.605.138.504.092 1.1.276 1.742.55.046.367.046.734.092 1.147.046.367.137.733.183 1.1ZM9.078 113.664c-.275 0-.55-.046-.78-.137a1.649 1.649 0 0 1-.55-.367 1.341 1.341 0 0 1-.32-.55c-.092-.23-.092-.459-.092-.688 0-.183.046-.413.092-.642.091-.23.183-.413.32-.55.138-.183.323-.322.551-.413.23-.091.46-.137.78-.137H9.4c.092 0 .184 0 .275.046.092 0 .184.045.275.045.092 0 .184.046.276.046 0 .092 0 .23.045.367 0 .138.046.275.092.413h-.183l-.047-.046a1.04 1.04 0 0 0-.275-.504c-.138-.092-.322-.139-.596-.139-.23 0-.413.046-.55.092a1.6 1.6 0 0 0-.413.275 4.032 4.032 0 0 0-.275.458 2.323 2.323 0 0 0-.092.596c0 .23.046.459.092.642.091.184.183.367.275.505.137.137.275.275.413.32.183.092.32.138.55.138.137 0 .275 0 .367-.046l.275-.137.183-.184.138-.275c.045-.046.045-.092.137-.092h.092l-.138.413a1.356 1.356 0 0 0-.091.459c-.184.045-.367.045-.505.045-.229.046-.412.046-.642.046Zm5.869-1.329h-1.146l-.321.825c0 .046-.046.092-.046.092 0 .091.092.137.321.137.046 0 .046 0 .046.046v.138h-1.055v-.138l.046-.046c.092 0 .184-.046.23-.046.045-.045.091-.045.137-.137l1.238-3.026c.046-.046.046-.092.092-.092h.046l1.283 3.118c0 .046.046.092.138.137.092.046.137.046.23.046 0 0 .045 0 .045.046v.138h-1.283v-.138h.045c.092 0 .183-.046.23-.046a.099.099 0 0 0 .091-.091v-.092l-.367-.871Zm-.092-.184-.504-1.283-.504 1.284h1.008Zm4.769-.046v1.055c0 .092.046.138.137.183.092.046.184.046.367.092.046 0 .046.046.046.092v.091h-1.421v-.09c0-.046 0-.092.046-.092.137-.046.229-.046.275-.092.046-.045.091-.091.091-.137v-2.661c0-.091-.045-.137-.091-.137-.046-.046-.138-.046-.275-.092-.046 0-.046-.046-.046-.091v-.092h1.375c.367 0 .642.092.826.275a.933.933 0 0 1 .275.688.85.85 0 0 1-.092.32c-.046.092-.138.23-.23.322a.998.998 0 0 1-.366.229 1.63 1.63 0 0 1-.459.092h-.458v.045Zm.275-.183c.23 0 .413-.046.55-.183.138-.092.184-.275.184-.55 0-.092 0-.23-.046-.322-.046-.091-.046-.183-.138-.229-.046-.091-.137-.137-.229-.183-.092-.046-.23-.046-.367-.046h-.275v1.513h.321Zm4.585 1.284c0 .092.046.137.092.137.046.046.137.046.275.092.046 0 .046.046.046.092v.091h-1.284v-.09c0-.046 0-.092.046-.092.137-.046.229-.046.275-.092.046-.045.092-.091.092-.137v-2.661c0-.091-.046-.137-.092-.137-.046-.046-.138-.046-.275-.092 0 0-.046 0-.046-.046v-.137h1.284v.092c0 .045 0 .091-.046.091-.138 0-.23.046-.275.092-.046.046-.092.092-.092.138v2.659Zm4.677-2.797v2.797c0 .092.046.137.092.183.045.046.183.046.32.092.046 0 .046.046.046.092v.091h-1.467v-.091c0-.046 0-.092.046-.092.138 0 .275-.046.32-.092.093-.046.093-.091.093-.183v-2.798h-.55c-.092 0-.184 0-.276.046-.091 0-.137.046-.183.092a.633.633 0 0 0-.138.183 1.021 1.021 0 0 0-.137.23s0 .045-.046.045h-.046c-.046 0-.092 0-.092-.046.046-.137.046-.23.092-.32 0-.092.046-.184.046-.23 0-.046.046-.092.046-.138 0-.045.046-.045.092-.045h2.888c.046 0 .046 0 .092.045 0 .046.046.092.046.138 0 .046.046.138.046.23 0 .09.045.183.091.32h-.137s-.046 0-.046-.046a1.002 1.002 0 0 0-.138-.229c-.045-.045-.091-.135-.137-.182-.046-.046-.092-.092-.184-.092-.091 0-.137-.046-.275-.046h-.504v.046Zm5.502 1.926h-1.147l-.321.825c0 .046-.046.092-.046.092 0 .091.092.137.32.137.047 0 .047 0 .047.046v.138h-1.054v-.138l.046-.046c.092 0 .183-.046.23-.046.045-.045.09-.045.137-.137l1.238-3.026c.046-.046.046-.092.091-.092h.046l1.284 3.118c0 .046.046.092.138.137a.41.41 0 0 0 .229.046s.046 0 .046.046v.138h-1.284v-.138h.046c.091 0 .183-.046.229-.046a.099.099 0 0 0 .092-.091v-.092l-.367-.871Zm-.046-.184-.504-1.283-.505 1.284h1.01Zm4.769 1.055c0 .046.045.092.091.137.046.046.138.046.23.046h.55c.091 0 .183 0 .275-.046.091-.045.137-.045.183-.091a.633.633 0 0 0 .138-.184c.046-.091.091-.137.091-.229 0-.046.046-.046.046-.046h.046s.046 0 .046.046c-.046.092-.046.23-.092.321 0 .138-.046.23-.046.413 0 .045 0 .045-.045.091h-2.476v-.091c0-.046 0-.092.046-.092.137-.046.229-.046.275-.092.045-.046.091-.091.091-.137v-2.66c0-.091-.046-.137-.091-.137-.046-.046-.138-.046-.275-.092 0 0-.046 0-.046-.046v-.137h1.375v.091c0 .046 0 .092-.046.092-.137 0-.275.046-.32.092-.092.046-.092.092-.092.183v2.568h.046Zm8.574-1.146h-.367v1.146c0 .092.046.137.091.137.092.046.184.046.321.046.046 0 .046.046.046.092v.092h-1.375v-.092c0-.046 0-.092.046-.092a.393.393 0 0 0 .275-.091c.046-.046.091-.092.091-.138v-2.66c0-.045-.045-.137-.091-.137-.046-.046-.138-.046-.275-.092-.046 0-.046-.045-.046-.091v-.092h1.329c.367 0 .642.092.872.23.183.183.275.366.275.687 0 .092 0 .138-.046.23-.046.091-.046.183-.138.229-.046.091-.137.137-.229.229-.092.046-.183.137-.32.183l.87 1.192c.046.092.138.138.23.184.091.046.137.046.229.091.046 0 .046.046.046.092v.092h-.596c-.092 0-.138-.046-.23-.092-.091-.046-.137-.137-.229-.23l-.78-1.145Zm-.138-.23c.23 0 .413-.046.55-.137.138-.092.184-.275.184-.55 0-.092 0-.23-.046-.276a1.002 1.002 0 0 0-.138-.229c-.046-.046-.136-.137-.229-.137-.092-.046-.23-.046-.367-.046h-.275v1.421h.321v-.046Zm5.364-1.421v1.33h.826c.092 0 .137-.046.137-.092.046-.046.046-.138.092-.23 0-.045.046-.045.092-.045h.091v1.054h-.091c-.046 0-.092 0-.092-.045a.35.35 0 0 0-.092-.23c-.045-.046-.091-.091-.137-.091h-.825v1.238c0 .091.045.137.137.137.092.046.23.046.459.046h.275c.091 0 .183 0 .275-.046.091-.046.137-.092.183-.137.046-.046.092-.092.138-.184.046-.092.091-.137.137-.23 0-.045.046-.045.092-.045h.046s.046 0 .046.046c-.046.046-.046.137-.092.23 0 .09-.046.183-.046.274 0 .092-.046.138-.046.23a.099.099 0 0 1-.091.091h-2.476v-.092c0-.045 0-.091.046-.091.137-.046.229-.046.275-.092.045-.046.091-.092.091-.137v-2.66c0-.091-.046-.137-.091-.137-.046-.046-.138-.046-.275-.092-.046 0-.046-.046-.046-.092v-.091h2.292c.045 0 .09.045.09.091s.047.138.047.184c0 .091 0 .183.046.275a.35.35 0 0 0 .091.229c-.046 0-.046.046-.091.046-.046 0-.092 0-.092-.046a1.002 1.002 0 0 0-.138-.23c-.046-.045-.091-.137-.137-.137-.046-.046-.092-.091-.184-.091-.091 0-.137-.046-.275-.046h-.687v-.093Zm6.557.596h-.092c-.045 0-.091 0-.091-.046l-.046-.046c-.092-.183-.184-.32-.321-.412-.138-.092-.275-.138-.504-.138-.092 0-.184 0-.23.046-.091 0-.137.046-.183.092l-.138.137c-.045.046-.045.138-.045.23 0 .183.045.275.183.412.137.092.32.23.596.321.32.138.596.275.734.459.137.183.229.366.229.596 0 .137 0 .275-.046.412a.739.739 0 0 1-.183.321.998.998 0 0 1-.367.23 1.648 1.648 0 0 1-.505.091c-.229 0-.412 0-.596-.046a1.373 1.373 0 0 1-.458-.183c0-.138-.046-.275-.046-.413 0-.137-.046-.275-.092-.412h.092c.046 0 .092 0 .092.045 0 0 .046.046.046.092.091.23.183.413.32.55.138.138.321.184.597.184.091 0 .229 0 .275-.046.091-.046.137-.092.229-.138.046-.045.092-.137.137-.183.046-.046.046-.138.046-.23 0-.183-.046-.32-.183-.412a3.053 3.053 0 0 0-.55-.275 1.629 1.629 0 0 1-.413-.183c-.137-.046-.23-.138-.32-.23a.96.96 0 0 1-.184-.275.864.864 0 0 1-.092-.367c0-.137.046-.229.092-.366a1.39 1.39 0 0 1 .183-.275.739.739 0 0 1 .321-.184c.138-.046.275-.092.413-.092.183 0 .32 0 .458.046s.321.092.505.138c0 .092 0 .23.045.32.046.047.046.138.092.23Zm2.659.871c0-.23.046-.458.138-.688.092-.229.183-.412.367-.55.137-.137.32-.275.504-.367.184-.091.413-.137.642-.137.321 0 .55.046.78.137.229.092.412.23.55.367.137.184.275.367.32.55.092.23.092.413.092.688a1.9 1.9 0 0 1-.137.734c-.092.229-.23.412-.367.55-.137.138-.367.275-.55.367a1.84 1.84 0 0 1-.688.137 1.84 1.84 0 0 1-.688-.137c-.183-.092-.366-.184-.55-.367a1.649 1.649 0 0 1-.367-.55c0-.23-.046-.459-.046-.734Zm1.789 1.513c.183 0 .32-.046.458-.091a.713.713 0 0 0 .367-.276.887.887 0 0 0 .23-.412 1.68 1.68 0 0 0 .09-.505c0-.229-.045-.504-.09-.687a1.53 1.53 0 0 0-.23-.55 1.083 1.083 0 0 0-.413-.367 1.22 1.22 0 0 0-.55-.138c-.137 0-.275.046-.413.092-.137.046-.229.137-.366.23a.998.998 0 0 0-.23.366 1.648 1.648 0 0 0-.091.504c0 .275.046.505.091.734.046.23.138.412.23.596.091.183.229.275.412.367a.924.924 0 0 0 .505.137Zm7.198-1.054c0 .183 0 .366-.046.55a.887.887 0 0 1-.229.413.668.668 0 0 1-.413.275 2.706 2.706 0 0 1-.641.091c-.321 0-.55-.046-.734-.091a1.6 1.6 0 0 1-.413-.275c-.091-.138-.183-.276-.183-.413-.046-.138-.046-.321-.046-.504v-1.789c0-.091-.046-.137-.092-.137-.046-.047-.136-.047-.275-.092-.046 0-.046-.046-.046-.092v-.091h1.284v.091c0 .046 0 .092-.046.092-.137 0-.229.046-.275.092-.046.046-.091.092-.091.137v1.651c0 .367.091.642.229.825.137.184.367.275.733.275.184 0 .367 0 .505-.045a.739.739 0 0 0 .32-.184c.092-.092.138-.23.184-.367.046-.137.046-.32.046-.504v-1.65c0-.092-.046-.138-.092-.138-.046-.046-.137-.046-.275-.092-.046 0-.046-.046-.046-.092v-.091h1.055v.137l-.046.046c-.138 0-.23.046-.275.092-.046.046-.092.092-.092.137v1.743Zm4.218-.275h-.366v1.146c0 .092.045.137.091.137.092.046.184.046.321.046.046 0 .046.046.046.092v.092h-1.375v-.092c0-.046 0-.092.045-.092.138 0 .23-.046.276-.091.045-.046.091-.092.091-.138v-2.66c0-.045-.046-.137-.091-.137-.046-.046-.138-.046-.276-.092-.045 0-.045-.045-.045-.091v-.092h1.329c.367 0 .642.092.871.23.184.183.276.366.276.687 0 .092 0 .138-.046.23-.046.091-.046.183-.138.229-.046.091-.137.137-.23.229-.09.046-.183.137-.32.183l.87 1.192c.046.092.138.138.23.184.091.046.137.046.229.091.045 0 .045.046.045.092v.092h-.595c-.092 0-.138-.046-.23-.092s-.137-.137-.23-.23l-.779-1.145Zm-.091-.23c.229 0 .412-.046.55-.137.137-.092.183-.275.183-.55 0-.092 0-.23-.046-.276a.984.984 0 0 0-.137-.229c-.046-.046-.138-.137-.23-.137-.091-.046-.229-.046-.366-.046h-.275v1.421h.32v-.046Zm5.869 1.834c-.276 0-.55-.046-.78-.137a1.649 1.649 0 0 1-.55-.367 1.341 1.341 0 0 1-.321-.55c-.092-.23-.092-.459-.092-.688 0-.183.046-.413.092-.642.092-.23.183-.413.32-.55.138-.183.322-.321.551-.413.23-.091.459-.137.78-.137h.32c.092 0 .184 0 .276.046.091 0 .183.045.275.045.091 0 .183.046.275.046 0 .092 0 .23.046.367 0 .138.046.275.091.413h-.183l-.046-.046a1.04 1.04 0 0 0-.275-.504c-.137-.092-.32-.138-.596-.138-.23 0-.413.046-.55.092a1.6 1.6 0 0 0-.413.275 4.032 4.032 0 0 0-.275.458c-.046.184-.092.367-.092.596 0 .23.046.459.092.642.092.184.183.367.275.505.138.137.275.275.413.32.183.092.32.138.55.138.138 0 .275 0 .367-.046l.275-.137.183-.184.138-.275c.046-.046.046-.092.137-.092h.092l-.137.413c-.046.138-.092.275-.092.459-.184.045-.367.045-.504.045-.276.046-.459.046-.642.046Zm4.676-3.255v1.33h.826c.091 0 .137-.046.137-.092.046-.046.046-.138.092-.23 0-.045.046-.045.092-.045h.091v1.054h-.091c-.046 0-.092 0-.092-.045a.35.35 0 0 0-.092-.23c-.046-.046-.091-.091-.137-.091h-.826v1.238c0 .091.046.137.138.137.092.046.23.046.458.046h.276c.091 0 .183 0 .275-.046a.633.633 0 0 0 .183-.137.633.633 0 0 0 .138-.184c.045-.092.091-.137.137-.23 0-.045.046-.045.092-.045h.046s.046 0 .046.046c-.046.046-.046.137-.092.23 0 .09-.046.183-.046.274 0 .092-.046.138-.046.23a.099.099 0 0 1-.092.091h-2.476v-.092c0-.045 0-.091.046-.091.138-.046.23-.046.275-.092.046-.046.092-.092.092-.137v-2.66c0-.091-.046-.137-.092-.137-.045-.046-.137-.046-.275-.092-.046 0-.046-.046-.046-.092v-.091h2.293c.046 0 .092.045.092.091s.046.138.046.184c0 .091 0 .183.045.275a.35.35 0 0 0 .092.229c-.046 0-.046.046-.092.046-.045 0-.091 0-.091-.046a1.002 1.002 0 0 0-.138-.23c-.046-.045-.092-.137-.137-.137-.046-.046-.092-.091-.184-.091-.091 0-.137-.046-.275-.046h-.688v-.093Zm6.511.596h-.092c-.045 0-.091 0-.091-.046l-.046-.046c-.092-.183-.184-.32-.321-.412-.138-.092-.275-.138-.504-.138-.092 0-.184 0-.23.046-.091 0-.137.046-.183.092l-.139.137c-.045.046-.045.138-.045.23 0 .183.045.275.183.412.137.092.32.23.596.321.32.138.596.275.734.459.137.183.229.366.229.596 0 .137 0 .275-.046.412a.739.739 0 0 1-.183.321.998.998 0 0 1-.367.23 1.648 1.648 0 0 1-.505.091c-.229 0-.412 0-.596-.046a1.373 1.373 0 0 1-.458-.183c0-.138-.046-.275-.046-.413 0-.137-.046-.275-.092-.412h.092c.046 0 .092 0 .092.045 0 0 .046.046.046.092.091.23.183.413.32.55.138.138.321.184.597.184.091 0 .229 0 .275-.046.091-.046.137-.092.229-.138.046-.045.092-.137.137-.183.046-.092.046-.138.046-.23 0-.183-.046-.32-.183-.412a3.053 3.053 0 0 0-.55-.275 1.66 1.66 0 0 1-.413-.183c-.137-.046-.23-.138-.32-.23a.96.96 0 0 1-.184-.275.864.864 0 0 1-.092-.367c0-.137.046-.229.092-.366a1.39 1.39 0 0 1 .183-.275.739.739 0 0 1 .321-.184c.138-.046.275-.092.413-.092.183 0 .32 0 .458.046s.321.092.505.138c0 .092 0 .23.045.32a.35.35 0 0 1 .092.23Z" fill="#000"/></g></svg>
