<svg width="50" height="51" viewBox="0 0 50 51" xmlns="http://www.w3.org/2000/svg" xmlns:xlink="http://www.w3.org/1999/xlink"><defs><linearGradient x1="84.195%" y1="26.724%" x2="5.46%" y2="85.919%" id="a"><stop stop-color="#FFF" offset="0%"/><stop stop-color="#D8D8D8" stop-opacity=".622" offset="100%"/></linearGradient><linearGradient x1="50%" y1="0%" x2="50%" y2="100%" id="b"><stop stop-color="#FFF" offset="0%"/><stop stop-color="#E7E7E7" offset="100%"/></linearGradient><filter x="-15.5%" y="-15.5%" width="131.1%" height="131.1%" filterUnits="objectBoundingBox" id="d"><feMorphology radius="3" in="SourceAlpha" result="shadowSpreadInner1"/><feGaussianBlur stdDeviation="5" in="shadowSpreadInner1" result="shadowBlurInner1"/><feOffset in="shadowBlurInner1" result="shadowOffsetInner1"/><feComposite in="shadowOffsetInner1" in2="SourceAlpha" operator="arithmetic" k2="-1" k3="1" result="shadowInnerInner1"/><feColorMatrix values="0 0 0 0 0.890196078 0 0 0 0 0.898039216 0 0 0 0 0.925490196 0 0 0 1 0" in="shadowInnerInner1" result="shadowMatrixInner1"/><feOffset in="SourceAlpha" result="shadowOffsetInner2"/><feComposite in="shadowOffsetInner2" in2="SourceAlpha" operator="arithmetic" k2="-1" k3="1" result="shadowInnerInner2"/><feColorMatrix values="0 0 0 0 0 0 0 0 0 0 0 0 0 0 0 0 0 0 0.154629794 0" in="shadowInnerInner2" result="shadowMatrixInner2"/><feMerge><feMergeNode in="shadowMatrixInner1"/><feMergeNode in="shadowMatrixInner2"/></feMerge></filter><path d="M24.081 45.152c11.545 0 20.904-9.359 20.904-20.904 0-11.544-9.359-20.903-20.904-20.903S3.177 12.704 3.177 24.248c0 11.545 9.36 20.904 20.904 20.904Z" id="c"/></defs><g fill="none" fill-rule="evenodd"><g transform="translate(.49 1.354)"><circle stroke="url(#a)" stroke-width=".5" fill="#EAEAEA" cx="24.248" cy="24.248" r="24.498"/><use fill="url(#b)" xlink:href="#c"/><use fill="#000" filter="url(#d)" xlink:href="#c"/><path d="M24.081 3.345c11.545 0 20.904 9.359 20.904 20.903 0 11.545-9.359 20.904-20.904 20.904S3.177 35.793 3.177 24.248c0-11.544 9.36-20.903 20.904-20.903Zm0 .669c-11.175 0-20.235 9.059-20.235 20.234 0 11.176 9.06 20.235 20.235 20.235 11.176 0 20.235-9.06 20.235-20.235 0-11.175-9.06-20.234-20.235-20.234Z" fill="#C7C7C7"/></g><path d="M13.073 19.241a2.444 2.444 0 0 1 2.422-2.422h13.764c1.431 0 2.532 1.101 2.532 2.422v5.285H30.14v-2.752h-.881a2.444 2.444 0 0 1-2.423-2.423v-.88h-8.808v.88a2.444 2.444 0 0 1-2.423 2.423h-.88v3.303h.88a2.444 2.444 0 0 1 2.423 2.422v.881h8.258v1.652h-10.79a2.444 2.444 0 0 1-2.423-2.423v-8.368Zm2.422-.77c-.44 0-.88.33-.88.88v.771h.88c.55 0 .881-.33.881-.88v-.771h-.88Zm14.645 1.651v-.88c0-.441-.33-.882-.881-.882h-.771v.881c0 .55.33.881.88.881h.772Zm-15.415 7.487c0 .44.33.881.88.881h.771v-.88c0-.551-.33-.881-.88-.881h-.771v.88Zm.99 4.074h10.57v1.652h-7.706c-1.21 0-2.312-.66-2.862-1.652Zm19.38-7.157v-2.202c0-1.21-.661-2.312-1.652-2.862v5.064h1.651Zm-6.058 1.103c-.88 0-1.651.77-1.651 1.651v8.809c0 .88.77 1.651 1.651 1.651h5.506c.88 0 1.651-.77 1.651-1.651v-8.81c0-.88-.77-1.651-1.651-1.651h-5.506Zm.551 4.954h1.101c.33 0 .55.22.55.55 0 .331-.22.551-.55.551h-1.101c-.33 0-.55-.22-.55-.55 0-.33.22-.55.55-.55Zm3.303 0h1.101c.33 0 .55.22.55.55 0 .331-.22.551-.55.551h-1.1c-.331 0-.551-.22-.551-.55 0-.33.22-.55.55-.55Zm-3.303 2.202h1.101c.33 0 .55.22.55.551 0 .33-.22.55-.55.55h-1.101c-.33 0-.55-.22-.55-.55 0-.33.22-.55.55-.55Zm3.303 0h1.101c.33 0 .55.22.55.551 0 .33-.22.55-.55.55h-1.1c-.331 0-.551-.22-.551-.55 0-.33.22-.55.55-.55Zm-3.303 2.203h1.101c.33 0 .55.22.55.55 0 .33-.22.55-.55.55h-1.101c-.33 0-.55-.22-.55-.55 0-.33.22-.55.55-.55Zm3.303 0h1.101c.33 0 .55.22.55.55 0 .33-.22.55-.55.55h-1.1c-.331 0-.551-.22-.551-.55 0-.33.22-.55.55-.55Zm-3.854-7.157c0-.33.22-.55.551-.55h4.404c.33 0 .55.22.55.55v1.1c0 .331-.22.551-.55.551h-4.404c-.33 0-.55-.22-.55-.55v-1.103Zm-5.394-4.516-.66-.22v-1.652c.33 0 .66.33.66.661 0 .33.22.55.55.55.331 0 .551-.22.551-.55 0-.99-.77-1.762-1.651-1.762h-.11v-.11c0-.33-.22-.55-.55-.55-.331 0-.551.33-.551.55v.22h-.22c-.882 0-1.542.771-1.542 1.652 0 .991.55 1.321 1.1 1.542l.662.22v1.541c-.33 0-.661-.33-.661-.66s-.22-.55-.55-.55c-.331 0-.551.22-.551.55 0 .99.77 1.761 1.651 1.761h.11v.22c0 .33.22.551.551.551.33 0 .55-.22.55-.55v-.22h.22c.882 0 1.542-.661 1.542-1.652 0-1.101-.66-1.432-1.1-1.542Zm-2.092-.77c-.22-.11-.33-.11-.33-.551 0-.33.22-.55.44-.55h.22v1.21l-.33-.11Zm1.652 2.862h-.22v-1.21l.33.11c.22.11.33.11.33.55 0 .22-.22.55-.44.55Z" fill="#F37021" fill-rule="nonzero"/></g></svg>
