<svg width="13" height="10" viewBox="0 0 13 10" xmlns="http://www.w3.org/2000/svg"><path d="M5.417 2.6h2.166c.12 0 .217-.097.217-.217V.217A.217.217 0 0 0 7.583 0H5.417A.217.217 0 0 0 5.2.217v2.166c0 .12.097.217.217.217ZM5.2 5.633c0-.716-.583-1.3-1.3-1.3-.717 0-1.3.584-1.3 1.3 0 .4.186.755.471.994a3.01 3.01 0 0 0-1.036.524A2.16 2.16 0 0 0 3.9 8.233a2.16 2.16 0 0 0 1.865-1.082 3.017 3.017 0 0 0-1.036-.524c.285-.24.471-.593.471-.994Z"/><path d="M11.7 1.3H8.45a.217.217 0 0 0-.217.217v.866a.65.65 0 0 1-.65.65H5.417a.65.65 0 0 1-.65-.65v-.866A.217.217 0 0 0 4.55 1.3H1.3C.583 1.3 0 1.883 0 2.6v6.067c0 .716.583 1.3 1.3 1.3h10.4c.717 0 1.3-.584 1.3-1.3V2.6c0-.717-.583-1.3-1.3-1.3ZM3.9 8.667a2.603 2.603 0 0 1-2.6-2.6c0-1.434 1.166-2.6 2.6-2.6 1.434 0 2.6 1.166 2.6 2.6 0 1.434-1.166 2.6-2.6 2.6Zm7.583-1.3h-3.9a.217.217 0 0 1 0-.434h3.9a.217.217 0 0 1 0 .434Zm0-1.3h-3.9a.217.217 0 0 1 0-.434h3.9a.217.217 0 0 1 0 .434Zm0-1.3h-3.9a.217.217 0 0 1 0-.434h3.9a.217.217 0 0 1 0 .434Z"/></svg>
