<svg width="43" height="33" viewBox="0 0 43 33" xmlns="http://www.w3.org/2000/svg"><g fill="#F37021"><path d="M17.825 8.556h7.13c.394 0 .713-.32.713-.713V.713A.713.713 0 0 0 24.955 0h-7.13a.713.713 0 0 0-.713.713v7.13c0 .394.32.713.713.713Zm-.713 9.982a4.283 4.283 0 0 0-4.278-4.278 4.283 4.283 0 0 0-4.278 4.278c0 1.318.612 2.483 1.551 3.268-1.233.357-2.395.924-3.41 1.726 1.237 2.119 3.512 3.562 6.137 3.562 2.625 0 4.9-1.443 6.136-3.562-1.014-.802-2.176-1.368-3.41-1.726.94-.785 1.552-1.95 1.552-3.268Z"/><path d="M38.502 4.278H27.807a.713.713 0 0 0-.713.713v2.852c0 1.18-.96 2.139-2.139 2.139h-7.13c-1.18 0-2.139-.96-2.139-2.139V4.991a.713.713 0 0 0-.713-.713H4.278A4.283 4.283 0 0 0 0 8.556V28.52a4.283 4.283 0 0 0 4.278 4.278h34.224a4.283 4.283 0 0 0 4.278-4.278V8.556a4.283 4.283 0 0 0-4.278-4.278ZM12.834 28.52c-4.719 0-8.556-3.837-8.556-8.556 0-4.719 3.837-8.556 8.556-8.556 4.719 0 8.556 3.837 8.556 8.556 0 4.719-3.837 8.556-8.556 8.556Zm24.955-4.278H24.955a.713.713 0 0 1 0-1.426h12.834a.713.713 0 0 1 0 1.426Zm0-4.278H24.955a.713.713 0 0 1 0-1.426h12.834a.713.713 0 0 1 0 1.426Zm0-4.278H24.955a.713.713 0 0 1 0-1.426h12.834a.713.713 0 0 1 0 1.426Z"/></g></svg>
