<svg width="80" height="79" viewBox="0 0 80 79" xmlns="http://www.w3.org/2000/svg"><g fill="#5E2400" fill-rule="evenodd"><path d="M38.198 38.586c1.206 1.206 2.412 1.206 3.617 0l37.381-35.37C80 2.01 80 0 76.784 0H2.827C.817 0-.79 2.01.415 3.617l37.783 34.97ZM80 62.301c0 8.843-7.235 16.078-16.078 16.078-8.842 0-16.077-7.235-16.077-16.078s7.235-16.078 16.077-16.078C72.765 46.223 80 53.458 80 62.301Zm-22.107 6.431c-.402-.402-.402-.804 0-1.206l5.225-5.225-5.225-5.225c-.402-.402-.402-.804 0-1.206.402-.402.804-.402 1.206 0l5.225 5.225 5.225-5.225c.402-.402.804-.402 1.206 0 .402.402.402.804 0 1.206L65.53 62.3l5.225 5.225c.402.402.402.804 0 1.206-.402.402-.804.402-1.206 0l-5.225-5.225-5.225 5.225c-.402.402-1.206.402-1.206 0Z"/><path d="M63.922 45.42c7.235 0 13.264 4.42 16.078 10.852V17.284c0-2.01-2.01-2.412-3.216-1.608L47.443 43.008c-2.01 2.01-4.422 2.813-7.235 2.813-2.412 0-5.226-1.205-7.235-2.411L3.63 15.676C2.023 14.47.013 15.274.013 17.284v38.184c0 3.618 2.814 6.431 6.431 6.431H46.64c.402-9.245 8.039-16.48 17.283-16.48Z"/></g></svg>
