<svg width="80" height="79" viewBox="0 0 80 79" xmlns="http://www.w3.org/2000/svg"><g fill="#5E2400" fill-rule="evenodd"><path d="M39.825 78.342c4.42 0 8.035-3.616 8.035-8.035H31.79c0 4.419 3.616 8.035 8.035 8.035ZM18.532 8.839c1.607-1.607 1.607-4.018 0-5.625-1.607-1.607-4.017-1.607-5.625 0C6.48 9.24 1.658 18.079.051 27.319-.35 29.73 1.658 32.14 4.07 32.14c2.009 0 3.616-1.607 4.017-3.214C9.292 20.891 13.31 14.061 18.532 8.84ZM66.34 3.214c-1.607-1.607-4.017-1.607-5.624 0-1.607 1.607-1.607 4.018 0 5.625C66.34 14.06 70.358 20.89 71.16 28.524c.402 2.01 2.01 3.214 4.018 3.214 2.41 0 4.42-2.41 4.017-4.82C77.59 18.077 73.17 9.24 66.34 3.213ZM80 62.271c0 8.839-7.232 16.07-16.07 16.07-8.839 0-16.07-7.231-16.07-16.07 0-8.838 7.231-16.07 16.07-16.07 8.838 0 16.07 7.232 16.07 16.07ZM57.904 68.7c-.402-.402-.402-.804 0-1.206l5.222-5.223-5.222-5.222c-.402-.402-.402-.804 0-1.206.401-.401.803-.401 1.205 0l5.223 5.223 5.222-5.223c.402-.401.804-.401 1.206 0 .401.402.401.804 0 1.206l-5.223 5.222 5.223 5.223c.401.402.401.804 0 1.206-.402.401-.804.401-1.206 0l-5.222-5.223-5.223 5.223c-.402.401-1.205.401-1.205 0Z"/><path d="M46.655 62.271c0-9.24 7.633-16.873 16.873-17.275V34.15c0-12.454-6.428-22.498-18.079-25.31V6.026C45.45 2.812 42.637 0 39.423 0S33.8 2.812 33.8 6.026V8.84c-11.651 2.812-18.08 12.856-18.08 25.31v20.087l-5.222 5.223c-2.41 2.41-.804 6.83 2.812 6.83h34.15c-.403-1.205-.804-2.41-.804-4.018Z"/></g></svg>
