<svg width="43" height="47" viewBox="0 0 43 47" xmlns="http://www.w3.org/2000/svg" fill="#F37021"><path d="M25.136 40.576h-7.494c-1.499 0-2.784 1.713-1.927 3.212C17 45.715 19.14 47 21.496 47c2.355 0 4.497-1.285 5.567-3.212.857-1.499-.214-3.212-1.927-3.212ZM42.48 33.51l-.857-1.07c-3.426-4.497-5.138-9.85-5.138-15.417v-1.499c0-7.708-5.568-14.56-13.276-15.416C14.216-.963 6.508 6.103 6.508 14.882v2.141c0 5.567-1.713 10.92-5.14 15.417l-.856 1.07c-.428.429-.642 1.285-.428 1.713.642 1.927 2.355 3.212 4.282 3.212h34.26c1.927 0 3.64-1.285 4.068-3.212.214-.642 0-1.284-.214-1.713Z"/></svg>
