<svg width="70" height="70" viewBox="0 0 70 70" xmlns="http://www.w3.org/2000/svg" xmlns:xlink="http://www.w3.org/1999/xlink"><defs><linearGradient x1="84.195%" y1="26.724%" x2="5.46%" y2="85.919%" id="a"><stop stop-color="#FFF" offset="0%"/><stop stop-color="#D8D8D8" stop-opacity=".622" offset="100%"/></linearGradient><linearGradient x1="50%" y1="0%" x2="50%" y2="100%" id="b"><stop stop-color="#FFF" offset="0%"/><stop stop-color="#E7E7E7" offset="100%"/></linearGradient><filter x="-11.1%" y="-11.1%" width="122.2%" height="122.2%" filterUnits="objectBoundingBox" id="d"><feMorphology radius="3" in="SourceAlpha" result="shadowSpreadInner1"/><feGaussianBlur stdDeviation="5" in="shadowSpreadInner1" result="shadowBlurInner1"/><feOffset in="shadowBlurInner1" result="shadowOffsetInner1"/><feComposite in="shadowOffsetInner1" in2="SourceAlpha" operator="arithmetic" k2="-1" k3="1" result="shadowInnerInner1"/><feColorMatrix values="0 0 0 0 0.890196078 0 0 0 0 0.898039216 0 0 0 0 0.925490196 0 0 0 1 0" in="shadowInnerInner1" result="shadowMatrixInner1"/><feOffset in="SourceAlpha" result="shadowOffsetInner2"/><feComposite in="shadowOffsetInner2" in2="SourceAlpha" operator="arithmetic" k2="-1" k3="1" result="shadowInnerInner2"/><feColorMatrix values="0 0 0 0 0 0 0 0 0 0 0 0 0 0 0 0 0 0 0.154629794 0" in="shadowInnerInner2" result="shadowMatrixInner2"/><feMerge><feMergeNode in="shadowMatrixInner1"/><feMergeNode in="shadowMatrixInner2"/></feMerge></filter><path d="M33.766 63.31c16.187 0 29.31-13.122 29.31-29.31S49.953 4.69 33.766 4.69C17.578 4.69 4.456 17.812 4.456 34s13.122 29.31 29.31 29.31Z" id="c"/></defs><g fill="none" fill-rule="evenodd"><g transform="translate(1 1)"><circle stroke="url(#a)" stroke-width=".5" fill="#EAEAEA" cx="34" cy="34" r="34.25"/><use fill="url(#b)" xlink:href="#c"/><use fill="#000" filter="url(#d)" xlink:href="#c"/><path d="M33.766 4.69c16.187 0 29.31 13.122 29.31 29.31s-13.123 29.31-29.31 29.31c-16.188 0-29.31-13.122-29.31-29.31S17.577 4.69 33.765 4.69Zm0 .938C18.096 5.628 5.393 18.33 5.393 34s12.703 28.372 28.373 28.372c15.67 0 28.372-12.702 28.372-28.372S49.435 5.628 33.766 5.628Z" fill="#C7C7C7"/></g><path d="M42.129 38.43c-.87-.87-1.885-1.58-3.001-2.098a6.932 6.932 0 0 0 2.577-5.401c0-3.849-3.21-7.006-7.058-6.947a6.95 6.95 0 0 0-6.843 6.947 6.943 6.943 0 0 0 2.577 5.401 10.454 10.454 0 0 0-3.001 2.098 10.354 10.354 0 0 0-3.043 7.083.278.278 0 0 0 .278.285h1.945c.15 0 .275-.118.278-.268a7.851 7.851 0 0 1 2.317-5.331 7.872 7.872 0 0 1 5.603-2.32c2.115 0 4.106.822 5.603 2.32a7.883 7.883 0 0 1 2.317 5.331c.003.15.128.268.278.268h1.945a.278.278 0 0 0 .278-.285 10.33 10.33 0 0 0-3.05-7.083Zm-7.371-3.053a4.408 4.408 0 0 1-3.144-1.302 4.407 4.407 0 0 1-1.302-3.19 4.45 4.45 0 0 1 1.26-3.056 4.428 4.428 0 0 1 3.14-1.344 4.472 4.472 0 0 1 3.162 1.271 4.413 4.413 0 0 1 1.334 3.175 4.414 4.414 0 0 1-1.303 3.144 4.422 4.422 0 0 1-3.147 1.302Z" fill="#FF8A00" fill-rule="nonzero"/></g></svg>
