<svg xmlns="http://www.w3.org/2000/svg" class="icon" viewBox="7 7 65 65" width="24" height="24"><path d="M64 32c0 -13.569 -11.046 -24.615 -24.615 -24.615s-24.615 11.046 -24.615 24.615c0 9.069 4.985 16.923 12.308 21.192v13.615c0 1.854 1.108 3.515 2.823 4.223 1.708 0.708 3.669 0.323 4.985 -0.992l4.5 -4.5 4.5 4.5a4.567 4.567 0 0 0 3.231 1.338c0.592 0 1.185 -0.115 1.754 -0.354a4.556 4.556 0 0 0 2.823 -4.223v-13.615c7.323 -4.262 12.308 -12.115 12.308 -21.185zM46.769 55.423v10.538l-4.762 -4.762c-0.723 -0.723 -1.677 -1.085 -2.623 -1.085s-1.9 0.362 -2.623 1.085l-4.762 4.762v-10.538c0.315 0.1 0.638 0.146 0.954 0.231 0.723 0.2 1.431 0.4 2.177 0.531 1.369 0.254 2.754 0.408 4.138 0.415 0.038 0 0.077 0.008 0.115 0.008s0.077 -0.008 0.115 -0.008c1.385 -0.008 2.762 -0.162 4.138 -0.415 0.746 -0.131 1.462 -0.331 2.177 -0.531 0.315 -0.085 0.638 -0.131 0.954 -0.231zm1.454 -5.923 -0.092 0.046c-5.685 2.846 -11.808 2.846 -17.492 0l-0.092 -0.046C24.138 46.254 19.692 39.669 19.692 32 19.692 21.138 28.523 12.308 39.385 12.308s19.692 8.831 19.692 19.692c0 7.669 -4.446 14.254 -10.854 17.5z" data-spm-anchor-id="a313x.7781069.0.i11" class="selected" fill="#F37021"/><path d="M39.385 20.923c-6.108 0 -11.077 4.969 -11.077 11.077S33.277 43.077 39.385 43.077s11.077 -4.969 11.077 -11.077 -4.969 -11.077 -11.077 -11.077zm0 17.231c-3.392 0 -6.154 -2.762 -6.154 -6.154s2.762 -6.154 6.154 -6.154 6.154 2.762 6.154 6.154 -2.762 6.154 -6.154 6.154z" data-spm-anchor-id="a313x.7781069.0.i13" class="selected" fill="#F37021"/></svg>
