<svg width="20" height="21" viewBox="0 0 20 21" xmlns="http://www.w3.org/2000/svg"><g fill="#F37021"><path d="M0 0v7.856h7.692V3.142h1.539v-1.57H7.692V0H0Zm6.154 6.285H1.538V1.57h4.616v4.714ZM20 20.425V12.57h-3.077v-1.572h-1.538v1.572h-4.616v1.57h1.539v1.572h-1.539v1.571h1.539v3.143H20Zm-6.154-6.284h4.616v4.713h-4.616v-4.713Zm-9.23-3.143h3.076v-1.57H0v1.57h3.077v1.572H1.538v1.57h1.539v3.143H1.538v1.571h1.539v1.572h7.692v-1.572H9.231v-1.57H7.692v1.57H4.615v-1.57h1.539v-1.572H4.615v-4.714Z"/><path d="M3.077 3.142h1.538v1.572H3.077V3.142Zm12.308 0h1.538v1.572h-1.538V3.142Z"/><path d="M16.923 7.856H20V0h-7.692v7.856h3.077v1.571h1.538V7.856Zm-3.077-1.571V1.57h4.616v4.714h-4.616ZM20 10.998v-1.57h-3.077v1.57H20Zm-4.615 4.714h1.538v1.571h-1.538v-1.571ZM9.23 14.14h1.538v1.57H9.231v-1.57Zm-3.077 1.57h1.538v-3.14H6.154v3.142Zm1.538-4.713H9.23v1.572H7.692v-1.572ZM1.537 14.14H0v3.142h1.538V14.14ZM0 18.854h1.538v1.572H0v-1.572ZM9.23 0h1.54v1.571H9.23V0Zm0 6.285h1.54V3.142H9.23v3.143Zm1.54 3.142V7.856H9.23v3.142h6.155v-1.57h-4.616Z"/></g></svg>
