<svg width="16" height="16" viewBox="0 0 16 16" xmlns="http://www.w3.org/2000/svg"><path d="M12.16 7.548V.85a.841.841 0 0 0-.853-.85H.853A.841.841 0 0 0 0 .85v13.077c0 .478.373.85.853.85h7.574a4.683 4.683 0 0 1-.854-2.71c0-2.446 2.027-4.519 4.587-4.519ZM2.08 1.701h8c.16 0 .267.106.267.266 0 .16-.107.266-.267.266h-8c-.16 0-.267-.107-.267-.266 0-.16.107-.266.267-.266Zm0 2.126h8c.16 0 .267.107.267.266 0 .16-.107.266-.267.266h-8c-.16 0-.267-.107-.267-.266 0-.16.107-.266.267-.266Zm0 2.073h8c.16 0 .267.107.267.266 0 .16-.107.266-.267.266h-8c-.16 0-.267-.106-.267-.266 0-.106.107-.266.267-.266Zm4.16 7.283H2.08c-.16 0-.267-.107-.267-.266 0-.16.107-.266.267-.266h4.16c.16 0 .267.106.267.266.053.106-.107.266-.267.266Zm0-2.286H2.08c-.16 0-.267-.106-.267-.266 0-.16.107-.266.267-.266h4.16c.16 0 .267.107.267.266.053.107-.107.266-.267.266Zm.96-2.286H2.08c-.16 0-.267-.106-.267-.265 0-.16.107-.266.267-.266H7.2c.16 0 .267.106.267.266 0 .106-.107.265-.267.265Zm4.96-.265a3.818 3.818 0 0 0-3.84 3.827A3.818 3.818 0 0 0 12.16 16 3.818 3.818 0 0 0 16 12.173a3.818 3.818 0 0 0-3.84-3.827Zm2.4 5.103-1.707 1.275c-.053.053-.16.053-.213-.053 0-.053-.053-.053-.053-.106v-.798h-1.334c-.96 0-1.493-.478-1.6-1.435.107.107.427.585 1.6.585h1.334v-.744c0-.107.053-.16.16-.16.053 0 .053 0 .106.053l1.654 1.17c.106 0 .106.106.053.213Zm-1.44-2.127h-1.387v.744c0 .107-.053.16-.16.16-.053 0-.053 0-.106-.053l-1.654-1.17c-.053-.053-.106-.16-.053-.212l.053-.053 1.654-1.223c.053-.053.16-.053.213.053 0 .053.053.053.053.106v.798h1.387c.96 0 1.493.478 1.6 1.435-.107-.053-.48-.585-1.6-.585Z" fill="#F37021" fill-rule="evenodd"/></svg>
