<svg width="47" height="47" viewBox="0 0 47 47" xmlns="http://www.w3.org/2000/svg"><g fill="none"><path d="M32.017 23.922c-.08 0-.15.021-.232.024l-4.541-7.766a5.999 5.999 0 1 0-8.447 0l-4.528 7.768c-.085-.005-.163-.026-.249-.026a5.999 5.999 0 1 0 5.788 7.499h6.422a5.99 5.99 0 1 0 5.787-7.499Zm-5.787 4.5h-6.422a5.99 5.99 0 0 0-2.596-3.564l4.189-7.184a5.383 5.383 0 0 0 3.24 0l4.2 7.178a5.983 5.983 0 0 0-2.611 3.57Z" fill="#F37021"/><path d="M23.5 0C10.575 0 0 10.575 0 23.5S10.575 47 23.5 47 47 36.425 47 23.5 36.425 0 23.5 0Zm0 5.222c4.047 0 7.833 1.436 10.967 3.656L8.877 34.467c-2.219-3.134-3.655-6.92-3.655-10.967 0-10.053 8.225-18.278 18.278-18.278Zm0 36.556c-4.047 0-7.833-1.436-10.967-3.656l25.59-25.589c2.219 3.134 3.655 6.92 3.655 10.967 0 10.053-8.225 18.278-18.278 18.278Z" fill="#D50000"/></g></svg>
