<svg width="99" height="130" viewBox="0 0 99 130" xmlns="http://www.w3.org/2000/svg"><path d="M94.113 121.252h-7.74V107.44c0-13.85-7.599-26.58-21.394-35.85-1.746-1.173-2.83-3.698-2.83-6.589 0-2.891 1.084-5.416 2.829-6.589 13.796-9.27 21.394-22 21.395-35.85V8.748h7.74a4.374 4.374 0 0 0 0-8.748H4.373a4.374 4.374 0 0 0 0 8.748h7.74V22.56c0 13.85 7.598 26.582 21.394 35.85 1.746 1.173 2.83 3.697 2.83 6.589 0 2.891-1.084 5.416-2.83 6.589-13.796 9.269-21.393 22-21.393 35.85v13.813h-7.74a4.374 4.374 0 0 0 0 8.748h89.739a4.374 4.374 0 0 0 0-8.748ZM44.87 48.307a4.374 4.374 0 0 1 8.747 0v7.731a4.374 4.374 0 1 1-8.747 0v-7.731Zm1.28 27.835a4.408 4.408 0 0 1 3.092-1.28c1.15 0 2.279.467 3.092 1.28a4.39 4.39 0 0 1 1.282 3.093 4.39 4.39 0 0 1-1.282 3.092 4.407 4.407 0 0 1-3.092 1.281 4.405 4.405 0 0 1-3.092-1.281 4.406 4.406 0 0 1-1.282-3.092c0-1.15.468-2.279 1.282-3.093Zm-23.852 45.153c3.568-13.528 21.956-28.248 24.251-30.042a4.374 4.374 0 0 1 5.388 0c2.295 1.794 20.683 16.514 24.25 30.042h-53.89Z"/></svg>
