<svg  viewBox="0 0 26 31" xmlns="http://www.w3.org/2000/svg"><g fill="none"><path d="M25.885 25.84s-3.378-5.804-3.978-6.84c.69-.213 1.422-.394 1.726-.92.51-.88-.395-2.318-.156-3.255.246-.97 1.693-1.808 1.693-2.786 0-.961-1.496-2.08-1.734-3.04-.239-.938.665-2.384.156-3.255-.51-.88-2.211-.806-2.91-1.48-.723-.69-.715-2.383-1.586-2.851-.871-.469-2.285.476-3.254.254-.97-.23-1.825-1.668-2.82-1.668-1.01 0-2.621 1.635-2.876 1.693-.97.222-2.383-.715-3.255-.247-.862.469-.862 2.162-1.577 2.852-.7.674-2.4.608-2.902 1.48-.517.88.387 2.317.148 3.262-.238.946-1.734 1.899-1.734 2.992 0 .986 1.447 1.816 1.693 2.786.239.937-.666 2.384-.156 3.255.28.476.904.674 1.537.863.074.024.214.106.115.238-.427.74-3.896 6.723-3.896 6.723-.28.476-.049.88.493.904l2.688.115c.55.025 1.241.419 1.529.887l1.43 2.277c.296.469.756.452 1.035-.016 0 0 4.01-6.92 4.01-6.929.083-.09.165-.074.198-.04.436.37 1.052.747 1.562.747.501 0 .961-.353 1.421-.74.042-.032.132-.098.198.042l4.01 6.887c.28.476.74.485 1.036.016l1.43-2.276c.296-.469.978-.863 1.529-.888l2.687-.115c.559-.041.78-.452.51-.929Zm-8.424-6.23a8.928 8.928 0 0 1-9.255-.173c-3.994-2.556-5.309-7.84-2.909-11.983 2.425-4.191 7.758-5.662 11.983-3.361.024.008.04.025.066.033a8.862 8.862 0 0 1 3.337 3.28c2.473 4.264 1.027 9.73-3.222 12.204Z" fill="#F37021"/><path d="M12.998 19.429c-4.134 0-7.52-3.386-7.52-7.52 0-4.134 3.386-7.52 7.52-7.52 4.134 0 7.52 3.386 7.52 7.52-.008 4.142-3.386 7.52-7.52 7.52Z" fill="#F37021"/><g fill="#000"><path d="M15.062 11.728c.09 0 .189-.09.28-.09-.379-.09-.379.09-.749.09.28.09.378.09.469 0Zm-4.701.091s-.19-1.693 1.783-2.91c.19-.09.567-.378.847-.567 2.44-1.693 1.224-3.287 1.224-3.287.09.657-.189 1.225-.657 1.594-.19.09-.28.28-.567.469-.378.189-.748.468-1.126.748-.28.189-.748.567-1.036.937-.189.28-.468.657-.567 1.126-.18.674-.18 1.331.099 1.89Zm6.484.384.09-.096h-.188c.008-.009.098-.009.098.096Z"/><path d="M16.755 12.197c0 .1.09 0 .09.1h.09c.009-.1-.09-.1-.18-.1Zm-5.071-2.63c-.937.847-1.126 1.882-.847 2.729.09.378.28.657.469.936l.378.379c.09 0 .09.09.189.189h.09c.379.189.847.378 1.225.279.09 0 .28 0 .378-.09.09 0 .09 0 .19-.09h.27s.09 0 .09-.091h.091s.09 0 .09-.09h.09l.091-.091c.09 0 .09-.09.19-.09l.09-.09.189-.19c-.658.28-1.504.658-2.162.567-.09 0-.189 0-.189-.09a.86.86 0 0 1-.657-.28c-.09-.189-.19-.378-.19-.468v-.18c0-.091 0-.091.091-.19v-.09s0-.09.09-.09v-.371c0 .19-.09.28-.188.379l-.19.189v-.568c.09-.279.19-.657.469-1.035.28-.378.657-.748 1.315-1.126.189-.09.378-.19.567-.378.19-.19.378-.28.567-.469.658-.747.748-1.783.378-2.35-.066 1.356-2.038 2.013-3.164 2.86Z"/><path d="M16.377 12.098h-.09s-.091-.09-.091-.189c0 0 .09.09.189.09 0 0 0-.09.09-.09 0 0 0 .09.09.09l.091.091s0-.09.09-.09c0 0 0-.09-.09-.19-.09.091 0 .091.09.091h.091v-.09s-.09-.09-.189 0c0 0 0-.09-.09-.09h.28c0-.091-.091-.091-.091-.091v-.09h-.378s-.19 0-.378.09c-.09 0-.09 0-.19.09h-.09c-.378.19-.378.19-.567.19.378.188.469 0 .658-.091.189-.09.189.09 0 .189h-.28c.09.09.09.09.19.09h-.28c.09 0 .09.09.09.09h-.28l-.188.19h-.379l-.378-.09h-.28c-.189 0-1.224.188-1.224.188l-.28-.189h-.082c-.09 0-.09.09-.09.09v.091l-.09.09v.091l.09.189h.09-.09v-.09h.279l.09-.09h.09s.749.188 1.316 0c0 0-.19.09-.28.188 0 0 .28.09.469-.09v.189h.09v-.09h.658c0-.091-.09-.091-.09-.091h.18c0 .09.09.19.09.19h-.18c-.09 0-.09 0-.19.09h-.377l.468-.19s-.09.09-.09.19c-.748 1.224-1.882 1.503-2.91 1.125h-.09c-.09 0-.19-.09-.28-.09 0 0-.09 0-.09-.09h-.089c-.09-.09-.28-.19-.378-.28-.847-.657-1.315-1.693-1.126-2.63-.847 1.973.657 3.855 2.44 4.225.19-.19.469-.378.748-.567l.09-.09h.091c.09-.091.28-.091.28-.091h.09c-.09 0-.189.09-.28.09 0 0-.09 0-.09.09-.09 0-.09.09-.189.09-.378.28-.567.379-.846.568-.19.09-.28.28-.28.28h-.189c-.09 0-.567.188-.748.279h-.09s-.09.189-.28.28c0 .09-.09.09-.09.188l-.099.099h.19s-.379.09-.469.189h-.189c-.09 0-.189.09-.189.189-.09.09-.19.189-.378.28 0 0-.19.279-.09.468 0 0 .09.09.09.189h.09c-.28-.28 0-.469 0-.469 0 .09.09.19.09.19 0-.09.19-.28.28-.379.09-.09.28-.189.378-.279h.09c-.09.09-.468.378-.657.567v.19s.09 0 .09.09v-.28s.379 0 .847-.468c0 0 .658-.28 1.225-.378.189-.09.279-.09.279-.09s.28 0 .468-.091h.181s.847-.378 1.126-.567l-.189.189s.378-.19.658-.28c.09-.09.28-.189.28-.189.188.09.468-.28.468-.28l.09.091c.09 0 .28-.09.378-.09-.09 0-.28.09-.378 0 .28 0 .378-.09.567-.378-.28.09-.378.28-.748.09.378.09.567-.189 1.126-.378l.09-.09s-.188-.19-.378-.19c0 0-.189-.188-.189-.377.19.189.379.468.568.279 0 0-.19-.09-.379-.189 0-.09-.189-.378-.09-.468.09.189.28.567.658.567 0 0 0 .09.09.09s.189-.09.189-.189c-.09 0-.189 0-.189-.09 0 0-.189-.09-.28-.378v.279s-.378-.28-.188-.378c0-.09-.09-.378-.09-.567 0 0 .188.468.279.567 0-.09-.19-.658-.09-.658 0 0-.28-.189-.568-.378v-.09h.09l-.09-.09v-.09c.09 0 .19 0 .28.09 0 0 .189.189.189.378v-.19s.189-.279.279-.279c-.09.19-.19.469-.28.658h.09c.091-.09.28.846.28 1.035 0-.189.09-.846-.09-1.504l.09.09.09.091s.19-.09.379-.09c0 0-.09.09-.19.09 0 0-.09.189-.09.378.09-.189.19-.378.19-.378a.972.972 0 0 0 .279-.189s-.28-.09-.567-.189c-.148.09-.148 0-.148-.099Zm-1.315.288h-.469l-.09-.09c.28-.09.567 0 .567 0 .09-.09.19-.09.19-.09-.198.081-.198.18-.198.18Zm.28.937s-.28.28-.28.468v-.09c0-.28.189-.28.28-.567v-.09.279Zm.114.28v.377c-.225-.189 0-.378 0-.378Zm-.282.188v.28c-.12-.09 0-.28 0-.28Zm-.48.469c0 .09 0 .09-.1.09v.09-.188c0-.09 0-.09.1-.19v-.09c-.1.288 0 .288 0 .288Zm.179-.559c0 .09 0 .09 0 0v.271c-.09 0-.378.19-.378.19h-.19c-.09 0-.188.09-.188.09-.09 0-.28-.09-.28-.09-.09 0-.28.09-.378.09h-.189.542c.091 0 .091-.09.19-.09h.369c.09 0 .09 0 .19-.091 0 0 0-.09.09-.19 0-.09.09-.188.09-.188-.09-.28 0-.469.09-.567-.049.296.042.575.042.575.098-.099.098-.099 0 0 0-.099 0-.099 0 0Zm.112.657c-.11-.189 0-.378 0-.378v.378Zm.077.379v-.19c0 .09.189.19.189.19h-.19Zm.468-.1h-.189c-.09-.188-.189-.279-.09-.377a5 5 0 0 1 .28.378Zm.099-1.594c.09.19 0 .469.09.658-.09 0-.09-.09-.09-.09-.09-.09-.09-.19-.09-.28 0-.09 0-.189-.09-.28l-.091-.09h.09c.082-.107.082-.016.18.082Zm.756.852s0 .11 0 0c0 .11 0 0 0 0Z"/><path d="M11.97 12.386s0 .09-.097.09v.09c-.009-.09-.009-.09.097-.18Z"/></g><g fill="#BA5C2D"><path d="M15.718 11.539s.09 0 .19-.09c-.091 0-.379-.09-.469 0 .09.09.189.09.28.09 0 .09 0 0 0 0Zm0 .189c-.279.09-.378.19-.657.09.189 0 .28 0 .567-.188h-.28c-.09 0-.188.09-.279.09l-.09.09c-.09.091-.28.091-.469.091.28.189.378.09.567 0 .19-.09.28-.09.469 0h.28c.081-.082.081-.271-.108-.173Zm-3.377-.756c-.469.378-.658.748-.748 1.036v.567c0-.09.09-.09.189-.19.09-.09.09-.188.189-.468.09.09.09.19 0 .28.082-.28.082-.658.37-1.225Zm-.288 0c.937-.748 2.63-.937 2.91-2.54 0 .091-.091.28-.47.568-.188.189-.377.378-.566.468-.19.19-.378.28-.567.378-.65.378-1.02.756-1.307 1.126Zm-.189-3.098c.378-.28.748-.567 1.126-.748.28-.19.468-.28.567-.468.189-.19.189-.469.28-.847 0 .657-2.253 2.161-3.009 3.098l.09-.09c.198-.378.666-.756.946-.945Z"/><path d="M14.872 13.043c.09-.09.09-.189.09-.189.009 0-.09.09-.09.19-.09 0-.09 0 0 0l-.19.188-.09.09c-.09 0-.09.091-.189.091l-.09.09h-.09s-.09 0-.09.091h-.091s-.09 0-.09.09h-.297c-.09 0-.09 0-.19.09-.09 0-.279.091-.378.091-.468.09-.846-.09-1.224-.28h-.09c-.09 0-.19-.09-.19-.188-.09.09-.189-.09-.279-.19-.189-.279-.378-.566-.468-.936-.28-.847-.09-1.882.846-2.729-.747.469-1.692 1.973-1.034 3.567-.19-.28-.38-.468-.47-.846-.09-.28.09-.748-.09-.937v.28c0 .279-.19.279-.19 0 0-.379.19-.379 0-.847v.279c-.188.937.28 1.972 1.127 2.63.09.09.279.189.378.28h.09s.09 0 .09.09c.09.09.19.09.28.09h.09c1.044.42 2.17.132 2.918-1.085Z"/></g><g fill="#BA5C2D"><path d="M15.44 12.854c-.1 0-.1 0 0 0-.1 0-.1 0 0 0-.1 0-.1 0 0 0v.09c.09.09.09.19.09.28 0 .09 0 .189.09.279 0 .09.09.09.09.09-.09-.189-.09-.468-.09-.657-.09.008-.09-.082-.18-.082Zm-.099.189c0 .09 0 .09 0 0-.09.28-.28.378-.28.657v.09c.09-.188.28-.468.28-.468v-.28Zm.115.937v-.378s-.225.189 0 .378Zm-.282.189v-.28c0-.098-.12.09 0 .28Zm-.189.189v-.378c0 .098-.12.189 0 .378Zm-.113-.658c0-.098 0-.098 0 0v-.09s-.09-.19 0-.567c0 .09-.09.28-.09.567 0 0 0 .09-.09.189 0 .09-.09.189-.09.189s-.091 0-.19.09h-.37c-.09 0-.09 0-.189.09h-.542.189c.189 0 .28-.09.378-.09 0 0 .19.09.28.09 0 0 .09 0 .188-.09.09 0 .19-.09.19 0 0 0 .279-.189.378-.189v-.09l-.042-.099c0 .09 0 .09 0 0Zm-.279.559c0 .099 0 .099 0 0 0 .099 0 .099 0 0-.09.09-.09.19-.09.19v.188-.09c.09-.19.09-.19.09-.288 0 .099 0 .099 0 0 0 .099.09.099 0 0 .09.099.09.099 0 0 .09 0 .09 0 0 0l.09-.09c0 .09 0 .09-.09.09.09 0 0 0 0 0Zm-1.035.189c-.09 0-.19 0-.379.09h-.09l-.09.09c-.28.19-.469.379-.748.568l-.09.09c.377-.189.468-.279.846-.567.09 0 .09-.09.189-.09 0 0 .09 0 .09-.09.082.008.272.008.272-.09.098.098.098.098 0 0Zm-2.72 1.414c-.19.189-.568.657-.568.657-.28 0-.28.19-.28.19-.09 0-.279.09-.279.09-.189.28-.567.468-.567.468-.189.28-.09.567-.09.567 0 .09.09.09.189.19-.09-.091-.09-.19-.09-.19-.091-.28.09-.567.09-.567.189-.09.28-.189.378-.28.09-.09.09-.188.189-.188h.188c.189-.09.468-.19.468-.19h-.188l.09-.09s.091-.09.091-.189l.09-.09c.288-.19.379-.288.288-.378.09.09.09.09 0 0l.09.09c.28-.189.748-.28.847-.28-.567 0-.937.19-.937.19Z"/><path d="M9.703 17.365c-.09.091-.28.28-.28.379 0 0-.09-.09-.09-.19 0 0-.28.19 0 .47 0-.091.09-.19.09-.19s.091 0 .091.09v-.188c.189-.19.567-.469.657-.568h-.09a.802.802 0 0 0-.378.198Zm3.107-4.98c.09 0 1.035-.09 1.224-.09l.28.09.279-.09h.378l.19-.19h.278l-.09-.09c-.09 0-.09-.09-.189-.09l-.189.189h-.28s-.188.09-.279.09c0 0-.189-.09-.28-.09-.106.082-1.043.173-1.322.271Zm-.469.09.09-.09s.091 0 .091-.09h.09-.189c-.082-.008-.082.09-.082.18-.098 0-.098.1 0 0-.098.1 0 0 0 0Z"/></g></g></svg>
