<svg width="43" height="51" viewBox="0 0 43 51" xmlns="http://www.w3.org/2000/svg"><g fill="none"><path d="M42.59 42.516s-5.558-9.548-6.545-11.251c1.136-.352 2.34-.65 2.84-1.515.838-1.447-.65-3.813-.257-5.355.406-1.596 2.786-2.975 2.786-4.584 0-1.582-2.461-3.421-2.854-5.004-.392-1.541 1.096-3.921.257-5.355-.838-1.447-3.637-1.325-4.787-2.434-1.19-1.136-1.176-3.921-2.61-4.692-1.433-.77-3.759.784-5.355.42C24.47 2.365 23.063 0 21.427 0c-1.663 0-4.314 2.691-4.733 2.786-1.596.365-3.921-1.177-5.355-.406-1.42.77-1.42 3.556-2.596 4.692-1.15 1.11-3.949 1.001-4.774 2.434-.852 1.447.636 3.814.244 5.369-.393 1.555-2.854 3.124-2.854 4.922 0 1.623 2.38 2.989 2.786 4.585.392 1.541-1.095 3.921-.257 5.355.46.784 1.488 1.108 2.529 1.42.122.04.351.175.19.392L.196 42.61c-.46.784-.082 1.447.81 1.488l4.423.189c.906.04 2.042.69 2.515 1.46l2.353 3.746c.487.771 1.244.744 1.704-.027 0 0 6.599-11.386 6.599-11.4.135-.148.27-.121.324-.067.717.608 1.731 1.23 2.57 1.23.825 0 1.582-.581 2.34-1.217.067-.054.216-.162.324.068l6.599 11.332c.46.784 1.217.798 1.704.027l2.353-3.746c.486-.77 1.609-1.42 2.515-1.46l4.422-.19c.92-.067 1.284-.743.838-1.527Zm-13.86-10.25c-4.882 2.839-10.751 2.542-15.227-.285-6.572-4.205-8.736-12.9-4.787-19.716 3.989-6.896 12.765-9.317 19.716-5.53.04.013.067.04.108.053a14.58 14.58 0 0 1 5.49 5.396c4.07 7.018 1.69 16.01-5.3 20.081Z" fill="#F37021"/><path d="M21.386 31.968c-6.802 0-12.373-5.572-12.373-12.374 0-6.802 5.571-12.373 12.373-12.373S33.76 12.792 33.76 19.594c-.014 6.816-5.572 12.374-12.374 12.374Z" fill="#F37021"/><g fill="#000"><path d="M24.78 19.296c.149 0 .311-.148.46-.148-.622-.149-.622.148-1.23.148.46.15.621.15.77 0Zm-7.735.15s-.31-2.786 2.935-4.788c.31-.149.933-.622 1.393-.933 4.015-2.786 2.014-5.409 2.014-5.409.15 1.082-.31 2.015-1.081 2.623-.311.15-.46.46-.933.771-.623.311-1.231.771-1.853 1.23-.46.312-1.23.934-1.704 1.542-.311.46-.77 1.082-.933 1.853-.298 1.109-.298 2.19.162 3.11Zm10.67.621.148-.148h-.31c.013-.014.162-.014.162.148Zm-.149 0c0 .153.149 0 .149.153h.148c.014-.153-.148-.153-.297-.153Z"/><path d="M19.222 15.74c-1.541 1.393-1.852 3.097-1.392 4.49.148.622.46 1.081.77 1.541l.622.622c.15 0 .15.149.311.311h.15c.621.311 1.392.622 2.014.46.149 0 .46 0 .622-.149.149 0 .149 0 .311-.149h.446s.15 0 .15-.148h.148s.149 0 .149-.149h.148l.15-.149c.148 0 .148-.149.31-.149l.149-.148.31-.311c-1.08.46-2.474 1.082-3.556.933-.148 0-.31 0-.31-.149-.623 0-.934-.311-1.082-.46-.15-.31-.311-.622-.311-.77v-.298c0-.149 0-.149.148-.311v-.149s0-.149.15-.149v-.608c0 .31-.15.46-.312.622l-.311.311v-.933c.149-.46.311-1.082.77-1.704.46-.622 1.083-1.23 2.164-1.853.311-.148.623-.31.934-.622.31-.31.622-.46.933-.77 1.081-1.231 1.23-2.935.622-3.868-.109 2.231-3.354 3.313-5.207 4.706Z"/><path d="M26.944 19.905h-.149s-.149-.149-.149-.311c0 0 .15.149.311.149 0 0 0-.149.15-.149 0 0 0 .149.148.149l.149.148s0-.148.148-.148c0 0 0-.149-.148-.311-.15.148 0 .148.148.148h.15v-.148s-.15-.15-.312 0c0 0 0-.15-.149-.15h.46c0-.148-.149-.148-.149-.148v-.149h-.622s-.31 0-.622.15c-.148 0-.148 0-.31.148h-.15c-.622.311-.622.311-.933.311.623.311.771 0 1.082-.149.311-.149.311.149 0 .311h-.459c.15.149.15.149.312.149h-.46c.149 0 .149.149.149.149h-.461l-.311.31h-.622l-.622-.148h-.46c-.311 0-2.015.311-2.015.311l-.46-.311h-.135c-.149 0-.149.149-.149.149v.149l-.149.148v.149l.15.311h.148-.149v-.149h.46l.149-.148h.148s1.231.31 2.164 0c0 0-.31.148-.46.31 0 0 .46.15.771-.148v.31h.149v-.148h1.082c0-.149-.149-.149-.149-.149h.297c0 .15.15.311.15.311h-.298c-.149 0-.149 0-.311.15h-.622l.77-.312s-.148.149-.148.311c-1.23 2.016-3.098 2.476-4.788 1.853h-.15c-.148 0-.31-.149-.459-.149 0 0-.149 0-.149-.149h-.148c-.15-.149-.46-.31-.622-.46-1.392-1.081-2.163-2.785-1.852-4.327-1.393 3.246 1.082 6.342 4.016 6.95.311-.31.771-.621 1.23-.932l.15-.149h.148c.149-.149.46-.149.46-.149h.149c-.149 0-.311.149-.46.149 0 0-.149 0-.149.149-.148 0-.148.149-.31.149-.623.46-.934.622-1.394.933-.31.148-.46.46-.46.46h-.31c-.15 0-.933.31-1.23.46h-.15s-.148.31-.46.459c0 .149-.148.149-.148.311l-.162.162h.31s-.622.149-.77.311h-.311c-.149 0-.311.149-.311.311-.15.149-.311.311-.622.46 0 0-.311.46-.15.77 0 0 .15.15.15.312h.148c-.46-.46 0-.77 0-.77 0 .148.15.31.15.31 0-.149.31-.46.459-.622.149-.149.46-.311.622-.46h.149c-.149.149-.771.622-1.082.933v.311s.149 0 .149.15v-.46s.622 0 1.392-.771c0 0 1.082-.46 2.015-.622.311-.15.46-.15.46-.15s.46 0 .77-.148h.298s1.393-.622 1.853-.933l-.311.311s.622-.311 1.082-.46c.149-.149.46-.31.46-.31.31.148.77-.46.77-.46l.15.148c.148 0 .459-.149.621-.149-.149 0-.46.15-.622 0 .46 0 .622-.148.933-.622-.46.15-.622.46-1.23.15.622.148.933-.312 1.852-.623l.149-.149s-.311-.31-.622-.31c0 0-.311-.312-.311-.623.311.311.622.771.933.46 0 0-.311-.149-.622-.311 0-.149-.311-.622-.149-.77.149.31.46.932 1.082.932 0 0 0 .149.149.149s.31-.149.31-.311c-.148 0-.31 0-.31-.149 0 0-.311-.149-.46-.622v.46s-.622-.46-.311-.622c0-.149-.149-.622-.149-.933 0 0 .311.77.46.933 0-.149-.311-1.082-.149-1.082 0 0-.46-.31-.933-.622v-.149h.149l-.149-.148v-.15c.149 0 .311 0 .46.15 0 0 .311.31.311.622v-.311s.311-.46.46-.46c-.149.31-.311.77-.46 1.082h.149c.149-.15.46 1.392.46 1.703 0-.31.148-1.392-.15-2.474l.15.149.148.148s.311-.148.622-.148c0 0-.148.148-.31.148 0 0-.15.311-.15.622.15-.31.312-.622.312-.622a1.6 1.6 0 0 0 .46-.31s-.46-.15-.934-.312c-.243.149-.243 0-.243-.162Zm-2.164.473h-.77l-.15-.148c.46-.15.934 0 .934 0 .149-.15.31-.15.31-.15-.324.136-.324.298-.324.298Zm.46 1.542s-.46.46-.46.77v-.148c0-.46.311-.46.46-.933v-.149.46Zm.177.46v.622c-.344-.311 0-.622 0-.622Zm-.461.31v.46c-.183-.148 0-.46 0-.46Zm-.794.771c0 .15 0 .15-.153.15v.148-.311c0-.149 0-.149.153-.311v-.149c-.153.473 0 .473 0 .473Zm.307-.92c0 .15 0 .15 0 0v.449c-.149 0-.622.31-.622.31h-.31c-.15 0-.312.149-.312.149-.149 0-.46-.149-.46-.149-.148 0-.46.149-.622.149h-.31.892c.149 0 .149-.149.31-.149h.609c.15 0 .15 0 .311-.149 0 0 0-.148.15-.31 0-.15.148-.312.148-.312-.149-.46 0-.77.149-.933-.082.487.067.947.067.947.162-.162.162-.162 0 0 0-.162 0-.162 0 0Zm.175 1.083c-.167-.311 0-.622 0-.622v.622Zm.136.622v-.311c0 .149.311.31.311.31h-.31Zm.771-.162h-.311c-.149-.312-.311-.46-.149-.623.149.163.46.623.46.623Zm.162-2.624c.15.311 0 .77.15 1.082-.15 0-.15-.149-.15-.149-.148-.149-.148-.31-.148-.46 0-.148 0-.31-.15-.46l-.148-.148h.149c.135-.176.135-.027.297.135Zm1.24 1.397s0 .168 0 0c0 .168 0 0 0 0Z"/><path d="M19.682 20.378s0 .149-.149.149v.149c-.013-.149-.013-.149.15-.298Z"/></g><g fill="#BA5C2D"><path d="M25.863 18.985s.148 0 .31-.148c-.148 0-.621-.15-.77 0 .149.148.31.148.46.148 0 .15 0 0 0 0Zm0 .311c-.46.15-.622.311-1.082.15.31 0 .46 0 .933-.312h-.46c-.149 0-.31.149-.46.149l-.148.149c-.15.148-.46.148-.771.148.46.311.622.15.933 0 .31-.148.46-.148.77 0h.461c.136-.135.136-.446-.175-.284Zm-5.558-1.244c-.771.622-1.082 1.23-1.23 1.704v.933c0-.149.148-.149.31-.31.149-.15.149-.312.311-.772.149.15.149.311 0 .46.135-.46.135-1.082.609-2.015Zm-.474 0c1.542-1.23 4.329-1.541 4.789-4.178 0 .149-.15.46-.771.933-.311.31-.622.622-.933.77-.311.312-.622.46-.933.623-1.069.622-1.677 1.244-2.15 1.852Zm-.311-5.098c.622-.46 1.231-.933 1.853-1.23.46-.311.77-.46.933-.771.311-.311.311-.771.46-1.393 0 1.082-3.705 3.556-4.95 5.098l.15-.149c.324-.622 1.094-1.244 1.554-1.555Z"/><path d="M24.47 21.46c.149-.149.149-.311.149-.311.013 0-.15.149-.15.311-.148 0-.148 0 0 0l-.31.311-.149.149c-.149 0-.149.149-.311.149l-.149.148h-.149s-.148 0-.148.149h-.149s-.149 0-.149.149h-.487c-.148 0-.148 0-.31.149-.15 0-.46.148-.623.148-.77.149-1.393-.148-2.015-.46h-.148c-.15 0-.311-.148-.311-.31-.15.148-.311-.15-.46-.312-.311-.46-.622-.933-.77-1.541-.46-1.393-.15-3.097 1.392-4.49-1.23.771-2.786 3.246-1.704 5.87-.311-.46-.622-.772-.77-1.394-.15-.46.148-1.23-.15-1.541v.46c0 .46-.31.46-.31 0 0-.623.31-.623 0-1.393v.46c-.312 1.541.46 3.245 1.852 4.327.149.148.46.31.622.46h.149s.149 0 .149.148c.148.149.31.149.46.149h.148c1.718.69 3.57.216 4.8-1.785Z"/></g><g fill="#BA5C2D"><path d="M25.403 21.149c-.163 0-.163 0 0 0-.163 0-.163 0 0 0-.163 0-.163 0 0 0v.149c.148.149.148.31.148.46 0 .148 0 .31.149.46 0 .148.149.148.149.148-.149-.31-.149-.77-.149-1.082-.149.014-.149-.135-.298-.135Zm-.163.312c0 .148 0 .148 0 0-.149.459-.46.621-.46 1.08v.15c.15-.311.46-.771.46-.771v-.46Zm.177 1.54v-.62s-.344.31 0 .622Zm-.461.312v-.46c0-.162-.183.149 0 .46Zm-.311.311v-.623c0 .162-.183.31 0 .622Zm-.176-1.083c0-.161 0-.161 0 0v-.148s-.148-.31 0-.933c0 .149-.148.46-.148.933 0 0 0 .149-.15.311 0 .149-.148.311-.148.311s-.149 0-.31.149h-.61c-.15 0-.15 0-.311.149h-.893.311c.311 0 .46-.149.622-.149 0 0 .311.149.46.149 0 0 .149 0 .311-.149.149 0 .311-.149.311 0 0 0 .46-.311.622-.311v-.149l-.068-.162c0 .149 0 .149 0 0Zm-.459.92c0 .163 0 .163 0 0 0 .163 0 .163 0 0-.15.15-.15.311-.15.311v.312-.15c.15-.31.15-.31.15-.473 0 .163 0 .163 0 0 0 .163.148.163 0 0 .148.163.148.163 0 0 .148 0 .148 0 0 0l.148-.148c0 .148 0 .148-.148.148.148 0 0 0 0 0Zm-1.704.311c-.149 0-.311 0-.622.15h-.149l-.149.148c-.46.311-.77.622-1.23.933l-.15.149c.623-.311.772-.46 1.394-.933.149 0 .149-.149.31-.149 0 0 .15 0 .15-.149.135.014.446.014.446-.149.162.163.162.163 0 0Zm-4.476 2.326c-.311.311-.933 1.082-.933 1.082-.46 0-.46.311-.46.311-.149 0-.46.149-.46.149-.31.46-.933.77-.933.77-.311.46-.149.934-.149.934 0 .149.15.149.311.31-.148-.148-.148-.31-.148-.31-.15-.46.148-.933.148-.933.311-.149.46-.311.622-.46.15-.149.15-.311.311-.311h.311c.311-.149.771-.311.771-.311h-.31l.148-.149s.149-.149.149-.31l.148-.15c.474-.31.622-.473.474-.622.148.15.148.15 0 0l.148.15c.46-.312 1.231-.46 1.393-.46-.933 0-1.541.31-1.541.31Z"/><path d="M15.963 28.573c-.148.149-.46.46-.46.622 0 0-.148-.149-.148-.31 0 0-.46.31 0 .77 0-.149.149-.311.149-.311s.149 0 .149.149v-.312c.31-.311.933-.771 1.081-.933h-.148c-.15.013-.46.162-.622.324Zm5.112-8.195c.149 0 1.704-.147 2.015-.147l.46.148.46-.148h.622l.31-.311h.461l-.148-.15c-.149 0-.149-.148-.311-.148l-.311.311h-.46s-.311.149-.46.149c0 0-.31-.149-.46-.149-.175.135-1.717.284-2.177.446Zm-.771.149.15-.149s.148 0 .148-.148h.149-.311c-.137-.014-.137.148-.137.297-.162 0-.162.162 0 0-.162.162 0 0 0 0Z"/></g></g></svg>
