<svg width="17" height="17" viewBox="0 0 17 17" xmlns="http://www.w3.org/2000/svg" fill="#F37021"><path d="M13.458 17a.709.709 0 0 1 0-1.417h1.417a.708.708 0 0 0 .708-.708v-1.417a.709.709 0 0 1 1.417 0v1.417A2.125 2.125 0 0 1 14.875 17h-1.417Zm-9.916 0H2.125A2.125 2.125 0 0 1 0 14.875v-1.417a.709.709 0 0 1 1.417 0v1.417c0 .391.317.708.708.708h1.417a.709.709 0 1 1 0 1.417Zm12.75-7.792H.708a.708.708 0 0 1 0-1.416h15.584a.708.708 0 1 1 0 1.416Zm0-4.958a.708.708 0 0 1-.709-.708V2.125a.708.708 0 0 0-.708-.708h-1.417a.709.709 0 0 1 0-1.417h1.417A2.125 2.125 0 0 1 17 2.125v1.417a.708.708 0 0 1-.708.708ZM.708 3.98A.708.708 0 0 1 0 3.273V2.125C0 .951.951 0 2.125 0h1.417a.709.709 0 0 1 0 1.417H2.125a.708.708 0 0 0-.708.708v1.147a.708.708 0 0 1-.709.709Z"/></svg>
