<svg width="25" height="25" viewBox="0 0 29 29" xmlns="http://www.w3.org/2000/svg"><defs><clipPath id="a"><path d="M375 0v667H0V0h375Z"/></clipPath><clipPath id="c"><path d="M20 0a5 5 0 0 1 5 5v15a5 5 0 0 1-5 5H5a5 5 0 0 1-5-5V5a5 5 0 0 1 5-5h15Z"/></clipPath><clipPath id="e"><path d="M13.52 0v13.52H0V0h13.52Z"/></clipPath><clipPath id="f"><path d="M5.15 0c3.03.005 5.34 1.987 5.744 4.683.191 1.277-.058 2.474-.714 3.586-.188.319-.194.321.067.58.785.781 1.575 1.557 2.36 2.337.221.22.44.445.65.677a.963.963 0 0 1-.042 1.366c-.381.372-.956.396-1.347.022-.603-.577-1.186-1.174-1.776-1.763-.438-.436-.875-.872-1.308-1.313-.137-.139-.25-.159-.434-.052-1.933 1.126-3.888 1.15-5.788-.032-1.478-.92-2.31-2.295-2.526-4.04C-.226 3.922.95 1.539 3.17.517 3.894.185 4.654.004 5.15 0Zm.338 1.99a3.46 3.46 0 0 0-3.497 3.5 3.465 3.465 0 0 0 3.453 3.47c1.99 0 3.514-1.514 3.517-3.496A3.464 3.464 0 0 0 5.488 1.99Z"/></clipPath><linearGradient id="d" x1="12.5" y1="0" x2="12.5" y2="25" gradientUnits="userSpaceOnUse"><stop stop-color="#697DAB" offset="0%"/><stop stop-color="#505F84" offset="100%"/></linearGradient><filter id="b" x="-24.138%" y="-20.69%" filterUnits="userSpaceOnUse" width="134.483%" height="134.483%"><feGaussianBlur stdDeviation="1" in="SourceAlpha" result="i2"/><feOffset dy="1" in="i2" result="i3"/><feColorMatrix values="0 0 0 0.0 0 0 0 0 0.0 0 0 0 0 0.0 0 0 0 0 1.0 0" in="i3"/></filter></defs><g clip-path="url(#a)" transform="translate(-20 -81)"><path d="M5 0h15a5 5 0 0 1 5 5v15a5 5 0 0 1-5 5H5a5 5 0 0 1-5-5V5a5 5 0 0 1 5-5Z" filter="url(#b)" transform="translate(22 82)"/><g clip-path="url(#c)" transform="translate(22 82)"><path fill="url(#d)" d="M0 0h25v25H0V0z"/></g><g clip-path="url(#e)" transform="translate(28 88)"><g clip-path="url(#f)"><path fill="#FFF" d="M0 0h13.52v13.52H0V0z"/></g></g></g></svg>
