<svg width="13" height="16" viewBox="0 0 13 16" xmlns="http://www.w3.org/2000/svg"><path d="M6.5 0S13 1.842 13 2.167v6.572c0 3.322-4.767 6.283-6.139 7.042a.65.65 0 0 1-.722 0C4.803 14.986 0 12.06 0 8.739V2.167C0 1.842 6.5 0 6.5 0Zm-.714 10.802c-.714 0-1.218.504-1.218 1.148 0 .644.504 1.148 1.218 1.148.686 0 1.19-.504 1.19-1.148 0-.644-.504-1.148-1.19-1.148Zm.91-7.91c-2.044 0-3.234 1.26-3.206 2.954h1.848c0-.826.504-1.316 1.358-1.316.826 0 1.33.504 1.33 1.316.014 1.26-1.078 1.526-2.534 1.526h-.63l.07 2.38h1.722l.056-1.078c1.862 0 3.22-.924 3.22-2.814 0-1.89-1.33-2.968-3.234-2.968Z"/></svg>
