<svg width="26" height="26" viewBox="0 0 26 26" xmlns="http://www.w3.org/2000/svg"><g fill="none" fill-rule="evenodd"><g fill="#F37021" fill-rule="nonzero"><path d="M19.438 14.429c-.728 0-1.284.557-1.284 1.242v1.326h2.569v-1.326c-.043-.685-.6-1.242-1.285-1.242Zm.043 3.854c-.342 0-.642.3-.642.642 0 .257.128.47.342.556v.814c0 .043.043.043.043.043h.428c.043 0 .043-.043.043-.043v-.814a.84.84 0 0 0 .386-.556c0-.343-.257-.642-.6-.642Z"/><path d="M19.481 10.747s-6.251 1.755-6.251 2.098v6.294c0 3.168 4.624 5.994 5.866 6.765a.657.657 0 0 0 .685 0c1.327-.728 5.866-3.554 5.866-6.765v-6.337c.042-.3-6.167-2.055-6.167-2.055Zm2.655 11.004h-5.31a.495.495 0 0 1-.513-.514v-3.725c0-.3.214-.514.514-.514h.556v-1.37a2.056 2.056 0 0 1 4.11 0v1.37h.557c.257 0 .514.385.514.642 0 1.841 0 1.841.043 3.725.043.3-.172.386-.471.386Z"/></g><path d="M8.692 0c4.795 0 8.691 3.896 8.691 8.692 0 .428-.043.899-.128 1.327l-1.285.385c-3.168.985-4.024 1.242-4.024 2.398h.042v3.939a8.537 8.537 0 0 1-3.296.642C3.896 17.383 0 13.487 0 8.692 0 3.896 3.896 0 8.692 0Zm-.73 13.112a.874.874 0 0 0-.642.263.874.874 0 0 0-.263.643c0 .253.088.467.263.642.175.176.39.263.643.263a.83.83 0 0 0 .62-.263.887.887 0 0 0 .256-.642.887.887 0 0 0-.256-.643.833.833 0 0 0-.62-.263Zm.92-8.588c-.632 0-1.19.122-1.672.365a2.661 2.661 0 0 0-1.117 1.03c-.263.443-.394.957-.394 1.54h1.256c0-.564.173-1.01.518-1.336.346-.326.82-.489 1.424-.489.594 0 1.067.17 1.417.511.35.341.526.804.526 1.388 0 .808-.273 1.358-.818 1.65-.545.292-1.3.438-2.264.438h-.423l.058 2.308h1.154l.044-1.387c1.08 0 1.937-.246 2.57-.738.633-.492.95-1.249.95-2.271 0-.915-.297-1.646-.891-2.191-.594-.545-1.373-.818-2.337-.818Z" fill="#F37021" fill-rule="nonzero"/><g transform="translate(5.699 3.242)"/></g></svg>
