<svg width="20" height="28" viewBox="0 0 20 28" xmlns="http://www.w3.org/2000/svg"><g fill="#F37021"><path d="M15.976 24.024c-.763 0-1.464-.213-2.104-.548v3.963l2.073-2.195 2.073 2.195v-3.963a4.082 4.082 0 0 1-2.042.548Zm-4.086-3.231H1.402V1.433h17.165v15.091a4.284 4.284 0 0 1 1.372 1.89H20V1.068A1.08 1.08 0 0 0 18.933 0H1.067A1.08 1.08 0 0 0 0 1.067v20.061c0 .58.488 1.067 1.067 1.067h11.494c-.335-.396-.549-.884-.67-1.402Z"/><path d="M15.61 4.939H4.39a.546.546 0 0 1-.549-.549c0-.305.244-.549.55-.549h11.188c.305 0 .549.244.549.55a.504.504 0 0 1-.518.548Zm0 2.561H4.39a.546.546 0 0 1-.549-.549c0-.305.244-.549.55-.549h11.188c.305 0 .549.244.549.55a.504.504 0 0 1-.518.548Zm0 2.561H4.39a.546.546 0 0 1-.549-.549c0-.305.244-.549.55-.549h11.188c.305 0 .549.244.549.55a.504.504 0 0 1-.518.548Zm0 2.561H4.39a.546.546 0 0 1-.549-.549c0-.305.244-.549.55-.549h11.188c.305 0 .549.244.549.55a.504.504 0 0 1-.518.548Zm0 2.53H4.39a.546.546 0 0 1-.549-.548c0-.305.244-.55.55-.55h11.188c.305 0 .549.245.549.55.03.305-.213.548-.518.548Zm-6.586 2.561H4.391a.546.546 0 0 1-.549-.548c0-.305.244-.55.549-.55h4.603c.305 0 .55.245.55.55.03.305-.214.548-.52.548Z"/><g transform="translate(12.988 16.86)"><circle transform="rotate(-13.286 1.63 3.869)" cx="1.63" cy="3.869" r="1"/><circle cx="2.957" cy="1.713" r="1"/><path d="M4.285 3.207c0-.518-.297-.972-.741-1.188a.665.665 0 0 1-.586.358.664.664 0 0 1-.586-.358c-.445.216-.741.67-.741 1.188.364 0 .663.299.663.663a.65.65 0 0 1-.135.394c.222.168.508.27.799.27.291 0 .576-.102.799-.27a.653.653 0 0 1-.135-.394c0-.364.298-.663.663-.663Z"/><path d="M2.927 0A2.98 2.98 0 0 0 0 2.989a2.98 2.98 0 0 0 2.988 2.927 2.98 2.98 0 0 0 2.927-2.988C5.885 1.281 4.543-.03 2.927.001Zm1.358 4.534a.657.657 0 0 1-.27-.057 1.653 1.653 0 0 1-1.057.389c-.395 0-.77-.147-1.058-.389a.666.666 0 0 1-.933-.606.66.66 0 0 1 .332-.57c-.001-.034 0-.066 0-.094a1.65 1.65 0 0 1 1-1.52.663.663 0 0 1 .66-.637c.355 0 .644.285.658.638a1.648 1.648 0 0 1 .995 1.607c.2.115.337.33.337.576 0 .364-.3.663-.664.663Z"/><circle transform="rotate(-45 4.285 3.87)" cx="4.285" cy="3.87" r="1"/></g></g></svg>
