<svg width="26" height="26" viewBox="0 0 26 26" xmlns="http://www.w3.org/2000/svg" fill="#F37021"><path d="M12.898 7.581c.156-.157.367-.05.368.16l.754 5.149v.105c.053.053-.051.157-.157.157l-5.149-.754c-.21-.002-.263-.264-.159-.369l1.465-1.465L3.484 4.03c-.106-.107-.106-.211 0-.316l1.098-1.099c.105-.104.21-.104.315.002l6.483 6.482 1.518-1.517m9.386-3.509C19.174.962 14.759-.208 10.77.722c-.211-.001-.262.262-.157.367l1.423 1.423a.57.57 0 0 0 .368.159c.316.001.683-.05.998-.049a10.696 10.696 0 0 1 3.89.75 10.564 10.564 0 0 1 3.42 2.27c1.003 1.002 1.742 2.16 2.272 3.423a10.696 10.696 0 0 1 .75 3.889 10.615 10.615 0 0 1-.722 3.883c-.52 1.26-1.304 2.464-2.246 3.406-.994.994-2.147 1.726-3.406 2.246s-2.57.778-3.883.721a10.696 10.696 0 0 1-3.889-.75c-1.368-.425-2.578-1.217-3.527-2.166a10.563 10.563 0 0 1-2.27-3.422 10.696 10.696 0 0 1-.75-3.889 6.69 6.69 0 0 1 .05-.997.572.572 0 0 0-.16-.369l-1.423-1.423c-.106-.106-.368-.053-.42.104-.878 4.04.24 8.404 3.35 11.513 4.85 4.85 12.728 4.879 17.647.065a12.414 12.414 0 0 0 .198-17.804" fill-rule="evenodd"/></svg>
