<svg width="20" height="20" viewBox="0 0 20 20" xmlns="http://www.w3.org/2000/svg"><path d="M17.805 14.698a7.539 7.539 0 0 0-2.16-1.51A4.989 4.989 0 0 0 17.5 9.3c0-2.77-2.31-5.042-5.08-5a5.002 5.002 0 0 0-3.07 8.888 7.524 7.524 0 0 0-2.16 1.51A7.452 7.452 0 0 0 5 19.795a.2.2 0 0 0 .2.205h1.4a.2.2 0 0 0 .2-.192 5.65 5.65 0 0 1 1.668-3.838A5.665 5.665 0 0 1 12.5 14.3c1.522 0 2.955.593 4.032 1.67a5.673 5.673 0 0 1 1.668 3.838.2.2 0 0 0 .2.192h1.4a.2.2 0 0 0 .2-.205 7.435 7.435 0 0 0-2.195-5.097ZM12.5 12.5c-.855 0-1.66-.332-2.263-.937A3.171 3.171 0 0 1 9.3 9.268a3.204 3.204 0 0 1 3.167-3.167 3.218 3.218 0 0 1 2.275.915c.62.607.96 1.42.96 2.284 0 .855-.332 1.658-.937 2.263-.6.602-1.415.94-2.265.937ZM6.238 9.96a6.363 6.363 0 0 1 .072-1.822.201.201 0 0 0-.112-.22 3.159 3.159 0 0 1-.923-.628 3.188 3.188 0 0 1-.967-2.384 3.183 3.183 0 0 1 .907-2.14 3.183 3.183 0 0 1 2.33-.968 3.196 3.196 0 0 1 2.66 1.47.2.2 0 0 0 .232.08c.44-.152.905-.26 1.383-.31a.2.2 0 0 0 .157-.29A5.009 5.009 0 0 0 7.585.001C4.813-.042 2.503 2.23 2.503 4.998c0 1.57.722 2.97 1.855 3.887a7.516 7.516 0 0 0-2.163 1.51A7.436 7.436 0 0 0 0 15.495a.2.2 0 0 0 .2.205h1.403a.2.2 0 0 0 .2-.192A5.65 5.65 0 0 1 3.47 11.67a5.644 5.644 0 0 1 2.618-1.492.2.2 0 0 0 .15-.218Z" fill="#F37021"/></svg>
