<svg width="50" height="51" viewBox="0 0 50 51" xmlns="http://www.w3.org/2000/svg" xmlns:xlink="http://www.w3.org/1999/xlink"><defs><linearGradient x1="84.195%" y1="26.724%" x2="5.46%" y2="85.919%" id="a"><stop stop-color="#FFF" offset="0%"/><stop stop-color="#D8D8D8" stop-opacity=".622" offset="100%"/></linearGradient><linearGradient x1="50%" y1="0%" x2="50%" y2="100%" id="b"><stop stop-color="#FFF" offset="0%"/><stop stop-color="#E7E7E7" offset="100%"/></linearGradient><filter x="-15.5%" y="-15.5%" width="131.1%" height="131.1%" filterUnits="objectBoundingBox" id="d"><feMorphology radius="3" in="SourceAlpha" result="shadowSpreadInner1"/><feGaussianBlur stdDeviation="5" in="shadowSpreadInner1" result="shadowBlurInner1"/><feOffset in="shadowBlurInner1" result="shadowOffsetInner1"/><feComposite in="shadowOffsetInner1" in2="SourceAlpha" operator="arithmetic" k2="-1" k3="1" result="shadowInnerInner1"/><feColorMatrix values="0 0 0 0 0.890196078 0 0 0 0 0.898039216 0 0 0 0 0.925490196 0 0 0 1 0" in="shadowInnerInner1" result="shadowMatrixInner1"/><feOffset in="SourceAlpha" result="shadowOffsetInner2"/><feComposite in="shadowOffsetInner2" in2="SourceAlpha" operator="arithmetic" k2="-1" k3="1" result="shadowInnerInner2"/><feColorMatrix values="0 0 0 0 0 0 0 0 0 0 0 0 0 0 0 0 0 0 0.154629794 0" in="shadowInnerInner2" result="shadowMatrixInner2"/><feMerge><feMergeNode in="shadowMatrixInner1"/><feMergeNode in="shadowMatrixInner2"/></feMerge></filter><path d="M25.584 49.507c11.545 0 20.904-9.36 20.904-20.904 0-11.545-9.359-20.904-20.904-20.904S4.681 17.058 4.681 28.603s9.358 20.904 20.903 20.904Z" id="c"/></defs><g fill="none" fill-rule="evenodd"><g transform="translate(-1 -3)"><circle stroke="url(#a)" stroke-width=".5" fill="#EAEAEA" cx="25.752" cy="28.603" r="24.498"/><use fill="url(#b)" xlink:href="#c"/><use fill="#000" filter="url(#d)" xlink:href="#c"/><path d="M25.584 7.699c11.545 0 20.904 9.359 20.904 20.904S37.13 49.507 25.584 49.507 4.681 40.147 4.681 28.603c0-11.545 9.358-20.904 20.903-20.904Zm0 .669c-11.175 0-20.235 9.06-20.235 20.235 0 11.175 9.06 20.235 20.235 20.235 11.176 0 20.235-9.06 20.235-20.235 0-11.176-9.06-20.235-20.235-20.235Z" fill="#C7C7C7"/></g><path d="M31.508 29.722a7.47 7.47 0 0 0-2.14-1.497 4.944 4.944 0 0 0 1.837-3.852c0-2.745-2.289-4.997-5.034-4.954a4.957 4.957 0 0 0-3.042 8.806 7.456 7.456 0 0 0-2.14 1.497 7.384 7.384 0 0 0-2.17 5.051.198.198 0 0 0 .198.203h1.387a.197.197 0 0 0 .198-.19 5.6 5.6 0 0 1 1.653-3.803 5.614 5.614 0 0 1 3.996-1.655c1.508 0 2.928.587 3.996 1.655a5.622 5.622 0 0 1 1.652 3.802.198.198 0 0 0 .198.191h1.388a.198.198 0 0 0 .198-.203 7.367 7.367 0 0 0-2.175-5.051Zm-5.257-2.178c-.848 0-1.645-.33-2.242-.929a3.143 3.143 0 0 1-.93-2.274 3.175 3.175 0 0 1 3.14-3.139 3.19 3.19 0 0 1 2.254.907c.614.602.951 1.407.951 2.264a3.15 3.15 0 0 1-.929 2.242 3.154 3.154 0 0 1-2.244.93Zm-6.207-2.517a6.305 6.305 0 0 1 .072-1.806.2.2 0 0 0-.112-.218 3.13 3.13 0 0 1-.914-.622 3.16 3.16 0 0 1-.958-2.363 3.15 3.15 0 0 1 .899-2.12 3.154 3.154 0 0 1 2.309-.96 3.167 3.167 0 0 1 2.636 1.457c.05.077.146.11.23.08a6.147 6.147 0 0 1 1.37-.307.199.199 0 0 0 .156-.288 4.963 4.963 0 0 0-4.352-2.722c-2.746-.043-5.036 2.209-5.036 4.952 0 1.556.716 2.943 1.838 3.852a7.448 7.448 0 0 0-2.143 1.496 7.368 7.368 0 0 0-2.175 5.054.198.198 0 0 0 .198.203h1.39a.197.197 0 0 0 .198-.19 5.6 5.6 0 0 1 1.653-3.803 5.593 5.593 0 0 1 2.593-1.48.198.198 0 0 0 .149-.215Z" fill="#F37021" fill-rule="nonzero"/></g></svg>
