<svg  viewBox="0 0 122 200" xmlns="http://www.w3.org/2000/svg"><g fill="#F37021" opacity=".114"><path d="M93.013 103.952c1.537-.55 2.854-1.318 4.5-1.866.11 0 .33-.11.44-.11-6.038-1.976-6.367 1.317-12.185 1.317 3.293 1.537 5.489 1.317 7.245.659ZM89.61 123.6c-.22.22-.329.44-.439.66 0-.11.22-.33.44-.66Zm-69.045-18.002s-2.963-26.125 26.894-44.895c3.293-2.196 9.11-6.257 13.501-9.44C97.843 24.587 79.292 0 79.292 0c1.317 10.757-3.074 18.441-9.989 25.137-1.976 2.415-4.72 4.61-8.562 7.245-4.94 3.513-11.416 7.903-16.685 11.745-4.83 3.623-11.526 9.111-15.697 14.16-4.062 4.94-7.355 10.758-9.33 17.564-3.184 10.099-2.635 20.417 1.536 29.747Zm100.22 4.83c.768-.439.878-1.427.988-1.537 0 0-1.427.55-2.635.22 0 0 .878.658 1.647 1.317Zm-1.976.329s-.22.44-.33.769c0 0 1.208-.11 1.977.22 0 0-.55.219-.66.438 0 0 .55.11 1.208.55-.11-.22-.11-.44-.11-.44l.11-.22-.22-.329c.22-.22.44-.439.44-.549-.11-.11-1.208-.768-2.415-.439Z"/><path d="M39.885 70.911C25.835 84.523 23.2 100.22 27.151 113.172c1.537 5.16 4.172 9.88 7.465 13.831 1.756 2.086 3.732 3.952 5.818 5.599 1.097.878 2.085 1.646 3.293 2.305.329.22.658.439.988.549 5.817 3.402 12.404 5.049 19.21 4.39 1.865-.22 3.731-.549 5.597-1.097.769-.22 1.537-.55 2.306-.879.22-.11.549-.22.768-.329.549-.22 1.098-.439 1.647-.768.329-.11.548-.33.878-.44.439-.219.988-.548 1.427-.768.33-.22.549-.329.878-.549.549-.329.988-.658 1.537-.987.329-.22.549-.33.878-.55.549-.438 1.098-.877 1.646-1.317.22-.11.44-.329.55-.439.768-.658 1.536-1.317 2.195-1.975l.548-.55c.55-.548 1.098-1.097 1.647-1.646.878-.988 1.756-1.976 2.634-3.073-7.464 6.476-20.526 12.404-30.955 11.306-.22 0-.439-.11-.548-.11-1.208-.11-2.415-.439-3.623-.768-4.171-1.208-6.915-2.964-8.781-5.05-2.196-2.415-2.964-5.159-3.184-7.244 0-.22-.11-.44-.11-.55-.11-.658 0-1.317 0-1.975 0-.549.11-.878.11-.878.22-.878.55-1.866.988-2.854.11-.22.22-.55.33-.769.329-.549.658-1.097.878-1.646v-.11c0-.11.11-.11.11-.22.22-.548.439-1.097.548-1.646.22-1.208.22-2.635-.658-4.61-.33 3.073-1.317 4.83-2.525 6.256-.878 1.098-1.646 1.976-2.305 2.964-.11-.988-.22-1.866-.33-2.964-.11-1.207-.11-2.963.22-5.159.549-4.28 2.305-9.989 6.477-15.916 4.061-5.928 10.537-11.965 20.526-17.015 3.184-1.866 6.587-4.061 9.221-6.147 3.183-2.195 5.818-4.61 8.013-7.244 10.319-11.856 11.306-26.784 5.928-35.785C88.622 47.31 58.545 57.3 39.885 70.91Z"/><path d="M112.442 110.209s-1.207.329-1.646.22c0 0-1.647-1.318-1.756-3.184v-.22c.329.22 1.536 1.208 2.744 1.427 0 0 .11-.768.768-1.537 0 0 .44 1.318 1.537 2.086l.439-.439s.768.988 1.647 1.756c0 0 .329-1.207.987-1.976 0 0-.329-1.536-1.427-2.305 0 0 1.867.878 2.964.878 0 0 .659-.329 1.427-.11 0-.11-.439-2.195-.439-2.195l-.658.22s-.879-1.208-3.184-.659c0 0-.549-1.207-1.537-2.085 0 0 2.196-.33 3.842.11-.548-.769-1.097-1.318-1.097-1.318v-1.207h-.11c-.768.11-3.622-.659-5.598-.33-.22 0-.33.11-.55.11h-.219c-.658.11-3.183.549-5.269 1.098-1.207.33-2.195.549-2.634.878-.11.11-.33.22-.44.22-.329.22-.548.329-.877.439-5.16 2.854-5.928 2.305-8.892 2.634 5.27 2.195 7.245.11 10.867-1.098 2.964-1.097 2.635 1.866-.219 2.745-.768.22-1.647.329-2.525.329-.658 0-1.317 0-1.866-.11.769.878 1.537 1.427 2.305 1.756-1.427.11-3.073-.22-4.72-.22.878.33 1.427.77 1.427.77l-1.537-.22-2.195-.33-2.525 2.525-5.269.33-4.61 1.756-4.72-.988c-3.183-.11-18.551 2.415-18.551 2.415l-4.061-2.196-.879.22c-.768.33-1.646.768-1.646.768-.11.11-.33.44-.549.878-.44.66-.988 1.318-.988 1.318l-.439 1.317 1.207 2.195 1.318-.22c-.44-.109-.769-.109-.988 0 0 0-.11-.658.658-.987.55-.22 2.306 0 3.623 0 .549-.33 1.207-.768 1.866-1.098l1.317-.658s12.294 2.963 19.868-.22c0 0-2.634 1.756-4.28 2.525 0 0 3.841.768 6.805-1.098 0 0 .11 1.317.659 2.195l2.085.33c-.11-.988-.11-2.086-.11-2.086 3.623-.549 8.892-.549 9.88-.439h.22l-.11-.11c-.66-.988-1.647-1.756-1.647-1.756.44-.11.988 0 1.537.11.33 0 .658.11.988.22.329.109.658.109.658.109 0 1.427 1.647 3.183 1.647 3.183-.769.22-1.537-.439-1.537-.439-.33.11-.549.22-.878.33-.768.329-1.647.548-2.415.768-2.415.549-4.61.659-6.147.549l5.269.768v.11-.11c0 .44-.769 1.976-1.098 2.525-.11.11-.11.22-.11.22-.11.219-.329.439-.439.658-11.745 18.88-29.089 22.503-44.347 17.673-.548-.11-.987-.33-1.536-.549-1.757-.659-3.403-1.317-5.05-2.086-.549-.22-.988-.548-1.537-.768-.329-.22-.768-.439-1.097-.659-1.976-1.097-3.952-2.414-5.818-3.841-12.843-9.88-20.966-25.577-17.014-40.505v.11c-12.294 29.857 9.77 58.616 37.321 64.324 3.403-2.963 7.135-6.147 10.868-8.781.548-.44 1.097-.769 1.756-1.098l.988-.659c2.085-1.317 3.951-1.317 5.05-1.097h.329c.548.11.987.329.987.329-.988.33-3.293.988-4.28 1.317l-1.318.988c-.988.659-1.976 1.427-2.854 2.086-6.257 4.5-8.013 5.269-13.172 8.562-2.196 1.866-4.39 4.72-4.281 4.72-.659-.11-1.537-.11-2.415-.11-1.208.33-8.452 2.305-12.185 4.171-.22.11-.548.22-.768.44 0 0-1.756 2.305-3.842 4.61-.658.768-1.427 1.537-2.085 2.195l-.44.44c-.548.548-.987.987-1.427 1.316 0 0 .988 0 2.196.44 0 0-5.05 1.097-7.794 3.183-1.537-.11-2.634.11-3.512.549-1.427.658-2.196 1.756-3.403 3.183-1.208 1.427-2.854 3.183-5.818 4.83 0 0-2.854 4.28-2.086 7.684 0 0 .878 1.317 2.086 2.305a6.16 6.16 0 0 0 1.976.33c-4.72-3.952-.22-7.026-.22-7.026-.439 2.086 1.098 2.854 1.098 2.854.659-1.647 2.744-4.061 4.72-5.818 1.647-1.537 3.842-2.744 6.037-3.622.44-.22.879-.33 1.427-.44-2.085 1.647-7.464 5.928-10.098 9.331-.11.659-.11 1.537.22 2.305.438.22.877.55 1.316.769-.329-.988-.658-2.635-.11-4.062 0 0 5.599-.439 12.844-7.793 0 0 9.55-4.83 18.331-5.489a666.865 666.865 0 0 0 4.281-1.317c.33 0 4.171-.549 7.245-1.098.439-.11.878 0 1.207 0l.988-.33c.55-.219 12.294-5.049 17.124-8.342 0 0-1.427 1.647-2.963 2.964 0 0 6.366-2.854 9.66-4.61 1.317-1.208 4.06-2.305 4.06-2.305 2.416.768 7.026-4.062 7.246-4.281.329.329.878.768 1.427 1.097.439-.22.658-.439.658-.439 1.756.11 4.5-1.427 5.708-2.085-1.317.439-4.5 1.427-6.366.22 4.39-.44 5.708-1.428 9.22-5.599-3.842 1.537-5.598 4.61-11.635 1.866 5.817 1.208 8.013-3.293 17.233-6.037 0 0 1.318-.878 2.086-1.757 0 0-2.195-2.634-5.708-2.963 0 .22-2.634-3.293-2.744-5.928 2.634 2.195 5.269 6.696 9.33 3.732 0 0-3.293-1.646-5.269-3.293-.658-1.098-2.634-5.818-2.085-7.684.988 3.074 4.83 8.562 9.879 9.001 0 0-.549 1.318 1.646 1.976v-.11c1.757-.658 2.745-2.195 3.074-2.854-.988.11-2.195 0-2.964-1.097 0 0-2.634-1.427-4.061-5.489 0 0-.659 1.866.549 3.952 0 0-5.708-3.732-3.293-5.488-.55-2.086-1.867-6.477-1.757-9.002 0 .33 2.415 7.026 3.623 9.002-.44-1.647-2.306-9.66-2.196-10.538-.22-.11-4.72-3.293-8.123-5.379v-.11l.11-1.756c.768 0 1.537 0 2.086.11-.33-.22-1.098-.879-1.976-1.427v-1.098c1.537.11 3.512.439 4.94.988 0 0 2.524 3.183 3.622 6.037 0 0-.11-2.744-.549-3.512 0 0 3.513-3.842 4.94-4.83-1.098 2.305-3.293 7.135-3.733 9.989 0 0 .659-.22.988-.659.988-1.207 4.61 13.172 4.94 16.575.22-2.744.988-13.392-1.427-22.502 0 0 .768.987 1.098 1.646l.988.769s2.854-1.208 5.159-1.318c0 0-1.866.878-3.184 2.086 0 0-.768 3.073-1.646 5.269a50.016 50.016 0 0 0 2.634-5.27c2.525-1.207 4.281-2.743 4.61-2.963-.438-.22-4.5-1.646-8.122-2.195-.11.22-.769-1.318-.769-2.305Zm-20.197 3.951c-1.757-.329-7.684.33-7.684.33-.44-.55-1.756-1.427-1.756-1.427 3.622-.988 8.562-.55 8.562-.55 1.207-1.097 3.402-1.536 3.402-1.536-1.975 1.317-2.524 3.183-2.524 3.183Zm5.05 14.16c-.66.66-3.733 4.83-4.611 7.245v.22c-.11.22-.11.439-.11.549a3.627 3.627 0 0 1 0-1.537c0-.11 0-.33.11-.44v-.109c.549-4.061 3.512-5.05 4.5-8.672.11-.22.11-.549.22-.878-.22 0 .11 2.525-.11 3.623Zm.987 4.83-.22 5.708c-2.524-3.073.22-5.708.22-5.708Zm-3.842 3.074-.22 4.94c-2.195-2.745.22-4.94.22-4.94Zm-7.354 5.927c0 .11 0 .11 0 0v.11c0 .11-.11.22-.11.33-.11.329-.33.878-.659 1.427 0 .11-.11.11-.11.22-.11.109-.11.219-.22.438 0 .11-.109.11-.109.22s-.11.11-.11.22v.109c-.11.33-.22.659-.439.878 0 .11-.11.22-.11.33 0 .11-.11.11-.11.219 0 .11-.109.22-.109.33 0 .11-.11.11-.11.219 0 .11 0 .11-.11.22s-.11.329-.22.438c-.109.22-.109.33-.219.55v.11c0 .109 0 .109-.11.219 0 0 0 .11-.11.11 0 .11 0 .11-.109.11v.219c-.22-.878-.22-1.757-.11-2.635.11-.878.44-1.646.769-2.305.11-.11.22-.22.329-.439.22-.22.33-.549.549-.768.439-.55.878-.879 1.207-1.098.22.33.44.22.33.22.11 0 .11 0 0 0Zm2.854-7.244c-.11.549-.33.988-.44 1.427 0 .11-.11.22-.11.329-.109.44-.329.878-.438 1.317-.44 1.208-.659 2.086-.659 2.086-1.756.658-5.818 2.854-5.818 2.854-.878-.22-2.305.11-3.512.549-1.427.549-2.635 1.097-2.525 1.207-1.647-.439-4.61-1.207-4.61-1.207-1.976.549-4.172 1.207-6.477 1.866-.11 0-.33.11-.439.11l-2.305.658c.11-.11.33-.11.44-.22.219-.11.548-.219.767-.329.11-.11.22-.11.44-.22.11 0 .22-.109.329-.109.11 0 .11-.11.22-.11s.219-.11.219-.11c.11-.11.22-.11.439-.219l.659-.33c.11-.11.329-.11.439-.219.11-.11.329-.11.439-.22.33-.11.549-.219.878-.439.11-.11.22-.11.33-.22.109 0 .109-.109.219-.109l.658-.33c.11-.109.22-.109.44-.219 0 0 .11 0 .11-.11.219-.11.329-.11.548-.219.33-.11.549-.22.878-.44.11 0 .22-.109.22-.109.11 0 .22-.11.33-.11.328.11.658.11.877.11h.33c.11 0 .22 0 .329.11h.33c.548.11.987.11 1.426.22.33 0 .659.11.988.11.878-.55 2.086-.879 3.074-1.098.11 0 .22 0 .329-.11 1.647-.22 2.964-.22 2.854-.22.33-.22.659-.33 1.098-.549.439-.22.878-.439 1.317-.548.11 0 .11-.11.22-.11.11-.11.329-.11.439-.22.878-.33 1.756-.658 2.195-.768.11-.659.549-1.866.878-3.074 0-.11.11-.22.11-.329l1.098-3.293c-.879-3.952.548-7.025 1.097-8.013l.22-.44c0 .11 0 .22-.11.33-1.207 4.39.22 8.013.22 8.013v.11c-.11.22-.22.768-.44 1.317v.22c-.329.549-.439.988-.548 1.427 0-.11 0-.11 0 0Zm1.097 9.66c-1.976-3.403.55-5.16.55-5.16l-.55 5.16Zm1.427 5.268c-.439-1.207-.329-2.195-.22-2.963.55.878 2.416 2.414 2.416 2.414-1.208.769-2.196.55-2.196.55Zm7.794-1.427c-1.098.659-2.635.55-2.635.55-1.756-2.196-2.414-4.392-1.975-6.038 1.097 1.866 4.5 5.379 4.61 5.488Zm.768-23.82c.988 2.964.44 6.806 2.196 9.99-.769-.55-1.427-1.208-1.757-1.976-.878-1.537-.988-3.294-1.207-5.05-.22-1.537-.44-3.073-1.208-4.39-.329-.66-.878-1.208-1.536-1.757-.11-.11-.22-.22-.33-.22.11 0 .22 0 .33.11h.22c.219.11.548.11.877.22.879.33 1.866 1.098 2.415 3.073Z"/><path d="M112.881 137.212c0 .439-.11.658-.11.658.22 0 .22-.22.11-.658ZM44.275 113.94c-.329.55-.548 1.098-.878 1.647-.11.33-.22.55-.329.769.44-.879.878-1.647 1.208-2.415Zm58.397-12.403c.44-.22 1.427-.55 2.635-.878-2.196-.11-5.489-1.318-7.465 0 1.537 0 3.074.439 4.391 1.097.11-.11.33-.11.44-.22Zm.659 2.195c-3.623 1.317-5.489 3.293-10.867 1.098 2.854-.33 3.732.22 8.891-2.635-1.427-.329-2.634-.329-3.842-.11-1.646.44-2.964 1.318-4.5 1.867-.66.439-1.318.768-2.086 1.207-1.647.988-3.513 1.756-6.586 1.647 3.842 2.305 5.818.988 8.232.11 2.854-.989 4.501-1.098 6.696-.66.55.11.988.33 1.427.44.879 0 1.757-.11 2.525-.33 2.744-.658 3.074-3.622.11-2.634Zm-52.47-11.087c-7.903 5.708-10.428 10.977-11.526 16.027-.33 2.195-.33 3.951-.22 5.159l.33 2.964c.659-.988 1.427-1.866 2.305-2.964 1.208-1.427 2.305-3.183 2.525-6.257.768 1.976.878 3.403.658 4.61 1.867-5.708.879-10.867 5.928-19.539Zm-4.94 0c14.27-12.404 41.274-15.477 45.884-39.956-.878 1.976-2.744 5.27-8.123 9.55-2.195 2.525-4.83 5.05-8.013 7.245-2.635 2.086-5.928 4.281-9.22 6.147-9.99 5.05-16.466 11.087-20.528 17.014Zm-1.866-48.518c5.16-3.842 11.636-8.232 16.685-11.745 3.842-2.744 6.696-4.83 8.562-7.245 2.525-3.182 3.623-6.915 3.843-13.282-.549 10.538-35.126 33.26-45.664 47.53.22-.33.549-.768.878-1.098 4.062-5.049 10.867-10.537 15.697-14.16Z"/><path d="M89.829 124.259c.11-.22.33-.44.44-.659 0 0 .109-.11.109-.22.33-.658 1.098-2.085 1.098-2.524v.11c-.22.33-1.537 2.305-1.866 2.744-.22.22-.33.44-.55.768 0 .11-.109.11-.109.11-.878 1.098-1.756 2.086-2.634 3.074l-1.647 1.646-.549.55c-.768.768-1.427 1.426-2.195 1.975-.22.11-.44.33-.55.44l-1.646 1.316c-.329.22-.548.44-.878.55-.549.329-.988.658-1.537.987-.329.22-.548.33-.878.549-.439.33-.988.549-1.427.768-.329.11-.549.33-.878.44-.549.219-1.098.439-1.646.768-.22.11-.55.22-.769.33-.768.328-1.537.548-2.305.877-1.866.55-3.732.988-5.598 1.098-6.806.768-13.502-.988-19.21-4.39-.33-.22-.658-.44-.988-.55-1.097-.658-2.195-1.536-3.293-2.305-2.085-1.646-4.061-3.512-5.818-5.598-3.293-3.952-5.927-8.672-7.464-13.831-3.842-13.172-1.207-28.87 12.843-42.371-10.318 6.586-25.796 29.967-14.6 54.336-3.402-3.513-6.256-7.574-7.683-12.514-1.098-3.842 1.756-11.416-1.427-14.928.439 1.646.33 2.305.22 4.17-.11 4.172-2.525 4.72-2.306.33.33-5.379 2.415-6.147-.439-13.392.22 1.976 0 3.403-.33 4.72v-.11c-3.95 14.93 4.172 30.626 17.015 40.505 1.866 1.427 3.842 2.745 5.818 3.842.33.22.768.44 1.098.659.548.22.988.549 1.536.768 1.647.769 3.293 1.537 5.05 2.086.549.22.988.33 1.537.549 15.367 4.83 32.71 1.207 44.456-17.673Z"/><path d="M98.391 121.514a2.06 2.06 0 0 0-.878-.219h-.22c-.109 0-.219 0-.329-.11.11.11.22.22.33.22.658.549 1.207 1.097 1.537 1.756.768 1.317.987 2.854 1.207 4.39.22 1.757.44 3.513 1.207 5.05.44.769.988 1.427 1.757 1.976-1.757-3.183-1.208-7.135-2.196-9.989-.329-1.976-1.317-2.744-2.415-3.074Zm-1.207 3.184c0 .33-.11.549-.22.878-.987 3.732-3.951 4.61-4.5 8.672v.11c0 .11 0 .329-.11.439 0 .439-.11 1.097 0 1.536 0-.22.11-.329.11-.548v-.22c.988-2.525 4.061-6.586 4.61-7.245.44-1.097.11-3.622.11-3.622Zm.878 14.16.22-5.708s-2.745 2.635-.22 5.708Zm-3.732 2.306.22-4.94c-.11 0-2.525 2.195-.22 4.94Zm-3.293 3.402.549-5.16s-2.525 1.757-.55 5.16Zm-.768-10.867v-.22c.22-.548.329-1.097.439-1.317v-.11s-1.318-3.622-.22-8.013c0-.11 0-.22.11-.33 0 0-.11.11-.22.44-.549.988-1.976 4.061-1.097 8.013 0 .11-.55 1.647-1.098 3.293 0 .11-.11.22-.11.33-.439 1.207-.768 2.414-.878 3.073-.44.11-1.207.44-2.195.768-.11.11-.33.11-.44.22-.11 0-.11.11-.219.11-.44.22-.878.439-1.317.549-.44.22-.769.439-1.098.548 0 0-1.317-.11-2.854.22-.11 0-.22 0-.33.11-1.097.22-2.195.549-3.073 1.097-.33-.11-.658-.11-.988-.11-.439-.11-.878-.11-1.427-.219h-.329c-.11 0-.22 0-.33-.11h-.329c-.22 0-.548-.11-.878-.11-.11 0-.22.11-.33.11-.109 0-.109.11-.219.11-.22.11-.548.22-.878.44-.22.109-.33.109-.549.219 0 0-.11 0-.11.11-.11.11-.219.11-.439.22l-.658.328c-.11 0-.11.11-.22.11-.11.11-.22.11-.329.22-.33.11-.549.22-.878.439-.11.11-.33.11-.44.22-.109.11-.329.11-.438.219l-.659.33c-.11.109-.22.109-.439.219-.11 0-.22.11-.22.11-.11 0-.219.11-.219.11-.11 0-.22.109-.33.109-.11.11-.219.11-.438.22-.33.11-.55.22-.769.329-.11.11-.33.11-.439.22l2.305-.66c.11 0 .33-.109.44-.109 2.304-.659 4.5-1.317 6.476-1.866 0 0 2.964.768 4.61 1.207-.11 0 1.098-.658 2.525-1.207 1.207-.44 2.634-.768 3.512-.549 0 0 4.062-2.195 5.818-2.854 0 0 .33-.878.659-2.086.11-.439.33-.878.439-1.317 0-.11.11-.22.11-.33.11-.438.329-.877.439-1.316v-.11c.329-.659.439-1.098.549-1.427Zm-4.721 9.769c-.22.22-.329.44-.548.769-.11.11-.22.22-.33.439-.329.658-.658 1.427-.768 2.305-.11.768-.11 1.647.11 2.634v-.22s0-.109.11-.109c0 0 0-.11.11-.11 0-.11 0-.11.109-.22v-.109c.11-.11.11-.33.22-.549.11-.11.11-.33.22-.439 0-.11 0-.11.109-.22 0-.11.11-.11.11-.219 0-.11.11-.22.11-.33 0-.109.11-.109.11-.219s.109-.22.109-.33c.11-.328.22-.658.439-.877v-.11c0-.11.11-.11.11-.22s.11-.11.11-.22c.11-.109.11-.328.22-.438 0-.11.109-.11.109-.22.22-.658.439-1.097.658-1.427 0-.11.11-.22.11-.329v-.11s-.11.11-.33.22c-.219-.22-.658.11-1.207.658Zm-15.916 2.964h-.22c-1.097-.22-2.963-.22-5.049 1.098l-.988.658c-.549.33-1.098.769-1.756 1.098-3.732 2.635-7.465 5.818-10.867 8.782-.55.439-1.318 1.207-1.867 1.646 5.16-3.293 6.916-3.951 13.173-8.562.988-.658 1.976-1.427 2.854-2.085l1.317-.988c.988-.33 3.403-1.098 4.281-1.318.11 0-.22-.22-.878-.329ZM27.81 167.727c-2.305 3.074-8.123 9.77-8.123 9.77-3.842.439-4.83 2.305-4.83 2.305-2.086 0-4.72 1.537-4.72 1.537-3.074 4.5-8.343 7.464-8.343 7.464-2.524 3.952-1.646 8.782-1.646 8.782.549 1.207 1.866 1.866 2.964 2.195-1.208-.988-2.086-2.305-2.086-2.305-.878-3.403 2.086-7.684 2.086-7.684 3.073-1.646 4.61-3.403 5.817-4.83 1.208-1.427 1.976-2.634 3.403-3.183.878-.44 1.976-.549 3.513-.549 2.744-2.086 7.793-3.183 7.793-3.183-1.207-.44-2.195-.44-2.195-.44.44-.329.988-.768 1.427-1.317l.44-.439c.658-.658 1.426-1.427 2.085-2.195.549-.549.988-1.098 1.427-1.647 1.317-1.646 2.415-2.854 2.415-2.854.22-.11.439-.22.768-.439 3.732-1.866 10.977-3.842 12.185-4.17-8.782-.55-14.38 3.182-14.38 3.182Z"/><path d="M10.686 190.011c-1.976 1.756-4.062 4.17-4.72 5.817 0 0-1.537-.768-1.098-2.854 0 0-4.5 3.074.22 7.026h.11c.109-.769 1.756-3.293 1.756-3.293s0-.11.11-.11c.329.33.768.549 1.207.878-.22-.878-.33-1.647-.22-2.305 2.744-3.293 8.013-7.684 10.099-9.33-.44.11-.878.329-1.427.438-2.195.988-4.39 2.306-6.037 3.733Zm46.652-75.961.878.44s15.368-2.526 18.55-2.416l4.721.988 4.61-1.756 5.27-.33 2.743-2.414 2.196.329 1.537.22s-.659-.33-1.427-.769c-.879-.33-1.866-.768-2.636-.878 0 0-2.085 1.098-3.293 2.195 0 0-2.525.11-4.94.33 0 0-3.073 1.097-4.61 1.756 0 0-2.964-.988-4.5-1.207 0 .11-13.722 2.305-19.1 3.512Zm-7.135 1.427s.549-.658.988-1.317c.22-.33.439-.659.548-.878 0 0 .879-.44 1.647-.769l.878-.22s-1.866-.219-2.964.33c0 0-.988 1.537-1.646 2.415 0 0-.11 1.098.22 1.647 0 0 .219-.769.329-1.208Z"/></g></svg>
