<svg width="26" height="26" viewBox="0 0 26 26" xmlns="http://www.w3.org/2000/svg"><g fill="none"><circle fill="#26A17B" cx="13" cy="13" r="13"/><path d="M14.562 14.124v-.002c-.09.007-.55.034-1.578.034-.82 0-1.399-.024-1.602-.034v.002c-3.159-.138-5.517-.689-5.517-1.347 0-.657 2.358-1.207 5.517-1.348v2.148c.207.014.798.05 1.616.05.98 0 1.472-.041 1.564-.05V11.43c3.152.14 5.504.69 5.504 1.347 0 .659-2.352 1.207-5.504 1.347m0-2.917V9.284h4.399V6.353H6.982v2.931h4.4v1.922c-3.576.164-6.264.873-6.264 1.72 0 .85 2.688 1.557 6.263 1.722v6.16h3.18v-6.162c3.569-.164 6.251-.872 6.251-1.72 0-.847-2.682-1.554-6.251-1.72" fill="#FFF"/></g></svg>
