<svg width="13" height="13" viewBox="0 0 13 13" xmlns="http://www.w3.org/2000/svg"><path d="M11.434.443v2.428H7.791v1.592c2.956.137 5.178.723 5.178 1.425 0 .702-2.222 1.288-5.178 1.424v5.104H5.157V7.314C2.196 7.177-.031 6.591-.031 5.888c0-.702 2.227-1.29 5.188-1.425V2.871H1.513V.443h9.921ZM5.157 4.647C2.54 4.764.587 5.22.587 5.764c0 .546 1.953 1.001 4.57 1.116.168.006.647.026 1.327.026h.188c.72-.003 1.05-.023 1.119-.028 2.61-.114 4.56-.568 4.56-1.114 0-.543-1.95-1-4.56-1.116v1.78c-.076.006-.484.04-1.296.04l-.197-.001c-.575-.005-.987-.03-1.141-.04Z"/></svg>
