<svg width="114" height="130" viewBox="0 0 114 130" xmlns="http://www.w3.org/2000/svg"><path d="M110.125 15.268C84.378 15.268 58.812.632 58.541.452 57.999.18 57.457 0 56.915 0c-.543 0-1.175.18-1.627.452-.27.18-26.47 14.816-51.945 14.816C1.536 15.268 0 16.803 0 18.61v46.616c0 20.688 9.757 38.485 28.186 51.404 13.732 9.666 27.283 13.19 27.825 13.28.271.09.542.09.813.09.271 0 .542 0 .813-.09.542-.181 14.003-3.704 27.735-13.461 18.339-13.01 28.005-30.716 28.005-51.313V18.61c.09-1.807-1.445-3.342-3.252-3.342ZM89.437 53.3 55.74 86.998a4.585 4.585 0 0 1-3.252 1.355c-1.265 0-2.44-.452-3.252-1.355l-20.87-20.869c-1.806-1.807-1.806-4.697.091-6.504a4.58 4.58 0 0 1 6.505 0L52.578 77.24l30.355-30.445c1.806-1.806 4.697-1.806 6.504.09a4.638 4.638 0 0 1 0 6.415Z"/></svg>
