<svg width="13" height="22" viewBox="0 0 13 22" xmlns="http://www.w3.org/2000/svg"><path d="M8.273 21.273H1.182a1.182 1.182 0 0 1 0-2.364h7.09a1.182 1.182 0 0 1 0 2.364ZM9.455 4.727h2.363a1.182 1.182 0 1 0 0-2.363H9.455V1.182a1.182 1.182 0 0 0-2.364 0v1.182H4.727a1.182 1.182 0 1 0 0 2.363h2.364v3.026a4.62 4.62 0 0 0-2.364-.662A4.727 4.727 0 0 0 0 11.818V13a4.727 4.727 0 0 0 4.727 4.727 4.727 4.727 0 0 0 2.458-.709 1.183 1.183 0 0 0 2.27-.473V4.727ZM4.727 15.363A2.363 2.363 0 0 1 2.364 13v-1.182a2.364 2.364 0 0 1 4.727 0V13a2.363 2.363 0 0 1-2.364 2.363Z"/></svg>
