<svg width="14" height="11" viewBox="0 0 14 11" xmlns="http://www.w3.org/2000/svg" fill="#fff"><path d="M11.265.852a.531.531 0 0 0-.764 0 .58.58 0 0 0 0 .792c1.042 1.08 1.612 2.504 1.612 4.047 0 1.528-.57 2.968-1.612 4.048a.58.58 0 0 0 0 .792c.112.115.25.159.39.159a.579.579 0 0 0 .389-.16c1.25-1.295 1.93-3.008 1.93-4.839-.015-1.83-.695-3.558-1.945-4.839ZM1.084 5.691c0-1.527.57-2.967 1.612-4.047a.58.58 0 0 0 0-.792.531.531 0 0 0-.764 0C.68 2.132 0 3.86 0 5.692c0 1.83.68 3.543 1.93 4.839.111.115.25.159.389.159a.579.579 0 0 0 .39-.16.58.58 0 0 0 0-.791C1.651 8.656 1.083 7.216 1.083 5.69Z"/><path d="M9.903 2.264a.531.531 0 0 0-.763 0 .58.58 0 0 0 0 .792 3.776 3.776 0 0 1 1.056 2.634c0 .995-.374 1.929-1.056 2.62a.58.58 0 0 0 0 .792c.111.116.25.16.389.16a.579.579 0 0 0 .39-.16 4.917 4.917 0 0 0 1.36-3.427 4.989 4.989 0 0 0-1.376-3.412ZM3.001 5.691c0-.992.375-1.928 1.057-2.635a.58.58 0 0 0 0-.792.531.531 0 0 0-.764 0A4.917 4.917 0 0 0 1.932 5.69c0 1.28.501 2.536 1.374 3.428.112.1.236.16.375.16a.538.538 0 0 0 .389-.173.58.58 0 0 0 0-.792c-.682-.679-1.069-1.646-1.069-2.623Z"/><path d="M8.557 3.675a.519.519 0 0 0-.764 0 .565.565 0 0 0 0 .792c.32.332.486.764.486 1.224 0 .46-.166.893-.486 1.224a.58.58 0 0 0 0 .792c.111.1.235.16.374.16a.538.538 0 0 0 .39-.173 2.926 2.926 0 0 0 .806-2.016 2.983 2.983 0 0 0-.806-2.003Zm-3.14 0a.531.531 0 0 0-.764 0 2.86 2.86 0 0 0-.806 2.016c0 .764.292 1.484.806 2.016.111.116.25.16.39.16a.579.579 0 0 0 .389-.16.58.58 0 0 0 0-.792 1.703 1.703 0 0 1-.501-1.224c0-.46.18-.892.486-1.224a.58.58 0 0 0 0-.792Zm1.999 2.016c0 .468-.367.849-.819.849-.451 0-.818-.38-.818-.849 0-.468.367-.848.818-.848.452 0 .819.378.819.848"/></svg>
