<svg width="31" height="26" viewBox="0 0 31 26" xmlns="http://www.w3.org/2000/svg"><path d="M18.352 13.726v5.686h2.275L15.137 26l-5.49-6.588h2.431v-5.686h6.274ZM30.117 0v17.568h-8.784l-1.553-1.942h5.387a2.496 2.496 0 0 1-.07-.568 2.51 2.51 0 0 1 2.51-2.51c.098 0 .192.018.287.03V4.99c-.095.01-.189.028-.287.028a2.51 2.51 0 0 1-2.51-2.51c0-.122.019-.24.037-.358H4.983c.018.118.036.236.036.36a2.51 2.51 0 0 1-3.033 2.453v7.642a2.51 2.51 0 0 1 3.033 2.453c0 .196-.027.385-.07.568h5.5l-1.665 1.942H0V0h30.117Zm-6.482 6.004c.096 0 .192.02.346.02-.366.48-.673.884-1.02 1.288-.038.058-.192.038-.326.058h-6.346c-.076 0-.173.019-.288.019v3.672h-1.577V7.389c-.134 0-.23-.02-.327-.02H9.502c-.327 0-.654.04-.98.078-.731.096-.981.403-.962 1.172 0 .654.327 1.02 1.019 1.058.654.038 1.327.038 2 0 .846-.038 1.192-.596 1.019-1.5 0-.077-.02-.134-.039-.23h1.539c.403.96-.135 2.288-1.212 2.71-1.5.597-3.057.597-4.557.02-.923-.365-1.365-1.173-1.327-2.192.039-1.096.52-1.846 1.52-2.154a7.538 7.538 0 0 1 2.076-.307c4.692-.039 9.364-.02 14.037-.02Zm-4.519 1.942c-.038.231-.115.481-.096.712.058.654.596 1.077 1.365 1.077 1.077.019 2.154 0 3.23-.02H24c-.365.481-.692.885-1 1.27-.02.038-.096.076-.154.076-1.096-.019-2.192.039-3.25-.115-1.364-.211-2.23-1.307-2.191-2.538.019-.154.057-.288.077-.462h1.634Z" fill="#F37021"/></svg>
