<svg width="31" height="26" viewBox="0 0 31 26" xmlns="http://www.w3.org/2000/svg"><path d="M18.352 13.725v5.686h2.275L15.137 26l-5.49-6.588h2.431v-5.686h6.274ZM30.117 0v17.568h-8.784l-1.553-1.941h5.387a2.496 2.496 0 0 1-.07-.569 2.51 2.51 0 0 1 2.51-2.51c.098 0 .192.019.287.03V4.99c-.095.011-.189.029-.287.029a2.51 2.51 0 0 1-2.51-2.51c0-.123.019-.24.037-.359H4.983c.018.118.036.237.036.36a2.51 2.51 0 0 1-3.033 2.453v7.642a2.51 2.51 0 0 1 3.033 2.453c0 .197-.027.386-.07.569h5.5l-1.665 1.941H0V0h30.117ZM18.788 3.443v1.868h-2.802v1.225c2.274.105 3.983.556 3.983 1.096s-1.71.99-3.983 1.095v3.926H13.96V8.728c-2.278-.105-3.991-.556-3.991-1.096s1.713-.992 3.99-1.097V5.311h-2.802V3.443h7.631ZM13.96 6.677c-2.013.09-3.515.44-3.515.86 0 .419 1.502.77 3.515.858.13.004.497.02 1.02.02h.17c.536-.003.784-.018.836-.022 2.008-.088 3.507-.437 3.507-.857 0-.418-1.499-.768-3.507-.858v1.368c-.059.005-.372.031-.997.031-.52 0-.898-.022-1.03-.031Z" fill="#F37021"/></svg>
