<svg width="64" height="68" viewBox="0 0 64 68" xmlns="http://www.w3.org/2000/svg"><defs><clipPath id="a"><path d="M375 0v667H0V0h375Z"/></clipPath><clipPath id="d"><path d="M46 0c7.732 0 14 6.268 14 14v32c0 7.732-6.268 14-14 14H14C6.268 60 0 53.732 0 46V14C0 6.268 6.268 0 14 0h32Z"/></clipPath><clipPath id="g"><path d="m5.948 4.826 10.909 10.909h15.53c.405 0 .733.328.733.734v.023a.745.745 0 0 1 .003.068 16.487 16.487 0 0 1-4.85 11.707 16.582 16.582 0 0 1-5.261 3.548 16.487 16.487 0 0 1-6.452 1.305 16.487 16.487 0 0 1-11.707-4.85 16.582 16.582 0 0 1-3.548-5.262A16.458 16.458 0 0 1 0 16.56 16.487 16.487 0 0 1 4.85 4.853a.733.733 0 0 1 .276-.174.724.724 0 0 1 .822.147ZM5.422 6.37a14.99 14.99 0 0 0-3.959 10.19c0 8.324 6.773 15.097 15.097 15.097 3.922 0 7.499-1.504 10.186-3.964L5.422 6.37Zm26.221 10.832H18.324l9.452 9.453a15.037 15.037 0 0 0 3.867-9.453ZM16.56 0a16.475 16.475 0 0 1 10.217 3.528 16.6 16.6 0 0 1 5.816 8.882.733.733 0 0 1-.707.916.738.738 0 0 1-.71-.551C29.46 6.117 23.449 1.463 16.56 1.463a15.06 15.06 0 0 0-7.624 2.065.729.729 0 0 1-1-.26.729.729 0 0 1 .26-1A16.538 16.538 0 0 1 16.56 0Z"/></clipPath><filter id="b" x="-12.5%" y="-9.375%" filterUnits="userSpaceOnUse" width="118.75%" height="118.75%"><feGaussianBlur stdDeviation="1" in="SourceAlpha" result="i2"/><feOffset dy="2" in="i2" result="i3"/><feColorMatrix values="0 0 0 0.0 0 0 0 0 0.0 0 0 0 0 0.0 0 0 0 0 0.5 0" in="i3"/></filter><filter id="c" x="-12.5%" y="-15.625%" filterUnits="userSpaceOnUse" width="118.75%" height="118.75%"><feGaussianBlur stdDeviation="1" in="SourceAlpha" result="i5"/><feOffset dy="-2" in="i5" result="i6"/><feColorMatrix values="0 0 0 0.0 0 0 0 0 0.0 0 0 0 0 0.0 0 0 0 0 0.5 0" in="i6"/></filter><filter id="f" x="-18.056%" y="-18.056%" filterUnits="userSpaceOnUse" width="119.444%" height="119.444%"><feGaussianBlur stdDeviation="1.5" in="SourceAlpha" result="i10"/><feOffset dy="1" in="i10" result="i11"/><feColorMatrix values="0 0 0 0.286211758852005 0 0 0 0 0.3313559293746948 0 0 0 0 0.4495813846588135 0 0 0 0 1.0 0" in="i11"/></filter><linearGradient id="e" x1="30" y1="0" x2="30" y2="60" gradientUnits="userSpaceOnUse"><stop stop-color="#3D4863" offset="0%"/><stop stop-color="#1C2234" offset="100%"/></linearGradient><linearGradient id="h" x1="16.562" y1="0" x2="16.562" y2="32.673" gradientUnits="userSpaceOnUse"><stop stop-color="#FFF" offset="0%"/><stop stop-color="#FFF" offset="100%"/></linearGradient></defs><g clip-path="url(#a)" transform="translate(-158 -176)"><path d="M14 0h32c7.732 0 14 6.268 14 14v32c0 7.732-6.268 14-14 14H14C6.268 60 0 53.732 0 46V14C0 6.268 6.268 0 14 0Z" filter="url(#b)" transform="translate(160 180)"/><path d="M14 0h32c7.732 0 14 6.268 14 14v32c0 7.732-6.268 14-14 14H14C6.268 60 0 53.732 0 46V14C0 6.268 6.268 0 14 0Z" filter="url(#c)" transform="translate(160 180)"/><g clip-path="url(#d)" transform="translate(160 180)"><path fill="url(#e)" d="M0 0h60v60H0V0z"/><path d="M63-4v66H-3V-4h66ZM46 0H14C6.268 0 0 6.268 0 14v32c0 7.732 6.268 14 14 14h32c7.732 0 14-6.268 14-14V14c0-7.732-6.268-14-14-14Z" style="mix-blend-mode:screen" filter="url(#f)"/></g><g clip-path="url(#g)" transform="translate(173.2 193.2)"><path fill="url(#h)" d="M0 0h33.123v33.12H0V0z"/></g></g></svg>
