<svg width="64" height="68" viewBox="0 0 64 68" xmlns="http://www.w3.org/2000/svg"><defs><clipPath id="a"><path d="M375 0v3045H0V0h375Z"/></clipPath><clipPath id="d"><path d="M46 0c7.732 0 14 6.268 14 14v32c0 7.732-6.268 14-14 14H14C6.268 60 0 53.732 0 46V14C0 6.268 6.268 0 14 0h32Z"/></clipPath><clipPath id="g"><path d="M20.057 30.63c0 2.416-1.995 4.375-4.457 4.375a4.5 4.5 0 0 1-3.152-1.282 4.335 4.335 0 0 1-1.305-3.094h8.914ZM16.714.292a2.18 2.18 0 0 1 1.115 1.895v.204c5.16.977 7.608 5.41 8.711 10.735l1.38 8.689a3.791 3.791 0 0 0-.063.609 3.813 3.813 0 0 0 2.229 3.446v.383c.615 0 1.114.49 1.114 1.094 0 .604-.499 1.093-1.114 1.093H1.114A1.103 1.103 0 0 1 0 27.348c0-.605.499-1.094 1.114-1.094v-.383a3.813 3.813 0 0 0 2.229-3.446c0-.209-.03-.41-.063-.61l1.38-8.688C5.692 7.816 8.193 3.37 13.37 2.393v-.205A2.18 2.18 0 0 1 14.486.293c.69-.39 1.539-.39 2.228 0Z"/></clipPath><filter id="b" x="-12.5%" y="-9.375%" filterUnits="userSpaceOnUse" width="118.75%" height="118.75%"><feGaussianBlur stdDeviation="1" in="SourceAlpha" result="i2"/><feOffset dy="2" in="i2" result="i3"/><feColorMatrix values="0 0 0 0.0 0 0 0 0 0.0 0 0 0 0 0.0 0 0 0 0 0.5 0" in="i3"/></filter><filter id="c" x="-12.5%" y="-15.625%" filterUnits="userSpaceOnUse" width="118.75%" height="118.75%"><feGaussianBlur stdDeviation="1" in="SourceAlpha" result="i5"/><feOffset dy="-2" in="i5" result="i6"/><feColorMatrix values="0 0 0 0.0 0 0 0 0 0.0 0 0 0 0 0.0 0 0 0 0 0.5 0" in="i6"/></filter><filter id="f" x="-18.056%" y="-18.056%" filterUnits="userSpaceOnUse" width="119.444%" height="119.444%"><feGaussianBlur stdDeviation="1.5" in="SourceAlpha" result="i10"/><feOffset dy="1" in="i10" result="i11"/><feColorMatrix values="0 0 0 0.286211758852005 0 0 0 0 0.3313559293746948 0 0 0 0 0.4495813846588135 0 0 0 0 1.0 0" in="i11"/></filter><linearGradient id="e" x1="30" y1="0" x2="30" y2="60" gradientUnits="userSpaceOnUse"><stop stop-color="#3D4863" offset="0%"/><stop stop-color="#1C2234" offset="100%"/></linearGradient></defs><g clip-path="url(#a)" transform="translate(-156 -176)"><path d="M14 0h32c7.732 0 14 6.268 14 14v32c0 7.732-6.268 14-14 14H14C6.268 60 0 53.732 0 46V14C0 6.268 6.268 0 14 0Z" filter="url(#b)" transform="translate(158 180)"/><path d="M14 0h32c7.732 0 14 6.268 14 14v32c0 7.732-6.268 14-14 14H14C6.268 60 0 53.732 0 46V14C0 6.268 6.268 0 14 0Z" filter="url(#c)" transform="translate(158 180)"/><g clip-path="url(#d)" transform="translate(158 180)"><path fill="url(#e)" d="M0 0h60v60H0V0z"/><path d="M63-4v66H-3V-4h66ZM46 0H14C6.268 0 0 6.268 0 14v32c0 7.732 6.268 14 14 14h32c7.732 0 14-6.268 14-14V14c0-7.732-6.268-14-14-14Z" style="mix-blend-mode:screen" filter="url(#f)"/></g><g clip-path="url(#g)" transform="translate(172 192.74)"><path fill="#FFF" d="M0 0h31.2v35.005H0V0z"/></g></g></svg>
