<svg width="9" height="6" viewBox="0 0 9 6" xmlns="http://www.w3.org/2000/svg" fill="#DEB211"><defs><clipPath id="a"><path d="M375 0v667H0V0h375Z"/></clipPath><clipPath id="b"><path d="M7.657 0c.517.005.983.28 1.192.7a1.276 1.276 0 0 1-.195 1.473l-3.157 3.4c-.243.269-.61.425-.997.427a1.356 1.356 0 0 1-.997-.427l-3.157-3.4A1.276 1.276 0 0 1 .15.7C.36.28.826.005 1.343 0h6.314Z"/></clipPath></defs><g clip-path="url(#a)" transform="translate(-179 -93)"><g clip-path="url(#b)" transform="translate(179 93)"><path d="M0 0h9v6H0V0z"/></g></g></svg>
