<svg width="128" height="104" viewBox="0 0 128 104" xmlns="http://www.w3.org/2000/svg"><defs><clipPath id="a"><path d="M375 0v949H0V0h375Z"/></clipPath><clipPath id="c"><path d="M106 17.45v55.748c0 4.86-3.957 8.802-8.833 8.802H8.833C3.957 82 0 78.057 0 73.198V17.45h106Zm-16.338 34.9H16.338c-2.24 0-4.074.684-4.074 1.52v3.037c0 .836 1.834 1.519 4.074 1.519h73.324c2.24 0 4.074-.683 4.074-1.519V53.87c0-.836-1.834-1.52-4.074-1.52Zm0-11.342H16.338c-2.24 0-4.074.684-4.074 1.519v3.038c0 .835 1.834 1.518 4.074 1.518h73.324c2.24 0 4.074-.683 4.074-1.518v-3.038c0-.835-1.834-1.519-4.074-1.519Zm0-12.215H16.338c-2.24 0-4.074.683-4.074 1.519v3.037c0 .836 1.834 1.52 4.074 1.52h73.324c2.24 0 4.074-.684 4.074-1.52v-3.037c0-.836-1.834-1.52-4.074-1.52ZM97.167 0C102.043 0 106 3.827 106 8.543v2.848H0V8.543C0 3.827 3.957 0 8.833 0Z"/></clipPath><filter id="b" x="-33.594%" y="-45.192%" filterUnits="userSpaceOnUse" width="145.313%" height="155.769%"><feDropShadow stdDeviation="5.5" dx="-3" dy="-7" flood-color="#2C3548"/></filter></defs><g clip-path="url(#a)" transform="translate(-121 -419)"><g filter="url(#b)" transform="translate(135 437)"><g clip-path="url(#c)"><path fill="#1C2234" d="M0 0h106v82H0V0z"/></g></g></g></svg>
