<svg width="29" height="25" viewBox="0 0 29 25" xmlns="http://www.w3.org/2000/svg" xmlns:xlink="http://www.w3.org/1999/xlink"><defs><path id="a" d="M0 0h29v25H0z"/></defs><g fill="none" fill-rule="evenodd"><mask id="b" fill="#fff"><use xlink:href="#a"/></mask><g/><path d="M23.736 8.92c-.842 0-1.527-.71-1.527-1.582 0-.872.685-1.58 1.527-1.58.842 0 1.527.708 1.527 1.58 0 .872-.685 1.582-1.527 1.582m-9.204 11.312c-3.419 0-6.2-2.866-6.2-6.39 0-3.522 2.781-6.388 6.2-6.388 3.42 0 6.201 2.866 6.201 6.388 0 3.524-2.781 6.39-6.2 6.39m12.58-16.983h-5.327l-.697-1.435C21.008 1.628 20.271 0 19.23 0H9.77C8.729 0 7.992 1.628 7.917 1.8l-.703 1.45H1.887C.847 3.249 0 4.12 0 5.193v17.861C0 24.127.846 25 1.887 25h25.225c1.04 0 1.887-.873 1.887-1.946L29 20.781V5.193c0-1.072-.847-1.944-1.887-1.944" fill="#FFF" mask="url(#b)"/><path d="M14.5 9a4.505 4.505 0 0 0-4.5 4.5c0 2.481 2.019 4.5 4.5 4.5s4.5-2.019 4.5-4.5c0-2.482-2.019-4.5-4.5-4.5" fill="#FFF"/></g></svg>
