<svg width="29" height="29" viewBox="0 0 29 29" xmlns="http://www.w3.org/2000/svg"><defs><clipPath id="a"><path d="M375 0v723H0V0h375Z"/></clipPath><clipPath id="c"><path d="M20 0a5 5 0 0 1 5 5v15a5 5 0 0 1-5 5H5a5 5 0 0 1-5-5V5a5 5 0 0 1 5-5h15Z"/></clipPath><clipPath id="e"><path d="M7.566.032c.027.064-.045.095-.081.132-.82.819-1.634 1.638-2.458 2.452a.387.387 0 0 0-.126.299c.004.597.004 1.194 0 1.796 0 .132.04.177.172.177.61-.005 1.217-.005 1.828 0 .113 0 .19-.045.267-.118.805-.805 1.61-1.61 2.416-2.42l.095-.096c.068-.063.095-.032.1.05v.1c0 1.352-.018 2.71.009 4.063a1.15 1.15 0 0 1-1.159 1.158l-1.247-.01-2.495.006c-1.249 0-2.493-.014-3.742.004-.602.01-1.15-.48-1.145-1.14.01-1.778 0-3.557.005-5.335C.005.476.47.01 1.145.005c2.095-.004 4.186 0 6.28 0 .05 0 .118-.022.141.027Z"/></clipPath><clipPath id="f"><path d="M6.675.12c.276.275.547.551.828.823.09.086.108.145.009.244-2.104 2.1-4.2 4.2-6.3 6.3a.3.3 0 0 1-.24.099c-.13-.01-.257-.005-.388-.005-.145 0-.294-.004-.44 0C.046 7.586 0 7.545 0 7.446c.005-.29.005-.575 0-.865 0-.09.043-.146.096-.2l.04-.04c.905-.905 1.81-1.81 2.715-2.72L6.358.116c.154-.154.154-.154.317.004Z"/></clipPath><clipPath id="g"><path d="M6.476 2.61c.086.425.041.841.055 1.194 0 .348-.005.638 0 .928.004.126-.032.185-.172.18a8.217 8.217 0 0 0-.747 0c-.163.01-.2-.063-.195-.207.01-.435.005-.87 0-1.304-.004-.936-.384-1.665-1.244-2.063-1.42-.665-2.941.344-3.036 1.77-.037.533-.014 1.072-.018 1.606 0 .144-.041.203-.19.194C.67 4.9.408 4.904.15 4.904c-.086 0-.14-.023-.14-.123.013-.665-.05-1.33.036-1.995C.227 1.379 1.417.225 2.825.03a3.284 3.284 0 0 1 3.651 2.58Z"/></clipPath><linearGradient id="d" x1="12.5" y1="0" x2="12.5" y2="25" gradientUnits="userSpaceOnUse"><stop stop-color="#697DAB" offset="0%"/><stop stop-color="#505F84" offset="100%"/></linearGradient><filter id="b" x="-24.138%" y="-20.69%" filterUnits="userSpaceOnUse" width="134.483%" height="134.483%"><feGaussianBlur stdDeviation="1" in="SourceAlpha" result="i2"/><feOffset dy="1" in="i2" result="i3"/><feColorMatrix values="0 0 0 0.0 0 0 0 0 0.0 0 0 0 0 0.0 0 0 0 0 1.0 0" in="i3"/></filter></defs><g clip-path="url(#a)" transform="translate(-41 -495)"><path d="M5 0h15a5 5 0 0 1 5 5v15a5 5 0 0 1-5 5H5a5 5 0 0 1-5-5V5a5 5 0 0 1 5-5Z" filter="url(#b)" transform="translate(43 496)"/><g clip-path="url(#c)" transform="translate(43 496)"><path fill="url(#d)" d="M0 0h25v25H0V0z"/></g><g clip-path="url(#e)" transform="translate(50 507.419)"><path fill="#FFF" d="M0 0h9.788v7.626H0V0z"/></g><g clip-path="url(#f)" transform="translate(55.421 504.205)"><path fill="#FFF" d="M0 0h7.579v7.586H0V0z"/></g><g clip-path="url(#g)" transform="translate(51.624 502)"><path fill="#FFF" d="M0 0h6.531v4.913H0V0z"/></g></g></svg>
