<svg width="21" height="19" viewBox="0 0 21 19" xmlns="http://www.w3.org/2000/svg" xmlns:xlink="http://www.w3.org/1999/xlink"><defs><path id="a" d="M0 0h18v17H0z"/><path id="c" d="M0 0h12v10H0z"/></defs><g fill="none" fill-rule="evenodd"><mask id="b" fill="#fff"><use xlink:href="#a"/></mask><g/><path d="M8.334 8.216a.96.96 0 0 1 0-1.348.934.934 0 0 1 1.332 0 .961.961 0 0 1 0 1.348.934.934 0 0 1-1.332 0m4.185-1.348a.934.934 0 0 1 1.331 0v.001a.961.961 0 0 1 0 1.348.934.934 0 0 1-1.331-.001.961.961 0 0 1 0-1.348M5.48 8.216a.934.934 0 0 1-1.331 0v-.001a.96.96 0 0 1 0-1.347.934.934 0 0 1 1.331 0 .96.96 0 0 1 0 1.348M18 7.733C18 3.24 13.724 0 9 0 4.247 0 0 3.266 0 7.733a6.93 6.93 0 0 0 1.536 4.346C1.576 13.493.768 15.522.04 17c1.952-.362 4.727-1.164 5.983-1.959C12.951 16.776 18 12.411 18 7.733" fill="#FFF" mask="url(#b)"/><g transform="translate(9 9)"><mask id="d" fill="#fff"><use xlink:href="#c"/></mask><g/><path d="M10.794 6.495c1.358-1.77 1.315-4.627-.307-6.51C9.206 3.835 5.364 6.903-.01 6.69a7.469 7.469 0 0 0 7.617 2.047c.93.535 2.955 1.032 4.374 1.238-.557-1.039-1.188-2.468-1.188-3.48" fill="#FFF" mask="url(#d)" transform="rotate(-4 5.986 4.98)"/></g></g></svg>
