<svg width="18" height="15" viewBox="0 0 18 15" xmlns="http://www.w3.org/2000/svg" fill="#FFF"><defs><clipPath id="a"><path d="M375 0v667H0V0h375Z"/></clipPath><clipPath id="b"><path d="M17.752 4.043v7.192c0 1.013-.116 1.381-.334 1.752-.217.37-.536.661-.943.86-.407.197-.81.303-1.923.303H3.2c-1.113 0-1.516-.106-1.923-.304a2.178 2.178 0 0 1-.944-.86C.116 12.617 0 12.249 0 11.236v-2.14h1.248v2.46c0 .506.058.69.167.875.109.186.268.331.472.43.203.1.405.152.961.152h12.056c.556 0 .758-.053.961-.152.204-.099.363-.244.472-.43.109-.185.167-.369.167-.876V4.043h1.248ZM9.467 5.559h2.793l-4.438 5.054-4.438-5.054h2.739C6.158 2.527 2.15 0 .055 0c2.688 0 9.403.455 9.412 5.559Z"/></clipPath></defs><g clip-path="url(#a)" transform="translate(-28 -548)"><g clip-path="url(#b)" transform="translate(28 548)"><path d="M0 0h17.752v14.15H0V0z"/></g></g></svg>
