<svg width="100" height="100" viewBox="0 0 104 108" xmlns="http://www.w3.org/2000/svg" xmlns:xlink="http://www.w3.org/1999/xlink"><defs><filter x="-4%" y="-6%" width="108%" height="112%" filterUnits="objectBoundingBox" id="a"><feOffset dy="2" in="SourceAlpha" result="shadowOffsetOuter1"/><feGaussianBlur stdDeviation="1" in="shadowOffsetOuter1" result="shadowBlurOuter1"/><feColorMatrix values="0 0 0 0 0 0 0 0 0 0 0 0 0 0 0 0 0 0 0.5 0" in="shadowBlurOuter1" result="shadowMatrixOuter1"/><feOffset dy="-2" in="SourceAlpha" result="shadowOffsetOuter2"/><feGaussianBlur stdDeviation="1" in="shadowOffsetOuter2" result="shadowBlurOuter2"/><feColorMatrix values="0 0 0 0 0 0 0 0 0 0 0 0 0 0 0 0 0 0 0.5 0" in="shadowBlurOuter2" result="shadowMatrixOuter2"/><feMerge><feMergeNode in="shadowMatrixOuter1"/><feMergeNode in="shadowMatrixOuter2"/></feMerge></filter><filter x="-4%" y="-6%" width="108%" height="112%" filterUnits="objectBoundingBox" id="d"><feGaussianBlur stdDeviation="1.5" in="SourceAlpha" result="shadowBlurInner1"/><feOffset dy="1" in="shadowBlurInner1" result="shadowOffsetInner1"/><feComposite in="shadowOffsetInner1" in2="SourceAlpha" operator="arithmetic" k2="-1" k3="1" result="shadowInnerInner1"/><feColorMatrix values="0 0 0 0 0.286211759 0 0 0 0 0.331355929 0 0 0 0 0.449581385 0 0 0 1 0" in="shadowInnerInner1"/></filter><linearGradient x1="50%" y1="0%" x2="50%" y2="100%" id="c"><stop stop-color="#3E4964" offset="0%"/><stop stop-color="#1D2334" offset="100%"/></linearGradient><rect id="b" x="0" y="0" width="100" height="100" rx="21"/></defs><g fill="none" fill-rule="evenodd"><g transform="translate(2 4)"><use fill="#000" filter="url(#a)" xlink:href="#b"/><use fill="url(#c)" xlink:href="#b"/><use fill="#000" filter="url(#d)" xlink:href="#b"/></g><path d="M87 42.714V70.67c0 3.94-.45 5.369-1.296 6.809-.846 1.44-2.087 2.571-3.668 3.341S78.886 82 74.561 82H30.439c-4.326 0-5.894-.41-7.475-1.18-1.581-.771-2.822-1.901-3.668-3.342-.846-1.44-1.296-2.87-1.296-6.81v-8.31h4.852v9.557c0 1.97.225 2.684.648 3.404a4.233 4.233 0 0 0 1.834 1.671c.79.385 1.574.59 3.737.59h46.858c2.163 0 2.947-.205 3.737-.59a4.233 4.233 0 0 0 1.834-1.67c.423-.72.648-1.435.648-3.405v-29.2H87Zm-21.347 5.893L48.403 68.25l-17.25-19.643h10.645C41.934 36.821 26.361 27 18.216 27c10.444 0 36.548 1.768 36.582 21.607h10.855Z" fill="#FFF" fill-rule="nonzero"/></g></svg>
