<svg width="29" height="29" viewBox="0 0 29 29" xmlns="http://www.w3.org/2000/svg" xmlns:xlink="http://www.w3.org/1999/xlink"><defs><linearGradient x1="50%" y1="0%" x2="50%" y2="100%" id="c"><stop stop-color="#6A7DAC" offset="0%"/><stop stop-color="#505F84" offset="100%"/></linearGradient><filter x="-14%" y="-10%" width="128%" height="128%" filterUnits="objectBoundingBox" id="a"><feOffset dy="1" in="SourceAlpha" result="shadowOffsetOuter1"/><feGaussianBlur stdDeviation="1" in="shadowOffsetOuter1" result="shadowBlurOuter1"/><feColorMatrix values="0 0 0 0 0 0 0 0 0 0 0 0 0 0 0 0 0 0 1 0" in="shadowBlurOuter1"/></filter><rect id="b" x="0" y="0" width="25" height="25" rx="5"/></defs><g fill="none" fill-rule="evenodd"><g transform="translate(2 1)"><use fill="#000" filter="url(#a)" xlink:href="#b"/><use fill="url(#c)" xlink:href="#b"/></g><path d="M21 10.96v5.267c0 .743-.085 1.012-.244 1.283-.16.272-.393.485-.691.63-.298.145-.594.222-1.409.222h-8.312c-.815 0-1.11-.077-1.409-.222a1.595 1.595 0 0 1-.69-.63C8.084 17.24 8 16.97 8 16.227v-1.566h.914v1.801c0 .371.042.506.122.642a.8.8 0 0 0 .346.314c.149.073.296.112.704.112h8.828c.408 0 .555-.039.704-.112a.798.798 0 0 0 .346-.314c.08-.136.122-.27.122-.642v-5.501H21Zm-4.022 1.11-3.25 3.702-3.25-3.701h2.006C12.509 9.85 9.575 8 8.04 8c1.968 0 6.886.333 6.892 4.07h2.045Z" fill="#FFF" fill-rule="nonzero"/></g></svg>
