<svg width="34" height="34" viewBox="0 0 34 34" xmlns="http://www.w3.org/2000/svg"><defs><clipPath id="a"><path d="M375 0v667H0V0h375Z"/></clipPath><clipPath id="c"><path d="M25 0a5 5 0 0 1 5 5v20a5 5 0 0 1-5 5H5a5 5 0 0 1-5-5V5a5 5 0 0 1 5-5h20Z"/></clipPath><clipPath id="e"><path d="M4.376 0v5.001H6.25L3.125 8.753 0 5h1.876V0h2.5Z"/></clipPath><clipPath id="f"><path d="M7.502 0a5.621 5.621 0 0 1 4.784 2.666 4.065 4.065 0 0 1 4.958 2.468A3.745 3.745 0 0 1 20 8.75a3.756 3.756 0 0 1-3.752 3.752h-2.813l1.043-1.252h1.774a2.502 2.502 0 0 0 0-5h-.018a2.814 2.814 0 0 0-4.546-1.89 4.377 4.377 0 0 0-8.51 1.956 2.502 2.502 0 0 0 .57 4.934h1.774l1.043 1.252H3.752a3.752 3.752 0 0 1-1.876-7A5.628 5.628 0 0 1 7.502 0Z"/></clipPath><linearGradient id="d" x1="15" y1="0" x2="15" y2="29.853" gradientUnits="userSpaceOnUse"><stop stop-color="#50E06D" offset="0%"/><stop stop-color="#006822" offset="100%"/></linearGradient><filter id="b" x="-20.588%" y="-17.647%" filterUnits="userSpaceOnUse" width="129.412%" height="129.412%"><feGaussianBlur stdDeviation="1" in="SourceAlpha" result="i2"/><feOffset dy="1" in="i2" result="i3"/><feColorMatrix values="0 0 0 0.1215686274509804 0 0 0 0 0.1411764705882353 0 0 0 0 0.1921568627450981 0 0 0 0 1.0 0" in="i3"/></filter></defs><g clip-path="url(#a)" transform="translate(-310 -397)"><path d="M5 0h20a5 5 0 0 1 5 5v20a5 5 0 0 1-5 5H5a5 5 0 0 1-5-5V5a5 5 0 0 1 5-5Z" filter="url(#b)" transform="translate(312 398)"/><g clip-path="url(#c)" transform="translate(312 398)"><path fill="url(#d)" d="M0 0h30v30H0V0z"/></g><g clip-path="url(#e)" transform="translate(323.877 411.626)"><path fill="#FFF" d="M0 0h6.25v8.753H0V0z"/></g><g clip-path="url(#f)" transform="translate(317 406)"><path fill="#FFF" d="M0 0h20v12.503H0V0z"/></g></g></svg>
