<svg width="108" height="112" viewBox="0 0 108 112" xmlns="http://www.w3.org/2000/svg"><defs><clipPath id="a"><path d="M375 0v667H0V0h375Z"/></clipPath><clipPath id="d"><path d="M83 0c11.598 0 21 9.402 21 21v62c0 11.598-9.402 21-21 21H21C9.402 104 0 94.598 0 83V21C0 9.402 9.402 0 21 0h62Z"/></clipPath><clipPath id="g"><path d="M11.044 0v12.62h4.729l-7.887 9.468L0 12.62h4.734V0h6.31Z"/></clipPath><clipPath id="h"><path d="M18.93 0c5.1 0 9.57 2.689 12.074 6.727a10.24 10.24 0 0 1 2.91-.417c4.394 0 8.14 2.761 9.602 6.645 4.013 1.097 6.964 4.77 6.954 9.128 0 5.218-4.244 9.467-9.468 9.467h-7.098l2.632-3.157h4.477c3.482 0 6.305-2.833 6.305-6.31a6.31 6.31 0 0 0-6.305-6.31h-.047a7.102 7.102 0 0 0-11.471-4.77 11.038 11.038 0 0 0-10.57-7.85c-6.099 0-11.044 4.944-11.044 11.043 0 .593.046 1.175.14 1.741a6.314 6.314 0 0 0-4.869 6.146 6.31 6.31 0 0 0 6.305 6.31h4.477l2.632 3.157H9.468C4.239 31.55 0 27.31 0 22.088a9.477 9.477 0 0 1 4.734-8.2C4.899 6.191 11.194 0 18.93 0Z"/></clipPath><filter id="b" x="-7.407%" y="-5.556%" filterUnits="userSpaceOnUse" width="111.111%" height="111.111%"><feGaussianBlur stdDeviation="1" in="SourceAlpha" result="i2"/><feOffset dy="2" in="i2" result="i3"/><feColorMatrix values="0 0 0 0.0 0 0 0 0 0.0 0 0 0 0 0.0 0 0 0 0 0.5 0" in="i3"/></filter><filter id="c" x="-7.407%" y="-9.259%" filterUnits="userSpaceOnUse" width="111.111%" height="111.111%"><feGaussianBlur stdDeviation="1" in="SourceAlpha" result="i5"/><feOffset dy="-2" in="i5" result="i6"/><feColorMatrix values="0 0 0 0.0 0 0 0 0 0.0 0 0 0 0 0.0 0 0 0 0 0.5 0" in="i6"/></filter><filter id="f" x="-11.207%" y="-11.207%" filterUnits="userSpaceOnUse" width="112.069%" height="112.069%"><feGaussianBlur stdDeviation="1.5" in="SourceAlpha" result="i10"/><feOffset dy="1" in="i10" result="i11"/><feColorMatrix values="0 0 0 0.286211758852005 0 0 0 0 0.3313559293746948 0 0 0 0 0.4495813846588135 0 0 0 0 1.0 0" in="i11"/></filter><linearGradient id="e" x1="52" y1="0" x2="52" y2="104" gradientUnits="userSpaceOnUse"><stop stop-color="#3D4863" offset="0%"/><stop stop-color="#1C2234" offset="100%"/></linearGradient></defs><g clip-path="url(#a)" transform="translate(-133 -85)"><path d="M21 0h62c11.598 0 21 9.402 21 21v62c0 11.598-9.402 21-21 21H21C9.402 104 0 94.598 0 83V21C0 9.402 9.402 0 21 0Z" filter="url(#b)" transform="translate(135 89)"/><path d="M21 0h62c11.598 0 21 9.402 21 21v62c0 11.598-9.402 21-21 21H21C9.402 104 0 94.598 0 83V21C0 9.402 9.402 0 21 0Z" filter="url(#c)" transform="translate(135 89)"/><g clip-path="url(#d)" transform="translate(135 89)"><path fill="url(#e)" d="M0 0h104v104H0V0z"/><path d="M107-4v110H-3V-4h110ZM83 0H21C9.402 0 0 9.402 0 21v62c0 11.598 9.402 21 21 21h62c11.598 0 21-9.402 21-21V21c0-11.598-9.402-21-21-21Z" style="mix-blend-mode:screen" filter="url(#f)"/></g><g clip-path="url(#g)" transform="translate(179.354 137.196)"><path fill="#FFF" d="M0 0h15.773v22.088H0V0z"/></g><g clip-path="url(#h)" transform="translate(162 123)"><path fill="#FFF" d="M0 0h50.47v31.55H0V0z"/></g></g></svg>
