<svg width="29" height="29" viewBox="0 0 29 29" xmlns="http://www.w3.org/2000/svg" xmlns:xlink="http://www.w3.org/1999/xlink"><defs><linearGradient x1="50%" y1="0%" x2="50%" y2="100%" id="c"><stop stop-color="#6A7DAC" offset="0%"/><stop stop-color="#505F84" offset="100%"/></linearGradient><filter x="-14%" y="-10%" width="128%" height="128%" filterUnits="objectBoundingBox" id="a"><feOffset dy="1" in="SourceAlpha" result="shadowOffsetOuter1"/><feGaussianBlur stdDeviation="1" in="shadowOffsetOuter1" result="shadowBlurOuter1"/><feColorMatrix values="0 0 0 0 0 0 0 0 0 0 0 0 0 0 0 0 0 0 1 0" in="shadowBlurOuter1"/></filter><rect id="b" x="0" y="0" width="25" height="25" rx="5"/></defs><g fill="none" fill-rule="evenodd"><g transform="translate(2 1)"><use fill="#000" filter="url(#a)" xlink:href="#b"/><use fill="url(#c)" xlink:href="#b"/></g><g fill="#FFF" fill-rule="nonzero"><path d="M15.44 12.22h-1.875v3.75h-1.407l2.344 2.814 2.343-2.814H15.44z"/><path d="M19.933 11.85A3.049 3.049 0 0 0 16.215 10a4.22 4.22 0 0 0-7.808 2.128 2.814 2.814 0 0 0 1.407 5.25l2.11-.001-.783-.939h-1.33a1.875 1.875 0 0 1-.427-3.701 3.282 3.282 0 0 1 6.382-1.467 2.11 2.11 0 0 1 3.41 1.418h.013a1.875 1.875 0 0 1 0 3.75h-1.33l-.782.939h2.11A2.817 2.817 0 0 0 22 14.563a2.808 2.808 0 0 0-2.067-2.713Z"/></g></g></svg>
