<svg width="25" height="25" viewBox="0 0 29 27" xmlns="http://www.w3.org/2000/svg" xmlns:xlink="http://www.w3.org/1999/xlink"><defs><linearGradient x1="50%" y1="0%" x2="50%" y2="100%" id="c"><stop stop-color="#6A7DAC" offset="0%"/><stop stop-color="#505F84" offset="100%"/></linearGradient><filter x="-14%" y="-10%" width="128%" height="128%" filterUnits="objectBoundingBox" id="a"><feOffset dy="1" in="SourceAlpha" result="shadowOffsetOuter1"/><feGaussianBlur stdDeviation="1" in="shadowOffsetOuter1" result="shadowBlurOuter1"/><feColorMatrix values="0 0 0 0 0 0 0 0 0 0 0 0 0 0 0 0 0 0 1 0" in="shadowBlurOuter1"/></filter><rect id="b" x="0" y="0" width="25" height="25" rx="5"/></defs><g fill="none" fill-rule="evenodd"><g transform="translate(2 1)"><use fill="#000" filter="url(#a)" xlink:href="#b"/><use fill="url(#c)" xlink:href="#b"/></g><g fill="#FFF"><path d="M21 10.784c0-.296-.296-.414-.533-.237l-4.798 4.443a1.657 1.657 0 0 1-1.185.474c-.415 0-.83-.178-1.185-.415L8.56 10.547c-.237-.177-.533-.059-.533.237v6.22c0 .593.474 1.066 1.066 1.066h10.84c.593 0 1.067-.473 1.067-1.066v-6.22Z"/><path d="M14.188 14.28c.177.177.414.177.592 0l6.102-5.748C21 8.296 21 8 20.526 8H8.442c-.297 0-.593.296-.356.592l6.102 5.688Z"/></g></g></svg>
