<svg width="25" height="25" viewBox="0 0 29 27" xmlns="http://www.w3.org/2000/svg" xmlns:xlink="http://www.w3.org/1999/xlink"><defs><linearGradient x1="50%" y1="0%" x2="50%" y2="100%" id="c"><stop stop-color="#6A7DAC" offset="0%"/><stop stop-color="#505F84" offset="100%"/></linearGradient><filter x="-14%" y="-10%" width="128%" height="128%" filterUnits="objectBoundingBox" id="a"><feOffset dy="1" in="SourceAlpha" result="shadowOffsetOuter1"/><feGaussianBlur stdDeviation="1" in="shadowOffsetOuter1" result="shadowBlurOuter1"/><feColorMatrix values="0 0 0 0 0 0 0 0 0 0 0 0 0 0 0 0 0 0 1 0" in="shadowBlurOuter1"/></filter><rect id="b" x="0" y="0" width="25" height="25" rx="5"/></defs><g fill="none" fill-rule="evenodd"><g transform="translate(2 1)"><use fill="#000" filter="url(#a)" xlink:href="#b"/><use fill="url(#c)" xlink:href="#b"/></g><g fill="#FFF"><path d="M20.046 19.639H9.009c-.119 0-.178-.06-.178-.178v-5.696l4.925 3.62c.356.236.771.236 1.127.058l5.34-3.5v5.518c0 .06-.118.178-.177.178Z"/><path d="M19.987 12.043h-.238v1.246l.416-.296v-.712c.059-.119-.06-.238-.178-.238Zm-11.156.178v.416l.415.296v-.89h-.178c-.118 0-.237.06-.237.178Zm.891 1.068 4.45 3.086c.059.06.118.06.177 0l4.866-2.967V7.593H9.722v5.696Zm6.764-2.551-.297-.178.237-.356.297.178.178.237.06-.06-.12-.296v-.296h.416v.296l-.119.297.119.06.178-.238.297-.178.118.356-.296.178h-.297v.119h.297l.296.178-.237.356-.297-.178-.178-.238-.118.06.118.296v.297h-.415v-.297l.119-.296-.12-.06-.177.238-.297.178-.237-.356.297-.178h.296v-.12h-.118Zm-2.552 0-.297-.178.238-.356.296.178.178.237.06-.06-.119-.296v-.296h.415v.296l-.118.297.118.06.178-.238.238-.178.237.356-.297.178h-.296v.119h.296l.297.178-.237.356-.297-.178-.178-.238-.119.06.12.296v.297h-.416v-.297l.118-.296-.118-.06-.178.238-.178.178-.238-.356.297-.12h.297v-.177h-.297Zm-2.67 0-.297-.178.238-.356.296.178.178.237.06-.06-.12-.296v-.296h.416v.296l-.118.297.118.06.119-.238.297-.178.178.356-.238.178h-.296v.119h.296l.297.178-.237.356-.297-.12-.178-.296-.06.06.12.296v.297h-.416v-.297l.119-.296-.12-.06-.177.297-.237.119-.238-.356.297-.178h.297v-.12h-.297Z" fill-rule="nonzero"/></g></g></svg>
