<svg width="108" height="112" viewBox="0 0 108 112" xmlns="http://www.w3.org/2000/svg"><defs><clipPath id="a"><path d="M375 0v667H0V0h375Z"/></clipPath><clipPath id="d"><path d="M83 0c11.598 0 21 9.402 21 21v62c0 11.598-9.402 21-21 21H21C9.402 104 0 94.598 0 83V21C0 9.402 9.402 0 21 0h62Z"/></clipPath><clipPath id="g"><path d="M5.935.126c.364-.241.967-.123 1.21.243l.243.244c.487.48 1.331.844 2.061.844S10.903 1.1 11.51.613l.244-.244c.243-.243.846-.366 1.21-.243l.02.007c.086.032.459.18 1.19.6.846.483 1.09.724 1.09.724.364.245.487.848.364 1.212l-.12.241c-.124.726 0 1.454.363 2.18.487.723 1.09 1.207 1.818 1.453l.366.118c.36.123.723.605.844.97 0 0 .123.359 0 1.332 0 .967-.12 1.331-.12 1.331 0 .48-.483.846-.847.967l-.243.123c-.728.24-1.454.723-1.818 1.45-.487.604-.487 1.45-.364 2.18l.12.241c.124.366 0 .967-.363 1.213 0 0-.244.234-1.09.72-.844.487-1.21.61-1.21.61-.364.244-.967.12-1.21-.243l-.244-.244c-.484-.48-1.337-.843-2.06-.843-.73 0-1.454.357-2.062.843l-.243.244c-.243.243-.846.364-1.21.243 0 0-.364-.123-1.21-.61-.734-.415-1.014-.652-1.076-.708l-.014-.012c-.364-.246-.484-.847-.364-1.213l.123-.24c.12-.727 0-1.455-.366-2.18-.485-.728-1.088-1.21-1.818-1.451l-.243-.123c-.36-.12-.724-.603-.846-.967 0 0-.121-.364-.121-1.33C0 7.996.12 7.63.12 7.63c0-.482.483-.846.847-.969l.243-.118c.73-.246 1.454-.726 1.818-1.454.487-.602.487-1.453.366-2.179l-.123-.24c-.12-.365 0-.968.364-1.213l.014-.013.045-.038.08-.064a9.17 9.17 0 0 1 .95-.609C5.572.25 5.935.126 5.935.126Zm3.642 4.963c-2.056 0-3.753 1.69-3.753 3.751 0 2.057 1.692 3.754 3.753 3.754 2.056 0 3.753-1.577 3.753-3.754 0-2.056-1.692-3.75-3.753-3.75Z"/></clipPath><clipPath id="h"><path d="M41.231 0v53.32H0V0h41.231Z"/></clipPath><clipPath id="i"><path d="M20.612 0c7.509 0 13.49 6.109 13.49 13.49v8.93h3.814c1.783 0 3.31 1.526 3.31 3.31v3.942H41.1c-.64 0-1.273-.255-1.655-.638l-.255-.257c-.385-.382-1.018-.637-1.656-.637-.255 0-.512 0-.767.127l-.106.054c-.193.098-.641.332-1.294.707-1.016.505-1.398.887-1.398.887-.638.506-.895 1.524-.638 2.289l.128.255c.127.64 0 1.272-.258 1.785-.382.63-.887 1.013-1.397 1.143l-.385.127c-.765.255-1.526 1.022-1.656 1.783 0 .127-.125.637-.125 1.655 0 1.143.125 1.526.125 1.655.13.893.895 1.653 1.656 1.78h.257c.51.128 1.143.634 1.398 1.146.257.51.385 1.27.257 1.783l-.13.253c-.248.762 0 1.778.64 2.29.128 0 .51.378 1.4.888.888.503 1.271.76 1.398.76.256.128.513.128.768.128.637 0 1.27-.255 1.655-.638l.128-.255c.382-.384 1.015-.64 1.653-.64.127 0 .127 0 .39-.127v2.035c0 1.786-1.526 3.311-3.31 3.311H3.312C1.528 53.321 0 51.796 0 50.011V25.704c0-1.78 1.528-3.31 3.31-3.31h3.814V13.49C7.124 5.981 13.233 0 20.612 0Zm-.005 30.792c-2.288 0-4.198 1.912-4.198 4.198 0 1.655.888 3.053 2.288 3.696v5.339c0 .13.128.382.383.382h2.8c.125 0 .383-.125.383-.382v-5.34c1.398-.767 2.292-2.167 2.543-3.695 0-2.286-1.91-4.198-4.199-4.198Zm-.255-25.189a8.25 8.25 0 0 0-8.269 8.27v8.652h16.536v-8.652a8.25 8.25 0 0 0-8.267-8.27Z"/></clipPath><clipPath id="j"><path d="M26.978 0v22.35H0V0h26.978Z"/></clipPath><clipPath id="k"><path d="M13.488 0c7.509 0 13.49 6.109 13.49 13.49v8.863h-5.483v-8.48a8.25 8.25 0 0 0-8.267-8.27 8.25 8.25 0 0 0-8.27 8.27v8.48H0V13.49C0 5.981 6.109 0 13.488 0Z"/></clipPath><filter id="b" x="-7.407%" y="-5.556%" filterUnits="userSpaceOnUse" width="111.111%" height="111.111%"><feGaussianBlur stdDeviation="1" in="SourceAlpha" result="i2"/><feOffset dy="2" in="i2" result="i3"/><feColorMatrix values="0 0 0 0.0 0 0 0 0 0.0 0 0 0 0 0.0 0 0 0 0 0.5 0" in="i3"/></filter><filter id="c" x="-7.407%" y="-9.259%" filterUnits="userSpaceOnUse" width="111.111%" height="111.111%"><feGaussianBlur stdDeviation="1" in="SourceAlpha" result="i5"/><feOffset dy="-2" in="i5" result="i6"/><feColorMatrix values="0 0 0 0.0 0 0 0 0 0.0 0 0 0 0 0.0 0 0 0 0 0.5 0" in="i6"/></filter><filter id="f" x="-11.207%" y="-11.207%" filterUnits="userSpaceOnUse" width="112.069%" height="112.069%"><feGaussianBlur stdDeviation="1.5" in="SourceAlpha" result="i10"/><feOffset dy="1" in="i10" result="i11"/><feColorMatrix values="0 0 0 0.286211758852005 0 0 0 0 0.3313559293746948 0 0 0 0 0.4495813846588135 0 0 0 0 1.0 0" in="i11"/></filter><linearGradient id="e" x1="52" y1="0" x2="52" y2="104" gradientUnits="userSpaceOnUse"><stop stop-color="#3D4863" offset="0%"/><stop stop-color="#1C2234" offset="100%"/></linearGradient></defs><g clip-path="url(#a)" transform="translate(-133 -85)"><path d="M21 0h62c11.598 0 21 9.402 21 21v62c0 11.598-9.402 21-21 21H21C9.402 104 0 94.598 0 83V21C0 9.402 9.402 0 21 0Z" filter="url(#b)" transform="translate(135 89)"/><path d="M21 0h62c11.598 0 21 9.402 21 21v62c0 11.598-9.402 21-21 21H21C9.402 104 0 94.598 0 83V21C0 9.402 9.402 0 21 0Z" filter="url(#c)" transform="translate(135 89)"/><g clip-path="url(#d)" transform="translate(135 89)"><path fill="url(#e)" d="M0 0h104v104H0V0z"/><path d="M107-4v110H-3V-4h110ZM83 0H21C9.402 0 0 9.402 0 21v62c0 11.598 9.402 21 21 21h62c11.598 0 21-9.402 21-21V21c0-11.598-9.402-21-21-21Z" style="mix-blend-mode:screen" filter="url(#f)"/></g><g clip-path="url(#g)" transform="translate(193.26 144.104)"><path fill="#FFF" d="M0 0h18.953v17.925H0V0z"/></g><g clip-path="url(#h)" transform="translate(162 114)"><g clip-path="url(#i)" transform="translate(0 -.001)"><path fill="#FFF" d="M0 .001h41.231v53.32H0V.001z"/></g></g><g clip-path="url(#j)" transform="translate(169.123 114)"><g clip-path="url(#k)" transform="translate(0 -.002)"><path fill="#FFF" d="M0 .002h26.978v22.35H0V.003z"/></g></g></g></svg>
