<svg width="128" height="105" viewBox="0 0 128 105" xmlns="http://www.w3.org/2000/svg"><defs><clipPath id="a"><path d="M375 0v949H0V0h375Z"/></clipPath><clipPath id="c"><path d="M106 17.537v55.972c0 4.88-3.957 8.838-8.833 8.838H8.833C3.957 82.347 0 78.39 0 73.51V17.537h106ZM25.07 58.71h-1.51c-5.237 0-9.681 3.306-11.23 7.9-.59 1.75.959 3.538 2.876 3.538h34.41c1.918 0 3.467-1.77 2.877-3.539-1.55-4.593-5.994-7.899-11.23-7.899H39.75a19.556 19.556 0 0 1-14.678 0Zm68.004-6.1H66.307c-.818 0-1.487.687-1.487 1.526v3.05c0 .838.67 1.524 1.487 1.524h26.767c.818 0 1.487-.686 1.487-1.525v-3.05c0-.838-.669-1.524-1.487-1.524ZM32.41 28.975c-6.52 0-11.82 5.3-11.82 11.818 0 6.519 5.3 11.819 11.82 11.819 6.52 0 11.82-5.3 11.82-11.819 0-6.518-5.3-11.818-11.82-11.818Zm60.664 12.2H66.307c-.818 0-1.487.686-1.487 1.525v3.05c0 .838.67 1.524 1.487 1.524h26.767c.818 0 1.487-.686 1.487-1.525v-3.05c0-.838-.669-1.524-1.487-1.524Zm0-12.2H66.307c-.818 0-1.487.686-1.487 1.525v3.05c0 .839.67 1.525 1.487 1.525h26.767c.818 0 1.487-.686 1.487-1.525V30.5c0-.839-.669-1.525-1.487-1.525ZM97.167 0C102.043 0 106 3.842 106 8.578v2.86H0v-2.86C0 3.842 3.957 0 8.833 0Z"/></clipPath><filter id="b" x="-33.594%" y="-45.042%" filterUnits="userSpaceOnUse" width="145.313%" height="155.584%"><feDropShadow stdDeviation="5.5" dx="-3" dy="-7" flood-color="#2C3548"/></filter></defs><g clip-path="url(#a)" transform="translate(-121 -281)"><g filter="url(#b)" transform="translate(135 299)"><g clip-path="url(#c)"><path fill="#1C2234" d="M0 0h106v82.347H0V0z"/></g></g></g></svg>
