<svg width="34" height="34" viewBox="0 0 34 34" xmlns="http://www.w3.org/2000/svg" xmlns:xlink="http://www.w3.org/1999/xlink"><defs><linearGradient x1="50%" y1="0%" x2="50%" y2="100%" id="c"><stop stop-color="#DCBF4B" offset="0%"/><stop stop-color="#D1803A" offset="100%"/></linearGradient><filter x="-11.7%" y="-8.3%" width="123.3%" height="123.3%" filterUnits="objectBoundingBox" id="a"><feOffset dy="1" in="SourceAlpha" result="shadowOffsetOuter1"/><feGaussianBlur stdDeviation="1" in="shadowOffsetOuter1" result="shadowBlurOuter1"/><feColorMatrix values="0 0 0 0 0 0 0 0 0 0 0 0 0 0 0 0 0 0 1 0" in="shadowBlurOuter1"/></filter><rect id="b" x="0" y="0" width="30" height="30" rx="5"/></defs><g fill="none" fill-rule="evenodd"><g transform="translate(2 1)"><use fill="#000" filter="url(#a)" xlink:href="#b"/><use fill="url(#c)" xlink:href="#b"/></g><path d="M23.047 20.032a.33.33 0 0 1 .327.328v.55c.22.067.431.164.626.287l.36-.362a.33.33 0 0 1 .463 0l.485.486a.324.324 0 0 1 0 .462l-.39.39c.11.205.191.422.243.647h.512c.18 0 .327.147.327.327v.683a.33.33 0 0 1-.327.329h-.551c-.067.22-.163.43-.285.625l.356.357a.33.33 0 0 1 0 .464l-.482.492a.33.33 0 0 1-.464 0l-.389-.388c-.207.108-.427.19-.655.242v.511a.33.33 0 0 1-.327.328h-.682a.33.33 0 0 1-.33-.328v-.55a2.612 2.612 0 0 1-.627-.287l-.356.358a.33.33 0 0 1-.464 0l-.48-.493a.326.326 0 0 1 0-.462l.388-.39a2.708 2.708 0 0 1-.242-.646h-.512a.33.33 0 0 1-.317-.328v-.682a.33.33 0 0 1 .328-.329h.542c.068-.22.164-.43.286-.624l-.358-.356a.33.33 0 0 1 0-.464l.486-.485a.326.326 0 0 1 .462 0l.39.39a2.7 2.7 0 0 1 .647-.243v-.511a.33.33 0 0 1 .328-.328h.682Zm-.428 2.033a1.345 1.345 0 1 0 0 2.69 1.345 1.345 0 0 0 0-2.69Zm-4.344 3.886a.512.512 0 0 1 0 1.01h-9.1A1.175 1.175 0 0 1 8 25.78V7.167A1.163 1.163 0 0 1 9.173 6h14.433a1.177 1.177 0 0 1 1.175 1.175v10.49a.512.512 0 0 1-1.013 0V7.175a.17.17 0 0 0-.048-.116.17.17 0 0 0-.116-.05H9.174a.16.16 0 0 0-.17.171v18.6a.17.17 0 0 0 .048.115.17.17 0 0 0 .118.049h9.105v.007Zm-7.035-2.445V22.37h4.916v1.13h-4.914l-.002.006Zm9.43-7.316v1.042h-1.48V16.19h1.48Zm-2.649-.917v1.96H16.54v-1.96h1.481Zm-2.648-2.807v4.775h-1.482v-4.775h1.482Zm-2.65-1.962v6.728H11.24v-6.728h1.483Zm7.043.494 2.234.009a2.24 2.24 0 0 1-.992 1.85l-1.243-1.859Zm-.229-.443-.112-2.39a.087.087 0 0 1 .082-.09h.088a2.483 2.483 0 0 1 2.505 2.302.089.089 0 0 1-.08.092l-2.387.17a.084.084 0 0 1-.09-.078l-.006-.006Zm.142-2.31.11 2.132 2.006-.18c-.043-.52-.288-1-.682-1.34-.42-.388-.808-.618-1.419-.611l-.015-.002Zm-.408 2.649 1.194 2.075a2.396 2.396 0 1 1-1.542-4.445l.342 2.37h.006Zm-8.031 9.571v-1.139h6.967v1.13l-6.967.01Z" fill="#FFF" fill-rule="nonzero"/></g></svg>
