<svg width="29" height="29" viewBox="0 0 29 29" xmlns="http://www.w3.org/2000/svg"><defs><clipPath id="a"><path d="M375 0v723H0V0h375Z"/></clipPath><clipPath id="c"><path d="M20 0a5 5 0 0 1 5 5v15a5 5 0 0 1-5 5H5a5 5 0 0 1-5-5V5a5 5 0 0 1 5-5h15Z"/></clipPath><clipPath id="e"><path d="M6.402.003c.64.002 1.178.507 1.302 1.111l.035.19v2.642c-.035.143-.06.29-.11.428-.182.5-.704.895-1.275.876-.169-.005-.338 0-.516 0v.14c0 .284-.005.564.002.848a.423.423 0 0 1-.223.404c-.122.003-.236.003-.348.003-.14-.155-.285-.31-.421-.47a76.213 76.213 0 0 1-.7-.832.218.218 0 0 0-.188-.088c-.861.002-1.725.002-2.586.002A1.386 1.386 0 0 1 .04 4.174c-.064-.285-.033-.573-.036-.86-.007-.641.003-1.279-.002-1.919C-.002.7.579.058 1.271.008c.031-.003.065 0 .1 0V.59a.765.765 0 0 0-.433.147.773.773 0 0 0-.34.619c-.012.456-.008.91-.008 1.367 0 .374.005.75 0 1.123-.005.43.345.835.82.826.822-.014 1.643-.005 2.464-.005.123 0 .25.005.373 0a.173.173 0 0 1 .153.067c.266.319.535.637.802.954.01.012.011.029.016.04.01-.004.017-.011.026-.016v-1.05h.445c.217 0 .433-.004.652.003.44.014.795-.372.8-.793.007-.559.002-1.118.002-1.677 0-.255-.007-.512 0-.767.012-.426-.338-.844-.816-.84C5.276.6 4.222.591 3.17.591h-.18V0h.378C4.379 0 5.39-.002 6.402.003Z"/></clipPath><clipPath id="f"><path d="M6.692 0c.24.08.456.195.633.38.264.28.402.608.404.99.002.831.002 1.66-.002 2.49-.003.657-.526 1.251-1.18 1.347-.058.01-.117.007-.184.01V4.64c.05-.01.1-.016.148-.028a.806.806 0 0 0 .628-.795c.002-.624 0-1.25 0-1.873 0-.202 0-.404-.002-.607-.003-.4-.367-.787-.798-.785C5.071.562 3.8.557 2.53.554H1.336c-.326 0-.673.296-.726.65-.03.205-.021.414-.021.621-.003.633.002 1.266-.003 1.9-.002.301.088.558.336.749a.804.804 0 0 0 .51.157c.297 0 .594-.003.892-.005h.157v1.07c.088-.104.161-.185.233-.27l.63-.75c.02-.024.058-.048.086-.048.428-.002.857 0 1.285.003l.026.005v.578h-.442c-.195 0-.393-.005-.588 0-.031 0-.072.026-.093.052-.34.4-.678.804-1.016 1.207-.124.147-.276.195-.443.14-.16-.05-.254-.193-.254-.385v-.955c0-.014-.003-.028-.005-.057-.145 0-.29-.005-.433 0a1.326 1.326 0 0 1-1.01-.366 1.366 1.366 0 0 1-.44-.88c-.002-.02-.009-.041-.014-.06C0 3.034 0 2.16 0 1.285c.005-.029.014-.057.017-.086A1.39 1.39 0 0 1 .48.312C.643.164.833.074 1.035 0h5.657Z"/></clipPath><clipPath id="g"><path d="M.771 0c.179.012.34.026.502.04v.365L2.325.276c.014.145.026.295.043.464L1.24.84v.374l.4-.022.035-.095.45.079-.005.07c.136.094.276.165.383.27.224.214.257.492.203.785-.06.321-.27.51-.557.616-.145.055-.302.084-.455.12-.03.007-.08.002-.095-.02-.08-.102-.152-.209-.23-.318.14-.036.275-.065.406-.103a.677.677 0 0 0 .357-.238c.17-.219.083-.547-.162-.642-.142.192-.278.388-.428.57-.274.334-.626.524-1.061.539-.286.01-.483-.195-.481-.479.002-.44.257-.709.61-.913.05-.029.104-.053.152-.077v-.5h-.59A96.334 96.334 0 0 1 .15.413h.621V0Zm.017 1.787c-.088.079-.157.133-.22.195a.347.347 0 0 0-.102.276c.005.062.034.112.093.11.09-.005.179-.031.267-.05.01-.003.024-.029.021-.043a24.037 24.037 0 0 0-.06-.488Z"/></clipPath><clipPath id="h"><path d="M1.561 0c.062-.002.095.017.119.079a375.653 375.653 0 0 0 .961 2.567l.027.088c-.2 0-.388.003-.574-.002-.024 0-.06-.033-.069-.06a11.27 11.27 0 0 1-.162-.48c-.014-.048-.035-.067-.085-.067-.3.003-.6.005-.902.003-.06 0-.07.035-.081.073-.055.157-.11.314-.17.47-.009.025-.044.056-.068.059-.181.004-.362.002-.557.002.098-.255.19-.497.28-.74L1.003.083c.021-.057.045-.083.114-.08A5.5 5.5 0 0 0 1.562 0Zm-.226.671c-.121.348-.236.669-.352 1h.697l-.345-1Z"/></clipPath><linearGradient id="d" x1="12.5" y1="0" x2="12.5" y2="25" gradientUnits="userSpaceOnUse"><stop stop-color="#697DAB" offset="0%"/><stop stop-color="#505F84" offset="100%"/></linearGradient><filter id="b" x="-24.138%" y="-20.69%" filterUnits="userSpaceOnUse" width="134.483%" height="134.483%"><feGaussianBlur stdDeviation="1" in="SourceAlpha" result="i2"/><feOffset dy="1" in="i2" result="i3"/><feColorMatrix values="0 0 0 0.0 0 0 0 0 0.0 0 0 0 0 0.0 0 0 0 0 1.0 0" in="i3"/></filter></defs><g clip-path="url(#a)" transform="translate(-41 -535)"><path d="M5 0h15a5 5 0 0 1 5 5v15a5 5 0 0 1-5 5H5a5 5 0 0 1-5-5V5a5 5 0 0 1 5-5Z" filter="url(#b)" transform="translate(43 536)"/><g clip-path="url(#c)" transform="translate(43 536)"><path fill="url(#d)" d="M0 0h25v25H0V0z"/></g><g clip-path="url(#e)" transform="translate(54.26 547.117)"><path fill="#FFF" d="M0 0h7.74v6.645H0V0z"/></g><g clip-path="url(#f)" transform="translate(49 544)"><path fill="#FFF" d="M0 0h7.73v6.635H0V0z"/></g><g clip-path="url(#g)" transform="translate(56.815 548.031)"><path fill="#FFF" d="M0 0h2.729v3.04H0V0z"/></g><g clip-path="url(#h)" transform="translate(51.408 544.933)"><path fill="#FFF" d="M0 0h2.668v2.735H0V0z"/></g></g></svg>
