<svg width="29" height="29" viewBox="0 0 29 29" xmlns="http://www.w3.org/2000/svg" xmlns:xlink="http://www.w3.org/1999/xlink"><defs><linearGradient x1="50%" y1="0%" x2="50%" y2="100%" id="c"><stop stop-color="#6A7DAC" offset="0%"/><stop stop-color="#505F84" offset="100%"/></linearGradient><filter x="-14%" y="-10%" width="128%" height="128%" filterUnits="objectBoundingBox" id="a"><feOffset dy="1" in="SourceAlpha" result="shadowOffsetOuter1"/><feGaussianBlur stdDeviation="1" in="shadowOffsetOuter1" result="shadowBlurOuter1"/><feColorMatrix values="0 0 0 0 0 0 0 0 0 0 0 0 0 0 0 0 0 0 1 0" in="shadowBlurOuter1"/></filter><rect id="b" x="0" y="0" width="25" height="25" rx="5"/></defs><g fill="none" fill-rule="evenodd"><g transform="translate(2 1)"><use fill="#000" filter="url(#a)" xlink:href="#b"/><use fill="url(#c)" xlink:href="#b"/></g><path d="M14.361 11.007v1.259h2.089c-.085.543-.629 1.573-2.088 1.573-1.258 0-2.26-1.03-2.26-2.317 0-1.287 1.03-2.317 2.26-2.317.715 0 1.202.315 1.46.572l1-.944a3.481 3.481 0 0 0-2.46-.972 3.65 3.65 0 0 0-3.662 3.661 3.65 3.65 0 0 0 3.661 3.662c2.117 0 3.519-1.488 3.519-3.576 0-.229-.029-.43-.057-.6H14.36Zm5.893 4.52c1.001-2.146 1.459-4.863 1.287-8.181-2.088.2-4.548-.63-7.266-2.346C11.93 6.83 9.498 7.374 7.01 7.231c-.086 3.433.4 6.179 1.344 8.296a1.044 1.044 0 0 0-.887 1.03v4.205c0 .572.487 1.058 1.059 1.058h11.556c.572 0 1.059-.486 1.059-1.058v-4.177a1.16 1.16 0 0 0-.887-1.058Zm-8.353 4.119c-.086.143-.314.2-.457.086l-.344-.229v.429a.348.348 0 0 1-.343.343.348.348 0 0 1-.343-.343v-.429l-.344.229c-.143.114-.343.057-.457-.086-.115-.143-.057-.343.086-.458l.457-.314-.457-.315c-.143-.086-.2-.315-.086-.458.086-.143.314-.2.457-.086l.344.23v-.43c0-.171.143-.343.343-.343.172 0 .343.143.343.343v.43l.344-.23c.143-.114.343-.057.457.086.115.143.057.344-.086.458l-.457.315.457.314c.143.086.172.286.086.458Zm3.805 0c-.086.143-.315.2-.458.086l-.343-.229v.429a.348.348 0 0 1-.343.343.33.33 0 0 1-.344-.343v-.429l-.343.229c-.143.114-.343.057-.458-.086-.114-.143-.057-.343.086-.458l.458-.314-.458-.315c-.143-.086-.2-.315-.086-.458.086-.143.315-.2.458-.086l.343.23v-.43c0-.171.143-.343.344-.343.2 0 .343.143.343.343v.43l.343-.23c.143-.114.343-.057.458.086.114.143.057.344-.086.458l-.458.315.458.314c.143.086.2.286.086.458Zm3.833 0c-.086.143-.315.2-.458.086l-.343-.229v.429a.348.348 0 0 1-.343.343.348.348 0 0 1-.344-.343v-.429l-.343.229c-.143.114-.343.057-.458-.086-.114-.143-.057-.343.086-.458l.458-.314-.458-.315c-.143-.086-.2-.315-.086-.458.086-.143.315-.2.458-.086l.343.23v-.43c0-.171.143-.343.344-.343.171 0 .343.143.343.343v.43l.343-.23c.143-.114.343-.057.458.086.114.143.057.344-.086.458l-.458.315.458.314c.143.086.2.286.086.458Zm-.4-4.12h-9.67c-.943-1.859-1.43-4.261-1.344-7.294 2.26.115 4.348-.572 6.15-1.973 2.26 1.43 4.406 2.23 6.15 2.06.172 2.946-.314 5.32-1.287 7.208Z" fill="#FFF" fill-rule="nonzero"/></g></svg>
