<svg width="29" height="29" viewBox="0 0 29 29" xmlns="http://www.w3.org/2000/svg" xmlns:xlink="http://www.w3.org/1999/xlink"><defs><linearGradient x1="50%" y1="0%" x2="50%" y2="100%" id="c"><stop stop-color="#6A7DAC" offset="0%"/><stop stop-color="#505F84" offset="100%"/></linearGradient><filter x="-14%" y="-10%" width="128%" height="128%" filterUnits="objectBoundingBox" id="a"><feOffset dy="1" in="SourceAlpha" result="shadowOffsetOuter1"/><feGaussianBlur stdDeviation="1" in="shadowOffsetOuter1" result="shadowBlurOuter1"/><feColorMatrix values="0 0 0 0 0 0 0 0 0 0 0 0 0 0 0 0 0 0 1 0" in="shadowBlurOuter1"/></filter><rect id="b" x="0" y="0" width="25" height="25" rx="5"/></defs><g fill="none" fill-rule="evenodd"><g transform="translate(2 1)"><use fill="#000" filter="url(#a)" xlink:href="#b"/><use fill="url(#c)" xlink:href="#b"/></g><g fill="#FFF" fill-rule="nonzero"><path d="M14.23 15.607h-2.016c-.268 0-.32-.052-.32-.314 0-.31-.003-.62 0-.934.007-.663.446-1.112 1.11-1.133.09-.003.18.006.27-.003a.48.48 0 0 1 .443.181c.272.31.775.29 1.07-.033a.408.408 0 0 1 .356-.148c.184.012.373-.006.554.03.503.097.85.519.868 1.052.012.34.006.681.003 1.024 0 .202-.078.278-.29.278H14.23Z"/><path d="M17.002 14.968c0-.157-.003-.323 0-.485.024-.78-.329-1.323-1.046-1.63-.012-.006-.024-.015-.045-.03.262-.09.524-.073.784-.049.06.006.12.067.171.115.329.31.72.301 1.037-.027.045-.049.114-.094.175-.097.18-.012.364-.018.542.006.512.067.877.47.898.995.012.325.006.654.003.979-.003.16-.075.241-.226.241-.747.003-1.495 0-2.245 0-.012 0-.021-.006-.048-.018Zm-4.481-2.106a1.58 1.58 0 0 0-.783.578c-.187.262-.28.552-.286.871-.003.22 0 .44 0 .663-.03.006-.049.012-.07.012-.729 0-1.455.003-2.184 0-.187 0-.256-.07-.256-.253a33.222 33.222 0 0 1 0-.95c.012-.584.436-.997 1.018-.997.06 0 .12.003.18 0 .197-.015.353.018.501.187.223.253.696.217.934-.048a.367.367 0 0 1 .329-.139c.201.012.406.015.608.021l.01.055Zm6.593-3.496A5.645 5.645 0 0 0 17.3 7.911c-.31-.157-.642-.28-.967-.41-.193-.075-.26-.157-.211-.298.048-.142.166-.187.347-.133 1.15.356 2.112 1 2.907 1.902.079.087.139.117.262.084.522-.145 1.082.21 1.203.75a.986.986 0 0 1-.766 1.19c-.518.115-1.084-.262-1.187-.792-.06-.307.018-.582.226-.838Z"/><path d="M20.175 15.339a5.69 5.69 0 0 0 .352-2.57c-.024-.275-.081-.546-.123-.817-.024-.154.042-.284.166-.308.126-.024.24.064.274.217a6.355 6.355 0 0 1-.196 3.487c-.045.13-.027.201.063.298.301.325.356.72.169 1.082-.199.38-.59.593-1.007.548a.99.99 0 0 1-.852-.744c-.142-.6.34-1.272 1.003-1.206.051.003.094.007.15.013ZM13.45 7.3a6.24 6.24 0 0 0-1.908.68 5.642 5.642 0 0 0-1.151.841c-.081.075-.18.12-.271.054a.346.346 0 0 1-.112-.223c-.006-.048.051-.117.097-.16.88-.822 1.925-1.336 3.105-1.577.118-.025.181-.06.217-.193.13-.485.573-.769 1.079-.714.455.048.85.452.886.91a.992.992 0 0 1-.744 1.033c-.492.127-.944-.114-1.2-.65Zm2.081 11.94c.657-.126 1.287-.319 1.854-.66.4-.24.768-.539 1.15-.813.016-.012.03-.027.046-.039.13-.111.253-.124.331-.03.085.096.067.235-.051.346a6.2 6.2 0 0 1-2.962 1.55c-.208.044-.337.096-.413.33-.144.45-.623.688-1.088.603a.994.994 0 0 1-.81-.922.984.984 0 0 1 .72-1.006.996.996 0 0 1 1.151.491c.024.045.045.09.072.15ZM8.8 11.22a5.986 5.986 0 0 0-.338 1.488 5.936 5.936 0 0 0 .115 1.901c.033.151-.024.262-.142.29-.132.03-.244-.049-.277-.205a6.34 6.34 0 0 1 .208-3.529c.045-.132.033-.208-.075-.301-.268-.235-.314-.552-.241-.883.084-.377.434-.699.807-.738.413-.045.763.09.986.449.337.548.096 1.452-.799 1.527-.072.006-.148 0-.244 0Zm1.073 5.957c.37.452.804.834 1.295 1.154.452.295.934.524 1.447.696.033.012.066.02.1.033.102.045.186.111.165.238-.015.1-.157.184-.274.16-.103-.021-.202-.058-.302-.09-1.06-.371-1.95-.998-2.687-1.839-.076-.084-.133-.1-.242-.07-.388.106-.726-.008-.994-.3-.268-.296-.35-.645-.193-1.019.157-.374.446-.588.856-.612.449-.024.774.178.973.573.184.364.12.708-.12 1.027-.01.012-.012.027-.024.049Zm4.351-6.416a1.201 1.201 0 0 1 1.214 1.197 1.222 1.222 0 0 1-1.211 1.222 1.225 1.225 0 0 1-1.212-1.208 1.22 1.22 0 0 1 1.209-1.212Zm-3.122 1.999a1.127 1.127 0 0 1-1.127-1.128 1.127 1.127 0 0 1 2.251.018c-.015.636-.497 1.115-1.124 1.11Zm6.258-2.243a1.121 1.121 0 1 1-.013 2.24 1.121 1.121 0 0 1 .013-2.24Z"/></g></g></svg>
