<svg width="108" height="112" viewBox="0 0 108 112" xmlns="http://www.w3.org/2000/svg" xmlns:xlink="http://www.w3.org/1999/xlink"><defs><filter x="-3.8%" y="-5.8%" width="107.7%" height="111.5%" filterUnits="objectBoundingBox" id="a"><feOffset dy="2" in="SourceAlpha" result="shadowOffsetOuter1"/><feGaussianBlur stdDeviation="1" in="shadowOffsetOuter1" result="shadowBlurOuter1"/><feColorMatrix values="0 0 0 0 0 0 0 0 0 0 0 0 0 0 0 0 0 0 0.5 0" in="shadowBlurOuter1" result="shadowMatrixOuter1"/><feOffset dy="-2" in="SourceAlpha" result="shadowOffsetOuter2"/><feGaussianBlur stdDeviation="1" in="shadowOffsetOuter2" result="shadowBlurOuter2"/><feColorMatrix values="0 0 0 0 0 0 0 0 0 0 0 0 0 0 0 0 0 0 0.5 0" in="shadowBlurOuter2" result="shadowMatrixOuter2"/><feMerge><feMergeNode in="shadowMatrixOuter1"/><feMergeNode in="shadowMatrixOuter2"/></feMerge></filter><filter x="-3.8%" y="-5.8%" width="107.7%" height="111.5%" filterUnits="objectBoundingBox" id="d"><feGaussianBlur stdDeviation="1.5" in="SourceAlpha" result="shadowBlurInner1"/><feOffset dy="1" in="shadowBlurInner1" result="shadowOffsetInner1"/><feComposite in="shadowOffsetInner1" in2="SourceAlpha" operator="arithmetic" k2="-1" k3="1" result="shadowInnerInner1"/><feColorMatrix values="0 0 0 0 0.286211759 0 0 0 0 0.331355929 0 0 0 0 0.449581385 0 0 0 1 0" in="shadowInnerInner1"/></filter><linearGradient x1="50%" y1="0%" x2="50%" y2="100%" id="c"><stop stop-color="#3E4964" offset="0%"/><stop stop-color="#1D2334" offset="100%"/></linearGradient><rect id="b" x="0" y="0" width="104" height="104" rx="21"/></defs><g fill="none" fill-rule="evenodd"><g transform="translate(2 4)"><use fill="#000" filter="url(#a)" xlink:href="#b"/><use fill="url(#c)" xlink:href="#b"/><use fill="#000" filter="url(#d)" xlink:href="#b"/></g><g fill="#FFF" fill-rule="nonzero"><path d="M52.7 65.631h-8.316c-1.106 0-1.318-.211-1.318-1.292 0-1.28-.012-2.561 0-3.854.025-2.735 1.84-4.587 4.575-4.674.373-.012.746.025 1.119-.012.745-.062 1.292.136 1.827.746 1.119 1.28 3.195 1.193 4.413-.137.422-.46.857-.647 1.467-.61.758.05 1.541-.024 2.287.125 2.076.398 3.505 2.138 3.58 4.338.05 1.405.025 2.81.012 4.227 0 .833-.323 1.143-1.193 1.143H52.7Z"/><path d="M64.136 62.996c0-.646-.012-1.33 0-2.001.1-3.22-1.355-5.457-4.313-6.725-.05-.025-.1-.062-.187-.125 1.082-.372 2.163-.298 3.232-.198.249.024.498.273.709.472 1.355 1.28 2.97 1.243 4.276-.112.187-.199.472-.385.721-.398.746-.05 1.504-.074 2.238.025 2.113.274 3.617 1.94 3.704 4.102.05 1.343.025 2.698.012 4.04-.012.659-.31.995-.932.995-3.083.012-6.166 0-9.26 0-.05 0-.088-.025-.2-.075Zm-18.484-8.689c-1.318.472-2.424 1.243-3.232 2.387a6.24 6.24 0 0 0-1.181 3.592c-.012.908 0 1.815 0 2.735-.124.025-.199.05-.286.05-3.008 0-6.004.012-9.012 0-.77 0-1.057-.286-1.057-1.045-.012-1.305-.025-2.61 0-3.915.05-2.412 1.803-4.115 4.202-4.115.248 0 .497.013.746 0 .808-.062 1.454.075 2.063.771.92 1.044 2.872.895 3.854-.199.385-.435.783-.609 1.355-.572.832.05 1.678.062 2.51.087.013.062.025.15.038.224Zm27.198-14.42c-2.1-2.535-4.587-4.537-7.483-6.004-1.28-.646-2.648-1.156-3.99-1.69-.796-.31-1.07-.647-.87-1.23.198-.585.683-.771 1.43-.548 4.748 1.467 8.713 4.127 11.995 7.844.323.36.571.485 1.081.348 2.15-.597 4.463.87 4.96 3.095.51 2.25-.883 4.413-3.157 4.91-2.139.473-4.475-1.081-4.898-3.269-.249-1.268.074-2.399.932-3.456Z"/><path d="M77.226 64.525c1.317-3.456 1.777-6.986 1.454-10.603-.1-1.132-.335-2.25-.51-3.369-.099-.634.175-1.169.684-1.268.522-.1.995.261 1.131.895 1.082 4.873.796 9.671-.808 14.382-.186.535-.111.833.261 1.231 1.243 1.342 1.467 2.97.697 4.463-.82 1.566-2.437 2.448-4.152 2.262-1.69-.187-3.12-1.417-3.518-3.07-.584-2.474 1.404-5.246 4.14-4.973.21.013.385.025.62.05ZM49.48 31.36c-2.796.522-5.407 1.442-7.868 2.81a23.275 23.275 0 0 0-4.749 3.468c-.335.31-.745.497-1.118.223-.249-.186-.423-.584-.46-.92-.025-.199.211-.484.397-.658 3.63-3.394 7.944-5.52 12.817-6.514.484-.1.745-.249.895-.796.534-2.001 2.361-3.17 4.45-2.946 1.877.2 3.505 1.865 3.654 3.754.15 1.964-1.13 3.754-3.07 4.264-2.026.522-3.89-.472-4.947-2.685Zm8.59 49.263c2.71-.522 5.308-1.318 7.645-2.723 1.653-.994 3.17-2.225 4.748-3.356.063-.05.125-.112.187-.161.534-.46 1.044-.51 1.367-.125.348.398.274.97-.211 1.43-3.48 3.257-7.57 5.37-12.22 6.39-.857.186-1.392.397-1.702 1.366-.597 1.853-2.573 2.835-4.488 2.487-1.84-.324-3.257-1.94-3.344-3.804-.087-1.94 1.12-3.642 2.971-4.152a4.107 4.107 0 0 1 4.749 2.026c.1.187.186.373.298.622ZM30.3 47.532c-.733 1.977-1.18 4.028-1.392 6.141a24.488 24.488 0 0 0 .472 7.844c.137.621-.1 1.081-.584 1.193-.547.124-1.007-.199-1.144-.845-1.106-4.935-.795-9.783.858-14.556.186-.547.137-.858-.31-1.244-1.107-.97-1.294-2.274-.995-3.642.348-1.554 1.79-2.884 3.331-3.045 1.703-.187 3.145.373 4.065 1.852 1.392 2.262.398 5.992-3.294 6.302-.298.025-.61 0-1.007 0Zm4.425 24.576a23.245 23.245 0 0 0 5.346 4.76 25.881 25.881 0 0 0 5.966 2.872c.137.05.274.087.41.137.423.186.771.46.684.982-.062.41-.646.758-1.131.659-.423-.087-.833-.236-1.243-.373-4.376-1.53-8.043-4.115-11.088-7.583-.311-.348-.547-.41-.995-.286-1.603.435-2.996-.037-4.102-1.243-1.106-1.218-1.442-2.66-.795-4.201.646-1.542 1.84-2.424 3.53-2.524 1.852-.1 3.195.734 4.015 2.362.758 1.504.497 2.921-.497 4.239-.038.05-.05.112-.1.199Zm17.95-26.465c2.772-.013 4.972 2.163 5.01 4.935.025 2.747-2.238 5.034-4.997 5.047-2.71 0-4.997-2.275-4.997-4.985 0-2.735 2.25-4.985 4.984-4.997Zm-12.878 8.241c-2.586-.012-4.661-2.1-4.65-4.649.013-2.536 2.102-4.599 4.65-4.599 2.573 0 4.674 2.126 4.637 4.674-.062 2.623-2.051 4.6-4.637 4.574Zm25.819-9.248a4.61 4.61 0 0 1 4.599 4.624c0 2.573-2.088 4.637-4.674 4.624-2.536-.012-4.587-2.1-4.575-4.661a4.629 4.629 0 0 1 4.65-4.587Z"/></g></g></svg>
