<svg width="115" height="117" viewBox="0 0 115 117" xmlns="http://www.w3.org/2000/svg"><defs><clipPath id="a"><path d="M375 0v949H0V0h375Z"/></clipPath><clipPath id="c"><path d="M66 20.007V23H0v-2.993h66ZM9.803 0c2.237.087 3.11 1.252 3.233 2.397.033.32-.068.953-.156 1.615.487-.085.278.9.244 1.23-.033.333-.167.836-.566.75-.187 1.35-.84 1.798-.84 1.798l.034 1.467s.223.214 1.958.844c1.704.631.84.15 2.236.783 2.1.933 2.227 3.37 2.234 3.661v.029c0 .419-.376.749-.84.749H2.435c-.476.002-.84-.332-.864-.716 0 0 0-2.696 2.236-3.692 1.394-.633.5-.119 2.235-.75 1.703-.654 1.77-.867 1.77-.867l.034-1.475s-.653-.45-.842-1.83c-.396.118-.519-.418-.552-.75-.034-.299-.255-1.316.242-1.23-.086-.684-.154-1.286-.12-1.616C6.693 1.262 7.91.085 9.803 0Zm55.53 10.26v2.994H33.311V10.26h32.022ZM33.31.637h32.021v2.996h-32.02L33.31.636Z"/></clipPath><clipPath id="d"><path d="M46.65 0c10.56.404 14.752 6.141 15.33 11.657.17 1.564-.204 4.489-.673 7.798 2.377-.421 1.33 4.489 1.217 6.033-.113 1.6-.786 4.174-2.676 3.66-.582 4.322-2.118 6.693-3.107 7.888h-.075c-.173 1.494-.687 7.774 2.448 9.609 4.667 2.731 17 2.02 22.004 7.046 1.78 1.785 2.367 3.29 2.563 4.073h1.061c2.733 0 4.997 2.223 4.997 4.908v5.72C92.7 68.76 95 72.16 95 76.336c0 4.137-2.302 7.595-5.26 7.945v5.81c0 2.684-2.265 4.909-4.998 4.909H9.609c-2.733 0-4.348-2.225-4.348-4.91v-5.65C2.3 84.072 0 80.67 0 76.494c0-4.172 2.322-7.574 5.26-7.945v-5.878c0-2.685 2.265-4.908 4.998-4.908h1.294c.052-.742.382-1.91 1.576-3.523 2.777-3.756 13.424-6.04 18.23-7.15 4.659-1.077 5.3-5.962 5.074-10.055h-.02c-1.009-1.177-2.47-3.604-3.107-7.887-1.947.457-2.582-2.06-2.602-3.661-.038-.526-.184-1.446-.268-2.413l-.028-.364c-.119-1.764.04-3.54 1.495-3.256-.487-3.254-.788-6.252-.637-7.798C31.847 6.197 37.665.404 46.65 0Zm38.112 58.81H10.276c-2.152 0-3.93 1.747-3.93 3.862v5.898c2.956.368 4.773 3.769 4.773 7.945 0 4.174-1.835 7.576-4.774 7.944v5.65c0 2.114 1.13 3.86 3.282 3.86h75.135c2.151 0 3.95-1.708 3.93-3.88v-5.808c-2.958-.368-5.26-3.769-5.26-7.945 0-4.174 2.321-7.576 5.258-7.944l.003-5.722c0-2.113-1.78-3.86-3.931-3.86Z"/></clipPath><filter id="b" x="-36.752%" y="-40.171%" filterUnits="userSpaceOnUse" width="149.573%" height="149.573%"><feDropShadow stdDeviation="5.5" dx="-3" dy="-7" flood-color="#2C3548"/></filter></defs><g clip-path="url(#a)" transform="translate(-127 -552)"><g filter="url(#b)" transform="translate(140 570)"><g clip-path="url(#c)" transform="translate(15 65)"><path fill="#1C2234" opacity="50%" d="M0 0h66v23H0V0z"/></g><g clip-path="url(#d)"><path fill="#1C2234" opacity="50%" d="M0 0h95v95H0V0z"/></g></g></g></svg>
