<svg width="29" height="29" viewBox="0 0 29 29" xmlns="http://www.w3.org/2000/svg"><defs><clipPath id="a"><path d="M375 0v723H0V0h375Z"/></clipPath><clipPath id="c"><path d="M20 0a5 5 0 0 1 5 5v15a5 5 0 0 1-5 5H5a5 5 0 0 1-5-5V5a5 5 0 0 1 5-5h15Z"/></clipPath><clipPath id="e"><path d="M10.179 0c.185.004.253.067.253.249.004.182 0 .364 0 .526.229.103.438.197.652.284a.14.14 0 0 0 .122-.027c.115-.103.218-.214.328-.324.13-.127.23-.13.356-.004.135.13.269.264.4.399.122.126.122.225 0 .348-.127.13-.261.257-.38.367.09.237.174.459.265.676.012.032.071.064.11.064.159.007.317 0 .475.003.158.004.233.08.237.238.004.193.004.383 0 .577-.004.166-.079.24-.249.245-.154.004-.308-.004-.459.004a.184.184 0 0 0-.122.087c-.087.201-.166.41-.257.648.107.103.241.23.368.36.134.134.142.237 0 .367-.107.095-.139.198-.139.336.004 1.76.004 3.518.004 5.277 0 .277-.043.32-.316.32H.32c-.269 0-.32-.05-.32-.32V3.127c.008-.27.06-.32.34-.32h6.443c.075-.222.107-.242.336-.242.154 0 .336.048.45-.02.1-.059.12-.252.179-.383.047-.107.15-.225.13-.316-.024-.103-.158-.182-.245-.269-.289-.288-.289-.304-.004-.589.099-.099.194-.197.293-.292.11-.107.213-.107.324-.004.114.106.221.225.34.332.031.027.098.047.134.035.213-.087.423-.181.652-.284v-.51c0-.198.063-.261.253-.265h.554ZM6.783 3.222H.423c.008 2.466.008 4.913.008 7.376h11.305v-3.61c0-.43 0-.861-.004-1.288a.215.215 0 0 0-.055-.134c-.056-.056-.13-.083-.186-.139-.115-.114-.217-.237-.304-.336-.277.115-.51.214-.755.313 0 .173.004.363 0 .549-.004.158-.072.225-.23.23-.201.003-.407.003-.608 0-.147-.005-.214-.076-.218-.222-.004-.158.004-.316-.004-.474 0-.04-.023-.103-.055-.115-.221-.091-.447-.174-.688-.269-.115.119-.237.245-.364.372-.126.126-.233.126-.36 0-.13-.127-.26-.257-.387-.388-.134-.138-.134-.229 0-.367.13-.127.261-.253.384-.368-.075-.158-.139-.284-.194-.419-.122-.312-.118-.312-.45-.312-.416 0-.416 0-.475-.4ZM10.024.419h-.229v.482c0 .186-.051.253-.233.285a1.977 1.977 0 0 0-.759.316c-.15.103-.225.099-.352-.032-.114-.118-.221-.249-.332-.371l-.027.04c-.052.043-.1.09-.159.146.127.122.25.245.372.367.099.1.107.206.028.32A2.05 2.05 0 0 0 8 2.755c-.036.178-.091.222-.273.222H7.23c-.004.09-.004.154-.004.237H7.7c.214 0 .241.043.309.237.086.253.193.502.312.743.079.162.09.233-.044.364-.114.114-.237.217-.355.324.07.079.114.13.17.197.126-.13.237-.249.355-.363.135-.135.19-.123.364-.04.241.119.49.226.747.309.182.059.237.098.237.296v.478h.23v-.51c0-.146.067-.233.213-.257.28-.047.538-.154.775-.316.158-.106.225-.099.36.04.114.114.225.233.343.36l.174-.174c-.13-.127-.249-.242-.367-.36-.123-.123-.13-.198-.032-.34.162-.237.269-.494.324-.775.036-.178.087-.221.273-.221h.494v-.233h-.51c-.146.004-.23-.064-.253-.214a1.968 1.968 0 0 0-.324-.787c-.095-.138-.087-.217.036-.34.118-.118.245-.229.343-.32l-.15-.217c-.13.138-.24.257-.36.372-.122.122-.197.13-.34.035a1.968 1.968 0 0 0-.774-.32c-.174-.032-.222-.095-.226-.273-.003-.162 0-.324 0-.49Z"/></clipPath><clipPath id="f"><path d="M2.684.003c.249.004.443.11.55.336.047.103.11.115.205.115h8.392c.06 0 .134-.008.17.023.06.056.126.143.118.206-.007.063-.094.13-.162.178-.04.023-.106.008-.162.008C10.415.865 9.032.865 7.65.865H3.44c-.099 0-.158.02-.206.118a.538.538 0 0 1-.49.328c-.435.012-.87.012-1.304 0-.237-.004-.407-.138-.51-.351C.893.884.854.857.775.86a8.007 8.007 0 0 1-.534 0C.091.858 0 .783 0 .66 0 .536.09.453.237.45.415.446.593.446.771.45.846.45.893.438.929.359a.593.593 0 0 1 .57-.356c.394-.004.79-.004 1.185 0Zm-.043.415H1.534c-.17 0-.257.083-.261.233-.004.162.079.253.253.257.186.004.375 0 .561 0 .186 0 .376.004.561 0 .174-.004.257-.095.253-.257-.004-.15-.09-.233-.26-.233Z"/></clipPath><clipPath id="g"><path d="M.405.084 3.077 1.76c.257.162.261.313.004.47L.409 3.908c-.016.012-.032.02-.051.031-.202.119-.356.036-.356-.197-.004-.585 0-1.17 0-1.751V.302c0-.107-.004-.214.103-.273.114-.067.205-.004.3.055Zm.024.502v2.819l2.245-1.412C1.914 1.52 1.18 1.057.429.586Z"/></clipPath><clipPath id="h"><path d="M1.261 0c.7.008 1.257.573 1.25 1.273a1.256 1.256 0 0 1-1.278 1.23A1.258 1.258 0 0 1 0 1.244 1.248 1.248 0 0 1 1.261 0Zm0 .415a.837.837 0 0 0-.846.834.841.841 0 0 0 1.68.012.842.842 0 0 0-.834-.846Z"/></clipPath><linearGradient id="d" x1="12.5" y1="0" x2="12.5" y2="25" gradientUnits="userSpaceOnUse"><stop stop-color="#697DAB" offset="0%"/><stop stop-color="#505F84" offset="100%"/></linearGradient><filter id="b" x="-24.138%" y="-20.69%" filterUnits="userSpaceOnUse" width="134.483%" height="134.483%"><feGaussianBlur stdDeviation="1" in="SourceAlpha" result="i2"/><feOffset dy="1" in="i2" result="i3"/><feColorMatrix values="0 0 0 0.0 0 0 0 0 0.0 0 0 0 0 0.0 0 0 0 0 1.0 0" in="i3"/></filter></defs><g clip-path="url(#a)" transform="translate(-41 -335)"><path d="M5 0h15a5 5 0 0 1 5 5v15a5 5 0 0 1-5 5H5a5 5 0 0 1-5-5V5a5 5 0 0 1 5-5Z" filter="url(#b)" transform="translate(43 336)"/><g clip-path="url(#c)" transform="translate(43 336)"><path fill="url(#d)" d="M0 0h25v25H0V0z"/></g><g clip-path="url(#e)" transform="translate(49 342)"><path fill="#FFF" d="M0 0h13v11.02H0V0z"/></g><g clip-path="url(#f)" transform="translate(49.012 353.279)"><path fill="#FFF" d="M0 0h12.12v1.32H0V0z"/></g><g clip-path="url(#g)" transform="translate(53.445 346.924)"><path fill="#FFF" d="M0 0h3.272v3.992H0V0z"/></g><g clip-path="url(#h)" transform="translate(57.649 343.846)"><path fill="#FFF" d="M0 0h2.51v2.502H0V0z"/></g></g></svg>
