<svg width="108" height="112" viewBox="0 0 108 112" xmlns="http://www.w3.org/2000/svg"><defs><clipPath id="a"><path d="M375 0v667H0V0h375Z"/></clipPath><clipPath id="d"><path d="M83 0c11.598 0 21 9.402 21 21v62c0 11.598-9.402 21-21 21H21C9.402 104 0 94.598 0 83V21C0 9.402 9.402 0 21 0h62Z"/></clipPath><clipPath id="g"><path d="M48.474 0c.885.019 1.205.32 1.205 1.186.019.866 0 1.732 0 2.504 1.092.49 2.09.941 3.106 1.355.15.057.452 0 .584-.132.546-.49 1.035-1.016 1.562-1.543.622-.603 1.092-.622 1.695-.02a90.53 90.53 0 0 1 1.9 1.902c.585.603.585 1.073 0 1.657a50.934 50.934 0 0 1-1.806 1.75c.433 1.13.828 2.184 1.261 3.22.056.15.339.3.527.3.753.038 1.506 0 2.26.02.752.018 1.11.376 1.129 1.13.018.922.018 1.825 0 2.748-.02.79-.377 1.148-1.186 1.167-.735.019-1.469-.02-2.184.019-.207.018-.49.225-.584.414-.414.96-.79 1.957-1.223 3.087.508.49 1.148 1.092 1.75 1.713.64.64.678 1.13 0 1.75-.508.453-.658.942-.658 1.6.018 8.378.018 16.755.018 25.132 0 1.318-.207 1.525-1.506 1.525h-54.8C.245 52.484 0 52.24 0 50.96V14.891c.038-1.28.282-1.525 1.619-1.525h30.685c.357-1.054.508-1.149 1.6-1.149.734 0 1.6.226 2.146-.094.47-.282.565-1.204.847-1.826.226-.508.715-1.073.621-1.506-.113-.49-.753-.866-1.167-1.28-1.374-1.374-1.374-1.45-.019-2.805.47-.47.923-.941 1.393-1.393.527-.508 1.017-.508 1.544-.019.546.509 1.054 1.073 1.619 1.582.15.131.47.226.64.17 1.017-.415 2.014-.867 3.106-1.356V1.26c0-.94.301-1.24 1.206-1.26h2.635Zm-16.17 15.342H2.014c.038 11.747.038 23.4.038 35.128h53.84V33.283c0-2.052 0-4.104-.02-6.137 0-.207-.112-.49-.263-.64-.263-.264-.621-.396-.885-.66-.546-.545-1.035-1.129-1.45-1.6l-1.084.452-1.02.425c-.5.207-.99.41-1.49.61 0 .83.018 1.733 0 2.617-.02.753-.34 1.073-1.093 1.092-.96.02-1.939.02-2.899 0-.696-.019-1.016-.357-1.035-1.054-.019-.753.019-1.506-.019-2.259 0-.188-.113-.49-.263-.546-1.055-.433-2.128-.828-3.276-1.28-.546.565-1.13 1.167-1.732 1.77-.602.602-1.11.602-1.713 0a85.233 85.233 0 0 1-1.845-1.845c-.64-.66-.64-1.092 0-1.75a143.97 143.97 0 0 1 1.826-1.752c-.357-.753-.659-1.355-.922-1.995-.562-1.432-.566-1.485-1.977-1.487h-.528c-1.62-.008-1.636-.123-1.9-1.902ZM47.74 1.995h-1.092v2.297c0 .885-.244 1.205-1.11 1.356-1.318.244-2.504.753-3.615 1.506-.715.489-1.073.47-1.675-.151-.546-.565-1.054-1.186-1.581-1.77l-.132.189c-.245.207-.47.433-.753.696.602.584 1.186 1.167 1.77 1.75.47.471.508.98.131 1.526-.81 1.13-1.299 2.39-1.581 3.727-.17.847-.433 1.054-1.3 1.054h-2.371c-.019.433-.019.734-.019 1.13h2.26c1.016 0 1.147.207 1.467 1.13.415 1.204.923 2.39 1.488 3.538.376.772.433 1.111-.207 1.732-.546.546-1.13 1.036-1.695 1.544.34.376.546.621.81.941.602-.621 1.13-1.186 1.694-1.732.64-.64.904-.583 1.732-.188a26.68 26.68 0 0 0 3.558 1.468c.866.283 1.13.471 1.13 1.412v2.278h1.091V25c0-.697.32-1.111 1.017-1.224a9.18 9.18 0 0 0 3.69-1.506c.752-.508 1.072-.47 1.713.188.545.546 1.073 1.11 1.637 1.713l.829-.828a149.068 149.068 0 0 1-1.751-1.713c-.584-.584-.621-.941-.15-1.619a9.819 9.819 0 0 0 1.543-3.69c.17-.847.414-1.054 1.299-1.054h2.353v-1.11h-2.428c-.697.018-1.092-.302-1.205-1.017a9.373 9.373 0 0 0-1.544-3.746c-.452-.66-.414-1.036.17-1.62.564-.564 1.167-1.091 1.637-1.524-.282-.414-.47-.678-.715-1.035-.621.658-1.148 1.223-1.713 1.77-.584.583-.941.62-1.62.169a9.373 9.373 0 0 0-3.689-1.525c-.828-.15-1.054-.452-1.073-1.3-.019-.771 0-1.543 0-2.334Z"/></clipPath><clipPath id="h"><path d="M12.782.014c1.186.019 2.109.527 2.617 1.6.226.49.527.546.979.546h39.965c.283 0 .64-.037.81.113.282.264.602.678.564.979-.037.301-.451.621-.771.847-.189.113-.509.038-.772.038-6.57-.019-13.159-.019-19.748-.019H16.378c-.47 0-.753.094-.98.565-.45.96-1.28 1.543-2.333 1.562a112.89 112.89 0 0 1-6.213 0c-1.13-.019-1.939-.659-2.428-1.675-.17-.358-.358-.49-.734-.47-.847.037-1.695.018-2.542 0C.433 4.08 0 3.722 0 3.14c0-.585.433-.98 1.13-.999a57.188 57.188 0 0 1 2.54 0c.359 0 .584-.056.754-.433C4.95.598 5.892.014 7.134.014a279.83 279.83 0 0 1 5.648 0Zm-.207 1.977h-5.27c-.81 0-1.225.395-1.243 1.11-.02.772.376 1.205 1.204 1.224.885.019 1.789 0 2.674 0 .884 0 1.788.019 2.673 0 .828-.019 1.223-.452 1.205-1.224-.02-.715-.433-1.11-1.243-1.11Z"/></clipPath><clipPath id="i"><path d="M1.929.401c4.235 2.654 8.49 5.328 12.725 7.982 1.224.772 1.243 1.487.019 2.24-4.236 2.654-8.49 5.328-12.726 7.982-.075.056-.15.094-.244.15-.96.565-1.695.17-1.695-.94-.018-2.787 0-5.573 0-8.34V1.437C.008.928-.01.42.498.137c.546-.32.979-.018 1.43.264Zm.112 2.39v13.423l10.693-6.72C9.12 7.234 5.618 5.032 2.041 2.792Z"/></clipPath><clipPath id="j"><path d="M6.005 0a5.986 5.986 0 0 1 5.95 6.062c-.057 3.276-2.75 5.873-6.081 5.855C2.636 11.879-.02 9.168 0 5.93.02 2.617 2.711-.037 6.005 0Zm0 1.977c-2.221-.019-4.028 1.77-4.028 3.972 0 2.165 1.77 3.972 3.934 3.991 2.222.019 4.029-1.713 4.066-3.934.02-2.203-1.77-4.01-3.972-4.029Z"/></clipPath><filter id="b" x="-7.407%" y="-5.556%" filterUnits="userSpaceOnUse" width="111.111%" height="111.111%"><feGaussianBlur stdDeviation="1" in="SourceAlpha" result="i2"/><feOffset dy="2" in="i2" result="i3"/><feColorMatrix values="0 0 0 0.0 0 0 0 0 0.0 0 0 0 0 0.0 0 0 0 0 0.5 0" in="i3"/></filter><filter id="c" x="-7.407%" y="-9.259%" filterUnits="userSpaceOnUse" width="111.111%" height="111.111%"><feGaussianBlur stdDeviation="1" in="SourceAlpha" result="i5"/><feOffset dy="-2" in="i5" result="i6"/><feColorMatrix values="0 0 0 0.0 0 0 0 0 0.0 0 0 0 0 0.0 0 0 0 0 0.5 0" in="i6"/></filter><filter id="f" x="-11.207%" y="-11.207%" filterUnits="userSpaceOnUse" width="112.069%" height="112.069%"><feGaussianBlur stdDeviation="1.5" in="SourceAlpha" result="i10"/><feOffset dy="1" in="i10" result="i11"/><feColorMatrix values="0 0 0 0.286211758852005 0 0 0 0 0.3313559293746948 0 0 0 0 0.4495813846588135 0 0 0 0 1.0 0" in="i11"/></filter><linearGradient id="e" x1="52" y1="0" x2="52" y2="104" gradientUnits="userSpaceOnUse"><stop stop-color="#3D4863" offset="0%"/><stop stop-color="#1C2234" offset="100%"/></linearGradient></defs><g clip-path="url(#a)" transform="translate(-134 -115)"><path d="M21 0h62c11.598 0 21 9.402 21 21v62c0 11.598-9.402 21-21 21H21C9.402 104 0 94.598 0 83V21C0 9.402 9.402 0 21 0Z" filter="url(#b)" transform="translate(136 119)"/><path d="M21 0h62c11.598 0 21 9.402 21 21v62c0 11.598-9.402 21-21 21H21C9.402 104 0 94.598 0 83V21C0 9.402 9.402 0 21 0Z" filter="url(#c)" transform="translate(136 119)"/><g clip-path="url(#d)" transform="translate(136 119)"><path fill="url(#e)" d="M0 0h104v104H0V0z"/><path d="M107-4v110H-3V-4h110ZM83 0H21C9.402 0 0 9.402 0 21v62c0 11.598 9.402 21 21 21h62c11.598 0 21-9.402 21-21V21c0-11.598-9.402-21-21-21Z" style="mix-blend-mode:screen" filter="url(#f)"/></g><g clip-path="url(#g)" transform="translate(157 141)"><path fill="#FFF" d="M0 0h61.91v52.484H0V0z"/></g><g clip-path="url(#h)" transform="translate(157.056 194.712)"><path fill="#FFF" d="M0 0h57.72v6.288H0V0z"/></g><g clip-path="url(#i)" transform="translate(178.17 164.45)"><path fill="#FFF" d="M0 0h15.581v19.011H0V0z"/></g><g clip-path="url(#j)" transform="translate(198.189 149.79)"><path fill="#FFF" d="M0 0h11.954v11.917H0V0z"/></g></g></svg>
