<svg width="64" height="64" viewBox="0 0 64 64" xmlns="http://www.w3.org/2000/svg"><defs><clipPath id="a"><path d="M375 0v667H0V0h375Z"/></clipPath><clipPath id="c"><path d="M47 0c7.18 0 13 5.82 13 13v34c0 7.18-5.82 13-13 13H13C5.82 60 0 54.18 0 47V13C0 5.82 5.82 0 13 0h34Z"/></clipPath><clipPath id="e"><path d="M28.971 0A2.23 2.23 0 0 1 31.2 2.229v31.2c0 1.23-.998 2.228-2.229 2.228H4.457A4.457 4.457 0 0 1 0 31.2V4.457A4.457 4.457 0 0 1 4.457 0ZM23.4 26.743H7.8c-.613 0-1.114.501-1.114 1.114 0 .613.501 1.114 1.114 1.114h15.6c.613 0 1.114-.501 1.114-1.114 0-.613-.501-1.114-1.114-1.114ZM15.6 4.457a8.915 8.915 0 1 0 0 17.83 8.915 8.915 0 0 0 0-17.83Zm1.632 10.029c-.186 3.083-1.096 4.961-1.632 5.48-.536-.519-1.446-2.398-1.632-5.48Zm-5.483 0c.104 1.882.455 3.576.99 4.903a6.677 6.677 0 0 1-3.712-4.903Zm10.424 0a6.675 6.675 0 0 1-3.712 4.903c.535-1.327.886-3.02.99-4.903Zm-9.434-7.132c-.534 1.327-.886 3.02-.99 4.903H9.027a6.675 6.675 0 0 1 3.712-4.903Zm2.862-.577c.535.519 1.446 2.398 1.631 5.48h-3.264c.186-3.082 1.096-4.961 1.633-5.48Zm2.86.577a6.675 6.675 0 0 1 3.712 4.903H19.45c-.104-1.882-.455-3.576-.99-4.903Z"/></clipPath><linearGradient id="d" x1="30" y1="0" x2="30" y2="60" gradientUnits="userSpaceOnUse"><stop stop-color="#697DAB" offset="0%"/><stop stop-color="#505F84" offset="100%"/></linearGradient><filter id="b" x="-10.938%" y="-9.375%" filterUnits="userSpaceOnUse" width="115.625%" height="115.625%"><feGaussianBlur stdDeviation="1" in="SourceAlpha" result="i2"/><feOffset dy="1" in="i2" result="i3"/><feColorMatrix values="0 0 0 0.0 0 0 0 0 0.0 0 0 0 0 0.0 0 0 0 0 1.0 0" in="i3"/></filter></defs><g clip-path="url(#a)" transform="translate(-27 -431)"><path d="M13 0h34c7.18 0 13 5.82 13 13v34c0 7.18-5.82 13-13 13H13C5.82 60 0 54.18 0 47V13C0 5.82 5.82 0 13 0Z" filter="url(#b)" transform="translate(29 432)"/><g clip-path="url(#c)" transform="translate(29 432)"><path fill="url(#d)" d="M0 0h60v60H0V0z"/></g><g clip-path="url(#e)" transform="translate(43 444)"><path fill="#FFF" d="M0 0h31.2v35.657H0V0z"/></g></g></svg>
