<svg width="64" height="64" viewBox="0 0 64 64" xmlns="http://www.w3.org/2000/svg"><defs><clipPath id="a"><path d="M375 0v667H0V0h375Z"/></clipPath><clipPath id="c"><path d="M47 0c7.18 0 13 5.82 13 13v34c0 7.18-5.82 13-13 13H13C5.82 60 0 54.18 0 47V13C0 5.82 5.82 0 13 0h34Z"/></clipPath><clipPath id="e"><path d="M31.2 5.062V21.22c0 1.409-1.165 2.551-2.6 2.551h-26c-1.435 0-2.6-1.142-2.6-2.55V5.061h31.2ZM7.38 16.948h-.446c-1.541 0-2.85.955-3.305 2.28-.174.506.282 1.022.847 1.022h10.128c.564 0 1.02-.511.846-1.022-.456-1.325-1.764-2.28-3.305-2.28H11.7a5.855 5.855 0 0 1-4.32 0Zm20.015-1.76h-7.878a.44.44 0 0 0-.438.44v.88c0 .242.197.44.438.44h7.878a.44.44 0 0 0 .438-.44v-.88a.44.44 0 0 0-.438-.44ZM9.54 8.363c-1.92 0-3.48 1.53-3.48 3.412 0 1.881 1.56 3.411 3.48 3.411 1.919 0 3.479-1.53 3.479-3.411 0-1.882-1.56-3.412-3.48-3.412Zm17.855 3.522h-7.878a.44.44 0 0 0-.438.44v.88c0 .242.197.44.438.44h7.878a.44.44 0 0 0 .438-.44v-.88a.44.44 0 0 0-.438-.44Zm0-3.522h-7.878a.44.44 0 0 0-.438.44v.88c0 .243.197.44.438.44h7.878a.44.44 0 0 0 .438-.44v-.88a.44.44 0 0 0-.438-.44ZM28.6 0c1.435 0 2.6 1.11 2.6 2.476v.826H0v-.826C0 1.11 1.165 0 2.6 0Z"/></clipPath><linearGradient id="d" x1="30" y1="0" x2="30" y2="60" gradientUnits="userSpaceOnUse"><stop stop-color="#697DAB" offset="0%"/><stop stop-color="#505F84" offset="100%"/></linearGradient><filter id="b" x="-10.938%" y="-9.375%" filterUnits="userSpaceOnUse" width="115.625%" height="115.625%"><feGaussianBlur stdDeviation="1" in="SourceAlpha" result="i2"/><feOffset dy="1" in="i2" result="i3"/><feColorMatrix values="0 0 0 0.0 0 0 0 0 0.0 0 0 0 0 0.0 0 0 0 0 1.0 0" in="i3"/></filter></defs><g clip-path="url(#a)" transform="translate(-27 -322)"><path d="M13 0h34c7.18 0 13 5.82 13 13v34c0 7.18-5.82 13-13 13H13C5.82 60 0 54.18 0 47V13C0 5.82 5.82 0 13 0Z" filter="url(#b)" transform="translate(29 323)"/><g clip-path="url(#c)" transform="translate(29 323)"><path fill="url(#d)" d="M0 0h60v60H0V0z"/></g><g clip-path="url(#e)" transform="translate(43 341)"><path fill="#FFF" d="M0 0h31.2v23.771H0V0z"/></g></g></svg>
