<svg width="29" height="29" viewBox="0 0 29 29" xmlns="http://www.w3.org/2000/svg"><defs><clipPath id="a"><path d="M375 0v723H0V0h375Z"/></clipPath><clipPath id="c"><path d="M20 0a5 5 0 0 1 5 5v15a5 5 0 0 1-5 5H5a5 5 0 0 1-5-5V5a5 5 0 0 1 5-5h15Z"/></clipPath><clipPath id="e"><path d="M3.938.335c.3.204.453.51.538.85.068.26.102.526.107.798 0 .073.017.136.063.198.141.187.079.662-.176.781-.04.017-.057.057-.074.096a4.57 4.57 0 0 0-.09.255.513.513 0 0 1-.215.272c-.402.238-.34.878.068 1.081a3.4 3.4 0 0 0 .538.204c.13.046.147.063.147.198 0 .584-.006 1.167 0 1.75 0 .051-.012.068-.062.074-.499.056-.997.107-1.5.13-.148.006-.284 0-.414 0A14.222 14.222 0 0 1 .32 6.784c-.034-.006-.068-.017-.096-.023a.218.218 0 0 1-.17-.17 2.118 2.118 0 0 1-.046-.679C.02 5.788.037 5.67.06 5.55a.526.526 0 0 1 .25-.357c.192-.13.407-.198.628-.266.164-.051.334-.09.493-.164.135-.063.254-.142.362-.25a.504.504 0 0 0 .147-.401c-.005-.074 0-.148-.017-.221a.32.32 0 0 0-.13-.21c-.22-.153-.345-.368-.413-.623a.16.16 0 0 0-.063-.096c-.17-.096-.237-.26-.26-.441a.53.53 0 0 1 .08-.357.266.266 0 0 0 .039-.159c.005-.35.045-.696.175-1.025.227-.583.663-.9 1.286-.968.47-.05.906.057 1.302.323Z"/></clipPath><clipPath id="f"><path d="M2.797 0a2.784 2.784 0 0 1 2.78 2.774c0 1.518-1.257 2.752-2.786 2.752C1.24 5.521 0 4.292 0 2.757-.006 1.246 1.251-.006 2.797 0Zm1.478 2.061c-.295.289-.589.572-.883.86-.29.284-.578.561-.861.844-.04.04-.062.04-.09-.011a.428.428 0 0 0-.063-.08c-.255-.254-.515-.503-.77-.758a.572.572 0 0 0-.09-.074c-.125-.079-.25-.09-.38-.017a.336.336 0 0 0-.192.312c0 .119.056.21.141.294.374.363.742.73 1.116 1.093.192.187.385.187.577 0 .595-.583 1.19-1.166 1.79-1.744.084-.085.175-.158.248-.249a.312.312 0 0 0 .074-.277.34.34 0 0 0-.25-.278.354.354 0 0 0-.367.085Z"/></clipPath><clipPath id="g"><path d="M11.941 0c.244 0 .47.062.663.215a.886.886 0 0 1 .362.736v4.926c.006.006 0 .012 0 .028-.068-.04-.108-.09-.159-.135-.096-.08-.186-.17-.283-.255-.05-.045-.05-.102-.05-.153V1.217c0-.424-.29-.713-.714-.724-.476-.017-.951-.012-1.427-.012H1.285c-.21 0-.396.046-.56.187a.653.653 0 0 0-.221.436l-.005.077v6.887c0 .199.045.374.175.521a.714.714 0 0 0 .555.244h5.124c.21 0 .187-.04.232.192.017.08.028.153.05.232.012.051-.005.063-.05.063H1.008c-.42 0-.73-.187-.923-.567A.885.885 0 0 1 0 8.351V2.695C.006 2.112.006 1.53.006.945.006.68.102.448.3.26A.953.953 0 0 1 .917 0h11.024Z"/></clipPath><clipPath id="h"><path d="M3.928 0c.13 0 .238.045.3.17.08.17-.04.374-.232.385-.102.006-.198 0-.3 0C3.176.56 2.65.56 2.122.56H.305C.208.56.118.532.06.453A.279.279 0 0 1 .027.159C.078.05.174.006.293 0h3.635Z"/></clipPath><clipPath id="i"><path d="M3.962 0c.176 0 .295.125.289.294-.006.136-.125.25-.283.26H.333C.243.555.157.545.089.477A.27.27 0 0 1 .021.17.267.267 0 0 1 .276 0h3.686Z"/></clipPath><clipPath id="j"><path d="M.77.003h.481c.17 0 .29.113.295.271 0 .164-.114.283-.289.283H.289C.113.557 0 .438 0 .274 0 .116.119.003.294.003c.153-.006.317 0 .476 0Z"/></clipPath><linearGradient id="d" x1="12.5" y1="0" x2="12.5" y2="25" gradientUnits="userSpaceOnUse"><stop stop-color="#697DAB" offset="0%"/><stop stop-color="#505F84" offset="100%"/></linearGradient><filter id="b" x="-24.138%" y="-20.69%" filterUnits="userSpaceOnUse" width="134.483%" height="134.483%"><feGaussianBlur stdDeviation="1" in="SourceAlpha" result="i2"/><feOffset dy="1" in="i2" result="i3"/><feColorMatrix values="0 0 0 0.0 0 0 0 0 0.0 0 0 0 0 0.0 0 0 0 0 1.0 0" in="i3"/></filter></defs><g clip-path="url(#a)" transform="translate(-41 -295)"><path d="M5 0h15a5 5 0 0 1 5 5v15a5 5 0 0 1-5 5H5a5 5 0 0 1-5-5V5a5 5 0 0 1 5-5Z" filter="url(#b)" transform="translate(43 296)"/><g clip-path="url(#c)" transform="translate(43 296)"><path fill="url(#d)" d="M0 0h25v25H0V0z"/></g><g clip-path="url(#e)" transform="translate(50.662 304.216)"><path fill="#FFF" d="M0 0h4.844v7.024H0V0z"/></g><g clip-path="url(#f)" transform="translate(56.423 308.588)"><path fill="#FFF" d="M0 0h5.577v5.526H0V0z"/></g><g clip-path="url(#g)" transform="translate(49 303)"><path fill="#FFF" d="M0 0h12.969v9.32H0V0z"/></g><g clip-path="url(#h)" transform="translate(55.875 306.64)"><path fill="#FFF" d="M0 0h4.253v.56H0V0z"/></g><g clip-path="url(#i)" transform="translate(55.88 305.27)"><path fill="#FFF" d="M0 0h4.251v.555H0V0z"/></g><g clip-path="url(#j)" transform="translate(55.88 308.025)"><path fill="#FFF" d="M0 0h1.546v.557H0V0z"/></g></g></svg>
