<svg width="29" height="29" viewBox="0 0 29 29" xmlns="http://www.w3.org/2000/svg" xmlns:xlink="http://www.w3.org/1999/xlink"><defs><linearGradient x1="50%" y1="0%" x2="50%" y2="100%" id="c"><stop stop-color="#6A7DAC" offset="0%"/><stop stop-color="#505F84" offset="100%"/></linearGradient><linearGradient x1="50%" y1="0%" x2="50%" y2="98.652%" id="d"><stop stop-color="#FFF" offset="0%"/><stop stop-color="#FFF" offset="100%"/></linearGradient><filter x="-14%" y="-10%" width="128%" height="128%" filterUnits="objectBoundingBox" id="a"><feOffset dy="1" in="SourceAlpha" result="shadowOffsetOuter1"/><feGaussianBlur stdDeviation="1" in="shadowOffsetOuter1" result="shadowBlurOuter1"/><feColorMatrix values="0 0 0 0 0 0 0 0 0 0 0 0 0 0 0 0 0 0 1 0" in="shadowBlurOuter1"/></filter><rect id="b" x="0" y="0" width="25" height="25" rx="5"/></defs><g fill="none" fill-rule="evenodd"><g transform="translate(2 1)"><use fill="#000" filter="url(#a)" xlink:href="#b"/><use fill="url(#c)" xlink:href="#b"/></g><path d="M11.808 13.027H3.476c-.004-.015-.015-.021-.03-.023a1.31 1.31 0 0 1-.633-.29 1.375 1.375 0 0 1-.481-.784c-.032-.146-.03-.294-.03-.442V2.58c0-.037-.002-.073.002-.107.004-.043-.015-.058-.056-.056-.045.002-.092 0-.137 0H.294c-.13 0-.232-.037-.279-.17C.013 2.244.006 2.244 0 2.242V1.35c.009-.078.013-.155.03-.232A1.37 1.37 0 0 1 .481.344c.24-.213.524-.32.842-.344h9.342c.003.01.009.01.018.013.07.02.141.034.212.058.31.096.552.285.728.552.161.242.228.51.228.803-.002 3.023-.002 6.046-.002 9.07 0 .017.002.036 0 .053-.007.048.017.06.057.06.054-.002.108 0 .164 0 .232 0 .466-.002.698.003.143.004.231.103.231.242 0 .23-.002.458 0 .687a1.58 1.58 0 0 1-.073.54 1.377 1.377 0 0 1-.425.624 1.435 1.435 0 0 1-.55.28c-.047.012-.102 0-.143.042ZM2.45.481c.045.064.086.116.12.17.15.24.215.504.215.788 0 .32-.004.642-.004.962v9.07c0 .06 0 .12.002.18a.874.874 0 0 0 .365.709.892.892 0 0 0 1.14-.052.892.892 0 0 0 .305-.683c.002-.26 0-.522 0-.781 0-.05.017-.093.043-.134.056-.085.14-.105.234-.105h6.452c.028.002.041-.008.04-.038V1.413c0-.037 0-.073-.003-.107A.882.882 0 0 0 11.09.74a.922.922 0 0 0-.675-.26H2.45Zm6.352 10.614H5.136c-.047 0-.06.015-.06.062.002.168.002.337 0 .505-.002.305-.1.577-.283.82-.011.015-.037.03-.028.05.01.023.038.012.06.012h6.753a.92.92 0 0 0 .477-.118.884.884 0 0 0 .461-.756c.009-.174 0-.35.002-.524 0-.047-.015-.055-.058-.055-.29.002-.577.004-.867.004H8.802Zm-7.415-9.16c.284 0 .565 0 .848.002.052 0 .065-.015.065-.065a17.165 17.165 0 0 1 0-.47A.905.905 0 0 0 .969.588c-.32.172-.48.456-.488.82-.002.15.002.301-.002.452-.002.057.013.075.07.075.28-.002.559 0 .838 0Zm2.495 7.46h5.392c.15 0 .247.079.264.214a.234.234 0 0 1-.215.264l-.137.002H6.519c-.917 0-1.834-.004-2.75.002-.202.002-.308-.208-.23-.348a.246.246 0 0 1 .217-.135c.042-.002.083 0 .126 0Zm3.245-1.362c.105 0 .19.032.238.129.052.1.032.197-.045.283a.215.215 0 0 1-.142.067l-.057.003h-.864l-.805-.001h-1.66c-.14 0-.219-.052-.264-.163-.047-.116.036-.297.182-.314l.09-.004h3.327Zm3.274 0c.118 0 .22.092.236.215a.24.24 0 0 1-.171.255.45.45 0 0 1-.12.013H8.004c-.107 0-.191-.037-.24-.135a.228.228 0 0 1 .03-.258.194.194 0 0 1 .135-.08c.026-.004.051-.004.077-.004.395-.004.79-.004 1.185-.006h1.21Zm-.008-1.364c.135 0 .244.103.247.234a.243.243 0 0 1-.245.25H5.76c-.118 0-.21-.04-.258-.155a.238.238 0 0 1 .209-.327c.075-.002.148 0 .223 0l1.062-.001h3.396Zm-6.635-.002c.2.007.397.002.597.002h.6c.132 0 .24.108.241.24a.246.246 0 0 1-.234.241c-.403.002-.807.002-1.209 0a.242.242 0 0 1-.24-.247c0-.113.11-.24.245-.236Zm6.611-1.365c.127 0 .208.058.253.16.063.144-.066.323-.219.32-.438-.004-.878 0-1.316 0-.434 0-.867-.006-1.299.003-.165.004-.316-.194-.204-.37.052-.083.133-.113.23-.113h2.555ZM6.493 4.287c.021 0 .037.004.031.029-.009.036.013.047.042.058a.358.358 0 0 1 .237.298c0 .02-.005.03-.026.028l-.05-.003h-.145c-.009 0-.02.003-.023-.012-.006-.04-.033-.062-.065-.08a.204.204 0 0 0-.218.023.094.094 0 0 0-.028.1c.011.036.036.058.075.069.033.01.066.01.1.012a.406.406 0 0 1 .274.105.34.34 0 0 1-.021.508.394.394 0 0 1-.128.071c-.02.007-.026.016-.026.036 0 .045 0 .044-.044.043a4.593 4.593 0 0 0-.173 0c-.017 0-.029-.003-.024-.023.007-.036-.011-.051-.043-.063a.357.357 0 0 1-.216-.208.247.247 0 0 1-.019-.097c0-.014.005-.02.02-.02.066 0 .132 0 .198.002.01 0 .02.001.024.014.018.076.106.102.16.1a.184.184 0 0 0 .105-.032c.039-.028.058-.066.048-.106-.01-.044-.043-.066-.085-.078-.04-.011-.08-.009-.12-.012a.378.378 0 0 1-.28-.14.34.34 0 0 1 .048-.465.385.385 0 0 1 .134-.076c.024-.008.028-.019.028-.041-.002-.037-.002-.04.015-.04h.195ZM5.627 1.03c.861.14 1.575.776 1.813 1.619.135.48.119.955-.05 1.423-.013.035-.006.05.024.065.05.026.097.056.156.091l-.483.131-.13-.487.181.103c.023-.078.049-.152.066-.229a1.971 1.971 0 0 0-.218-1.47c-.319-.545-.795-.877-1.414-.974a1.972 1.972 0 0 0-2.083 1.074c-.12.238-.188.49-.21.757a2.01 2.01 0 0 0 1.078 1.94c.37.19.761.256 1.173.201.066-.009.132-.024.198-.035.104-.019.18.042.176.14a.132.132 0 0 1-.1.124 2.16 2.16 0 0 1-.73.058 2.218 2.218 0 0 1-1.182-.46 2.238 2.238 0 0 1-.852-1.39 2.284 2.284 0 0 1 1.49-2.587 2.213 2.213 0 0 1 1.097-.094Zm4.744 2.91c.138 0 .217.054.256.172a.241.241 0 0 1-.228.311l-.464-.002H8.576a.238.238 0 0 1-.247-.262.232.232 0 0 1 .208-.212c.06-.007.12-.007.18-.007h1.654ZM5.962 2.3c.07 0 .08.01.08.078v1.428c.06 0 .117.003.172-.001.059-.005.082.062.056.097a.091.091 0 0 1-.044.029c-.015.004-.032 0-.049 0H4.3c-.06 0-.09-.035-.07-.084a.075.075 0 0 1 .05-.04.384.384 0 0 1 .1-.001c.038.002.05-.01.05-.049v-.69c0-.08.006-.086.085-.086h.236c.061 0 .072.012.072.073v.75h.216V2.746c0-.068.01-.076.076-.077h.241c.069 0 .076.008.076.076v1.063l.196-.001c.007 0 .018-.013.02-.022.004-.013.001-.027.001-.04V2.39c0-.085.005-.09.09-.09h.223Zm4.44.279a.24.24 0 0 1 .238.247.237.237 0 0 1-.24.234c-.308-.002-.615-.002-.922-.002-.3 0-.601-.005-.902.002a.25.25 0 0 1-.243-.185c-.027-.11.028-.217.134-.275a.2.2 0 0 1 .098-.021h1.836ZM7.946 1.213h2.388c.04 0 .08.004.12.01.116.018.195.156.185.252a.245.245 0 0 1-.237.221c-.438 0-.874 0-1.312-.002-.429 0-.858-.002-1.288.002-.17.002-.296-.141-.247-.317a.23.23 0 0 1 .204-.162c.062-.006.125-.004.187-.004Z" transform="translate(8 7)" fill="url(#d)" fill-rule="nonzero"/></g></svg>
