<svg width="108" height="112" viewBox="0 0 108 112" xmlns="http://www.w3.org/2000/svg" xmlns:xlink="http://www.w3.org/1999/xlink"><defs><linearGradient x1="50%" y1="0%" x2="50%" y2="100%" id="c"><stop stop-color="#3E4964" offset="0%"/><stop stop-color="#1D2334" offset="100%"/></linearGradient><linearGradient x1="50%" y1="0%" x2="50%" y2="98.652%" id="e"><stop stop-color="#FFF" offset="0%"/><stop stop-color="#FFF" offset="100%"/></linearGradient><filter x="-3.8%" y="-5.8%" width="107.7%" height="111.5%" filterUnits="objectBoundingBox" id="a"><feOffset dy="2" in="SourceAlpha" result="shadowOffsetOuter1"/><feGaussianBlur stdDeviation="1" in="shadowOffsetOuter1" result="shadowBlurOuter1"/><feColorMatrix values="0 0 0 0 0 0 0 0 0 0 0 0 0 0 0 0 0 0 0.5 0" in="shadowBlurOuter1" result="shadowMatrixOuter1"/><feOffset dy="-2" in="SourceAlpha" result="shadowOffsetOuter2"/><feGaussianBlur stdDeviation="1" in="shadowOffsetOuter2" result="shadowBlurOuter2"/><feColorMatrix values="0 0 0 0 0 0 0 0 0 0 0 0 0 0 0 0 0 0 0.5 0" in="shadowBlurOuter2" result="shadowMatrixOuter2"/><feMerge><feMergeNode in="shadowMatrixOuter1"/><feMergeNode in="shadowMatrixOuter2"/></feMerge></filter><filter x="-3.8%" y="-5.8%" width="107.7%" height="111.5%" filterUnits="objectBoundingBox" id="d"><feGaussianBlur stdDeviation="1.5" in="SourceAlpha" result="shadowBlurInner1"/><feOffset dy="1" in="shadowBlurInner1" result="shadowOffsetInner1"/><feComposite in="shadowOffsetInner1" in2="SourceAlpha" operator="arithmetic" k2="-1" k3="1" result="shadowInnerInner1"/><feColorMatrix values="0 0 0 0 0.286211759 0 0 0 0 0.331355929 0 0 0 0 0.449581385 0 0 0 1 0" in="shadowInnerInner1"/></filter><rect id="b" x="0" y="0" width="104" height="104" rx="21"/></defs><g fill="none" fill-rule="evenodd"><g transform="translate(2 4)"><use fill="#000" filter="url(#a)" xlink:href="#b"/><use fill="url(#c)" xlink:href="#b"/><use fill="#000" filter="url(#d)" xlink:href="#b"/></g><path d="M45.841 50.576H13.496c-.016-.058-.058-.083-.116-.092a5.083 5.083 0 0 1-2.46-1.125 5.34 5.34 0 0 1-1.867-3.043c-.125-.567-.117-1.142-.117-1.717V10.02c0-.142-.008-.283.009-.417.016-.166-.059-.225-.217-.216-.175.008-.358 0-.533 0H1.142c-.508 0-.9-.142-1.084-.659C.05 8.711.025 8.711 0 8.703v-3.46c.033-.3.05-.6.117-.9.25-1.192.825-2.209 1.75-3.01C2.801.51 3.901.093 5.135 0h36.271c.009.042.034.042.067.05.275.075.55.133.825.225 1.2.375 2.143 1.109 2.826 2.143.625.942.884 1.984.884 3.117C46 17.273 46 29.01 46 40.748c0 .066.008.141 0 .208-.025.183.066.234.225.234.208-.009.416 0 .633 0 .9 0 1.81-.009 2.71.008.558.017.9.4.9.942 0 .892-.009 1.775 0 2.667.016.717-.059 1.41-.284 2.093a5.382 5.382 0 0 1-1.65 2.426c-.617.517-1.342.867-2.134 1.083-.184.05-.4 0-.559.167ZM9.511 1.867c.176.25.334.45.468.659.583.934.833 1.959.833 3.06 0 1.241-.017 2.492-.017 3.734v35.212c0 .234 0 .467.009.7.033 1.143.5 2.068 1.417 2.752a3.464 3.464 0 0 0 4.427-.2c.783-.71 1.175-1.593 1.183-2.651.009-1.01 0-2.026 0-3.035 0-.192.067-.358.167-.517.217-.333.542-.408.909-.408h25.05c.109.008.159-.034.15-.15V5.485c0-.141 0-.283-.008-.417a3.425 3.425 0 0 0-1.042-2.192c-.725-.709-1.61-1.009-2.618-1.009H9.512Zm24.66 41.206H19.94c-.184 0-.234.059-.234.242.008.65.008 1.309 0 1.96-.008 1.183-.392 2.242-1.1 3.184-.042.058-.142.116-.109.191.042.092.15.05.234.05h26.217c.659 0 1.284-.125 1.85-.458 1.11-.659 1.735-1.634 1.793-2.934.033-.676 0-1.36.008-2.034 0-.184-.058-.217-.225-.217-1.125.008-2.242.016-3.367.016H34.17ZM5.384 7.511c1.1 0 2.193 0 3.293.008.2 0 .25-.058.25-.25a66.64 66.64 0 0 1 0-1.825c0-.55-.108-1.084-.35-1.576-.892-1.784-3.034-2.543-4.818-1.584-1.242.667-1.86 1.767-1.893 3.185-.008.583.009 1.167-.008 1.75-.008.225.05.292.275.292 1.084-.008 2.168 0 3.251 0Zm9.687 28.96h20.932c.584 0 .959.309 1.026.834a.91.91 0 0 1-.834 1.025c-.175.008-.358.008-.533.008H25.309c-3.56 0-7.12-.016-10.679.009-.783.008-1.192-.809-.892-1.35a.956.956 0 0 1 .842-.526c.167-.008.325 0 .492 0Zm.033-5.285h12.563c.409 0 .742.125.925.5.2.392.125.767-.175 1.1a.833.833 0 0 1-.55.259c-.15.017-.292.017-.442.017l-3.133-.001-3.127-.008h-6.444c-.542 0-.85-.2-1.026-.633-.183-.45.142-1.15.71-1.217.232-.025.466-.017.7-.017Zm25.276 0c.458 0 .85.358.917.834.058.433-.242.875-.667.992a1.77 1.77 0 0 1-.467.05h-9.086c-.417 0-.742-.142-.934-.526-.175-.358-.125-.691.117-1a.753.753 0 0 1 .525-.308c.1-.017.2-.017.3-.017 1.534-.017 3.068-.017 4.602-.025h4.693Zm-.033-5.294c.525 0 .95.4.958.91a.943.943 0 0 1-.95.966h-17.99c-.458 0-.817-.15-1-.6-.242-.575.183-1.25.808-1.267.292-.009.576 0 .867 0 1.829-.006 3.665-.008 5.503-.008h11.804Zm-25.76-.008c.776.025 1.543.008 2.318.008h2.334c.509 0 .925.417.934.934.008.475-.425.934-.909.934a458.84 458.84 0 0 1-4.693 0c-.534 0-.934-.434-.934-.959 0-.442.425-.934.95-.917Zm25.668-5.302c.492 0 .808.225.984.625.241.559-.259 1.25-.85 1.243-1.701-.017-3.41 0-5.11 0-1.685 0-3.369-.025-5.044.008-.642.017-1.226-.75-.792-1.434.2-.325.517-.442.892-.442h9.92Zm-15.05-3.94c.084 0 .147.017.122.114-.033.142.05.183.163.225.414.159.706.439.857.861a.988.988 0 0 1 .062.297c.005.08-.016.113-.1.108a1.973 1.973 0 0 0-.255-.013h-.501c-.034 0-.08.013-.088-.045-.025-.155-.13-.242-.255-.313-.247-.143-.652-.092-.844.091a.364.364 0 0 0-.109.385c.042.142.138.23.289.272.13.037.259.037.392.046.402.016.765.13 1.062.409.572.54.53 1.484-.084 1.972a1.53 1.53 0 0 1-.497.276c-.08.025-.1.059-.1.138.004.176 0 .172-.172.167a17.831 17.831 0 0 0-.668 0c-.067 0-.113-.012-.096-.087.029-.142-.042-.201-.168-.247a1.387 1.387 0 0 1-.835-.806.96.96 0 0 1-.076-.377c0-.054.021-.075.076-.075.259 0 .514 0 .773.004.037 0 .08.005.092.055.07.296.41.397.622.388a.714.714 0 0 0 .406-.125c.15-.109.225-.255.188-.41-.042-.17-.167-.259-.33-.305-.155-.041-.31-.033-.464-.046-.435-.037-.811-.188-1.091-.543a1.322 1.322 0 0 1 .188-1.805 1.5 1.5 0 0 1 .518-.297c.092-.03.109-.07.109-.159-.008-.188-.004-.15.146-.15.222-.004.443 0 .669-.004ZM21.847 4a8.829 8.829 0 0 1 7.039 6.285 8.835 8.835 0 0 1-.198 5.526c-.047.134-.02.192.096.25.194.103.378.22.606.354-.644.176-1.25.337-1.874.509-.167-.622-.33-1.237-.504-1.89.242.137.457.258.702.399.089-.303.187-.591.255-.887.45-2.014.191-3.934-.848-5.71-1.236-2.114-3.083-3.403-5.488-3.78-3.352-.533-6.558 1.147-8.088 4.17a7.792 7.792 0 0 0-.81 2.939 7.801 7.801 0 0 0 4.18 7.528 7.558 7.558 0 0 0 4.554.784l.258-.041.512-.097c.402-.072.702.165.685.543a.514.514 0 0 1-.392.481 8.382 8.382 0 0 1-2.834.227c-1.697-.154-3.233-.739-4.586-1.787-1.771-1.377-2.889-3.178-3.308-5.394a8.867 8.867 0 0 1 5.782-10.044A8.59 8.59 0 0 1 21.848 4Zm18.418 11.298c.534 0 .842.208.992.667.192.583-.267 1.209-.883 1.209-.6 0-1.2-.009-1.801-.009h-1.776c-1.167 0-2.334.009-3.5 0-.593 0-1.001-.45-.96-1.017a.9.9 0 0 1 .809-.825c.156-.017.311-.022.467-.024h6.652ZM23.148 8.93c.269 0 .31.038.31.303v5.542c.232 0 .453.014.668-.003.228-.02.316.24.218.378a.354.354 0 0 1-.174.11c-.058.017-.123.003-.187.003h-7.29c-.23 0-.348-.137-.27-.33a.293.293 0 0 1 .19-.15 1.49 1.49 0 0 1 .393-.008c.146.01.194-.034.194-.189-.007-.893-.004-1.787-.004-2.68 0-.31.028-.333.33-.333.307 0 .614 0 .92.003.236 0 .277.045.277.282v2.715c.003.065.003.123.003.199h.838v-4.113c0-.265.034-.296.293-.3h.937c.266 0 .296.032.296.293v4.127c.263 0 .511.003.76-.004.027 0 .068-.051.078-.086.014-.048.004-.103.004-.154V9.277c0-.3.014-.341.265-.346h.95Zm17.233 1.082c.525 0 .925.425.925.959 0 .5-.417.908-.933.908-1.193-.008-2.385-.008-3.577-.008-1.167 0-2.334-.017-3.5.008a.97.97 0 0 1-.943-.717c-.108-.425.108-.842.517-1.067a.78.78 0 0 1 .383-.083h7.128ZM30.853 4.71h9.27c.158 0 .308.017.466.042.45.066.759.6.717.975-.058.484-.45.859-.917.859-1.7 0-3.393 0-5.093-.009-1.667 0-3.335-.008-5.002.009-.659.008-1.15-.55-.959-1.234a.894.894 0 0 1 .792-.625c.242-.025.484-.017.726-.017Z" transform="translate(29 31)" fill="url(#e)" fill-rule="nonzero"/></g></svg>
