<svg width="64" height="68" viewBox="0 0 64 68" xmlns="http://www.w3.org/2000/svg"><defs><clipPath id="a"><path d="M375 0v667H0V0h375Z"/></clipPath><clipPath id="d"><path d="M46 0c7.732 0 14 6.268 14 14v32c0 7.732-6.268 14-14 14H14C6.268 60 0 53.732 0 46V14C0 6.268 6.268 0 14 0h32Z"/></clipPath><clipPath id="g"><path d="M0 18.989C0 27.831 7.169 35 16.011 35H0ZM35 0v13.727C35 6.144 28.856 0 21.273 0H35Z"/></clipPath><clipPath id="h"><path d="M16 0c8.836 0 16 7.164 16 16s-7.164 16-16 16S0 24.836 0 16 7.164 0 16 0Zm0 3.66C9.19 3.66 3.66 9.19 3.66 16S9.19 28.34 16 28.34 28.34 22.81 28.34 16 22.81 3.66 16 3.66Z"/></clipPath><clipPath id="i"><path d="M9.283 0C16.87 0 23.02 6.139 23 13.713A13.65 13.65 0 0 1 19.374 23c-.06 0-.08-.059-.06-.216a17.104 17.104 0 0 0-.256-5.923c.335-1.023.493-2.085.493-3.148 0-5.666-4.592-10.25-10.268-10.25-1.065 0-2.129.157-3.154.492a17.019 17.019 0 0 0-3.725-.414c-.413 0-.808.02-1.202.04l-.591.059a2.9 2.9 0 0 0-.414.04c-.059 0-.177 0-.197-.08l.138-.118A13.724 13.724 0 0 1 9.283 0Zm-5.94 15.35a1.024 1.024 0 0 1 1.44 0l.092.092.067.068.29.29.121.12.269.268.6.599.455.454.144.144.39.39.11.109.328.328.011.01a1.02 1.02 0 0 1 0 1.437l-2.858 2.853c-.414.394-1.064.394-1.458 0L.486 19.66a1.044 1.044 0 0 1 0-1.456Z"/></clipPath><filter id="b" x="-12.5%" y="-9.375%" filterUnits="userSpaceOnUse" width="118.75%" height="118.75%"><feGaussianBlur stdDeviation="1" in="SourceAlpha" result="i2"/><feOffset dy="2" in="i2" result="i3"/><feColorMatrix values="0 0 0 0.0 0 0 0 0 0.0 0 0 0 0 0.0 0 0 0 0 0.5 0" in="i3"/></filter><filter id="c" x="-12.5%" y="-15.625%" filterUnits="userSpaceOnUse" width="118.75%" height="118.75%"><feGaussianBlur stdDeviation="1" in="SourceAlpha" result="i5"/><feOffset dy="-2" in="i5" result="i6"/><feColorMatrix values="0 0 0 0.0 0 0 0 0 0.0 0 0 0 0 0.0 0 0 0 0 0.5 0" in="i6"/></filter><filter id="f" x="-18.056%" y="-18.056%" filterUnits="userSpaceOnUse" width="119.444%" height="119.444%"><feGaussianBlur stdDeviation="1.5" in="SourceAlpha" result="i10"/><feOffset dy="1" in="i10" result="i11"/><feColorMatrix values="0 0 0 0.286211758852005 0 0 0 0 0.3313559293746948 0 0 0 0 0.4495813846588135 0 0 0 0 1.0 0" in="i11"/></filter><linearGradient id="e" x1="30" y1="0" x2="30" y2="60" gradientUnits="userSpaceOnUse"><stop stop-color="#3D4863" offset="0%"/><stop stop-color="#1C2234" offset="100%"/></linearGradient></defs><g clip-path="url(#a)" transform="translate(-156 -176)"><path d="M14 0h32c7.732 0 14 6.268 14 14v32c0 7.732-6.268 14-14 14H14C6.268 60 0 53.732 0 46V14C0 6.268 6.268 0 14 0Z" filter="url(#b)" transform="translate(158 180)"/><path d="M14 0h32c7.732 0 14 6.268 14 14v32c0 7.732-6.268 14-14 14H14C6.268 60 0 53.732 0 46V14C0 6.268 6.268 0 14 0Z" filter="url(#c)" transform="translate(158 180)"/><g clip-path="url(#d)" transform="translate(158 180)"><path fill="url(#e)" d="M0 0h60v60H0V0z"/><path d="M63-4v66H-3V-4h66ZM46 0H14C6.268 0 0 6.268 0 14v32c0 7.732 6.268 14 14 14h32c7.732 0 14-6.268 14-14V14c0-7.732-6.268-14-14-14Z" style="mix-blend-mode:screen" filter="url(#f)"/></g><g clip-path="url(#g)" transform="translate(170 193)"><path fill="#FFF" d="M0 0h35v35H0V0z"/></g><g clip-path="url(#h)" transform="translate(170 196)"><path fill="#FFF" d="M0 0h32v32H0V0z"/></g><g clip-path="url(#i)" transform="translate(182 193)"><path fill="#FFF" d="M0 0h23v23H0V0z"/></g></g></svg>
