<svg width="17" height="17" viewBox="0 0 19 18" xmlns="http://www.w3.org/2000/svg"><g fill="none"><path d="M11.442.263a6.737 6.737 0 0 1 6.738 6.738V.263h-6.738ZM1 9.583v7.86h7.86A7.86 7.86 0 0 1 1 9.583Z" fill="#FFF"/><path d="M16.618 9.633A7.81 7.81 0 1 0 1 9.635a7.81 7.81 0 0 0 15.618 0ZM8.81 15.657a6.026 6.026 0 0 1-6.022-6.022A6.026 6.026 0 0 1 8.81 3.612c3.324 0 6.023 2.7 6.023 6.023 0 3.323-2.7 6.022-6.023 6.022Z" stroke="#FFF"/><path d="M11.605.263a6.578 6.578 0 0 0-4.383 1.67l-.066.056c.01.038.066.038.094.038.067-.01.133-.02.199-.02l.283-.028c.19-.009.378-.018.576-.018.596 0 1.2.066 1.786.198a4.865 4.865 0 0 1 1.511-.236 4.915 4.915 0 0 1 4.686 6.423 8.2 8.2 0 0 1 .122 2.838c-.009.076 0 .104.029.104a6.544 6.544 0 0 0 1.738-4.451c.01-3.631-2.938-6.574-6.575-6.574ZM9.448 7.621a.49.49 0 0 0-.69 0L7.39 8.989a.5.5 0 0 0 0 .698l1.37 1.367c.189.189.5.189.699 0l1.37-1.367a.489.489 0 0 0 0-.689l-1.38-1.377Z" fill="#FFF"/></g></svg>
