<svg width="18" height="18" viewBox="0 0 18 18" xmlns="http://www.w3.org/2000/svg"><defs><clipPath id="a"><path d="M375 0v667H0V0h375Z"/></clipPath><clipPath id="b"><path d="M9.876.113A8.549 8.549 0 0 1 16.692 6.2a8.555 8.555 0 0 1-.192 5.35c-.046.13-.02.187.093.243.188.1.366.213.587.343-.623.17-1.21.326-1.814.492-.162-.602-.32-1.197-.489-1.83l.68.386c.086-.292.181-.572.247-.858.436-1.95.185-3.81-.821-5.53-1.197-2.046-2.985-3.294-5.314-3.66-3.246-.516-6.35 1.111-7.832 4.04a7.545 7.545 0 0 0-.785 2.844A7.554 7.554 0 0 0 5.1 15.31a7.318 7.318 0 0 0 4.41.759c.251-.033.498-.09.746-.133.39-.07.68.16.663.525a.498.498 0 0 1-.38.466 8.117 8.117 0 0 1-2.744.22c-1.643-.15-3.13-.715-4.44-1.73C1.639 14.08.557 12.338.152 10.192A8.586 8.586 0 0 1 5.75.466 8.317 8.317 0 0 1 9.876.113Z"/></clipPath><clipPath id="d"><path d="M6.535 0c.26 0 .3.037.3.293V5.66c.225 0 .44.013.647-.004.22-.02.307.233.211.366a.342.342 0 0 1-.168.107c-.056.017-.119.003-.182.003H.283c-.22 0-.336-.133-.26-.32a.284.284 0 0 1 .185-.146 1.46 1.46 0 0 1 .38-.006c.141.01.187-.034.187-.183C.77 4.612.772 3.747.772 2.88c0-.299.027-.322.32-.322.297 0 .594 0 .89.003.228 0 .268.043.268.273v2.628c.003.064.003.12.003.193h.812V1.674c0-.257.033-.287.283-.29h.908c.257 0 .287.03.287.283v3.996c.254 0 .494.003.735-.003.027 0 .066-.05.076-.083.013-.047.003-.1.003-.15V.337c0-.291.014-.331.257-.336L6.535 0Z"/></clipPath><clipPath id="f"><path d="M1.468 0c.007.027.02.053.016.077-.016.116.03.16.149.18.488.076.841.422.91.874.004.027.004.054.007.097-.162.026-.313.053-.485.083-.056-.336-.204-.586-.57-.656V2.11c.395.103.798.206 1.025.605.142.25.165.522.132.805-.066.55-.452.899-1.164 1.035v.48H1.21v-.483c-.38-.06-.726-.15-.96-.476A1.282 1.282 0 0 1 0 3.327l.475-.086c.076.429.218.792.713.885V2.539C1 2.462.802 2.392.62 2.299.211 2.09.03 1.704.086 1.201.136.77.436.41.85.3c.109-.03.224-.05.34-.076L1.21 0h.257Zm.013 2.605v1.388c0 .036.007.076.01.113.327 0 .627-.293.663-.646.05-.472-.165-.755-.673-.855ZM1.191.662a.653.653 0 0 0-.627.609c-.026.393.201.672.627.755V.662Z"/></clipPath><linearGradient id="c" x1="8.59" y1="0" x2="8.59" y2="16.948" gradientUnits="userSpaceOnUse"><stop stop-color="#FFF" offset="0%"/><stop stop-color="#FFF" offset="100%"/></linearGradient><linearGradient id="e" x1="3.866" y1="0" x2="3.866" y2="6.055" gradientUnits="userSpaceOnUse"><stop stop-color="#FFF" offset="0%"/><stop stop-color="#FFF" offset="100%"/></linearGradient><linearGradient id="g" x1="1.333" y1="0" x2="1.333" y2="4.966" gradientUnits="userSpaceOnUse"><stop stop-color="#FFF" offset="0%"/><stop stop-color="#FFF" offset="100%"/></linearGradient></defs><g clip-path="url(#a)" transform="translate(-94 -451)"><g clip-path="url(#b)" transform="translate(94 451)"><path fill="url(#c)" d="M0 0h17.18v17.18H0V0z"/></g><g clip-path="url(#d)" transform="translate(98.601 455.888)"><path fill="url(#e)" d="M0 0h7.732v6.137H0V0z"/></g><g clip-path="url(#f)" transform="translate(105.71 462.583)"><path fill="url(#g)" d="M0 0h2.665v5.034H0V0z"/></g></g></svg>
