<svg width="104" height="108" viewBox="0 0 104 108" xmlns="http://www.w3.org/2000/svg"><defs><clipPath id="a"><path d="M375 0v667H0V0h375Z"/></clipPath><clipPath id="d"><path d="M79 0c11.598 0 21 9.402 21 21v58c0 11.598-9.402 21-21 21H21C9.402 100 0 90.598 0 79V21C0 9.402 9.402 0 21 0h58Z"/></clipPath><clipPath id="g"><path d="M31.733.364c10.398 1.7 19.026 9.376 21.898 19.554 1.633 5.794 1.431 11.535-.614 17.19-.149.417-.064.6.296.781.604.32 1.177.684 1.887 1.101-2.003.545-3.89 1.048-5.83 1.582-.519-1.935-1.028-3.848-1.568-5.88.752.428 1.42.802 2.183 1.24.276-.94.583-1.838.795-2.758 1.4-6.264.594-12.24-2.64-17.768-3.847-6.575-9.591-10.584-17.074-11.76C20.636 1.99 10.662 7.217 5.903 16.625c-1.452 2.865-2.268 5.923-2.522 9.14-.795 9.975 4.663 19.137 13.005 23.424 4.473 2.299 9.2 3.1 14.17 2.438.806-.107 1.601-.289 2.396-.428 1.251-.225 2.184.513 2.13 1.69a1.6 1.6 0 0 1-1.218 1.496c-2.904.727-5.84.983-8.819.705-5.278-.48-10.058-2.298-14.266-5.559C5.267 45.244 1.79 39.642.487 32.747-2.057 19.223 5.575 6.009 18.474 1.497 22.788-.01 27.208-.362 31.734.365Z"/></clipPath><clipPath id="i"><path d="M20.998 0c.837 0 .964.118.964.94v17.245c.72 0 1.41.043 2.078-.01.71-.065.985.748.678 1.175-.117.16-.34.278-.54.342-.18.054-.382.011-.584.011H.912c-.71 0-1.081-.428-.837-1.026.085-.214.37-.428.593-.47.393-.075.806-.054 1.22-.022.455.032.603-.107.603-.588-.02-2.78-.01-5.56-.01-8.339 0-.962.085-1.037 1.028-1.037.954 0 1.908 0 2.862.01.731 0 .858.14.858.878v8.445c.01.203.01.385.01.62h2.608V5.377c0-.823.106-.919.912-.93h2.915c.826 0 .922.097.922.91v12.839c.816 0 1.59.01 2.363-.011.085 0 .212-.16.244-.267.042-.15.01-.321.01-.481V1.08c0-.98.049-1.073.948-1.08h2.837Z"/></clipPath><clipPath id="k"><path d="M4.717 0c.02.086.063.171.053.246-.053.374.095.513.477.577 1.568.246 2.702 1.358 2.925 2.812.01.085.01.17.021.31-.52.085-1.007.171-1.558.267-.18-1.08-.657-1.881-1.834-2.106v4.672l.424.112c1.129.305 2.223.693 2.873 1.834.456.801.53 1.678.424 2.587-.212 1.764-1.452 2.886-3.742 3.325v1.54h-.89v-1.551c-1.219-.192-2.332-.481-3.084-1.529A4.119 4.119 0 0 1 0 10.691c.53-.096 1.007-.182 1.526-.278.244 1.379.7 2.544 2.29 2.844v-5.1c-.604-.246-1.24-.47-1.823-.77C.678 6.714.095 5.474.276 3.86.435 2.47 1.399 1.315 2.735.962c.35-.096.72-.16 1.091-.246.022-.235.043-.46.064-.716h.827Zm.042 8.37v4.459c0 .118.021.246.032.363 1.05 0 2.014-.94 2.13-2.074.16-1.518-.53-2.426-2.162-2.747Zm-.933-6.243a2.099 2.099 0 0 0-2.014 1.957c-.084 1.261.647 2.16 2.014 2.427V2.127Z"/></clipPath><linearGradient id="e" x1="50" y1="0" x2="50" y2="100" gradientUnits="userSpaceOnUse"><stop stop-color="#3D4863" offset="0%"/><stop stop-color="#1C2234" offset="100%"/></linearGradient><linearGradient id="h" x1="27.6" y1="0" x2="27.6" y2="54.456" gradientUnits="userSpaceOnUse"><stop stop-color="#FFF" offset="0%"/><stop stop-color="#FFF" offset="100%"/></linearGradient><linearGradient id="j" x1="12.421" y1="0" x2="12.421" y2="19.453" gradientUnits="userSpaceOnUse"><stop stop-color="#FFF" offset="0%"/><stop stop-color="#FFF" offset="100%"/></linearGradient><linearGradient id="l" x1="4.282" y1="0" x2="4.282" y2="15.957" gradientUnits="userSpaceOnUse"><stop stop-color="#FFF" offset="0%"/><stop stop-color="#FFF" offset="100%"/></linearGradient><filter id="b" x="-7.692%" y="-5.769%" filterUnits="userSpaceOnUse" width="111.538%" height="111.538%"><feGaussianBlur stdDeviation="1" in="SourceAlpha" result="i2"/><feOffset dy="2" in="i2" result="i3"/><feColorMatrix values="0 0 0 0.0 0 0 0 0 0.0 0 0 0 0 0.0 0 0 0 0 0.5 0" in="i3"/></filter><filter id="c" x="-7.692%" y="-9.615%" filterUnits="userSpaceOnUse" width="111.538%" height="111.538%"><feGaussianBlur stdDeviation="1" in="SourceAlpha" result="i5"/><feOffset dy="-2" in="i5" result="i6"/><feColorMatrix values="0 0 0 0.0 0 0 0 0 0.0 0 0 0 0 0.0 0 0 0 0 0.5 0" in="i6"/></filter><filter id="f" x="-11.607%" y="-11.607%" filterUnits="userSpaceOnUse" width="112.5%" height="112.5%"><feGaussianBlur stdDeviation="1.5" in="SourceAlpha" result="i10"/><feOffset dy="1" in="i10" result="i11"/><feColorMatrix values="0 0 0 0.286211758852005 0 0 0 0 0.3313559293746948 0 0 0 0 0.4495813846588135 0 0 0 0 1.0 0" in="i11"/></filter></defs><g clip-path="url(#a)" transform="translate(-136 -80)"><path d="M21 0h58c11.598 0 21 9.402 21 21v58c0 11.598-9.402 21-21 21H21C9.402 100 0 90.598 0 79V21C0 9.402 9.402 0 21 0Z" filter="url(#b)" transform="translate(138 84)"/><path d="M21 0h58c11.598 0 21 9.402 21 21v58c0 11.598-9.402 21-21 21H21C9.402 100 0 90.598 0 79V21C0 9.402 9.402 0 21 0Z" filter="url(#c)" transform="translate(138 84)"/><g clip-path="url(#d)" transform="translate(138 84)"><path fill="url(#e)" d="M0 0h100v100H0V0z"/><path d="M103-4v106H-3V-4h106ZM79 0H21C9.402 0 0 9.402 0 21v58c0 11.598 9.402 21 21 21h58c11.598 0 21-9.402 21-21V21c0-11.598-9.402-21-21-21Z" style="mix-blend-mode:screen" filter="url(#f)"/></g><g clip-path="url(#g)" transform="translate(160 106)"><path fill="url(#h)" d="M0 0h55.2v55.2H0V0z"/></g><g clip-path="url(#i)" transform="translate(174.785 121.706)"><path fill="url(#j)" d="M0 0h24.842v19.72H0V0z"/></g><g clip-path="url(#k)" transform="translate(197.627 143.215)"><path fill="url(#l)" d="M0 0h8.564v16.175H0V0z"/></g></g></svg>
