<svg width="29" height="29" viewBox="0 0 29 29" xmlns="http://www.w3.org/2000/svg" xmlns:xlink="http://www.w3.org/1999/xlink"><defs><linearGradient x1="50%" y1="0%" x2="50%" y2="100%" id="c"><stop stop-color="#6A7DAC" offset="0%"/><stop stop-color="#505F84" offset="100%"/></linearGradient><filter x="-14%" y="-10%" width="128%" height="128%" filterUnits="objectBoundingBox" id="a"><feOffset dy="1" in="SourceAlpha" result="shadowOffsetOuter1"/><feGaussianBlur stdDeviation="1" in="shadowOffsetOuter1" result="shadowBlurOuter1"/><feColorMatrix values="0 0 0 0 0 0 0 0 0 0 0 0 0 0 0 0 0 0 1 0" in="shadowBlurOuter1"/></filter><rect id="b" x="0" y="0" width="25" height="25" rx="5"/></defs><g fill="none" fill-rule="evenodd"><g transform="translate(2 1)"><use fill="#000" filter="url(#a)" xlink:href="#b"/><use fill="url(#c)" xlink:href="#b"/></g><path d="m12.76 17.312-.657.654a1.473 1.473 0 0 1-2.068 0 1.432 1.432 0 0 1 0-2.035l2.42-2.4c.502-.498 1.447-1.232 2.134-.548a.806.806 0 0 0 1.134-1.144c-1.169-1.16-2.897-.946-4.403.548L8.9 14.79a3.02 3.02 0 0 0-.9 2.16c0 .816.32 1.583.9 2.159a3.07 3.07 0 0 0 2.17.89c.786 0 1.572-.297 2.168-.89l.66-.654a.805.805 0 0 0 .004-1.138.81.81 0 0 0-1.141-.006Zm7.34-9.33c-1.259-1.247-3.016-1.315-4.178-.161l-.82.815a.805.805 0 1 0 1.135 1.142l.82-.813c.602-.598 1.391-.35 1.907.16a1.426 1.426 0 0 1 0 2.034l-2.583 2.561c-1.182 1.172-1.735.623-1.973.388a.805.805 0 1 0-1.134 1.142c.543.537 1.162.804 1.811.804.793 0 1.633-.4 2.432-1.193l2.583-2.56a3.034 3.034 0 0 0 .899-2.16c0-.816-.321-1.582-.9-2.16Z" fill="#FFF" fill-rule="nonzero"/></g></svg>
