<svg width="29" height="29" viewBox="0 0 29 29" xmlns="http://www.w3.org/2000/svg"><defs><clipPath id="a"><path d="M375 0v723H0V0h375Z"/></clipPath><clipPath id="c"><path d="M20 0a5 5 0 0 1 5 5v15a5 5 0 0 1-5 5H5a5 5 0 0 1-5-5V5a5 5 0 0 1 5-5h15Z"/></clipPath><clipPath id="e"><path d="M12.59 3.54c.065.167.146.21.314.205.254-.011.503-.006.757 0 .558.01.969.422.974.974.006.649.006 1.293 0 1.942-.005.557-.406.958-.968.974-.265.005-.536.01-.801 0-.152-.006-.211.049-.265.184-.763 1.807-2.1 2.948-4.015 3.408-.254.06-.508.109-.768.114-.13.005-.178.049-.173.179.005.151.005.302-.01.454-.055.568-.488.995-1.05 1.012a28.39 28.39 0 0 1-1.775 0 1.12 1.12 0 0 1-1.071-1.136 1.123 1.123 0 0 1 1.093-1.115c.454-.027.908-.016 1.266-.016.833-.016 1.58.032 2.315-.125 2.37-.503 4.096-2.764 3.939-5.183C12.19 2.906 10.35.975 7.862.677 5.215.363 2.721 2.284 2.336 4.919a5.023 5.023 0 0 0 .152 2.196c.103.347-.016.509-.379.509-.368 0-.736.005-1.104 0-.6-.01-1-.406-1.006-1.006 0-.623 0-1.25.005-1.878.006-.595.412-1 1.007-1.006.26-.006.52-.01.779.005.14.006.195-.048.249-.173.78-1.85 2.159-3.003 4.118-3.435 2.667-.59 5.4.865 6.433 3.408Z"/></clipPath><clipPath id="f"><path d="M.676 1.377A3.42 3.42 0 0 1 4.593.208a3.415 3.415 0 0 1 2.235 3.414c-.114 1.699-1.461 3.079-3.17 3.165-1.04.054-2.084.011-3.128.011-.016-.01-.027-.027-.043-.043.146-.136.297-.27.438-.411.238-.233.238-.368.005-.617-1.136-1.223-1.244-3.02-.254-4.35Zm1.12 1.693a.316.316 0 0 0-.33.32.33.33 0 0 0 .314.324.327.327 0 0 0 .33-.325.322.322 0 0 0-.314-.319Zm1.628 0c-.178 0-.319.125-.324.303a.327.327 0 0 0 .314.341c.167.005.313-.14.324-.308a.31.31 0 0 0-.314-.336Zm1.624 0a.323.323 0 0 0-.33.325.339.339 0 0 0 .319.32.32.32 0 0 0 .324-.331.314.314 0 0 0-.313-.314Z"/></clipPath><linearGradient id="d" x1="12.5" y1="0" x2="12.5" y2="25" gradientUnits="userSpaceOnUse"><stop stop-color="#697DAB" offset="0%"/><stop stop-color="#505F84" offset="100%"/></linearGradient><filter id="b" x="-24.138%" y="-20.69%" filterUnits="userSpaceOnUse" width="134.483%" height="134.483%"><feGaussianBlur stdDeviation="1" in="SourceAlpha" result="i2"/><feOffset dy="1" in="i2" result="i3"/><feColorMatrix values="0 0 0 0.0 0 0 0 0 0.0 0 0 0 0 0.0 0 0 0 0 1.0 0" in="i3"/></filter></defs><g clip-path="url(#a)" transform="translate(-41 -375)"><path d="M5 0h15a5 5 0 0 1 5 5v15a5 5 0 0 1-5 5H5a5 5 0 0 1-5-5V5a5 5 0 0 1 5-5Z" filter="url(#b)" transform="translate(43 376)"/><g clip-path="url(#c)" transform="translate(43 376)"><path fill="url(#d)" d="M0 0h25v25H0V0z"/></g><g clip-path="url(#e)" transform="translate(48 382)"><path fill="#FFF" d="M0 0h14.64v13H0V0z"/></g><g clip-path="url(#f)" transform="translate(51.901 384.292)"><path fill="#FFF" d="M0 0h6.835v6.814H0V0z"/></g></g></svg>
