<svg width="25" height="25" viewBox="0 0 29 27" xmlns="http://www.w3.org/2000/svg" xmlns:xlink="http://www.w3.org/1999/xlink"><defs><linearGradient x1="50%" y1="0%" x2="50%" y2="100%" id="c"><stop stop-color="#6A7DAC" offset="0%"/><stop stop-color="#505F84" offset="100%"/></linearGradient><filter x="-14%" y="-10%" width="128%" height="128%" filterUnits="objectBoundingBox" id="a"><feOffset dy="1" in="SourceAlpha" result="shadowOffsetOuter1"/><feGaussianBlur stdDeviation="1" in="shadowOffsetOuter1" result="shadowBlurOuter1"/><feColorMatrix values="0 0 0 0 0 0 0 0 0 0 0 0 0 0 0 0 0 0 1 0" in="shadowBlurOuter1"/></filter><rect id="b" x="0" y="0" width="25" height="25" rx="5"/></defs><g fill="none" fill-rule="evenodd"><g transform="translate(2 1)"><use fill="#000" filter="url(#a)" xlink:href="#b"/><use fill="url(#c)" xlink:href="#b"/></g><path d="M11.765 12.059V9.353c0-1.412 1.176-2.588 2.647-2.588A2.611 2.611 0 0 1 17 9.353v2.706h-5.235ZM15 17.176v1.706a.127.127 0 0 1-.118.118H14a.127.127 0 0 1-.118-.118v-1.706c-.411-.176-.706-.646-.706-1.176 0-.706.589-1.294 1.295-1.294.705 0 1.294.588 1.294 1.294-.06.47-.353.941-.765 1.176Zm5.941-3.764c0-.588-.53-1.353-1.059-1.353h-1.176V9.235C18.706 6.941 16.824 5 14.47 5c-2.294 0-4.235 1.882-4.235 4.235v2.825H9.06A1.053 1.053 0 0 0 8 13.118v7.647c0 .588.47 1.059 1.059 1.059H19.94c.588 0 1.059-.177 1.059-.765-.059-3.883-.059-3.883-.059-7.647Z" fill="#FFF"/></g></svg>
