<svg width="25" height="25" viewBox="0 0 29 27" xmlns="http://www.w3.org/2000/svg" xmlns:xlink="http://www.w3.org/1999/xlink"><defs><linearGradient x1="50%" y1="0%" x2="50%" y2="100%" id="c"><stop stop-color="#6A7DAC" offset="0%"/><stop stop-color="#505F84" offset="100%"/></linearGradient><filter x="-14%" y="-10%" width="128%" height="128%" filterUnits="objectBoundingBox" id="a"><feOffset dy="1" in="SourceAlpha" result="shadowOffsetOuter1"/><feGaussianBlur stdDeviation="1" in="shadowOffsetOuter1" result="shadowBlurOuter1"/><feColorMatrix values="0 0 0 0 0 0 0 0 0 0 0 0 0 0 0 0 0 0 1 0" in="shadowBlurOuter1"/></filter><rect id="b" x="0" y="0" width="25" height="25" rx="5"/></defs><g fill="none" fill-rule="evenodd"><g transform="translate(2 1)"><use fill="#000" filter="url(#a)" xlink:href="#b"/><use fill="url(#c)" xlink:href="#b"/></g><path d="M14.89 14.412v1.881h1.934v1.238H14.89v1.88h-1.18v-1.88h-1.886v-1.238h1.933v-1.881h1.133Zm-.39-7.883c1.46 0 2.676 1.19 2.676 2.617v2.736h-5.352V9.206A2.683 2.683 0 0 1 14.5 6.529Zm6.441 6.824c0-.588-.53-1.353-1.059-1.353h-1.176V9.235C18.706 6.941 16.824 5 14.47 5c-2.295 0-4.236 1.882-4.236 4.235v2.824H9.06c-.588 0-1.059.47-1.059 1.059v7.647c0 .588.47 1.059 1.059 1.059h10.88c.588 0 1.059-.177 1.059-.765-.059-3.883-.059-3.883-.059-7.706Z" fill="#FFF"/></g></svg>
