<svg width="108" height="112" viewBox="0 0 108 112" xmlns="http://www.w3.org/2000/svg" xmlns:xlink="http://www.w3.org/1999/xlink"><defs><filter x="-3.8%" y="-5.8%" width="107.7%" height="111.5%" filterUnits="objectBoundingBox" id="a"><feOffset dy="2" in="SourceAlpha" result="shadowOffsetOuter1"/><feGaussianBlur stdDeviation="1" in="shadowOffsetOuter1" result="shadowBlurOuter1"/><feColorMatrix values="0 0 0 0 0 0 0 0 0 0 0 0 0 0 0 0 0 0 0.5 0" in="shadowBlurOuter1" result="shadowMatrixOuter1"/><feOffset dy="-2" in="SourceAlpha" result="shadowOffsetOuter2"/><feGaussianBlur stdDeviation="1" in="shadowOffsetOuter2" result="shadowBlurOuter2"/><feColorMatrix values="0 0 0 0 0 0 0 0 0 0 0 0 0 0 0 0 0 0 0.5 0" in="shadowBlurOuter2" result="shadowMatrixOuter2"/><feMerge><feMergeNode in="shadowMatrixOuter1"/><feMergeNode in="shadowMatrixOuter2"/></feMerge></filter><filter x="-3.8%" y="-5.8%" width="107.7%" height="111.5%" filterUnits="objectBoundingBox" id="d"><feGaussianBlur stdDeviation="1.5" in="SourceAlpha" result="shadowBlurInner1"/><feOffset dy="1" in="shadowBlurInner1" result="shadowOffsetInner1"/><feComposite in="shadowOffsetInner1" in2="SourceAlpha" operator="arithmetic" k2="-1" k3="1" result="shadowInnerInner1"/><feColorMatrix values="0 0 0 0 0.286211759 0 0 0 0 0.331355929 0 0 0 0 0.449581385 0 0 0 1 0" in="shadowInnerInner1"/></filter><linearGradient x1="50%" y1="0%" x2="50%" y2="100%" id="c"><stop stop-color="#3E4964" offset="0%"/><stop stop-color="#1D2334" offset="100%"/></linearGradient><rect id="b" x="0" y="0" width="104" height="104" rx="21"/></defs><g fill="none" fill-rule="evenodd"><g transform="translate(2 4)"><use fill="#000" filter="url(#a)" xlink:href="#b"/><use fill="url(#c)" xlink:href="#b"/><use fill="#000" filter="url(#d)" xlink:href="#b"/></g><g fill="#FFF"><path d="M69.95 71.372c-2.062 0-3.768-1.707-3.768-3.697 0-2.062 1.706-3.697 3.768-3.697 2.061 0 3.768 1.706 3.768 3.697.07 2.133-1.635 3.697-3.768 3.697m9.455-4.977c-.142-.355-.497-.853-.853-.995l-.355-.142c-.711-.214-1.351-.711-1.849-1.422-.355-.711-.497-1.422-.355-2.133l.142-.213c.142-.356 0-.925-.356-1.209 0 0-.213-.213-1.137-.71-.853-.499-1.209-.57-1.209-.57-.355-.142-.995 0-1.208.214l-.214.213c-.64.498-1.35.853-2.061.853-.711 0-1.564-.355-2.062-.853l-.213-.213c-.214-.356-.853-.498-1.209-.214 0 0-.355.143-1.208.57-.854.497-1.138.71-1.138.71-.355.213-.498.853-.355 1.209l.142.213c.142.71.142 1.564-.356 2.133-.355.71-1.066 1.208-1.848 1.422l-.213.142c-.356.142-.853.497-.853.995 0 0-.143.356-.143 1.35 0 .925.143 1.352.143 1.352.142.355.497.853.853.924l.213.142c.71.213 1.35.711 1.848 1.422.356.71.498 1.422.356 2.133l-.142.213c-.143.355 0 .924.355 1.209 0 0 .213.213 1.138.71.853.498 1.208.64 1.208.64.356.143.995 0 1.209-.213l.213-.213c.64-.498 1.35-.853 2.062-.853.71 0 1.564.355 2.061.853l.214.213c.213.356.853.498 1.208.213 0 0 .356-.142 1.209-.64.853-.497 1.137-.71 1.137-.71.356-.214.498-.854.356-1.209l-.142-.213c-.142-.711-.142-1.564.355-2.133.356-.711 1.138-1.209 1.849-1.422l.213-.142c.355-.142.853-.498.853-.924 0 0 .142-.356.142-1.351.142-.995 0-1.35 0-1.35"/><path d="M49.617 74.002c.924 0 1.635.711 1.635 1.635s-.71 1.706-1.635 1.706c-.924 0-1.635-.782-1.635-1.706-.071-.924.64-1.635 1.635-1.635Zm.284-15.143c3.413 0 5.688 2.062 5.688 4.906 0 1.92-.64 2.914-2.986 4.834-.995.782-1.28 1.137-1.493 1.92-.142.497-.142.64-.213 1.706h-2.702c.071-1.706.142-2.204.356-2.844.284-.569.497-.995.995-1.493.213-.213.213-.213.71-.64l.64-.64c.996-.853 1.423-1.777 1.423-2.701 0-1.138-.996-1.849-2.56-1.849-1.99 0-2.915.925-3.057 2.773h-3.128c.071-1.706.356-2.773 1.138-3.768 1.208-1.422 2.914-2.204 5.19-2.204Zm-.568-24.243c4.55 0 8.247 3.697 8.247 8.247v8.674H41.086v-8.674c0-4.55 3.697-8.247 8.247-8.247ZM69.879 77.13c-.64 0-1.28.285-1.635.64l-.143.284c-.355.356-.995.64-1.635.64-.284 0-.497 0-.782-.142-.142 0-.497-.284-1.422-.782-.924-.498-1.28-.853-1.422-.853-.64-.498-.853-1.493-.64-2.275l.143-.284c.142-.498 0-1.28-.285-1.778-.284-.497-.853-.995-1.421-1.137h-.285c-.782-.142-1.493-.853-1.635-1.778 0-.142-.142-.497-.142-1.635 0-.995.142-1.493.142-1.635.142-.782.924-1.493 1.635-1.777l.356-.142c.497-.143.995-.498 1.421-1.138.285-.498.356-1.137.285-1.777l-.142-.285c-.285-.782 0-1.777.64-2.275 0 0 .355-.355 1.421-.853.925-.497 1.422-.782 1.422-.782.285-.142.498-.142.782-.142.64 0 1.28.284 1.635.64l.285.284c.355.356.995.64 1.635.64h.142v-3.91c0-1.777-1.493-3.341-3.341-3.341h-3.768v-9.03C63.125 35.115 57.153 29 49.617 29c-7.394 0-13.507 5.972-13.507 13.508v8.886h-3.769c-1.777 0-3.341 1.564-3.341 3.342V79.05c0 1.777 1.493 3.27 3.341 3.27h34.623c1.777 0 3.341-1.493 3.341-3.341v-2.062c-.355.213-.355.213-.426.213Z"/><path d="M41.087 51.039v-8.39c0-4.55 3.696-8.175 8.246-8.175 4.621 0 8.247 3.626 8.247 8.176v8.389h5.545v-8.745C63.125 35.043 57.154 29 49.618 29c-7.394 0-13.508 5.9-13.508 13.294v8.745h4.977Z"/></g></g></svg>
