<svg width="25" height="25" viewBox="0 0 29 27" xmlns="http://www.w3.org/2000/svg" xmlns:xlink="http://www.w3.org/1999/xlink"><defs><linearGradient x1="50%" y1="0%" x2="50%" y2="100%" id="c"><stop stop-color="#6A7DAC" offset="0%"/><stop stop-color="#505F84" offset="100%"/></linearGradient><filter x="-14%" y="-10%" width="128%" height="128%" filterUnits="objectBoundingBox" id="a"><feOffset dy="1" in="SourceAlpha" result="shadowOffsetOuter1"/><feGaussianBlur stdDeviation="1" in="shadowOffsetOuter1" result="shadowBlurOuter1"/><feColorMatrix values="0 0 0 0 0 0 0 0 0 0 0 0 0 0 0 0 0 0 1 0" in="shadowBlurOuter1"/></filter><rect id="b" x="0" y="0" width="25" height="25" rx="5"/></defs><g fill="none" fill-rule="evenodd"><g transform="translate(2 1)"><use fill="#000" filter="url(#a)" xlink:href="#b"/><use fill="url(#c)" xlink:href="#b"/></g><path d="M17.583 14.111c.19.181.253.543 0 .724l-3.727 3.797c-.126.12-.253.18-.38.18-.125 0-.252-.06-.378-.18l-1.706-1.628a.531.531 0 0 1 0-.723c.19-.18.569-.18.758 0l1.327 1.266 3.348-3.375c.19-.302.569-.302.758-.06ZM14.5 6.625c1.33 0 2.438 1.264 2.438 2.78v2.907h-4.877V9.47c0-1.58 1.108-2.844 2.438-2.844Zm6.441 6.847c0-.597-.53-1.373-1.059-1.373h-1.176V9.295C18.706 6.97 16.824 5 14.47 5c-2.294 0-4.235 1.91-4.235 4.295v2.865H9.06c-.59 0-1.06.476-1.06 1.073v7.756c0 .596.47 1.073 1.059 1.073H19.94c.588 0 1.059-.178 1.059-.775-.059-3.938-.059-3.938-.059-7.815Z" fill="#FFF"/></g></svg>
