<svg width="29" height="29" viewBox="0 0 29 29" xmlns="http://www.w3.org/2000/svg" xmlns:xlink="http://www.w3.org/1999/xlink"><defs><path id="d" d="M0 0h10.674v13.804H0z"/><path id="f" d="M0 0h6.984v5.786H0z"/><linearGradient x1="50%" y1="0%" x2="50%" y2="100%" id="c"><stop stop-color="#6A7DAC" offset="0%"/><stop stop-color="#505F84" offset="100%"/></linearGradient><filter x="-14%" y="-10%" width="128%" height="128%" filterUnits="objectBoundingBox" id="a"><feOffset dy="1" in="SourceAlpha" result="shadowOffsetOuter1"/><feGaussianBlur stdDeviation="1" in="shadowOffsetOuter1" result="shadowBlurOuter1"/><feColorMatrix values="0 0 0 0 0 0 0 0 0 0 0 0 0 0 0 0 0 0 1 0" in="shadowBlurOuter1"/></filter><rect id="b" x="0" y="0" width="25" height="25" rx="5"/></defs><g fill="none" fill-rule="evenodd"><g transform="translate(2 1)"><use fill="#000" filter="url(#a)" xlink:href="#b"/><use fill="url(#c)" xlink:href="#b"/></g><path d="M18.573 18.054a.976.976 0 0 1-.972-.972c0-.533.44-.97.972-.97.533 0 .971.438.971.97 0 .564-.44.972-.971.972m2.413-1.285c-.031-.094-.126-.219-.219-.25l-.094-.031a.917.917 0 0 1-.471-.377c-.094-.188-.126-.376-.094-.564l.031-.062c.032-.095 0-.25-.094-.314 0 0-.063-.063-.282-.187-.219-.126-.314-.158-.314-.158-.094-.032-.25 0-.313.063l-.063.063c-.157.126-.344.219-.534.219a.824.824 0 0 1-.533-.219l-.063-.063a.242.242 0 0 0-.313-.063s-.095.032-.314.158-.282.187-.282.187c-.094.063-.125.22-.094.314l.032.062c.031.188.031.408-.095.564-.094.189-.282.313-.47.377l-.064.03c-.094.032-.219.126-.219.251 0 0-.03.095-.03.345 0 .25.03.345.03.345.032.094.126.219.22.25l.062.032a.9.9 0 0 1 .471.376.9.9 0 0 1 .095.564l-.032.062c-.031.095 0 .25.094.314 0 0 .063.062.282.187.22.126.314.158.314.158.094.03.25 0 .313-.064l.063-.063c.157-.126.344-.218.533-.218.188 0 .409.094.534.218l.063.063c.063.095.22.127.313.064 0 0 .095-.032.314-.158s.282-.187.282-.187c.094-.064.126-.22.094-.314l-.031-.062c-.032-.19-.032-.408.094-.564.094-.189.282-.314.47-.376l.064-.032c.094-.031.219-.126.219-.25 0 0 .03-.095.03-.345.033-.252 0-.345 0-.345" fill="#FFF" fill-rule="nonzero"/><g transform="translate(8 7)"><mask id="e" fill="#fff"><use xlink:href="#d"/></mask><g/><path d="M3.128 5.831v-2.24c0-1.186.954-2.14 2.141-2.14 1.186 0 2.14.954 2.14 2.14v2.24H3.13Zm2.636 4.184v1.382c0 .067-.067.1-.1.1H4.94c-.066 0-.1-.066-.1-.1v-1.382a1.029 1.029 0 0 1-.592-.957c0-.591.495-1.087 1.087-1.087s1.087.496 1.087 1.087a1.328 1.328 0 0 1-.658.957Zm4.81 2.438a.622.622 0 0 0-.428.166l-.033.066a.627.627 0 0 1-.429.165c-.066 0-.133 0-.199-.033-.033 0-.132-.067-.362-.197-.23-.132-.329-.23-.362-.23a.574.574 0 0 1-.166-.593l.034-.065a.753.753 0 0 0-.067-.462.636.636 0 0 0-.362-.296h-.066c-.197-.033-.395-.23-.429-.461 0-.034-.032-.133-.032-.429 0-.263.032-.395.032-.428.034-.197.23-.396.429-.462l.1-.033a.619.619 0 0 0 .361-.296.722.722 0 0 0 .067-.462l-.033-.066a.568.568 0 0 1 .165-.592s.099-.1.362-.23c.23-.132.362-.197.362-.197.066-.033.133-.033.2-.033.164 0 .328.066.428.165l.066.066a.625.625 0 0 0 .428.166h.033v-1.02a.872.872 0 0 0-.857-.858H8.83V3.492A3.494 3.494 0 0 0 5.336 0a3.494 3.494 0 0 0-3.492 3.492v2.306H.857A.873.873 0 0 0 0 6.655v6.292c0 .462.396.857.857.857h8.96a.872.872 0 0 0 .857-.857v-.527c-.067.033-.067.033-.1.033Z" fill="#FFF" fill-rule="nonzero" mask="url(#e)"/></g><g transform="translate(9.844 7)"><mask id="g" fill="#fff"><use xlink:href="#f"/></mask><g/><path d="M1.284 5.787V3.59c0-1.186.954-2.14 2.14-2.14 1.187 0 2.14.954 2.14 2.14v2.196h1.42V3.492A3.494 3.494 0 0 0 3.492 0 3.494 3.494 0 0 0 0 3.492v2.295h1.284Z" fill="#FFF" fill-rule="nonzero" mask="url(#g)"/></g></g></svg>
