<svg viewBox="0 0 104 108" xmlns="http://www.w3.org/2000/svg" xmlns:xlink="http://www.w3.org/1999/xlink"><defs><linearGradient x1="50%" y1="0%" x2="50%" y2="100%" id="c"><stop stop-color="#3E4964" offset="0%"/><stop stop-color="#1D2334" offset="100%"/></linearGradient><linearGradient x1="50%" y1="0%" x2="50%" y2="98.652%" id="e"><stop stop-color="#48E6E9" offset="0%"/><stop stop-color="#2491FB" offset="100%"/></linearGradient><filter x="-4%" y="-6%" width="108%" height="112%" filterUnits="objectBoundingBox" id="a"><feOffset dy="2" in="SourceAlpha" result="shadowOffsetOuter1"/><feGaussianBlur stdDeviation="1" in="shadowOffsetOuter1" result="shadowBlurOuter1"/><feColorMatrix values="0 0 0 0 0 0 0 0 0 0 0 0 0 0 0 0 0 0 0.5 0" in="shadowBlurOuter1" result="shadowMatrixOuter1"/><feOffset dy="-2" in="SourceAlpha" result="shadowOffsetOuter2"/><feGaussianBlur stdDeviation="1" in="shadowOffsetOuter2" result="shadowBlurOuter2"/><feColorMatrix values="0 0 0 0 0 0 0 0 0 0 0 0 0 0 0 0 0 0 0.5 0" in="shadowBlurOuter2" result="shadowMatrixOuter2"/><feMerge><feMergeNode in="shadowMatrixOuter1"/><feMergeNode in="shadowMatrixOuter2"/></feMerge></filter><filter x="-4%" y="-6%" width="108%" height="112%" filterUnits="objectBoundingBox" id="d"><feGaussianBlur stdDeviation="1.5" in="SourceAlpha" result="shadowBlurInner1"/><feOffset dy="1" in="shadowBlurInner1" result="shadowOffsetInner1"/><feComposite in="shadowOffsetInner1" in2="SourceAlpha" operator="arithmetic" k2="-1" k3="1" result="shadowInnerInner1"/><feColorMatrix values="0 0 0 0 0.286211759 0 0 0 0 0.331355929 0 0 0 0 0.449581385 0 0 0 1 0" in="shadowInnerInner1"/></filter><rect id="b" x="0" y="0" width="100" height="100" rx="21"/></defs><g fill="none" fill-rule="evenodd"><g transform="translate(2 4)"><use fill="#000" filter="url(#a)" xlink:href="#b"/><use fill="url(#c)" xlink:href="#b"/><use fill="#000" filter="url(#d)" xlink:href="#b"/></g><path d="M16.646 0a.778.778 0 0 0-.603.287L5.414 13.19 23.66 31.875 44.8 53.57h13.748v-5.607L44.8 33.885 31.045 19.763h2.247L17.25.287A.778.778 0 0 0 16.646 0Zm34.285.29L34.888 19.764h9.913v12.157L58.548 46V19.765h9.632L52.137.289a.778.778 0 0 0-1.206 0ZM0 19.762h9.913l-5.377-5.507L0 19.763ZM9.913 53.57H23.66V33.841L9.913 19.763V53.57Z" transform="translate(18 27)" fill="url(#e)"/></g></svg>
