<svg viewBox="0 0 82 86" xmlns="http://www.w3.org/2000/svg"><defs><linearGradient x1="50%" y1="0%" x2="50%" y2="100%" id="a"><stop stop-color="#E4B710" offset="0%"/><stop stop-color="#E4B710" offset="100%"/></linearGradient></defs><g fill="none" fill-rule="evenodd"><rect width="80" height="84" rx="13" fill="#161B28" stroke="#E4B710" stroke-width="2" transform="translate(1 1)"/><path d="M15.625 0a.73.73 0 0 0-.566.27L5.082 12.38l17.127 17.54 19.845 20.365h12.904v-5.263L42.054 31.807 29.142 18.551h2.109L16.191.269A.73.73 0 0 0 15.626 0Zm32.183.272L32.75 18.553h9.305v11.412L54.958 43.18V18.553H64L48.94.272a.73.73 0 0 0-1.132 0ZM0 18.55h9.305l-5.047-5.169L0 18.551Zm9.305 31.735h12.904v-18.52L9.305 18.552v31.735Z" transform="translate(9 17.8)" fill="url(#a)"/></g></svg>
