<svg width="64" height="68" viewBox="0 0 64 68" xmlns="http://www.w3.org/2000/svg" xmlns:xlink="http://www.w3.org/1999/xlink"><defs><filter x="-6.7%" y="-10%" width="113.3%" height="120%" filterUnits="objectBoundingBox" id="a"><feOffset dy="2" in="SourceAlpha" result="shadowOffsetOuter1"/><feGaussianBlur stdDeviation="1" in="shadowOffsetOuter1" result="shadowBlurOuter1"/><feColorMatrix values="0 0 0 0 0 0 0 0 0 0 0 0 0 0 0 0 0 0 0.5 0" in="shadowBlurOuter1" result="shadowMatrixOuter1"/><feOffset dy="-2" in="SourceAlpha" result="shadowOffsetOuter2"/><feGaussianBlur stdDeviation="1" in="shadowOffsetOuter2" result="shadowBlurOuter2"/><feColorMatrix values="0 0 0 0 0 0 0 0 0 0 0 0 0 0 0 0 0 0 0.5 0" in="shadowBlurOuter2" result="shadowMatrixOuter2"/><feMerge><feMergeNode in="shadowMatrixOuter1"/><feMergeNode in="shadowMatrixOuter2"/></feMerge></filter><filter x="-6.7%" y="-10%" width="113.3%" height="120%" filterUnits="objectBoundingBox" id="d"><feGaussianBlur stdDeviation="1.5" in="SourceAlpha" result="shadowBlurInner1"/><feOffset dy="1" in="shadowBlurInner1" result="shadowOffsetInner1"/><feComposite in="shadowOffsetInner1" in2="SourceAlpha" operator="arithmetic" k2="-1" k3="1" result="shadowInnerInner1"/><feColorMatrix values="0 0 0 0 0.286211759 0 0 0 0 0.331355929 0 0 0 0 0.449581385 0 0 0 1 0" in="shadowInnerInner1"/></filter><linearGradient x1="50%" y1="0%" x2="50%" y2="100%" id="c"><stop stop-color="#3E4964" offset="0%"/><stop stop-color="#1D2334" offset="100%"/></linearGradient><rect id="b" x="0" y="0" width="60" height="60" rx="14"/></defs><g fill="none" fill-rule="evenodd"><g transform="translate(2 4)"><use fill="#000" filter="url(#a)" xlink:href="#b"/><use fill="url(#c)" xlink:href="#b"/><use fill="#000" filter="url(#d)" xlink:href="#b"/></g><path d="M22.013 36.917c0 .268-.268.357-.447.179l-5.01-3.757-.089-.09c-.09 0-.09-.179 0-.268l5.01-3.757c.178-.18.447 0 .447.179v2.504h11.092c.179 0 .268.09.268.269v1.878c0 .18-.09.269-.268.269H22.013v2.594M32.658 18.4c-5.278 0-10.019 2.773-12.613 6.977-.179.18 0 .448.18.448h2.414c.18 0 .358-.09.448-.18.268-.268.536-.626.805-.894a12.83 12.83 0 0 1 3.936-2.683c1.52-.627 3.13-.984 4.83-.984 1.7 0 3.31.357 4.83.984a12.83 12.83 0 0 1 6.62 6.619c.626 1.52.984 3.22.984 4.83 0 1.7-.358 3.31-.984 4.83-.626 1.522-1.52 2.863-2.684 3.937a12.83 12.83 0 0 1-3.936 2.683c-1.52.805-3.22 1.163-4.83 1.163-1.7 0-3.31-.358-4.83-.984a12.83 12.83 0 0 1-3.936-2.683 8.065 8.065 0 0 1-.805-.895.683.683 0 0 0-.448-.179h-2.415c-.179 0-.358.269-.268.448 2.683 4.204 7.335 6.977 12.613 6.977 8.23 0 14.938-6.71 15.028-15.028.178-8.498-6.53-15.386-14.939-15.386" fill="#FFF"/></g></svg>
