<svg width="29" height="29" viewBox="0 0 29 29" xmlns="http://www.w3.org/2000/svg"><defs><clipPath id="a"><path d="M375 0v723H0V0h375Z"/></clipPath><clipPath id="c"><path d="M20 0a5 5 0 0 1 5 5v15a5 5 0 0 1-5 5H5a5 5 0 0 1-5-5V5a5 5 0 0 1 5-5h15Z"/></clipPath><clipPath id="e"><path d="M8.074 0c.283.088.56.193.77.42.243.264.386.565.39.93.003.764 0 1.528.003 2.296 0 .031-.003.066-.007.133-.308-.27-.592-.515-.869-.771-.039-.035-.042-.116-.042-.179-.004-.456 0-.911-.004-1.367 0-.361-.175-.537-.54-.537h-6.31c-.375 0-.543.172-.543.547v9.112c0 .319.175.497.498.497h6.398c.315 0 .497-.182.497-.497.004-.467-.003-.936.007-1.403 0-.08.05-.178.106-.231.248-.235.511-.456.788-.698.01.05.021.077.021.109 0 .764 0 1.528-.003 2.293-.004.74-.607 1.36-1.343 1.363-2.18.007-4.357.007-6.538 0a1.375 1.375 0 0 1-1.35-1.304L0 10.608V1.532C0 .698.337.249 1.143.021 1.153.018 1.16.007 1.17 0h6.903Z"/></clipPath><clipPath id="f"><path d="M3.726.067c1.128.975 2.257 1.957 3.383 2.935.014.01.02.028.035.042-.936.81-1.869 1.62-2.801 2.43-.19.164-.375.332-.568.49-.19.161-.435.088-.512-.15a.789.789 0 0 1-.032-.225c.004-.379.004-.757.004-1.168H.52c-.333 0-.515-.168-.518-.497-.004-.614-.004-1.227 0-1.837 0-.253.189-.431.452-.431l1.269-.004h1.493c.004-.056.01-.109.01-.158 0-.343-.003-.69.004-1.034 0-.088.01-.175.039-.256.07-.196.301-.27.456-.137Z"/></clipPath><linearGradient id="d" x1="12.5" y1="0" x2="12.5" y2="25" gradientUnits="userSpaceOnUse"><stop stop-color="#697DAB" offset="0%"/><stop stop-color="#505F84" offset="100%"/></linearGradient><filter id="b" x="-24.138%" y="-20.69%" filterUnits="userSpaceOnUse" width="134.483%" height="134.483%"><feGaussianBlur stdDeviation="1" in="SourceAlpha" result="i2"/><feOffset dy="1" in="i2" result="i3"/><feColorMatrix values="0 0 0 0.0 0 0 0 0 0.0 0 0 0 0 0.0 0 0 0 0 1.0 0" in="i3"/></filter></defs><g clip-path="url(#a)" transform="translate(-41 -575)"><path d="M5 0h15a5 5 0 0 1 5 5v15a5 5 0 0 1-5 5H5a5 5 0 0 1-5-5V5a5 5 0 0 1 5-5Z" filter="url(#b)" transform="translate(43 576)"/><g clip-path="url(#c)" transform="translate(43 576)"><path fill="url(#d)" d="M0 0h25v25H0V0z"/></g><g clip-path="url(#e)" transform="translate(50 582)"><path fill="#FFF" d="M0 0h9.237v12.023H0V0z"/></g><g clip-path="url(#f)" transform="translate(52.856 584.975)"><path fill="#FFF" d="M0 0h7.144v6.05H0V0z"/></g></g></svg>
