<svg width="140" height="110" viewBox="0 0 140 110" xmlns="http://www.w3.org/2000/svg"><defs><linearGradient x1="50%" y1="0%" x2="50%" y2="98.652%" id="a"><stop stop-color="#48E6E9" offset="0%"/><stop stop-color="#2491FB" offset="100%"/></linearGradient></defs><path d="M34.18 0c-.456 0-.914.196-1.238.59L11.118 27.083l37.465 38.368L91.993 110h28.229V98.487L91.993 69.579 63.748 40.58h4.614L35.419.59A1.598 1.598 0 0 0 34.181 0Zm70.401.594L71.639 40.585h20.354v24.963l28.229 28.909V40.585H140L107.058.594a1.597 1.597 0 0 0-2.477 0ZM0 40.58h20.354L9.314 29.274 0 40.58ZM20.355 110h28.228V69.49L20.355 40.58V110Z" fill="url(#a)" fill-rule="evenodd"/></svg>
