<svg width="140" height="149" viewBox="0 0 140 149" xmlns="http://www.w3.org/2000/svg"><defs><linearGradient x1="50%" y1="0%" x2="50%" y2="98.652%" id="a"><stop stop-color="#48E6E9" offset="0%"/><stop stop-color="#2491FB" offset="100%"/></linearGradient></defs><g fill="none" fill-rule="evenodd"><path d="M34.18 0c-.456 0-.914.196-1.238.59L11.118 27.083l37.465 38.368L91.993 110h28.229V98.487L91.993 69.579 63.748 40.58h4.614L35.419.59A1.598 1.598 0 0 0 34.181 0Zm70.401.594L71.639 40.585h20.354v24.963l28.229 28.909V40.585H140L107.058.594a1.597 1.597 0 0 0-2.477 0ZM0 40.58h20.354L9.314 29.274 0 40.58ZM20.355 110h28.228V69.49L20.355 40.58V110Z" fill="url(#a)"/><path d="M0 148.032v-15.943h1.934l8.728 11.184V132.09h2.546v15.943h-1.98l-8.669-11.186v11.185zm28.095.178c-1.274 0-2.364-.447-3.268-1.34-.904-.893-1.357-1.985-1.357-3.274l.023-6.993c0-1.275.448-2.36 1.345-3.258.897-.897 1.982-1.345 3.257-1.345h3.302c1.246 0 2.324.445 3.236 1.334.911.89 1.367 1.957 1.367 3.202v7.104c0 1.26-.452 2.337-1.356 3.23-.905.893-1.987 1.34-3.247 1.34h-3.302Zm0-2.546h3.302c.578 0 1.07-.202 1.473-.606.404-.404.606-.892.606-1.462v-6.949c0-.578-.205-1.07-.617-1.478a2.007 2.007 0 0 0-1.462-.612h-3.302c-.578 0-1.067.2-1.467.6-.4.4-.6.89-.6 1.468v6.97c0 .579.2 1.068.6 1.468.4.4.89.6 1.467.6Zm18.168 2.368v-15.943h6.726c.912 0 1.716.176 2.412.528.697.352 1.23.812 1.601 1.379s.647 1.197.829 1.89a4.94 4.94 0 0 1 .094 2.095 7.109 7.109 0 0 1-.611 1.946 3.913 3.913 0 0 1-1.279 1.49c-.563.4-1.2.633-1.912.7l4.125 5.915h-2.969l-3.824-5.781H48.82v5.78h-2.557Zm2.557-8.339h3.935c.623 0 1.144-.174 1.562-.522.42-.348.673-.77.762-1.262a4.13 4.13 0 0 0 0-1.479 2.198 2.198 0 0 0-.706-1.261 1.98 1.98 0 0 0-1.384-.523h-4.17v5.047Zm19.49 8.339v-15.943h6.77c1.276 0 2.356.445 3.242 1.334.885.89 1.343 1.972 1.373 3.246v6.782c-.03 1.275-.488 2.357-1.373 3.247-.886.889-1.966 1.334-3.241 1.334h-6.77Zm2.557-2.546h4.214a1.98 1.98 0 0 0 1.456-.617c.408-.412.612-.899.612-1.462v-6.693a1.98 1.98 0 0 0-.617-1.457c-.412-.407-.895-.611-1.451-.611h-4.214v10.84Zm19.09 2.546v-15.943h2.557v13.397h7.127v2.546zm20.747 0-.022-7.538-5.56-8.405h3.058l3.78 5.692 3.78-5.691h3.069l-5.593 8.405.023 7.538zm17.456-4.959h2.557c0 .867.192 1.509.578 1.924.385.415.912.622 1.579.622h1.956c.712 0 1.327-.21 1.846-.628.519-.419.778-.962.778-1.629 0-.504-.167-.913-.5-1.228-.334-.315-.766-.552-1.295-.712a19.33 19.33 0 0 0-1.768-.433 25.877 25.877 0 0 1-1.94-.467 8.863 8.863 0 0 1-1.762-.695 3.336 3.336 0 0 1-1.296-1.245c-.333-.549-.5-1.216-.5-2.002 0-1.304.44-2.394 1.318-3.268.878-.875 1.858-1.312 2.939-1.312h2.502c1.319 0 2.397.441 3.235 1.323.837.882 1.256 2.09 1.256 3.624h-2.557c0-1.593-.734-2.39-2.201-2.39h-2.035c-.593 0-1.06.19-1.4.567-.341.378-.512.864-.512 1.456 0 .467.167.85.5 1.146.334.296.768.52 1.301.672.534.152 1.123.293 1.768.423s1.29.296 1.934.5a7.875 7.875 0 0 1 1.762.795c.53.326.962.797 1.296 1.412.333.615.5 1.364.5 2.246 0 1.26-.511 2.307-1.534 3.14-1.023.834-2.235 1.251-3.636 1.251h-1.956c-1.35 0-2.472-.45-3.37-1.35-.896-.901-1.344-2.148-1.344-3.742Z" fill="#FFF" fill-rule="nonzero"/></g></svg>
