<svg width="18" height="18" viewBox="0 0 18 18" xmlns="http://www.w3.org/2000/svg" fill="#FFF"><path d="M3.215 10.606c0 .153-.154.205-.256.102L.089 8.556l-.05-.05c-.052 0-.052-.103 0-.155L2.907 6.2c.102-.102.256 0 .256.103v1.435h6.353c.102 0 .154.05.154.153v1.076c0 .103-.052.154-.154.154H3.215v1.486M9.312 0C6.289 0 3.574 1.588 2.088 3.996c-.103.103 0 .257.102.257h1.384a.391.391 0 0 0 .256-.103c.154-.154.307-.359.461-.512A7.349 7.349 0 0 1 6.545 2.1a7.215 7.215 0 0 1 2.767-.564c.973 0 1.896.205 2.767.564a7.349 7.349 0 0 1 3.791 3.791c.359.871.564 1.845.564 2.767 0 .973-.205 1.895-.564 2.766s-.87 1.64-1.537 2.255a7.349 7.349 0 0 1-2.254 1.537 5.95 5.95 0 0 1-2.767.666 7.215 7.215 0 0 1-2.767-.564 7.349 7.349 0 0 1-2.254-1.537 4.546 4.546 0 0 1-.461-.512.391.391 0 0 0-.256-.103H2.19c-.102 0-.205.154-.153.257 1.537 2.408 4.2 3.996 7.224 3.996 4.713 0 8.556-3.843 8.607-8.608C17.971 3.945 14.128 0 9.312 0" fill-rule="evenodd"/></svg>
