<svg width="108" height="112" viewBox="0 0 108 112" xmlns="http://www.w3.org/2000/svg" xmlns:xlink="http://www.w3.org/1999/xlink"><defs><path id="e" d="M0 0h33.802v17.358H0z"/><path id="g" d="M0 0h20.865v21.372H0z"/><path id="i" d="M0 0h19.915v19.917H0z"/><filter x="-3.8%" y="-5.8%" width="107.7%" height="111.5%" filterUnits="objectBoundingBox" id="a"><feOffset dy="2" in="SourceAlpha" result="shadowOffsetOuter1"/><feGaussianBlur stdDeviation="1" in="shadowOffsetOuter1" result="shadowBlurOuter1"/><feColorMatrix values="0 0 0 0 0 0 0 0 0 0 0 0 0 0 0 0 0 0 0.5 0" in="shadowBlurOuter1" result="shadowMatrixOuter1"/><feOffset dy="-2" in="SourceAlpha" result="shadowOffsetOuter2"/><feGaussianBlur stdDeviation="1" in="shadowOffsetOuter2" result="shadowBlurOuter2"/><feColorMatrix values="0 0 0 0 0 0 0 0 0 0 0 0 0 0 0 0 0 0 0.5 0" in="shadowBlurOuter2" result="shadowMatrixOuter2"/><feMerge><feMergeNode in="shadowMatrixOuter1"/><feMergeNode in="shadowMatrixOuter2"/></feMerge></filter><filter x="-3.8%" y="-5.8%" width="107.7%" height="111.5%" filterUnits="objectBoundingBox" id="d"><feGaussianBlur stdDeviation="1.5" in="SourceAlpha" result="shadowBlurInner1"/><feOffset dy="1" in="shadowBlurInner1" result="shadowOffsetInner1"/><feComposite in="shadowOffsetInner1" in2="SourceAlpha" operator="arithmetic" k2="-1" k3="1" result="shadowInnerInner1"/><feColorMatrix values="0 0 0 0 0.286211759 0 0 0 0 0.331355929 0 0 0 0 0.449581385 0 0 0 1 0" in="shadowInnerInner1"/></filter><linearGradient x1="50%" y1="0%" x2="50%" y2="100%" id="c"><stop stop-color="#3E4964" offset="0%"/><stop stop-color="#1D2334" offset="100%"/></linearGradient><rect id="b" x="0" y="0" width="104" height="104" rx="21"/></defs><g fill="none" fill-rule="evenodd"><g transform="translate(2 4)"><use fill="#000" filter="url(#a)" xlink:href="#b"/><use fill="url(#c)" xlink:href="#b"/><use fill="#000" filter="url(#d)" xlink:href="#b"/></g><path d="M57.004 53.68c-.451-.002-.905.019-1.354.064a14.967 14.967 0 0 1-4.075 4.481 17.562 17.562 0 0 1 10.118 5.373 12.792 12.792 0 0 1 17.884-.872c-1.893-5.326-6.998-9.11-12.96-9.046h-9.613Z" fill="#FFF" fill-rule="nonzero"/><g transform="translate(26.96 59.99)"><mask id="f" fill="#fff"><use xlink:href="#e"/></mask><g/><path d="M31.296 12.334c0-2.846.93-5.479 2.506-7.607A13.561 13.561 0 0 0 23.355.001h-9.614C6.268-.081.13 5.88 0 13.354c0 2.203 4.606 4.004 6.87 4.004h23.353c.553 0 1.247-.108 1.978-.3a12.729 12.729 0 0 1-.905-4.724" fill="#FFF" fill-rule="nonzero" mask="url(#f)"/></g><g transform="translate(51.957 28.96)"><mask id="h" fill="#fff"><use xlink:href="#g"/></mask><g/><path d="M5.392 20.448c1.415.614 2.939.929 4.481.924v-.007c5.982.078 10.901-4.7 10.993-10.682C20.774 4.701 15.855-.079 9.873.001A11.016 11.016 0 0 0 0 5.987a14.464 14.464 0 0 1 5.392 14.461" fill="#FFF" fill-rule="nonzero" mask="url(#h)"/></g><path d="M45.504 56.646c5.981.08 10.9-4.7 10.992-10.68.003-5.789-4.604-10.527-10.388-10.692-5.902-.166-10.82 4.482-10.988 10.384-.167 5.902 4.482 10.82 10.384 10.988" fill="#FFF" fill-rule="nonzero"/><g transform="translate(61.125 62.365)"><mask id="j" fill="#fff"><use xlink:href="#i"/></mask><g/><path d="M13.89 9.344c-2.547 4.806-7.109 5.66-11.158 5.046 3.297-.88 5.399-2.998 6.67-6.621L6.298 6.678l7.09-3.212 3.535 6.946-3.033-1.068ZM9.957 0C4.458 0 0 4.458 0 9.958c0 5.502 4.458 9.96 9.958 9.96s9.958-4.458 9.958-9.96c0-5.5-4.458-9.958-9.958-9.958Z" fill="#FFF" fill-rule="nonzero" mask="url(#j)"/></g></g></svg>
