<svg width="25" height="25" viewBox="0 0 29 27" xmlns="http://www.w3.org/2000/svg" xmlns:xlink="http://www.w3.org/1999/xlink"><defs><path id="d" d="M0 0h8.125v4.173H0z"/><path id="f" d="M0 0h5.016v5.137H0z"/><path id="h" d="M0 0h4.787v4.788H0z"/><linearGradient x1="50%" y1="0%" x2="50%" y2="100%" id="c"><stop stop-color="#6A7DAC" offset="0%"/><stop stop-color="#505F84" offset="100%"/></linearGradient><filter x="-14%" y="-10%" width="128%" height="128%" filterUnits="objectBoundingBox" id="a"><feOffset dy="1" in="SourceAlpha" result="shadowOffsetOuter1"/><feGaussianBlur stdDeviation="1" in="shadowOffsetOuter1" result="shadowBlurOuter1"/><feColorMatrix values="0 0 0 0 0 0 0 0 0 0 0 0 0 0 0 0 0 0 1 0" in="shadowBlurOuter1"/></filter><rect id="b" x="0" y="0" width="25" height="25" rx="5"/></defs><g fill="none" fill-rule="evenodd"><g transform="translate(2 1)"><use fill="#000" filter="url(#a)" xlink:href="#b"/><use fill="url(#c)" xlink:href="#b"/></g><path d="M15.222 10.942a3.13 3.13 0 0 0-.325.016c-.25.422-.583.788-.98 1.077.952.15 1.8.615 2.432 1.291a3.075 3.075 0 0 1 4.3-.21 3.27 3.27 0 0 0-3.116-2.174h-2.31Z" fill="#FFF" fill-rule="nonzero"/><g transform="translate(8 12.46)"><mask id="e" fill="#fff"><use xlink:href="#d"/></mask><g/><path d="M7.523 2.965c0-.684.224-1.317.603-1.829A3.26 3.26 0 0 0 5.614 0H3.303A3.267 3.267 0 0 0 0 3.21c0 .53 1.107.963 1.651.963h5.614c.133 0 .3-.026.476-.073a3.06 3.06 0 0 1-.218-1.135" fill="#FFF" fill-rule="nonzero" mask="url(#e)"/></g><g transform="translate(14.009 5)"><mask id="g" fill="#fff"><use xlink:href="#f"/></mask><g/><path d="M1.296 4.915c.34.148.707.224 1.077.223v-.002a2.609 2.609 0 0 0 2.643-2.568A2.608 2.608 0 0 0 2.373 0 2.647 2.647 0 0 0 0 1.44a3.477 3.477 0 0 1 1.296 3.475" fill="#FFF" fill-rule="nonzero" mask="url(#g)"/></g><path d="M12.458 11.655A2.608 2.608 0 0 0 15.1 9.088a2.57 2.57 0 1 0-2.642 2.567" fill="#FFF" fill-rule="nonzero"/><g transform="translate(16.213 13.03)"><mask id="i" fill="#fff"><use xlink:href="#h"/></mask><g/><path d="M3.339 2.246C2.727 3.402 1.63 3.606.657 3.46c.792-.211 1.298-.72 1.603-1.592l-.746-.262L3.218.833l.85 1.67-.73-.257ZM2.394 0a2.394 2.394 0 1 0 0 4.787 2.394 2.394 0 0 0 0-4.787Z" fill="#FFF" fill-rule="nonzero" mask="url(#i)"/></g><g transform="translate(8.583 18.983)" fill="#FFF"><circle cx="1.457" cy="1.457" r="1.457"/><circle cx="5.535" cy="1.457" r="1.457"/><circle cx="9.614" cy="1.457" r="1.457"/></g></g></svg>
