<svg width="23" height="20" viewBox="0 0 23 20" xmlns="http://www.w3.org/2000/svg"><path d="M4.765.346c.245.433.031.782-.295 1.127-3.487 3.69-3.898 9.47-.952 13.27 3.292 4.247 9.435 4.973 14.008 1.64.461-.336.874-.746 1.295-1.14.464-.434.921-.507 1.25-.171.319.328.244.8-.216 1.251-3.912 3.835-9.296 4.573-13.442 2.666-.796-.366-1.5-.914-2.247-1.376-.114-.07-.234-.131-.351-.197l-.953-.92c-.185-.24-.379-.472-.554-.72-2.695-3.8-3.059-7.935-.937-12.38.433-.907 1.076-1.723 1.622-2.581L3.67.114c.428-.153.843-.215 1.095.232Zm14.662 8.016.076 1.299.127.111c.548-.55 1.08-1.116 1.648-1.645.458-.426 1.133-.256 1.234.317.04.225-.059.563-.22.72a130.243 130.243 0 0 1-3.133 2.931c-.346.315-.757.289-1.087-.06a257.918 257.918 0 0 1-2.892-3.098c-.346-.378-.323-.782.016-1.08.31-.272.756-.233 1.09.108.275.28.544.565.803.858.246.279.476.57.803.964.188-1.142.04-2.08-.268-2.996-1.005-2.988-3.946-4.915-7.13-4.689-3.003.214-5.603 2.524-6.217 5.524-.842 4.106 2.177 8.04 6.346 8.27.601.034.94.329.918.798-.022.463-.402.747-.998.704-4.514-.325-7.573-3.92-7.87-7.733C2.335 5.299 5.469 1.603 9.343.79c4.903-1.03 9.797 2.605 10.084 7.572Zm-8.145-3.164v.718c1.223.255 2.2.786 2.328 2.392-.435 0-.83.014-1.221-.012-.082-.005-.203-.147-.224-.247-.101-.479-.356-.756-.857-.861 0 .567-.012 1.107.013 1.644.003.077.173.167.28.212.367.155.761.248 1.108.444 1.268.718 1.342 2.525.123 3.348-.434.292-.952.433-1.526.685v.838h-.548l-.042-.946c-1.623-.34-2.335-1.106-2.356-2.535h1.36c.157.907.334 1.145 1.007 1.271 0-.592.008-1.175-.012-1.756-.002-.067-.156-.145-.251-.186-.307-.132-.635-.216-.926-.379-.698-.39-1.086-1.038-1.053-1.903.034-.889.545-1.427 1.264-1.73.306-.13.634-.2.969-.302l.04-.695h.524Zm.132 5.344v1.527c.431-.025.734-.306.762-.696.028-.398-.26-.722-.762-.831Zm-.763-3.054c-.481.035-.767.335-.764.759.003.427.302.734.764.768V7.488Z" fill="#FFF"/></svg>
