<svg width="40" height="50" viewBox="0 0 40 50" xmlns="http://www.w3.org/2000/svg"><defs><clipPath id="a"><path d="M375 0v667H0V0h375Z"/></clipPath><clipPath id="b"><path d="m27.45 0-.018.002L27.47 0h.103c.337.003 1.23.05 2.1.424a5.856 5.856 0 0 1 1.581 1.016l7.403 7.26c.004.007.627.603 1.01 1.46.408.915.328 1.854.328 1.854v32.083c0 2.8-2.28 5.081-5.08 5.081H5.08c-2.8 0-5.079-2.28-5.079-5.08V5.08A5.086 5.086 0 0 1 5.08 0h22.37Z"/></clipPath><clipPath id="c"><path d="M27.346.29c.63.27 1.076.679 1.08.681l7.386 7.247s.445.47.66.953c.175.39.185 1.104.185 1.104a.835.835 0 0 0-.001.036v32.118a3.385 3.385 0 0 1-3.41 3.412H3.41A3.385 3.385 0 0 1 0 42.43V3.412A3.385 3.385 0 0 1 3.41 0h22.387s.895.009 1.549.29Z"/></clipPath><clipPath id="d"><path d="M10.897 1.04c.503 1.002.451 2.817-.144 5.107l-.488 1.877.43.73c.236.401.927 1.354 1.535 2.118l1.142 1.421 1.422-.185c4.516-.59 6.062.412 6.062 1.848 0 1.812-3.546 1.962-6.523-.13a9.229 9.229 0 0 1-1.107-.914l-.023-.024s-1.866.38-2.784.628c-.696.187-1.135.323-1.868.567l-.432.145-.51.172s-.487.708-.805 1.222c-1.181 1.914-2.56 3.5-3.545 4.077-1.103.646-2.26.69-2.842.108-1.148-1.148.094-2.726 3.466-4.401l2.121-1.055.827-1.808a71.192 71.192 0 0 0 1.507-3.606L9.02 7.14l-.47-1.33c-.577-1.637-.783-4.096-.417-4.98.496-1.197 2.121-1.075 2.764.21ZM5.442 15.204l-1.667.838C1.2 17.338.022 18.558.635 19.296c.343.415.755.38 1.584-.132.646-.4 1.952-1.944 2.857-3.379l.366-.58Zm10.883-2.744c-.887.06-2.313.239-2.555.293 0 0 .784.541 1.131.74.463.265 1.588.756 2.41 1.007.81.248 1.279.222 1.634-.032.631-.442.54-1.333-.174-1.693-.556-.28-1.003-.337-2.446-.315ZM9.967 8.606s-.394 1.266-.717 2.029l-1.008 2.491-.292.565s.62-.203 1.275-.405l.329-.1c.271-.08.532-.156.74-.21.837-.22 2.537-.553 2.537-.553l-.611-.75c-.382-.4-1.032-1.24-1.444-1.862a11.93 11.93 0 0 1-.68-.985l-.071-.12c-.039-.065-.058-.1-.058-.1ZM8.469 2.698c.05.637.208 1.727.42 2.398l.385 1.22.27-.918c.15-.506.378-1.593.508-2.415.098-.818.14-1.635-.123-2.047C9.199.14 8.32.804 8.469 2.698Z"/></clipPath><clipPath id="e"><path d="M1.864 0c.596 0 1.08.057 1.45.171.372.11.685.358.938.745.254.382.381.843.381 1.384 0 .496-.103.923-.309 1.28a1.814 1.814 0 0 1-.833.772c-.345.158-.878.237-1.6.237h-.644v2.94H0V0h1.864ZM7.28 0c.82 0 1.475.145 1.964.436.493.29.864.722 1.114 1.296.254.573.38 1.21.38 1.908 0 .736-.113 1.392-.341 1.97A3.131 3.131 0 0 1 9.36 7c-.464.352-1.125.529-1.986.529H5.587V0H7.28Zm8.836 0v.998h-2.934v2.25h2.35v.999h-2.35v3.282h-1.246V0h4.18ZM7.352.998h-.518V6.53h.518c.725 0 1.25-.25 1.578-.75.327-.504.49-1.175.49-2.013 0-1.846-.689-2.769-2.068-2.769ZM1.864.965h-.617v2.626h.617c.552 0 .932-.103 1.142-.31.213-.205.32-.54.32-1.003 0-.346-.07-.625-.21-.838-.14-.217-.294-.35-.463-.398-.166-.051-.428-.077-.789-.077Z"/></clipPath></defs><g clip-path="url(#a)" transform="translate(-31 -294)"><g clip-path="url(#b)" transform="translate(31 294)"><path fill="#FF2016" d="M0 0h40v49.179H0V0z"/></g><g clip-path="url(#c)" transform="translate(32.669 295.67)"><path fill="#F5F5F5" d="M0 0h36.657v45.841H0V0z"/></g><g clip-path="url(#d)" transform="translate(40.569 303.473)"><path fill="#FF2016" d="M0 0h20.856v20.216H0V0z"/></g><g clip-path="url(#e)" transform="translate(42.939 328.598)"><path fill="#2B2B2B" d="M0 0h16.116v7.529H0V0z"/></g></g></svg>
