<svg width="34" height="34" viewBox="0 0 34 34" xmlns="http://www.w3.org/2000/svg"><defs><clipPath id="a"><path d="M375 0v667H0V0h375Z"/></clipPath><clipPath id="c"><path d="M15 0c8.284 0 15 6.716 15 15 0 8.284-6.716 15-15 15-8.284 0-15-6.716-15-15C0 6.716 6.716 0 15 0Z"/></clipPath><clipPath id="e"><path d="M0 4.84c8.446-10.947 15.6.097 15.6.097C7.114 15.341.278 5.26.008 4.853Zm7.8-3.756a3.732 3.732 0 1 0 0 7.464 3.73 3.73 0 0 0 3.733-3.732A3.731 3.731 0 0 0 7.8 1.084Z"/></clipPath><clipPath id="f"><path d="M1.544 0a1.545 1.545 0 1 1-.001 3.09A1.545 1.545 0 0 1 1.544 0Z"/></clipPath><linearGradient id="d" x1="15" y1="0" x2="15" y2="30" gradientUnits="userSpaceOnUse"><stop stop-color="#DCBF4B" offset="0%"/><stop stop-color="#D1803A" offset="100%"/></linearGradient><filter id="b" x="-20.588%" y="-17.647%" filterUnits="userSpaceOnUse" width="129.412%" height="129.412%"><feGaussianBlur stdDeviation="1" in="SourceAlpha" result="i2"/><feOffset dy="1" in="i2" result="i3"/><feColorMatrix values="0 0 0 0.0 0 0 0 0 0.0 0 0 0 0 0.0 0 0 0 0 1.0 0" in="i3"/></filter></defs><g clip-path="url(#a)" transform="translate(-266 -397)"><path d="M15 0c8.284 0 15 6.716 15 15 0 8.284-6.716 15-15 15-8.284 0-15-6.716-15-15C0 6.716 6.716 0 15 0Z" filter="url(#b)" transform="translate(268 398)"/><g clip-path="url(#c)" transform="translate(268 398)"><path fill="url(#d)" d="M0 0h30v30H0V0z"/></g><g clip-path="url(#e)" transform="translate(275.5 408.5)"><path fill="#FFF" d="M0 0h15.6v9.63H0V0z"/></g><g clip-path="url(#f)" transform="translate(281.756 411.77)"><path fill="#FFF" d="M0 0h3.088v3.09H0V0z"/></g></g></svg>
