<svg width="209" height="209" viewBox="0 0 209 209" xmlns="http://www.w3.org/2000/svg" fill="#E4B711"><path d="M2.816 55A2.812 2.812 0 0 1 0 52.187V18.86C0 8.459 8.47 0 18.86 0h33.324a2.813 2.813 0 1 1 0 5.626H18.86c-7.297 0-13.25 5.945-13.25 13.233v33.35A2.803 2.803 0 0 1 2.817 55ZM53.18 209h-34.3C8.48 209 0 200.537 0 190.134v-33.32A2.814 2.814 0 0 1 2.82 154a2.814 2.814 0 0 1 2.818 2.814v33.32c0 7.29 5.96 13.238 13.264 13.238H53.18a2.814 2.814 0 1 1 0 5.628Zm136.791 0h-35.133c-1.57 0-2.838-1.252-2.838-2.802s1.269-2.802 2.838-2.802h35.133c7.375 0 13.353-5.922 13.353-13.182v-33.412c0-1.55 1.268-2.802 2.838-2.802s2.838 1.252 2.838 2.802v33.412c0 10.359-8.536 18.786-19.029 18.786Zm16.23-154c-1.548 0-2.799-1.263-2.799-2.826V18.947c0-7.343-5.915-13.295-13.166-13.295h-33.437c-1.548 0-2.799-1.263-2.799-2.826C154 1.263 155.251 0 156.799 0h33.437C200.582 0 209 8.5 209 18.947v33.227c0 1.563-1.251 2.826-2.799 2.826Z"/></svg>
