<svg width="29" height="29" viewBox="0 0 29 29" xmlns="http://www.w3.org/2000/svg" xmlns:xlink="http://www.w3.org/1999/xlink"><defs><linearGradient x1="50%" y1="0%" x2="50%" y2="100%" id="c"><stop stop-color="#6A7DAC" offset="0%"/><stop stop-color="#505F84" offset="100%"/></linearGradient><filter x="-14%" y="-10%" width="128%" height="128%" filterUnits="objectBoundingBox" id="a"><feOffset dy="1" in="SourceAlpha" result="shadowOffsetOuter1"/><feGaussianBlur stdDeviation="1" in="shadowOffsetOuter1" result="shadowBlurOuter1"/><feColorMatrix values="0 0 0 0 0 0 0 0 0 0 0 0 0 0 0 0 0 0 1 0" in="shadowBlurOuter1"/></filter><rect id="b" x="0" y="0" width="25" height="25" rx="5"/><path id="d" d="M0 0h13v13H0z"/></defs><g fill="none" fill-rule="evenodd"><g transform="translate(2 1)"><use fill="#000" filter="url(#a)" xlink:href="#b"/><use fill="url(#c)" xlink:href="#b"/></g><g transform="translate(8 7)"><mask id="e" fill="#fff"><use xlink:href="#d"/></mask><g/><path d="M6.5 11.843a5.344 5.344 0 1 1 0-10.687 5.344 5.344 0 0 1 0 10.687M6.5 0A6.5 6.5 0 0 0 0 6.5 6.5 6.5 0 0 0 6.5 13 6.5 6.5 0 0 0 13 6.5 6.5 6.5 0 0 0 6.5 0" fill="#FFF" fill-rule="nonzero" mask="url(#e)"/></g><path d="M15.723 13.704c-.412.336-.515.463-.618.8-.052.206-.052.258-.078.695h-1.108c.026-.696.052-.903.155-1.185a1.88 1.88 0 0 1 .412-.619c.078-.077.078-.077.284-.258l.26-.259c.41-.36.592-.722.592-1.107 0-.464-.412-.774-1.056-.774-.8 0-1.186.386-1.237 1.16h-1.265c.026-.697.155-1.134.463-1.548.463-.593 1.16-.929 2.088-.929 1.392 0 2.32.851 2.32 2.037 0 .8-.257 1.213-1.212 1.987m-1.237 3.612c-.386 0-.67-.315-.67-.7a.65.65 0 0 1 .67-.671.65.65 0 0 1 .67.67c0 .388-.284.7-.67.7m.013-8.542a4.727 4.727 0 1 0 0 9.453 4.727 4.727 0 0 0 0-9.453" fill="#FFF" fill-rule="nonzero"/></g></svg>
