<svg width="40" height="40" viewBox="0 0 45 46" xmlns="http://www.w3.org/2000/svg" xmlns:xlink="http://www.w3.org/1999/xlink"><defs><filter x="-36.7%" y="-40%" width="160%" height="160%" filterUnits="objectBoundingBox" id="a"><feOffset dx="-2" dy="-3" in="SourceAlpha" result="shadowOffsetOuter1"/><feGaussianBlur stdDeviation="2.5" in="shadowOffsetOuter1" result="shadowBlurOuter1"/><feComposite in="shadowBlurOuter1" in2="SourceAlpha" operator="out" result="shadowBlurOuter1"/><feColorMatrix values="0 0 0 0 0.101960801 0 0 0 0 0.101960801 0 0 0 0 0.101960801 0 0 0 0.240302666 0" in="shadowBlurOuter1" result="shadowMatrixOuter1"/><feOffset dy="1" in="SourceAlpha" result="shadowOffsetOuter2"/><feGaussianBlur stdDeviation=".5" in="shadowOffsetOuter2" result="shadowBlurOuter2"/><feComposite in="shadowBlurOuter2" in2="SourceAlpha" operator="out" result="shadowBlurOuter2"/><feColorMatrix values="0 0 0 0 0.10193048 0 0 0 0 0.10193048 0 0 0 0 0.10193048 0 0 0 1 0" in="shadowBlurOuter2" result="shadowMatrixOuter2"/><feMerge><feMergeNode in="shadowMatrixOuter1"/><feMergeNode in="shadowMatrixOuter2"/></feMerge></filter><filter x="-26.7%" y="-30%" width="140%" height="140%" filterUnits="objectBoundingBox" id="d"><feGaussianBlur stdDeviation=".5" in="SourceAlpha" result="shadowBlurInner1"/><feOffset dx="1" dy="-1" in="shadowBlurInner1" result="shadowOffsetInner1"/><feComposite in="shadowOffsetInner1" in2="SourceAlpha" operator="arithmetic" k2="-1" k3="1" result="shadowInnerInner1"/><feColorMatrix values="0 0 0 0 0.129411765 0 0 0 0 0.152941176 0 0 0 0 0.219607843 0 0 0 0.937090253 0" in="shadowInnerInner1"/></filter><linearGradient x1="50%" y1="0%" x2="50%" y2="100%" id="c"><stop stop-color="#6A7DAC" offset="0%"/><stop stop-color="#505F84" offset="100%"/></linearGradient><rect id="b" x="0" y="0" width="30" height="30" rx="15"/></defs><g fill="none" fill-rule="evenodd"><g transform="translate(7 8)"><use fill="#000" filter="url(#a)" xlink:href="#b"/><use fill="url(#c)" xlink:href="#b"/><use fill="#000" filter="url(#d)" xlink:href="#b"/><rect stroke="#505B79" stroke-width=".5" stroke-linejoin="square" x=".25" y=".25" width="29.5" height="29.5" rx="14.75"/></g><path d="M27.526 22.534v-5.798a.728.728 0 0 0-.739-.736H17.74a.728.728 0 0 0-.74.736v11.32c0 .414.323.736.739.736h6.555a4.053 4.053 0 0 1-.738-2.347c0-2.117 1.754-3.911 3.97-3.911ZM18.8 17.472h6.926c.138 0 .23.092.23.23 0 .139-.092.23-.23.23H18.8c-.138 0-.23-.091-.23-.23 0-.138.092-.23.23-.23Zm0 1.841h6.926c.138 0 .23.092.23.23s-.092.23-.23.23H18.8c-.138 0-.23-.092-.23-.23s.092-.23.23-.23Zm0 1.794h6.926c.138 0 .23.093.23.23 0 .139-.092.23-.23.23H18.8c-.138 0-.23-.091-.23-.23 0-.091.092-.23.23-.23Zm3.602 6.304H18.8c-.138 0-.23-.092-.23-.23s.092-.23.23-.23h3.602c.138 0 .23.092.23.23.046.092-.092.23-.23.23Zm0-1.978H18.8c-.138 0-.23-.092-.23-.23s.092-.23.23-.23h3.602c.138 0 .23.092.23.23.046.092-.092.23-.23.23Zm.83-1.979H18.8c-.138 0-.23-.092-.23-.23s.092-.23.23-.23h4.433c.138 0 .23.092.23.23 0 .092-.092.23-.23.23Zm4.294-.23a3.305 3.305 0 0 0-3.324 3.313 3.305 3.305 0 0 0 3.324 3.313 3.305 3.305 0 0 0 3.324-3.313 3.305 3.305 0 0 0-3.324-3.313Zm2.078 4.417-1.478 1.105c-.046.046-.138.046-.184-.046 0-.046-.047-.046-.047-.092v-.69h-1.154c-.83 0-1.293-.415-1.385-1.243.092.092.37.506 1.385.506h1.154v-.644c0-.092.046-.138.139-.138.046 0 .046 0 .092.046l1.431 1.012c.093 0 .093.092.046.184Zm-1.247-1.84h-1.2v.644c0 .092-.046.138-.139.138-.046 0-.046 0-.092-.046l-1.431-1.012c-.046-.046-.093-.138-.046-.184l.046-.046 1.43-1.059c.047-.046.14-.046.185.046 0 .046.047.046.047.092v.69h1.2c.831 0 1.293.415 1.385 1.243-.092-.046-.416-.506-1.385-.506Z" fill="#FFF"/></g></svg>
