<svg viewBox="0 0 64 68" xmlns="http://www.w3.org/2000/svg"><defs><clipPath id="a"><path d="M375 0v667H0V0h375Z"/></clipPath><clipPath id="d"><path d="M46 0c7.732 0 14 6.268 14 14v32c0 7.732-6.268 14-14 14H14C6.268 60 0 53.732 0 46V14C0 6.268 6.268 0 14 0h32Z"/></clipPath><clipPath id="g"><path d="M7.11 0a10.62 10.62 0 0 0 6.195 8.624c-.745.72-1.49 1.448-2.227 2.185L.286 4.01A.62.62 0 0 1 .37 2.922Z"/></clipPath><clipPath id="h"><path d="M26.269.045a.635.635 0 0 1 .678.134.618.618 0 0 1 .142.687l-14.46 33.766a.627.627 0 0 1-.501.368h-.067c-.21 0-.394-.1-.511-.268l-5.132-7.435-1.591 2.077a.615.615 0 0 1-.486.243.724.724 0 0 1-.192-.05.62.62 0 0 1-.427-.57l-.134-5.132a835.236 835.236 0 0 0 3.893-3.718 9.325 9.325 0 0 1-5.459-3.332 9.252 9.252 0 0 1-2.018-6.061 9.312 9.312 0 0 1 2.378-5.936A9.256 9.256 0 0 1 8.025 1.82a9.33 9.33 0 0 1 6.238 1.357 9.3 9.3 0 0 1 3.893 5.073c.1.302.175.603.242.913l.47-.486c1.783-1.884 3.574-3.767 5.299-5.71a226.399 226.399 0 0 0-5.015 4.387 10.422 10.422 0 0 0-1.993-3.34ZM9.326 3.657l-.313.005a7.372 7.372 0 0 0-7.058 6.606 7.374 7.374 0 0 0 1.298 4.998 7.351 7.351 0 0 0 4.253 2.922 7.07 7.07 0 0 0 1.725.21c.469-.46.946-.921 1.415-1.39a6.33 6.33 0 0 1-2.026.117A6.136 6.136 0 0 1 5.11 6.542a6.158 6.158 0 0 1 4.237-1.657 6.138 6.138 0 0 1 6.087 5.86v.276c0 .444-.05.896-.151 1.332.469-.478.93-.938 1.381-1.39a7.4 7.4 0 0 0-2.755-5.676 7.366 7.366 0 0 0-4.897-1.625Zm.641 2.718H8.728v.93h-.36a1.85 1.85 0 0 0-1.314.543 1.85 1.85 0 0 0-.544 1.315v.62c0 .493.192.962.544 1.314.352.351.82.544 1.314.544h1.859a.62.62 0 0 1 .435.184.608.608 0 0 1 .185.436v.62a.623.623 0 0 1-.185.435.608.608 0 0 1-.435.184H8.368a.623.623 0 0 1-.435-.184.608.608 0 0 1-.184-.436v-.62h-1.24v.62c0 .494.193.963.545 1.315.352.351.82.544 1.314.544h.151v.879h1.24v-.88h.468a1.85 1.85 0 0 0 1.314-.543 1.85 1.85 0 0 0 .545-1.315v-.62a1.85 1.85 0 0 0-.545-1.314 1.85 1.85 0 0 0-1.314-.544H8.368a.623.623 0 0 1-.435-.184.608.608 0 0 1-.184-.436v-.62c0-.342.276-.619.62-.619h1.858a.62.62 0 0 1 .435.184.608.608 0 0 1 .185.436v.62h1.239v-.62a1.85 1.85 0 0 0-.545-1.315 1.85 1.85 0 0 0-1.314-.544h-.26v-.93Z"/></clipPath><filter id="b" x="-12.5%" y="-9.375%" filterUnits="userSpaceOnUse" width="118.75%" height="118.75%"><feGaussianBlur stdDeviation="1" in="SourceAlpha" result="i2"/><feOffset dy="2" in="i2" result="i3"/><feColorMatrix values="0 0 0 0.0 0 0 0 0 0.0 0 0 0 0 0.0 0 0 0 0 0.5 0" in="i3"/></filter><filter id="c" x="-12.5%" y="-15.625%" filterUnits="userSpaceOnUse" width="118.75%" height="118.75%"><feGaussianBlur stdDeviation="1" in="SourceAlpha" result="i5"/><feOffset dy="-2" in="i5" result="i6"/><feColorMatrix values="0 0 0 0.0 0 0 0 0 0.0 0 0 0 0 0.0 0 0 0 0 0.5 0" in="i6"/></filter><filter id="f" x="-18.056%" y="-18.056%" filterUnits="userSpaceOnUse" width="119.444%" height="119.444%"><feGaussianBlur stdDeviation="1.5" in="SourceAlpha" result="i10"/><feOffset dy="1" in="i10" result="i11"/><feColorMatrix values="0 0 0 0.286211758852005 0 0 0 0 0.3313559293746948 0 0 0 0 0.4495813846588135 0 0 0 0 1.0 0" in="i11"/></filter><linearGradient id="e" x1="30" y1="0" x2="30" y2="60" gradientUnits="userSpaceOnUse"><stop stop-color="#3D4863" offset="0%"/><stop stop-color="#1C2234" offset="100%"/></linearGradient></defs><g clip-path="url(#a)" transform="translate(-156 -176)"><path d="M14 0h32c7.732 0 14 6.268 14 14v32c0 7.732-6.268 14-14 14H14C6.268 60 0 53.732 0 46V14C0 6.268 6.268 0 14 0Z" filter="url(#b)" transform="translate(158 180)"/><path d="M14 0h32c7.732 0 14 6.268 14 14v32c0 7.732-6.268 14-14 14H14C6.268 60 0 53.732 0 46V14C0 6.268 6.268 0 14 0Z" filter="url(#c)" transform="translate(158 180)"/><g clip-path="url(#d)" transform="translate(158 180)"><path fill="url(#e)" d="M0 0h60v60H0V0z"/><path d="M63-4v66H-3V-4h66ZM46 0H14C6.268 0 0 6.268 0 14v32c0 7.732 6.268 14 14 14h32c7.732 0 14-6.268 14-14V14c0-7.732-6.268-14-14-14Z" style="mix-blend-mode:screen" filter="url(#f)"/></g><g clip-path="url(#g)" transform="translate(170 204.026)"><path fill="#FFF" d="M0 0h13.305v10.809H0V0z"/></g><g clip-path="url(#h)" transform="translate(178.27 192)"><path fill="#FFF" d="M0 0h27.138v35H0V0z"/></g></g></svg>
