<svg width="29" height="29" viewBox="0 0 29 29" xmlns="http://www.w3.org/2000/svg"><defs><clipPath id="a"><path d="M375 0v723H0V0h375Z"/></clipPath><clipPath id="c"><path d="M20 0a5 5 0 0 1 5 5v15a5 5 0 0 1-5 5H5a5 5 0 0 1-5-5V5a5 5 0 0 1 5-5h15Z"/></clipPath><clipPath id="e"><path d="M2.61 0a3.9 3.9 0 0 0 2.275 3.166c-.273.265-.547.532-.817.803L.105 1.472a.228.228 0 0 1 .03-.4Z"/></clipPath><clipPath id="f"><path d="M9.645.017a.233.233 0 0 1 .249.049.228.228 0 0 1 .052.252L4.637 12.715a.23.23 0 0 1-.184.136h-.025a.226.226 0 0 1-.187-.099l-1.885-2.73-.584.763a.226.226 0 0 1-.178.089.266.266 0 0 1-.07-.018.227.227 0 0 1-.158-.21l-.049-1.884c.48-.455.956-.91 1.43-1.365A3.424 3.424 0 0 1 .742 6.174a3.397 3.397 0 0 1-.74-2.226A3.419 3.419 0 0 1 2.946.668c.8-.107 1.611.068 2.29.498a3.414 3.414 0 0 1 1.43 1.863c.037.11.065.221.09.335l.171-.178c.655-.692 1.313-1.383 1.946-2.097A83.124 83.124 0 0 0 7.032 2.7 3.827 3.827 0 0 0 6.3 1.474ZM3.309 1.345A2.71 2.71 0 0 0 .718 3.77a2.708 2.708 0 0 0 2.038 2.908c.209.052.421.077.633.077.172-.17.347-.338.52-.51a2.324 2.324 0 0 1-.744.043 2.253 2.253 0 0 1-1.288-3.886 2.254 2.254 0 0 1 3.79 1.543v.102c0 .163-.018.329-.055.488.172-.175.34-.344.507-.51a2.717 2.717 0 0 0-1.011-2.084 2.705 2.705 0 0 0-1.799-.596Zm.35.996h-.454v.34h-.132a.68.68 0 0 0-.683.683v.228a.68.68 0 0 0 .683.682h.682a.23.23 0 0 1 .16.068.223.223 0 0 1 .067.16v.227a.229.229 0 0 1-.067.16.223.223 0 0 1-.16.068h-.682a.229.229 0 0 1-.16-.068.223.223 0 0 1-.068-.16v-.227H2.39v.227a.68.68 0 0 0 .683.682h.055v.323h.455v-.323h.172a.68.68 0 0 0 .682-.682v-.227a.68.68 0 0 0-.682-.683h-.682a.229.229 0 0 1-.16-.067.223.223 0 0 1-.068-.16v-.228c0-.126.101-.227.228-.227h.682a.23.23 0 0 1 .16.067.223.223 0 0 1 .067.16v.228h.455v-.228a.68.68 0 0 0-.682-.682H3.66V2.34Z"/></clipPath><linearGradient id="d" x1="12.5" y1="0" x2="12.5" y2="25" gradientUnits="userSpaceOnUse"><stop stop-color="#697DAB" offset="0%"/><stop stop-color="#505F84" offset="100%"/></linearGradient><filter id="b" x="-24.138%" y="-20.69%" filterUnits="userSpaceOnUse" width="134.483%" height="134.483%"><feGaussianBlur stdDeviation="1" in="SourceAlpha" result="i2"/><feOffset dy="1" in="i2" result="i3"/><feColorMatrix values="0 0 0 0.0 0 0 0 0 0.0 0 0 0 0 0.0 0 0 0 0 1.0 0" in="i3"/></filter></defs><g clip-path="url(#a)" transform="translate(-259 -280)"><path d="M5 0h15a5 5 0 0 1 5 5v15a5 5 0 0 1-5 5H5a5 5 0 0 1-5-5V5a5 5 0 0 1 5-5Z" filter="url(#b)" transform="translate(261 281)"/><g clip-path="url(#c)" transform="translate(261 281)"><path fill="url(#d)" d="M0 0h25v25H0V0z"/></g><g clip-path="url(#e)" transform="translate(267 291.416)"><path fill="#FFF" d="M0 0h4.885v3.969H0V0z"/></g><g clip-path="url(#f)" transform="translate(270.036 287)"><path fill="#FFF" d="M0 0h9.964v12.85H0V0z"/></g></g></svg>
