<svg width="18" height="18" viewBox="0 0 18 18" xmlns="http://www.w3.org/2000/svg"><defs><clipPath id="a"><path d="M375 0v667H0V0h375Z"/></clipPath><clipPath id="b"><path d="M3.49 0a5.213 5.213 0 0 0 3.04 4.233c-.366.353-.731.71-1.093 1.073L.14 1.969a.304.304 0 0 1 .041-.534Z"/></clipPath><clipPath id="c"><path d="M12.894.022a.312.312 0 0 1 .333.066c.09.086.12.222.07.337L6.199 16.999a.308.308 0 0 1-.246.181H5.92a.302.302 0 0 1-.25-.132L3.15 13.4l-.78 1.02a.302.302 0 0 1-.24.118.355.355 0 0 1-.094-.024.304.304 0 0 1-.21-.28l-.065-2.519A409.98 409.98 0 0 0 3.672 9.89a4.577 4.577 0 0 1-2.68-1.635 4.542 4.542 0 0 1-.99-2.976A4.57 4.57 0 0 1 3.94.893a4.58 4.58 0 0 1 3.062.666 4.565 4.565 0 0 1 1.91 2.49c.05.149.087.297.12.449l.23-.239c.876-.924 1.755-1.85 2.602-2.803A111.13 111.13 0 0 0 9.4 3.61a5.116 5.116 0 0 0-.978-1.64ZM4.661 1.796l-.237.002A3.622 3.622 0 0 0 .96 5.04a3.62 3.62 0 0 0 2.724 3.888c.28.07.563.103.847.103.23-.226.464-.452.694-.683a3.107 3.107 0 0 1-.994.058A3.012 3.012 0 0 1 2.509 3.21a3.013 3.013 0 0 1 5.067 2.063v.136c0 .218-.024.44-.074.653.23-.234.456-.46.678-.682a3.632 3.632 0 0 0-1.352-2.786 3.616 3.616 0 0 0-2.404-.797Zm.232 1.333h-.609v.456h-.176a.908.908 0 0 0-.913.913v.304a.908.908 0 0 0 .913.912h.912a.31.31 0 0 1 .304.304v.304a.306.306 0 0 1-.09.214.298.298 0 0 1-.214.09h-.912a.306.306 0 0 1-.214-.09.298.298 0 0 1-.09-.214v-.304h-.609v.304a.908.908 0 0 0 .913.913h.074v.431h.608v-.431h.23a.908.908 0 0 0 .912-.913v-.304a.908.908 0 0 0-.912-.912h-.912a.306.306 0 0 1-.214-.09.298.298 0 0 1-.09-.214v-.304c0-.169.135-.304.304-.304h.912c.078 0 .156.032.214.09.057.057.09.131.09.214v.304h.608v-.304a.908.908 0 0 0-.912-.913h-.127V3.13Z"/></clipPath></defs><g clip-path="url(#a)" transform="translate(-99 -530)"><g clip-path="url(#b)" transform="translate(99 535.903)"><path fill="#FFF" d="M0 0h6.531v5.306H0V0z"/></g><g clip-path="url(#c)" transform="translate(103.059 530)"><path fill="#FFF" d="M0 0h13.32v17.18H0V0z"/></g></g></svg>
