<svg width="29" height="29" viewBox="0 0 29 29" xmlns="http://www.w3.org/2000/svg"><defs><clipPath id="a"><path d="M375 0v723H0V0h375Z"/></clipPath><clipPath id="c"><path d="M20 0a5 5 0 0 1 5 5v15a5 5 0 0 1-5 5H5a5 5 0 0 1-5-5V5a5 5 0 0 1 5-5h15Z"/></clipPath><clipPath id="e"><path d="M4.101.347c.754.52 1.063 1.5.74 2.367-.34.875-1.237 1.425-2.157 1.274-.234-.037-.31.046-.4.212-.407.723-.814 1.44-1.221 2.156-.06.105-.128.21-.211.347C.55 6.529.294 6.386 0 6.213c.106-.196.204-.362.302-.536.316-.558.61-1.123.957-1.658.234-.362.271-.619 0-1.01-.528-.77-.34-1.833.347-2.473A2.011 2.011 0 0 1 4.1.347Zm-1.16.656a.99.99 0 0 0-.973 1.018.991.991 0 1 0 1.983-.03.991.991 0 0 0-1.01-.988Z"/></clipPath><clipPath id="f"><path d="m.86 0 1.568 2.744c1.213-.15 2.088.324 2.427 1.305a2.017 2.017 0 0 1-.867 2.382 1.998 1.998 0 0 1-2.495-.37c-.701-.776-.686-1.756.06-2.827L0 .498.566.169.86 0Zm2.088 3.694A1.019 1.019 0 0 0 1.96 4.72c.015.542.475.995 1.018.987.543-.007 1.003-.475.988-1.018a1.019 1.019 0 0 0-1.018-.995Z"/></clipPath><clipPath id="g"><path d="M3.756 1.08c.067.129.12.272.196.43h3.083v.995H6.32c-.55 0-1.1.03-1.644-.007-.475-.03-.761.06-1.002.55-.4.822-1.38 1.146-2.255.882A2 2 0 0 1 .001 1.94C.031 1.02.672.25 1.584.048A1.963 1.963 0 0 1 3.756 1.08Zm-1.772-.075a1.024 1.024 0 0 0-.995 1.018c.015.543.475.995 1.018.995.55-.008.995-.467.987-1.018a1.016 1.016 0 0 0-1.01-.995Z"/></clipPath><linearGradient id="d" x1="12.5" y1="0" x2="12.5" y2="25" gradientUnits="userSpaceOnUse"><stop stop-color="#697DAB" offset="0%"/><stop stop-color="#505F84" offset="100%"/></linearGradient><filter id="b" x="-24.138%" y="-20.69%" filterUnits="userSpaceOnUse" width="134.483%" height="134.483%"><feGaussianBlur stdDeviation="1" in="SourceAlpha" result="i2"/><feOffset dy="1" in="i2" result="i3"/><feColorMatrix values="0 0 0 0.0 0 0 0 0 0.0 0 0 0 0 0.0 0 0 0 0 1.0 0" in="i3"/></filter></defs><g clip-path="url(#a)" transform="translate(-41 -175)"><path d="M5 0h15a5 5 0 0 1 5 5v15a5 5 0 0 1-5 5H5a5 5 0 0 1-5-5V5a5 5 0 0 1 5-5Z" filter="url(#b)" transform="translate(43 176)"/><g clip-path="url(#c)" transform="translate(43 176)"><path fill="url(#d)" d="M0 0h25v25H0V0z"/></g><g clip-path="url(#e)" transform="translate(53.04 183)"><path fill="#FFF" d="M0 0h4.968v6.703H0V0z"/></g><g clip-path="url(#f)" transform="translate(57.035 187.343)"><path fill="#FFF" d="M0 0h4.965v6.711H0V0z"/></g><g clip-path="url(#g)" transform="translate(50 190.032)"><path fill="#FFF" d="M0 0h7.035v4.02H0V0z"/></g></g></svg>
