<svg width="29" height="29" viewBox="0 0 29 29" xmlns="http://www.w3.org/2000/svg" xmlns:xlink="http://www.w3.org/1999/xlink"><defs><filter x="-14%" y="-10%" width="128%" height="128%" filterUnits="objectBoundingBox" id="a"><feOffset dy="1" in="SourceAlpha" result="shadowOffsetOuter1"/><feGaussianBlur stdDeviation="1" in="shadowOffsetOuter1" result="shadowBlurOuter1"/><feColorMatrix values="0 0 0 0 0 0 0 0 0 0 0 0 0 0 0 0 0 0 1 0" in="shadowBlurOuter1"/></filter><filter x="-3.8%" y="-4%" width="107.7%" height="107.9%" filterUnits="objectBoundingBox" id="e"><feOffset dy="1" in="SourceAlpha" result="shadowOffsetInner1"/><feComposite in="shadowOffsetInner1" in2="SourceAlpha" operator="arithmetic" k2="-1" k3="1" result="shadowInnerInner1"/><feColorMatrix values="0 0 0 0 0 0 0 0 0 0 0 0 0 0 0 0 0 0 0.5 0" in="shadowInnerInner1"/></filter><linearGradient x1="50%" y1="0%" x2="50%" y2="100%" id="c"><stop stop-color="#6A7DAC" offset="0%"/><stop stop-color="#505F84" offset="100%"/></linearGradient><rect id="b" x="0" y="0" width="25" height="25" rx="5"/><path d="M4.696 4.56c0-.112.112-.149.187-.075L6.97 6.04l.037.037c.037 0 .037.074 0 .111L4.92 7.741c-.075.074-.186 0-.186-.074V6.631H.112c-.075 0-.112-.037-.112-.11v-.778c0-.074.037-.11.112-.11h4.584V4.558M6.774 0C4.575 0 2.6 1.147 1.52 2.886c-.075.074 0 .185.074.185H2.6a.285.285 0 0 0 .186-.074c.112-.11.224-.259.336-.37a5.348 5.348 0 0 1 1.64-1.11 5.282 5.282 0 0 1 2.012-.407c.708 0 1.38.148 2.013.407a5.306 5.306 0 0 1 2.758 2.738c.26.63.41 1.332.41 1.998 0 .703-.15 1.37-.41 1.998a4.552 4.552 0 0 1-1.118 1.629 5.348 5.348 0 0 1-1.64 1.11 4.354 4.354 0 0 1-2.013.48 5.285 5.285 0 0 1-2.013-.406 5.348 5.348 0 0 1-1.64-1.11 3.544 3.544 0 0 1-.335-.37.286.286 0 0 0-.186-.075H1.593c-.074 0-.149.111-.111.185a6.243 6.243 0 0 0 5.255 2.887c3.429 0 6.224-2.775 6.262-6.217A6.207 6.207 0 0 0 6.774 0" id="d"/></defs><g fill="none" fill-rule="evenodd"><g transform="translate(2 1)"><use fill="#000" filter="url(#a)" xlink:href="#b"/><use fill="url(#c)" xlink:href="#b"/></g><g transform="scale(-1 1) rotate(45 -12.45 -15.56)"><use fill="#FFF" xlink:href="#d"/><use fill="#000" filter="url(#e)" xlink:href="#d"/></g></g></svg>
