<svg width="15" height="16" viewBox="0 0 15 16" xmlns="http://www.w3.org/2000/svg" fill="#FFF"><path d="M5.848 0h2.605c.197 0 .344.05.443.2.098.15.196.3.196.45V5.3h3.195c.196 0 .295.05.344.15.049.1 0 .2-.099.35L7.52 11.5c-.098.15-.245.2-.442.2-.196 0-.295-.05-.442-.2L1.67 5.8c-.098-.15-.147-.25-.098-.35.049-.1.147-.15.344-.15H5.21V.65c0-.2.049-.35.196-.45.098-.15.295-.2.442-.2ZM.638 12h13.123c.197 0 .344.05.442.2.148.15.197.3.197.45V16H0v-3.35c0-.2.05-.35.197-.45.098-.15.245-.2.442-.2Zm11.108 1.35V14h1.327v-.65h-1.327Z"/></svg>
