<svg width="29" height="29" viewBox="0 0 29 29" xmlns="http://www.w3.org/2000/svg" xmlns:xlink="http://www.w3.org/1999/xlink"><defs><linearGradient x1="50%" y1="0%" x2="50%" y2="100%" id="c"><stop stop-color="#DCBF4B" offset="0%"/><stop stop-color="#D1803A" offset="100%"/></linearGradient><filter x="-14%" y="-10%" width="128%" height="128%" filterUnits="objectBoundingBox" id="a"><feOffset dy="1" in="SourceAlpha" result="shadowOffsetOuter1"/><feGaussianBlur stdDeviation="1" in="shadowOffsetOuter1" result="shadowBlurOuter1"/><feColorMatrix values="0 0 0 0 0 0 0 0 0 0 0 0 0 0 0 0 0 0 1 0" in="shadowBlurOuter1"/></filter><rect id="b" x="0" y="0" width="25" height="25" rx="5"/></defs><g fill="none" fill-rule="evenodd"><g transform="translate(2 1)"><use fill="#000" filter="url(#a)" xlink:href="#b"/><use fill="url(#c)" xlink:href="#b"/></g><path d="M19.458 22a.709.709 0 0 1 0-1.417h1.417a.708.708 0 0 0 .708-.708v-1.417a.709.709 0 0 1 1.417 0v1.417A2.125 2.125 0 0 1 20.875 22h-1.417Zm-9.916 0H8.125A2.125 2.125 0 0 1 6 19.875v-1.417a.709.709 0 0 1 1.417 0v1.417c0 .391.317.708.708.708h1.417a.709.709 0 1 1 0 1.417Zm12.75-7.792H6.708a.708.708 0 0 1 0-1.416h15.584a.708.708 0 1 1 0 1.416Zm0-4.958a.708.708 0 0 1-.709-.708V7.125a.708.708 0 0 0-.708-.708h-1.417a.709.709 0 0 1 0-1.417h1.417A2.125 2.125 0 0 1 23 7.125v1.417a.708.708 0 0 1-.708.708ZM6.708 8.98A.708.708 0 0 1 6 8.273V7.125C6 5.951 6.951 5 8.125 5h1.417a.709.709 0 0 1 0 1.417H8.125a.708.708 0 0 0-.708.708v1.147a.708.708 0 0 1-.709.709Z" fill="#FFF" fill-rule="nonzero"/></g></svg>
