<svg width="21" height="21" viewBox="0 0 21 21" xmlns="http://www.w3.org/2000/svg" fill="#FFF"><defs><clipPath id="a"><path d="M375 0v3045H0V0h375Z"/></clipPath><clipPath id="b"><path d="M20 0v20H0V0h20Z"/></clipPath><clipPath id="c"><path d="M7.617 0c4.485.008 7.9 2.939 8.498 6.928.283 1.889-.086 3.66-1.056 5.304-.278.471-.288.475.1.86l3.49 3.456c.328.326.652.657.961 1.001.545.607.513 1.458-.062 2.02-.563.55-1.414.586-1.992.033-.892-.853-1.754-1.736-2.628-2.608-.647-.645-1.294-1.29-1.934-1.942-.202-.205-.369-.235-.642-.076-2.859 1.665-5.752 1.701-8.562-.048C1.603 13.566.372 11.533.054 8.95-.335 5.802 1.404 2.277 4.69.765 5.76.273 6.884.005 7.617 0Zm.501 2.945c-2.904.002-5.172 2.272-5.172 5.177 0 2.829 2.29 5.13 5.107 5.13 2.944.001 5.198-2.24 5.203-5.17a5.124 5.124 0 0 0-5.138-5.137Z"/></clipPath></defs><g clip-path="url(#a)" transform="translate(-340 -44)"><g clip-path="url(#b)" transform="translate(340.067 44.067)"><g clip-path="url(#c)"><path d="M0 0h20v20H0V0z"/></g></g></g></svg>
