<svg width="36" height="36" viewBox="0 0 36 36" xmlns="http://www.w3.org/2000/svg" xmlns:xlink="http://www.w3.org/1999/xlink"><defs><filter x="-42.3%" y="-46.2%" width="169.2%" height="169.2%" filterUnits="objectBoundingBox" id="a"><feOffset dx="-2" dy="-3" in="SourceAlpha" result="shadowOffsetOuter1"/><feGaussianBlur stdDeviation="2.5" in="shadowOffsetOuter1" result="shadowBlurOuter1"/><feComposite in="shadowBlurOuter1" in2="SourceAlpha" operator="out" result="shadowBlurOuter1"/><feColorMatrix values="0 0 0 0 0.101960801 0 0 0 0 0.101960801 0 0 0 0 0.101960801 0 0 0 0.240302666 0" in="shadowBlurOuter1" result="shadowMatrixOuter1"/><feOffset dy="1" in="SourceAlpha" result="shadowOffsetOuter2"/><feGaussianBlur stdDeviation=".5" in="shadowOffsetOuter2" result="shadowBlurOuter2"/><feComposite in="shadowBlurOuter2" in2="SourceAlpha" operator="out" result="shadowBlurOuter2"/><feColorMatrix values="0 0 0 0 0.10193048 0 0 0 0 0.10193048 0 0 0 0 0.10193048 0 0 0 1 0" in="shadowBlurOuter2" result="shadowMatrixOuter2"/><feMerge><feMergeNode in="shadowMatrixOuter1"/><feMergeNode in="shadowMatrixOuter2"/></feMerge></filter><filter x="-30.8%" y="-34.6%" width="146.2%" height="146.2%" filterUnits="objectBoundingBox" id="d"><feGaussianBlur stdDeviation=".5" in="SourceAlpha" result="shadowBlurInner1"/><feOffset dx="1" dy="-1" in="shadowBlurInner1" result="shadowOffsetInner1"/><feComposite in="shadowOffsetInner1" in2="SourceAlpha" operator="arithmetic" k2="-1" k3="1" result="shadowInnerInner1"/><feColorMatrix values="0 0 0 0 0.129411765 0 0 0 0 0.152941176 0 0 0 0 0.219607843 0 0 0 0.937090253 0" in="shadowInnerInner1"/></filter><linearGradient x1="50%" y1="0%" x2="50%" y2="100%" id="c"><stop stop-color="#6A7DAC" offset="0%"/><stop stop-color="#505F84" offset="100%"/></linearGradient><rect id="b" x="0" y="0" width="26" height="26" rx="13"/><path id="e" d="M0 0h13.52v13.52H0z"/></defs><g fill="none" fill-rule="evenodd"><g transform="translate(7 8)"><use fill="#000" filter="url(#a)" xlink:href="#b"/><use fill="url(#c)" xlink:href="#b"/><use fill="#000" filter="url(#d)" xlink:href="#b"/><rect stroke="#505B79" stroke-width=".5" stroke-linejoin="square" x=".25" y=".25" width="25.5" height="25.5" rx="12.75"/></g><g transform="translate(13.067 14.067)"><mask id="f" fill="#fff"><use xlink:href="#e"/></mask><g/><path d="M5.444 8.959c1.99 0 3.514-1.514 3.517-3.496A3.464 3.464 0 0 0 5.488 1.99a3.46 3.46 0 0 0-3.497 3.5 3.465 3.465 0 0 0 3.453 3.468M5.149 0c3.032.005 5.341 1.987 5.745 4.683.191 1.277-.058 2.474-.714 3.586-.188.319-.194.321.067.58.785.781 1.575 1.557 2.36 2.337.221.22.44.445.65.677a.963.963 0 0 1-.042 1.366c-.381.372-.956.396-1.347.022-.603-.577-1.186-1.174-1.776-1.763-.438-.436-.875-.872-1.308-1.313-.137-.139-.25-.159-.434-.052-1.933 1.126-3.888 1.15-5.788-.032-1.478-.92-2.31-2.295-2.526-4.04C-.226 3.922.95 1.539 3.17.517 3.894.185 4.654.004 5.15 0" fill="#FFF" mask="url(#f)"/></g></g></svg>
