<svg width="10" height="14" viewBox="0 0 10 14" xmlns="http://www.w3.org/2000/svg" fill="#9EA7BB">
    <path d="M7.038 3.115 5 1.077 2.962 3.115l-.539-.538L5 0l2.577 2.577z" />
    <path d="M4.615.538h.77v8.077h-.77z" />
    <path
        d="M8.846 13.23H1.154C.5 13.23 0 12.73 0 12.078V5.154C0 4.5.5 4 1.154 4h2.692v.77H1.154c-.23 0-.385.153-.385.384v6.923c0 .23.154.385.385.385h7.692c.23 0 .385-.154.385-.385V5.154c0-.23-.154-.385-.385-.385H6.154V4h2.692C9.5 4 10 4.5 10 5.154v6.923c0 .654-.5 1.154-1.154 1.154Z" />
</svg>
