<svg width="25" height="25" viewBox="0 0 29 27" xmlns="http://www.w3.org/2000/svg" xmlns:xlink="http://www.w3.org/1999/xlink"><defs><linearGradient x1="50%" y1="0%" x2="50%" y2="100%" id="c"><stop stop-color="#6A7DAC" offset="0%"/><stop stop-color="#505F84" offset="100%"/></linearGradient><filter x="-14%" y="-10%" width="128%" height="128%" filterUnits="objectBoundingBox" id="a"><feOffset dy="1" in="SourceAlpha" result="shadowOffsetOuter1"/><feGaussianBlur stdDeviation="1" in="shadowOffsetOuter1" result="shadowBlurOuter1"/><feColorMatrix values="0 0 0 0 0 0 0 0 0 0 0 0 0 0 0 0 0 0 1 0" in="shadowBlurOuter1"/></filter><rect id="b" x="0" y="0" width="25" height="25" rx="5"/></defs><g fill="none" fill-rule="evenodd"><g transform="translate(2 1)"><use fill="#000" filter="url(#a)" xlink:href="#b"/><use fill="url(#c)" xlink:href="#b"/></g><g fill="#FFF" fill-rule="nonzero"><path d="M19.836 8H9.164c-.312 0-.605.126-.82.351A1.157 1.157 0 0 0 8 9.186v7.106c0 .656.52 1.188 1.163 1.188h3.127v2.956l3.868-2.956h3.678c.644 0 1.164-.53 1.164-1.187V9.186c0-.318-.123-.616-.345-.835A1.124 1.124 0 0 0 19.837 8Zm.585 7.696c0 .656-.52 1.186-1.163 1.186h-3.289l-3.094 2.366v-2.366H9.742c-.643 0-1.163-.53-1.163-1.186v-5.92c0-.656.52-1.186 1.163-1.186h9.516c.644 0 1.164.53 1.164 1.186v5.92Z"/><path d="M14.79 11.957a.923.923 0 0 0-.82.416.79.79 0 0 0 0 .863c.17.264.485.428.82.415.491-.012.88-.39.88-.843.008-.46-.382-.832-.88-.85Zm-3.048 0a.938.938 0 0 0-.793.422.785.785 0 0 0 0 .844.938.938 0 0 0 .793.422c.505 0 .915-.378.915-.844 0-.466-.41-.844-.915-.844Zm6.102 0a.92.92 0 0 0-.806.416.807.807 0 0 0 0 .857.92.92 0 0 0 .806.415c.499-.006.895-.384.895-.844.007-.46-.39-.831-.895-.844Z"/></g></g></svg>
