<svg width="29" height="29" viewBox="0 0 29 29" xmlns="http://www.w3.org/2000/svg"><defs><clipPath id="a"><path d="M375 0v667H0V0h375Z"/></clipPath><clipPath id="c"><path d="M20 0a5 5 0 0 1 5 5v15a5 5 0 0 1-5 5H5a5 5 0 0 1-5-5V5a5 5 0 0 1 5-5h15Z"/></clipPath><clipPath id="e"><path d="M9.57 6.895c.073 0 .133.06.133.133v.828c0 .074-.06.133-.133.133H8.41v3.017h4.574v-.597c0-.073.06-.133.133-.133h.794c.073 0 .133.06.133.133l-.01 1.066a.53.53 0 0 1-.53.525H7.88a.53.53 0 0 1-.53-.53l.013-4.046a.53.53 0 0 1 .53-.529H9.57Zm2.35-1.348 1.762 1.613-1.761 1.614v-.996c-1.057-.013-1.937 1.444-1.937 2.206 0-.977.158-3.419 1.937-3.422V5.547ZM7.235 0a.53.53 0 0 1 .53.53l.008 4.044a.53.53 0 0 1-.53.531H4.415v3.648l1.79.002c.059 0 .108.039.126.091l.007.042-.003.822c0 .073-.06.132-.132.132H3.885a.53.53 0 0 1-.53-.53V5.105H.53a.53.53 0 0 1-.53-.53L.006.53A.53.53 0 0 1 .536 0h6.698ZM6.72 1.09H1.051v2.929h5.668v-2.93Z"/></clipPath><linearGradient id="d" x1="12.5" y1="0" x2="12.5" y2="25" gradientUnits="userSpaceOnUse"><stop stop-color="#697DAB" offset="0%"/><stop stop-color="#505F84" offset="100%"/></linearGradient><filter id="b" x="-24.138%" y="-20.69%" filterUnits="userSpaceOnUse" width="134.483%" height="134.483%"><feGaussianBlur stdDeviation="1" in="SourceAlpha" result="i2"/><feOffset dy="1" in="i2" result="i3"/><feColorMatrix values="0 0 0 0.0 0 0 0 0 0.0 0 0 0 0 0.0 0 0 0 0 1.0 0" in="i3"/></filter></defs><g clip-path="url(#a)" transform="translate(-41 -365)"><path d="M5 0h15a5 5 0 0 1 5 5v15a5 5 0 0 1-5 5H5a5 5 0 0 1-5-5V5a5 5 0 0 1 5-5Z" filter="url(#b)" transform="translate(43 366)"/><g clip-path="url(#c)" transform="translate(43 366)"><path fill="url(#d)" d="M0 0h25v25H0V0z"/></g><g clip-path="url(#e)" transform="translate(48 372)"><path fill="#FFF" d="M0 0h14.044v12H0V0z"/></g></g></svg>
