<svg width="29" height="29" viewBox="0 0 29 29" xmlns="http://www.w3.org/2000/svg"><defs><clipPath id="a"><path d="M375 0v667H0V0h375Z"/></clipPath><clipPath id="c"><path d="M20 0a5 5 0 0 1 5 5v15a5 5 0 0 1-5 5H5a5 5 0 0 1-5-5V5a5 5 0 0 1 5-5h15Z"/></clipPath><clipPath id="e"><path d="M13.5 6.895a.53.53 0 0 1 .53.529l.014 4.044a.53.53 0 0 1-.53.532H7.89a.53.53 0 0 1-.53-.525l-.01-1.065c0-.074.06-.134.132-.134h.795c.073 0 .132.06.132.133v.597h4.575V7.989h-1.16a.133.133 0 0 1-.133-.133v-.828c0-.074.06-.133.133-.133ZM7.234 0a.53.53 0 0 1 .53.53l.008 4.044a.53.53 0 0 1-.53.531H4.415v3.648l1.79.002c.059 0 .108.039.126.091l.007.042-.003.822c0 .073-.06.132-.132.132H3.885a.53.53 0 0 1-.53-.53V5.105H.53a.53.53 0 0 1-.53-.53L.006.53A.53.53 0 0 1 .536 0h6.698Zm2.844 7.853h1.015L9.48 9.614l-1.614-1.76h.996c.013-1.057-1.444-1.938-2.206-1.938.977 0 3.419.159 3.422 1.937ZM6.719 1.09H1.051v2.929h5.668v-2.93Z"/></clipPath><linearGradient id="d" x1="12.5" y1="0" x2="12.5" y2="25" gradientUnits="userSpaceOnUse"><stop stop-color="#697DAB" offset="0%"/><stop stop-color="#505F84" offset="100%"/></linearGradient><filter id="b" x="-24.138%" y="-20.69%" filterUnits="userSpaceOnUse" width="134.483%" height="134.483%"><feGaussianBlur stdDeviation="1" in="SourceAlpha" result="i2"/><feOffset dy="1" in="i2" result="i3"/><feColorMatrix values="0 0 0 0.0 0 0 0 0 0.0 0 0 0 0 0.0 0 0 0 0 1.0 0" in="i3"/></filter></defs><g clip-path="url(#a)" transform="translate(-41 -325)"><path d="M5 0h15a5 5 0 0 1 5 5v15a5 5 0 0 1-5 5H5a5 5 0 0 1-5-5V5a5 5 0 0 1 5-5Z" filter="url(#b)" transform="translate(43 326)"/><g clip-path="url(#c)" transform="translate(43 326)"><path fill="url(#d)" d="M0 0h25v25H0V0z"/></g><g clip-path="url(#e)" transform="translate(48 332)"><path fill="#FFF" d="M0 0h14.044v12H0V0z"/></g></g></svg>
