<svg viewBox="0 0 104 108" xmlns="http://www.w3.org/2000/svg"><defs><clipPath id="a"><path d="M375 0v667H0V0h375Z"/></clipPath><clipPath id="d"><path d="M79 0c11.598 0 21 9.402 21 21v58c0 11.598-9.402 21-21 21H21C9.402 100 0 90.598 0 79V21C0 9.402 9.402 0 21 0h58Z"/></clipPath><clipPath id="g"><path d="M44.913 51.097c1.393-.35 1.916 1.761.53 2.108-.748.187-1.585.314-2.354.35-1.35.113-1.623-2.044-.117-2.17.66-.04 1.299-.132 1.94-.288Zm.764-23.118c1.213.324 2.34.81 3.363 1.427a12.95 12.95 0 0 1 2.265 1.736l-.06-.575a1.081 1.081 0 1 1 2.152-.22l.31 3c.012.11.006.22-.015.323a1.08 1.08 0 0 1-1.042.987l-3.015.107a1.081 1.081 0 0 1-.068-2.16l.121-.004c-.537-.5-1.129-.947-1.768-1.334a10.86 10.86 0 0 0-2.804-1.19 10.808 10.808 0 0 0-8.224 1.081 10.792 10.792 0 0 0-5.052 6.582 10.805 10.805 0 0 0 1.08 8.227 10.818 10.818 0 0 0 2.71 3.125 11.245 11.245 0 0 0 3.874 1.927 1.086 1.086 0 0 1-.56 2.098 12.977 12.977 0 0 1-7.899-6.063 12.967 12.967 0 0 1-1.304-9.873 12.97 12.97 0 0 1 6.064-7.898 12.956 12.956 0 0 1 9.872-1.303Zm4.315 20.232c1.042-1.041 2.546.53 1.561 1.514-.536.553-1.179 1.1-1.814 1.537-1.172.82-2.417-.961-1.246-1.782a9.975 9.975 0 0 0 1.5-1.27ZM8.726 4.568v5.586c0 1.553.723 2.926 1.889 3.88a5.856 5.856 0 0 0 3.695 1.309c1.4 0 2.711-.5 3.697-1.308 1.165-.955 1.887-2.328 1.887-3.88V4.567h8.455v5.586c0 1.553.721 2.926 1.887 3.88a5.859 5.859 0 0 0 3.696 1.309c1.4 0 2.712-.5 3.696-1.308 1.166-.955 1.889-2.328 1.889-3.88V4.567h4.37a4.53 4.53 0 0 1 3.205 1.335 4.516 4.516 0 0 1 1.336 3.205v15.557a16.981 16.981 0 0 0-1.94-.618V17.71H1.94v26.406a3.581 3.581 0 0 0 3.57 3.57h21.72c.326.67.697 1.317 1.109 1.938h-23.8a4.527 4.527 0 0 1-3.203-1.333A4.531 4.531 0 0 1 0 45.085V9.107c0-1.247.511-2.38 1.333-3.203a4.528 4.528 0 0 1 3.206-1.336h4.187Zm35.25 29.146-.052 1.366c.911.057 1.707.148 2.39.274l-.495 2.643h-2.56c-.398 0-.663.063-.794.188-.13.125-.201.364-.213.716l1.075.12c1.308.147 2.21.483 2.705 1.007.494.523.742 1.2.742 2.03 0 .83-.086 1.494-.257 1.987-.17.494-.415.873-.733 1.135-.58.443-1.342.7-2.285.768l-.052 1.722h-2.201l.069-1.722c-1.081-.079-1.997-.217-2.747-.41l.494-2.712c.944.25 1.933.375 2.969.375.432 0 .836-.023 1.211-.068v-.717l-1.058-.12c-1.365-.136-2.275-.534-2.73-1.194-.398-.579-.596-1.336-.596-2.269 0-1.227.252-2.12.76-2.678.505-.558 1.218-.9 2.14-1.023l.05-1.418h2.167Zm8.865 9.365c.354-1.416 2.456-.858 2.114.506-.207.793-.43 1.49-.762 2.242-.604 1.329-2.57.4-1.987-.88.284-.643.447-1.196.635-1.868Zm-26.222-8.646a16.783 16.783 0 0 0-1.031 7.067h-4.3a.832.832 0 0 1-.829-.827v-5.412c0-.455.374-.828.83-.828h5.33Zm-11.945 0c.456 0 .83.375.83.828v5.412a.833.833 0 0 1-.83.827H8.171a.831.831 0 0 1-.828-.827v-5.412c0-.455.373-.828.828-.828h6.503Zm37.953 2.795c-.443-1.33 1.607-2.052 2.07-.664.244.772.407 1.51.514 2.31l.009.118c0 1.347-1.937 1.533-2.165.162a11.343 11.343 0 0 0-.428-1.926ZM27.792 22.926c.456 0 .829.374.829.828v5.411a.833.833 0 0 1-.829.829H21.29a.833.833 0 0 1-.83-.829v-5.41a.83.83 0 0 1 .83-.829h6.503Zm-13.118 0c.456 0 .83.374.83.828v5.411a.834.834 0 0 1-.83.829H8.171a.832.832 0 0 1-.828-.829v-5.41a.83.83 0 0 1 .828-.829h6.503Zm26.236 0c.385 0 .71.267.803.623a16.719 16.719 0 0 0-8.136 2.46v-2.255a.83.83 0 0 1 .829-.828h6.504ZM33.932 0c1.213 0 2.193.806 2.193 1.797v8.357c0 .991-.98 1.797-2.193 1.797-1.21 0-2.191-.806-2.191-1.797V1.797C31.74.806 32.72 0 33.932 0ZM14.31 0c1.212 0 2.192.806 2.192 1.797v8.357c0 .991-.98 1.797-2.192 1.797-1.211 0-2.192-.806-2.192-1.797V1.797c0-.991.98-1.797 2.192-1.797Z"/></clipPath><filter id="b" x="-7.692%" y="-5.769%" filterUnits="userSpaceOnUse" width="111.538%" height="111.538%"><feGaussianBlur stdDeviation="1" in="SourceAlpha" result="i2"/><feOffset dy="2" in="i2" result="i3"/><feColorMatrix values="0 0 0 0.0 0 0 0 0 0.0 0 0 0 0 0.0 0 0 0 0 0.5 0" in="i3"/></filter><filter id="c" x="-7.692%" y="-9.615%" filterUnits="userSpaceOnUse" width="111.538%" height="111.538%"><feGaussianBlur stdDeviation="1" in="SourceAlpha" result="i5"/><feOffset dy="-2" in="i5" result="i6"/><feColorMatrix values="0 0 0 0.0 0 0 0 0 0.0 0 0 0 0 0.0 0 0 0 0 0.5 0" in="i6"/></filter><filter id="f" x="-11.607%" y="-11.607%" filterUnits="userSpaceOnUse" width="112.5%" height="112.5%"><feGaussianBlur stdDeviation="1.5" in="SourceAlpha" result="i10"/><feOffset dy="1" in="i10" result="i11"/><feColorMatrix values="0 0 0 0.286211758852005 0 0 0 0 0.3313559293746948 0 0 0 0 0.4495813846588135 0 0 0 0 1.0 0" in="i11"/></filter><linearGradient id="e" x1="50" y1="0" x2="50" y2="100" gradientUnits="userSpaceOnUse"><stop stop-color="#3D4863" offset="0%"/><stop stop-color="#1C2234" offset="100%"/></linearGradient></defs><g clip-path="url(#a)" transform="translate(-136 -80)"><path d="M21 0h58c11.598 0 21 9.402 21 21v58c0 11.598-9.402 21-21 21H21C9.402 100 0 90.598 0 79V21C0 9.402 9.402 0 21 0Z" filter="url(#b)" transform="translate(138 84)"/><path d="M21 0h58c11.598 0 21 9.402 21 21v58c0 11.598-9.402 21-21 21H21C9.402 100 0 90.598 0 79V21C0 9.402 9.402 0 21 0Z" filter="url(#c)" transform="translate(138 84)"/><g clip-path="url(#d)" transform="translate(138 84)"><path fill="url(#e)" d="M0 0h100v100H0V0z"/><path d="M103-4v106H-3V-4h106ZM79 0H21C9.402 0 0 9.402 0 21v58c0 11.598 9.402 21 21 21h58c11.598 0 21-9.402 21-21V21c0-11.598-9.402-21-21-21Z" style="mix-blend-mode:screen" filter="url(#f)"/></g><g clip-path="url(#g)" transform="translate(160 107)"><path fill="#FFF" d="M0 0h55.22v53.56H0V0z"/></g></g></svg>
