<svg width="18" height="17" viewBox="0 0 18 17" xmlns="http://www.w3.org/2000/svg"  fill="#FFF"><defs><clipPath id="a"><path d="M375 0v667H0V0h375Z"/></clipPath><clipPath id="b"><path d="M13.973 15.897c.434-.109.596.548.165.656a3.885 3.885 0 0 1-.732.11c-.42.034-.505-.637-.036-.676.205-.013.404-.041.603-.09Zm.238-7.192a4.057 4.057 0 0 1 1.751.984l-.018-.179a.336.336 0 1 1 .669-.068l.097.933a.333.333 0 0 1-.005.1.336.336 0 0 1-.325.307l-.937.034a.336.336 0 0 1-.022-.672l.038-.001a3.374 3.374 0 0 0-3.981-.45 3.357 3.357 0 0 0-1.572 2.048 3.378 3.378 0 0 0 1.179 3.532c.342.268.786.488 1.205.6a.338.338 0 0 1-.174.652 4.037 4.037 0 0 1-2.458-1.886 4.034 4.034 0 0 1-.405-3.072 4.035 4.035 0 0 1 1.886-2.457 4.03 4.03 0 0 1 3.072-.405Zm1.343 6.294c.324-.324.791.165.485.471a3.84 3.84 0 0 1-.564.479c-.365.255-.752-.3-.388-.555.16-.11.332-.254.467-.395ZM2.714 1.421v1.738c0 .483.226.91.588 1.207a1.824 1.824 0 0 0 2.3 0c.363-.296.587-.724.587-1.207V1.421h2.63v1.738c0 .483.225.91.588 1.207a1.823 1.823 0 0 0 2.3 0 1.55 1.55 0 0 0 .587-1.207V1.421h1.36c.388 0 .741.16.997.415.257.256.416.61.416.998v4.84a5.283 5.283 0 0 0-.604-.193V5.51H.603v8.215c0 .61.5 1.11 1.111 1.11h6.758a5 5 0 0 0 .344.604H1.412c-.387 0-.74-.159-.996-.415A1.41 1.41 0 0 1 0 14.027V2.833c0-.388.159-.74.415-.996.256-.257.61-.416.997-.416h1.303Zm10.968 9.068-.017.425c.284.018.532.046.744.085l-.154.823h-.796c-.124 0-.207.02-.247.058-.04.039-.063.113-.067.223l.335.037c.407.046.687.15.841.313.154.163.231.374.231.632s-.027.465-.08.618a.769.769 0 0 1-.228.353c-.18.138-.417.218-.71.24l-.017.535h-.685l.022-.536a4.92 4.92 0 0 1-.855-.127l.154-.844a3.592 3.592 0 0 0 1.3.096v-.224l-.329-.037c-.425-.042-.707-.166-.849-.371-.124-.18-.186-.416-.186-.706 0-.382.079-.66.237-.833.157-.174.379-.28.666-.319l.015-.44h.675Zm2.758 2.914c.11-.44.764-.267.657.157a4.425 4.425 0 0 1-.236.698c-.188.413-.8.124-.619-.274a3.9 3.9 0 0 0 .198-.581Zm-8.158-2.69a5.221 5.221 0 0 0-.321 2.199H6.623a.259.259 0 0 1-.258-.258V10.97c0-.141.116-.257.258-.257h1.659Zm-3.717 0a.26.26 0 0 1 .258.257v1.684a.26.26 0 0 1-.258.258H2.542a.259.259 0 0 1-.258-.258V10.97a.26.26 0 0 1 .258-.257h2.023Zm11.808.87c-.138-.415.5-.64.644-.207.076.24.127.47.16.718l.003.037c0 .42-.603.477-.673.05a3.529 3.529 0 0 0-.134-.599Zm-7.726-4.45c.142 0 .257.116.257.257v1.684a.26.26 0 0 1-.257.258H6.623a.26.26 0 0 1-.258-.258V7.39c0-.142.116-.257.258-.257h2.024Zm-4.082 0c.142 0 .258.116.258.257v1.684a.26.26 0 0 1-.258.258H2.542a.259.259 0 0 1-.258-.258V7.39c0-.142.117-.257.258-.257h2.023Zm8.163 0c.12 0 .22.083.25.194a5.2 5.2 0 0 0-2.531.765V7.39c0-.142.116-.257.257-.257h2.024ZM10.557 0c.377 0 .682.25.682.559v2.6c0 .309-.305.56-.682.56-.377 0-.682-.251-.682-.56V.56c0-.308.305-.559.682-.559ZM4.452 0c.377 0 .682.25.682.559v2.6c0 .309-.305.56-.682.56-.377 0-.682-.251-.682-.56V.56c0-.308.305-.559.682-.559Z"/></clipPath></defs><g clip-path="url(#a)" transform="translate(-94 -605)"><g clip-path="url(#b)" transform="translate(94 605.273)"><path d="M0 0h17.18v16.664H0V0z"/></g></g></svg>
