<svg width="29" height="29" viewBox="0 0 29 29" xmlns="http://www.w3.org/2000/svg"><defs><clipPath id="a"><path d="M375 0v723H0V0h375Z"/></clipPath><clipPath id="c"><path d="M20 0a5 5 0 0 1 5 5v15a5 5 0 0 1-5 5H5a5 5 0 0 1-5-5V5a5 5 0 0 1 5-5h15Z"/></clipPath><clipPath id="e"><path d="M1.824.183c.272.31.775.29 1.07-.033A.408.408 0 0 1 3.25.003c.183.012.373-.006.554.03.503.096.85.518.868 1.051.012.34.006.681.003 1.025 0 .202-.079.277-.29.277H.322c-.268 0-.32-.051-.32-.313 0-.31-.003-.621 0-.934C.007.476.447.027 1.111.006c.09-.003.18.006.27-.003a.48.48 0 0 1 .443.18Z"/></clipPath><clipPath id="f"><path d="M.783.02c.06.006.121.066.172.114.329.31.72.301 1.037-.027.045-.048.114-.093.175-.096.18-.012.364-.019.542.006.512.066.877.47.898.994.012.325.006.654.003.98-.003.159-.076.24-.226.24-.747.003-1.495 0-2.245 0-.012 0-.021-.006-.048-.018 0-.156-.003-.322 0-.485C1.115.948.762.405.045.098.033.092.021.083 0 .068.262-.022.524-.004.783.02Z"/></clipPath><clipPath id="g"><path d="M1.703.19c.223.253.696.217.934-.048a.367.367 0 0 1 .328-.139c.202.012.407.015.61.021l.008.055c-.32.114-.587.3-.783.578a1.52 1.52 0 0 0-.287.87c-.003.22 0 .44 0 .664-.03.006-.048.012-.069.012-.729 0-1.455.003-2.184 0-.187 0-.257-.07-.257-.253a33.222 33.222 0 0 1 0-.95C.016.417.44.004 1.022.004c.06 0 .12.003.18 0 .197-.015.353.018.5.187Z"/></clipPath><clipPath id="h"><path d="M.362.022c1.15.356 2.112 1 2.907 1.902.079.087.139.117.263.084.52-.145 1.081.21 1.202.75a.986.986 0 0 1-.766 1.19c-.518.115-1.084-.262-1.187-.792-.06-.307.018-.582.226-.838A5.645 5.645 0 0 0 1.193.863C.883.706.551.583.226.453.033.378-.034.296.016.155.062.013.18-.032.361.022Z"/></clipPath><clipPath id="i"><path d="M1.848.22a6.355 6.355 0 0 1-.196 3.487c-.045.13-.027.202.063.299.302.325.356.72.169 1.081-.199.38-.59.594-1.006.549a.99.99 0 0 1-.853-.745c-.142-.6.34-1.271 1.003-1.205.051.003.094.006.15.012.32-.838.432-1.693.353-2.57-.024-.274-.08-.545-.123-.817-.024-.153.042-.283.166-.307.126-.024.24.063.274.217Z"/></clipPath><clipPath id="j"><path d="M4.5.007c.454.048.849.452.885.91a.992.992 0 0 1-.744 1.033c-.491.127-.943-.114-1.2-.65a6.253 6.253 0 0 0-1.907.68 5.642 5.642 0 0 0-1.15.841c-.082.075-.182.12-.272.054A.346.346 0 0 1 0 2.652c-.006-.048.052-.117.097-.16.88-.822 1.925-1.337 3.106-1.578.118-.025.181-.06.217-.193.13-.485.573-.769 1.08-.714Z"/></clipPath><clipPath id="k"><path d="M5.325.063c.085.096.067.235-.05.346a6.2 6.2 0 0 1-2.963 1.549c-.208.045-.337.096-.413.331-.144.45-.623.687-1.087.603a.994.994 0 0 1-.81-.922.984.984 0 0 1 .72-1.006.996.996 0 0 1 1.15.49c.024.046.045.091.073.151.656-.126 1.286-.32 1.853-.66.4-.24.768-.539 1.15-.813.016-.012.03-.027.046-.04.13-.11.253-.123.331-.03Z"/></clipPath><clipPath id="l"><path d="M1.843.457c.337.549.096 1.453-.799 1.528-.072.006-.148 0-.244 0-.178.48-.286.976-.338 1.489a5.936 5.936 0 0 0 .115 1.9c.033.152-.024.263-.142.29-.132.03-.244-.048-.277-.205a6.34 6.34 0 0 1 .208-3.528c.045-.133.033-.208-.075-.301C.023 1.394-.023 1.078.05.747.134.37.484.047.857.008c.413-.045.763.09.986.45Z"/></clipPath><clipPath id="m"><path d="M.935.002c.449-.024.774.178.973.572.184.365.12.709-.12 1.028-.01.012-.012.027-.024.048.37.452.804.835 1.295 1.154.452.296.934.525 1.447.696.033.012.066.021.1.033.102.046.186.112.165.238-.015.1-.157.184-.274.16-.103-.02-.202-.057-.302-.09-1.06-.37-1.95-.998-2.687-1.838-.076-.085-.133-.1-.242-.07-.388.106-.726-.009-.994-.3C.004 1.336-.078.986.08.612.236.24.525.027.935.003Z"/></clipPath><clipPath id="n"><path d="M1.208 0a1.201 1.201 0 0 1 1.215 1.196A1.222 1.222 0 0 1 1.21 2.42 1.225 1.225 0 0 1 0 1.21C0 .548.545.003 1.208 0Z"/></clipPath><clipPath id="o"><path d="M1.127 0c.624 0 1.133.515 1.124 1.133-.015.636-.497 1.115-1.124 1.109A1.127 1.127 0 0 1 0 1.115 1.127 1.127 0 0 1 1.127 0Z"/></clipPath><clipPath id="p"><path d="M1.127 0a1.121 1.121 0 1 1-.013 2.24A1.121 1.121 0 0 1 1.127 0Z"/></clipPath><linearGradient id="d" x1="12.5" y1="0" x2="12.5" y2="25" gradientUnits="userSpaceOnUse"><stop stop-color="#697DAB" offset="0%"/><stop stop-color="#505F84" offset="100%"/></linearGradient><filter id="b" x="-24.138%" y="-20.69%" filterUnits="userSpaceOnUse" width="134.483%" height="134.483%"><feGaussianBlur stdDeviation="1" in="SourceAlpha" result="i2"/><feOffset dy="1" in="i2" result="i3"/><feColorMatrix values="0 0 0 0.0 0 0 0 0 0.0 0 0 0 0 0.0 0 0 0 0 1.0 0" in="i3"/></filter></defs><g clip-path="url(#a)" transform="translate(-41 -215)"><path d="M5 0h15a5 5 0 0 1 5 5v15a5 5 0 0 1-5 5H5a5 5 0 0 1-5-5V5a5 5 0 0 1 5-5Z" filter="url(#b)" transform="translate(43 216)"/><g clip-path="url(#c)" transform="translate(43 216)"><path fill="url(#d)" d="M0 0h25v25H0V0z"/></g><g clip-path="url(#e)" transform="translate(52.893 228.22)"><path fill="#FFF" d="M0 0h4.679v2.386H0V0z"/></g><g clip-path="url(#f)" transform="translate(56.911 227.755)"><path fill="#FFF" d="M0 0h3.614v2.233H0V0z"/></g><g clip-path="url(#g)" transform="translate(49.938 227.783)"><path fill="#FFF" d="M0 0h3.583v2.204H0V0z"/></g><g clip-path="url(#h)" transform="translate(57.107 222.048)"><path fill="#FFF" d="M0 0h4.76v3.97H0V0z"/></g><g clip-path="url(#i)" transform="translate(59.996 226.64)"><path fill="#FFF" d="M0 0h2.004v5.642H0V0z"/></g><g clip-path="url(#j)" transform="translate(51.008 221)"><path fill="#FFF" d="M0 0h5.388v2.907H0V0z"/></g><g clip-path="url(#k)" transform="translate(54.587 232.635)"><path fill="#FFF" d="M0 0h5.378v2.909H0V0z"/></g><g clip-path="url(#l)" transform="translate(49 224.234)"><path fill="#FFF" d="M0 0h1.988v5.67H0V0z"/></g><g clip-path="url(#m)" transform="translate(49.109 230.526)"><path fill="#FFF" d="M0 0h4.774v3.935H0V0z"/></g><g clip-path="url(#n)" transform="translate(54.015 225.761)"><path fill="#FFF" d="M0 0h2.423v2.42H0V0z"/></g><g clip-path="url(#o)" transform="translate(50.975 225.517)"><path fill="#FFF" d="M0 0h2.251v2.242H0V0z"/></g><g clip-path="url(#p)" transform="translate(57.234 225.517)"><path fill="#FFF" d="M0 0h2.242v2.242H0V0z"/></g></g></svg>
