<svg width="29" height="29" viewBox="0 0 29 29" xmlns="http://www.w3.org/2000/svg"><defs><clipPath id="a"><path d="M375 0v723H0V0h375Z"/></clipPath><clipPath id="c"><path d="M20 0a5 5 0 0 1 5 5v15a5 5 0 0 1-5 5H5a5 5 0 0 1-5-5V5a5 5 0 0 1 5-5h15Z"/></clipPath><clipPath id="e"><path d="m6.285 0 .15.037.306.034c2.313.349 4.248 2.151 4.762 4.437a5.806 5.806 0 0 1-.308 3.584c-.02.051-.043.1-.076.176-.066-.143-.115-.265-.178-.38-.153-.267-.166-.521-.09-.837.606-2.495-.649-4.981-3.003-6C5.92.221 3.57.692 2.118 2.215 1.036 3.347.555 4.705.667 6.262c.069.944.394 1.805.947 2.579.025.035.043.099.107.028.226-.252.53-.372.842-.471.186-.059.37-.122.558-.173a2.65 2.65 0 0 0 1.059-.58c.038-.034.076-.064.127-.11.15.69.272 1.364.32 2.06.034-.062.067-.123.097-.187.092-.193.217-.364.377-.504.049-.043.074-.043.105.013.07.13.147.257.219.387a.313.313 0 0 1 .025.244c-.102.433-.143.878-.19 1.319-.011.091.017.117.103.122.306.02.611.02.914 0 .09-.005.122-.025.112-.127-.05-.43-.084-.86-.186-1.28a.42.42 0 0 1 .046-.329c.064-.11.13-.219.191-.328.03-.056.056-.07.11-.018.142.13.26.277.348.448.026.05.026.089.005.14-.109.262-.06.48.15.68.334.307.67.613 1.004.918l.084.08a5.255 5.255 0 0 1-.978.328A5.828 5.828 0 0 1 .025 6.377C.023 6.354.033 6.323 0 6.313V5.32c.05-.104.04-.219.059-.328.19-1.248.717-2.33 1.6-3.23A5.735 5.735 0 0 1 4.79.097c.193-.036.391-.036.58-.094C5.674 0 5.979 0 6.285 0Z"/></clipPath><clipPath id="f"><path d="M2.782 0c.054.008.051.053.066.084.242.532.484 1.064.723 1.596.03.069.064.102.145.112.58.061 1.164.127 1.744.194.036.005.077-.008.107.025-.01.04-.046.059-.074.084-.425.39-.85.779-1.28 1.163-.071.064-.084.122-.066.206.13.609.254 1.22.379 1.828H4.5c-.01-.01-.02-.025-.033-.033-.532-.303-1.064-.606-1.596-.911-.068-.041-.117-.018-.173.012-.501.288-1.005.573-1.51.86-.035.021-.08.029-.099.072-.007-.002-.015-.002-.022-.002.122-.601.244-1.202.371-1.803.023-.107.005-.175-.081-.25C.932 2.862.514 2.475.094 2.093L0 2.003c.137-.015.252-.03.364-.043.504-.056 1.01-.114 1.517-.168.077-.008.107-.04.135-.104.252-.563.51-1.125.766-1.688Z"/></clipPath><clipPath id="g"><path d="M2.75.113c.346.125.585.346.659.72.01.051.012.107.096.102.232-.012.364.115.428.321.173.547.135 1.067-.206 1.563.24.036.247.214.237.402a2.3 2.3 0 0 1-.145.68c-.046.122-.12.216-.247.25-.067.017-.087.053-.09.116a6.346 6.346 0 0 1-.022.316.754.754 0 0 1-.23.468.271.271 0 0 0-.086.224c.005.158 0 .314.003.471A.35.35 0 0 1 3 6.042c-.305.234-.613.468-.916.705-.056.043-.09.033-.14-.005-.298-.232-.596-.461-.896-.69a.376.376 0 0 1-.16-.329v-.521a.173.173 0 0 0-.054-.135.852.852 0 0 1-.262-.626c0-.051-.013-.102-.01-.153.005-.092-.026-.148-.12-.176-.076-.023-.125-.086-.15-.16a2.56 2.56 0 0 1-.173-.84c-.008-.18.04-.242.219-.303C-.043 2.19-.051 1.529.066.85.074.811.074.76.14.801.27.878.395.843.51.764.67.653.821.533.98.419 1.52.022 2.1-.121 2.75.113Z"/></clipPath><clipPath id="h"><path d="M.346.037c.36.331.78.55 1.25.672.17.046.339.105.51.156.06.017.078.045.045.106-.048.09-.094.181-.125.278-.04.135-.124.183-.264.196-.482.046-.96.104-1.441.153A.983.983 0 0 0 0 1.715c.033-.59.158-1.15.267-1.71.041-.016.059.014.08.032Z"/></clipPath><linearGradient id="d" x1="12.5" y1="0" x2="12.5" y2="25" gradientUnits="userSpaceOnUse"><stop stop-color="#697DAB" offset="0%"/><stop stop-color="#505F84" offset="100%"/></linearGradient><filter id="b" x="-24.138%" y="-20.69%" filterUnits="userSpaceOnUse" width="134.483%" height="134.483%"><feGaussianBlur stdDeviation="1" in="SourceAlpha" result="i2"/><feOffset dy="1" in="i2" result="i3"/><feColorMatrix values="0 0 0 0.0 0 0 0 0 0.0 0 0 0 0 0.0 0 0 0 0 1.0 0" in="i3"/></filter></defs><g clip-path="url(#a)" transform="translate(-41 -255)"><path d="M5 0h15a5 5 0 0 1 5 5v15a5 5 0 0 1-5 5H5a5 5 0 0 1-5-5V5a5 5 0 0 1 5-5Z" filter="url(#b)" transform="translate(43 256)"/><g clip-path="url(#c)" transform="translate(43 256)"><path fill="url(#d)" d="M0 0h25v25H0V0z"/></g><g clip-path="url(#e)" transform="translate(49 262)"><path fill="#FFF" d="M0 0h11.654v11.657H0V0z"/></g><g clip-path="url(#f)" transform="translate(56.433 269.738)"><path fill="#FFF" d="M0 0h5.567v5.292H0V0z"/></g><g clip-path="url(#g)" transform="translate(52.726 263.64)"><path fill="#FFF" d="M0 0h4.034v6.775H0V0z"/></g><g clip-path="url(#h)" transform="translate(56.071 269.559)"><path fill="#FFF" d="M0 0h2.167v1.715H0V0z"/></g></g></svg>
