<svg width="29" height="29" viewBox="0 0 29 29" xmlns="http://www.w3.org/2000/svg" xmlns:xlink="http://www.w3.org/1999/xlink"><defs><linearGradient x1="50%" y1="0%" x2="50%" y2="100%" id="c"><stop stop-color="#6A7DAC" offset="0%"/><stop stop-color="#505F84" offset="100%"/></linearGradient><filter x="-14%" y="-10%" width="128%" height="128%" filterUnits="objectBoundingBox" id="a"><feOffset dy="1" in="SourceAlpha" result="shadowOffsetOuter1"/><feGaussianBlur stdDeviation="1" in="shadowOffsetOuter1" result="shadowBlurOuter1"/><feColorMatrix values="0 0 0 0 0 0 0 0 0 0 0 0 0 0 0 0 0 0 1 0" in="shadowBlurOuter1"/></filter><rect id="b" x="0" y="0" width="25" height="25" rx="5"/></defs><g fill="none" fill-rule="evenodd"><g transform="translate(2 1)"><use fill="#000" filter="url(#a)" xlink:href="#b"/><use fill="url(#c)" xlink:href="#b"/></g><g fill="#FFF" fill-rule="nonzero"><path d="M11.934 19.62c.047.15.121.27.094.345-.066.205-.14.475-.298.55-.15.074-.512-.01-.587-.14a22.987 22.987 0 0 1-1.042-2.02c-.056-.13.027-.42.148-.522.121-.102.364-.102.55-.083.111.009.214.12.307.195 3.044 2.17 7.205 1.006 8.685-2.439.066-.14.121-.28.177-.428.121-.307.345-.456.661-.345.335.112.466.41.298.708-.4.763-.735 1.592-1.275 2.243-1.806 2.17-4.636 2.914-7.327 2.04-.102-.038-.223-.057-.39-.103Zm5.13-12.725c-.037-.12-.112-.233-.094-.298.083-.205.158-.493.326-.577.14-.065.502.037.586.177a19.82 19.82 0 0 1 1.005 1.983c.066.14-.046.456-.176.55-.13.101-.42.092-.587.027-.27-.112-.484-.326-.745-.475-2.922-1.722-6.813-.447-8.144 2.663-.075.167-.15.344-.214.512-.121.335-.373.465-.699.344-.307-.12-.381-.382-.279-.689a6.456 6.456 0 0 1 2.495-3.379c1.89-1.313 3.956-1.601 6.153-.894.075.028.15.047.224.065.028 0 .056-.009.149-.009Z"/><path d="M11.394 10.684h.997v3.658h2.076v1.006h-3.073v-4.664Zm3.147 1.974c.317-.187.586-.336.903-.522.382.652.754 1.276 1.154 1.974.391-.68.754-1.294 1.145-1.964.298.167.578.316.903.502-.307.54-.595 1.061-.893 1.573-.121.215-.28.42-.363.643-.187.503-.568.605-1.024.521-.13-.028-.298-.102-.363-.205-.494-.81-.96-1.647-1.462-2.522Z"/></g></g></svg>
