<svg width="29" height="29" viewBox="0 0 29 29" xmlns="http://www.w3.org/2000/svg" xmlns:xlink="http://www.w3.org/1999/xlink"><defs><linearGradient x1="50%" y1="0%" x2="50%" y2="100%" id="c"><stop stop-color="#6A7DAC" offset="0%"/><stop stop-color="#505F84" offset="100%"/></linearGradient><filter x="-14%" y="-10%" width="128%" height="128%" filterUnits="objectBoundingBox" id="a"><feOffset dy="1" in="SourceAlpha" result="shadowOffsetOuter1"/><feGaussianBlur stdDeviation="1" in="shadowOffsetOuter1" result="shadowBlurOuter1"/><feColorMatrix values="0 0 0 0 0 0 0 0 0 0 0 0 0 0 0 0 0 0 1 0" in="shadowBlurOuter1"/></filter><rect id="b" x="0" y="0" width="25" height="25" rx="5"/></defs><g fill="none" fill-rule="evenodd"><g transform="translate(2 1)"><use fill="#000" filter="url(#a)" xlink:href="#b"/><use fill="url(#c)" xlink:href="#b"/></g><path d="M20.823 11.12c-.641-.591-1.528-1.495-2.25-2.137l-.043-.03a.816.816 0 0 0-.237-.132c-1.743-.325-9.848-1.84-10.007-1.82a.3.3 0 0 0-.124.046l-.04.033a.477.477 0 0 0-.112.18L8 7.287v.175c.913 2.54 4.516 10.865 5.225 12.819.043.132.124.384.276.397h.034c.082 0 .428-.457.428-.457s6.19-7.506 6.815-8.305c.081-.099.153-.205.214-.317a.515.515 0 0 0-.169-.478Zm-5.272.875 2.641-2.19 1.55 1.427-4.191.763Zm-1.026-.143L9.977 8.124l7.358 1.357-2.81 2.37Zm.41.976 4.655-.75-5.322 6.412.667-5.662ZM9.36 8.496l4.785 4.06-.692 5.938L9.36 8.496Z" fill="#FFF" fill-rule="nonzero"/></g></svg>
