<svg width="108" height="112" viewBox="0 0 108 112" xmlns="http://www.w3.org/2000/svg" xmlns:xlink="http://www.w3.org/1999/xlink"><defs><filter x="-3.8%" y="-5.8%" width="107.7%" height="111.5%" filterUnits="objectBoundingBox" id="a"><feOffset dy="2" in="SourceAlpha" result="shadowOffsetOuter1"/><feGaussianBlur stdDeviation="1" in="shadowOffsetOuter1" result="shadowBlurOuter1"/><feColorMatrix values="0 0 0 0 0 0 0 0 0 0 0 0 0 0 0 0 0 0 0.5 0" in="shadowBlurOuter1" result="shadowMatrixOuter1"/><feOffset dy="-2" in="SourceAlpha" result="shadowOffsetOuter2"/><feGaussianBlur stdDeviation="1" in="shadowOffsetOuter2" result="shadowBlurOuter2"/><feColorMatrix values="0 0 0 0 0 0 0 0 0 0 0 0 0 0 0 0 0 0 0.5 0" in="shadowBlurOuter2" result="shadowMatrixOuter2"/><feMerge><feMergeNode in="shadowMatrixOuter1"/><feMergeNode in="shadowMatrixOuter2"/></feMerge></filter><filter x="-3.8%" y="-5.8%" width="107.7%" height="111.5%" filterUnits="objectBoundingBox" id="d"><feGaussianBlur stdDeviation="1.5" in="SourceAlpha" result="shadowBlurInner1"/><feOffset dy="1" in="shadowBlurInner1" result="shadowOffsetInner1"/><feComposite in="shadowOffsetInner1" in2="SourceAlpha" operator="arithmetic" k2="-1" k3="1" result="shadowInnerInner1"/><feColorMatrix values="0 0 0 0 0.286211759 0 0 0 0 0.331355929 0 0 0 0 0.449581385 0 0 0 1 0" in="shadowInnerInner1"/></filter><linearGradient x1="50%" y1="0%" x2="50%" y2="100%" id="c"><stop stop-color="#3E4964" offset="0%"/><stop stop-color="#1D2334" offset="100%"/></linearGradient><rect id="b" x="0" y="0" width="104" height="104" rx="21"/></defs><g fill="none" fill-rule="evenodd"><g transform="translate(2 4)"><use fill="#000" filter="url(#a)" xlink:href="#b"/><use fill="url(#c)" xlink:href="#b"/><use fill="#000" filter="url(#d)" xlink:href="#b"/></g><path d="M66.021 31.142c-1.49.286-3.028.93-4.447 1.883-.406.275-2.838 2.588-5.7 5.438l-4.972 4.96 1.991 1.992 2.004 2.003 4.948-4.937c4.448-4.435 5.033-4.96 5.724-5.294 2.647-1.24 5.76-.43 7.31 1.92.727 1.097.953 1.896.953 3.243 0 1.277-.214 2.075-.846 3.1-.155.263-2.457 2.648-5.104 5.307l-4.817 4.829 2.003 2.003 1.99 1.991 4.901-4.912c2.707-2.731 5.151-5.283 5.461-5.724.752-1.061 1.443-2.587 1.765-3.863.382-1.503.382-4.066-.012-5.533-1.073-4.03-4.173-7.155-8.18-8.228-1.251-.334-3.672-.43-4.972-.178ZM43.783 44.794c-.883.501-1.348 1.324-1.348 2.361 0 .406.084.942.179 1.193.262.608 18.756 19.126 19.448 19.46.322.166.728.238 1.252.238 1.586 0 2.73-1.145 2.73-2.73 0-.525-.071-.93-.238-1.253-.334-.691-18.852-19.185-19.46-19.448-.25-.095-.787-.178-1.192-.178-.62 0-.87.071-1.371.358Zm-7.262 13.021c-2.741 2.755-5.151 5.271-5.461 5.724-.727 1.026-1.419 2.528-1.765 3.792-.393 1.455-.393 4.138 0 5.604.62 2.314 2.158 4.686 3.935 6.093 1.097.859 2.946 1.789 4.257 2.159 1.372.37 4.34.37 5.7 0 1.133-.31 2.659-1.014 3.672-1.694.465-.31 2.707-2.444 5.748-5.473l4.972-4.96-1.992-1.992-2.003-2.003-4.889 4.865c-2.897 2.884-5.103 4.996-5.425 5.174-1.002.56-1.753.751-2.981.74-1.312-.012-2.123-.263-3.16-.942-1.622-1.074-2.469-2.683-2.492-4.71-.012-1.229.178-1.992.727-2.981.19-.322 2.265-2.504 5.175-5.426l4.877-4.889-2.003-2.003-1.991-1.991-4.9 4.912Z"  fill="#FFF"/></g></svg>
