<svg width="18" height="18" viewBox="0 0 18 18" xmlns="http://www.w3.org/2000/svg" fill="#FFF"><path d="M13.204.051a4.356 4.356 0 0 0-1.587.671c-.144.098-1.012.923-2.032 1.94L7.81 4.431l.71.71.715.715L11 4.095c1.586-1.582 1.795-1.77 2.041-1.888.944-.443 2.054-.153 2.607.684.26.392.34.677.34 1.157 0 .455-.076.74-.302 1.106-.055.093-.876.944-1.82 1.892L12.15 8.769l.715.714.71.71 1.747-1.752c.966-.974 1.837-1.884 1.948-2.041.268-.379.514-.923.63-1.378.136-.536.136-1.45-.005-1.973A4.12 4.12 0 0 0 14.978.114c-.447-.119-1.31-.153-1.773-.063ZM5.272 4.92a.92.92 0 0 0-.48.842c0 .144.03.336.063.425.094.217 6.69 6.821 6.936 6.94a.961.961 0 0 0 .447.085c.566 0 .974-.408.974-.973a.96.96 0 0 0-.085-.447c-.12-.247-6.724-6.842-6.94-6.936a1.477 1.477 0 0 0-.426-.064.798.798 0 0 0-.489.128Zm-2.59 4.644c-.978.982-1.837 1.88-1.947 2.041a4.689 4.689 0 0 0-.63 1.353c-.14.518-.14 1.475 0 1.998.221.825.77 1.672 1.405 2.173a5.116 5.116 0 0 0 1.518.77c.49.132 1.548.132 2.033 0 .404-.11.948-.361 1.31-.604.165-.11.965-.872 2.05-1.952l1.773-1.77-.71-.71-.715-.714-1.744 1.735c-1.033 1.03-1.82 1.782-1.935 1.846-.357.2-.625.268-1.063.264-.468-.004-.757-.094-1.127-.336-.578-.383-.88-.957-.889-1.68-.004-.438.064-.71.26-1.063.068-.115.808-.893 1.845-1.935l1.74-1.744-.715-.714-.71-.71-1.748 1.752Z"/></svg>
