<svg width="146" height="150" viewBox="0 0 146 150" xmlns="http://www.w3.org/2000/svg"><defs><clipPath id="a"><path d="M375 0v667H0V0h375Z"/></clipPath><clipPath id="d"><path d="M121 0c11.598 0 21 9.402 21 21v100c0 11.598-9.402 21-21 21H21c-11.598 0-21-9.402-21-21V21C0 9.402 9.402 0 21 0h100Z"/></clipPath><clipPath id="g"><path d="M74 0v3.369c0 2.329-2.146 4.236-4.77 4.236h-.461c0 10.076-3.596 19.56-12.39 26.185a180.106 180.106 0 0 0-4.025 3.29c-.741.738-1.323 1.472-1.36 1.994-.1 1.252 1.64 2.828 3.13 4.013C64.57 49.712 68.764 59.9 68.77 70.781h.461c2.624 0 4.77 1.908 4.77 4.237v3.368H.004v-3.368c0-2.33 2.146-4.233 4.77-4.233h.472c.008-10.907 4.126-21.155 14.69-27.836 1.386-1.043 3.13-2.623 3.033-3.875-.041-.522-.622-1.256-1.364-1.994-.961-.835-2.858-2.359-3.655-2.996C8.858 27.463 5.246 17.82 5.243 7.602h-.47C2.15 7.602 0 5.698 0 3.369V0h74ZM61.558 7.68H12.576c.082 2.914.853 14.42 7.848 19.637 0 0 .894.95 2.899 2.385.939.85 1.937 1.633 2.988 2.34 1.647 1.446 3.458 3.332 3.82 4.919h.108c.28 1.353.76 5.828-4.032 9.439-2.068 1.557-2.642 2.042-2.53 2.027-.116.1-.235.201-.35.309-2.005 1.431-2.9 2.385-2.9 2.385-7.016 5.228-7.773 16.794-7.847 19.66h9.062c-.238-7.315 4.73-12.316 5.62-13.352.388-.453.902-.98 1.652-1.731l.447-.447.16-.16.34-.34a329.14 329.14 0 0 0 3.463-3.503c3.592-3.686 2.131-9.618 1.35-12.76-.607-2.42-3.653-5.583-5.813-7.75l-.89-.89c-.27-.272-.51-.516-.71-.727-1.392-1.479-1.56-2.633-1.572-3.036v-.084c0-.046.004-.07.004-.07h22.902s.003.024.004.07v.085c-.014.403-.185 1.56-1.577 3.035-1.74 1.84-6.625 6.23-7.408 9.367-.786 3.142-2.247 9.07 1.345 12.76a332.668 332.668 0 0 0 2.904 2.945l1.644 1.645c.676.679 1.15 1.168 1.515 1.592.89 1.035 5.858 6.036 5.623 13.35h8.917c-.078-2.865-.831-14.431-7.851-19.663l-.015-.015-.079-.08c-.275-.273-1.171-1.12-2.802-2.29l-.354-.305c.112.015-.462-.47-2.526-2.027-4.796-3.611-4.315-8.083-4.032-9.439h.1c.362-1.587 2.173-3.473 3.824-4.915 1.04-.7 2.038-1.487 2.988-2.344 2.005-1.434 2.9-2.384 2.9-2.384C60.7 22.1 61.474 10.594 61.558 7.68Z"/></clipPath><filter id="b" x="-5.479%" y="-4.11%" filterUnits="userSpaceOnUse" width="108.219%" height="108.219%"><feGaussianBlur stdDeviation="1" in="SourceAlpha" result="i2"/><feOffset dy="2" in="i2" result="i3"/><feColorMatrix values="0 0 0 0.0 0 0 0 0 0.0 0 0 0 0 0.0 0 0 0 0 0.5 0" in="i3"/></filter><filter id="c" x="-5.479%" y="-6.849%" filterUnits="userSpaceOnUse" width="108.219%" height="108.219%"><feGaussianBlur stdDeviation="1" in="SourceAlpha" result="i5"/><feOffset dy="-2" in="i5" result="i6"/><feColorMatrix values="0 0 0 0.0 0 0 0 0 0.0 0 0 0 0 0.0 0 0 0 0 0.5 0" in="i6"/></filter><filter id="f" x="-8.442%" y="-8.442%" filterUnits="userSpaceOnUse" width="109.091%" height="109.091%"><feGaussianBlur stdDeviation="1.5" in="SourceAlpha" result="i10"/><feOffset dy="1" in="i10" result="i11"/><feColorMatrix values="0 0 0 0.286211758852005 0 0 0 0 0.3313559293746948 0 0 0 0 0.4495813846588135 0 0 0 0 1.0 0" in="i11"/></filter><linearGradient id="e" x1="71" y1="0" x2="71" y2="142" gradientUnits="userSpaceOnUse"><stop stop-color="#3D4863" offset="0%"/><stop stop-color="#1C2234" offset="100%"/></linearGradient></defs><g clip-path="url(#a)" transform="translate(-115 -127)"><path d="M21 0h100c11.598 0 21 9.402 21 21v100c0 11.598-9.402 21-21 21H21c-11.598 0-21-9.402-21-21V21C0 9.402 9.402 0 21 0Z" filter="url(#b)" transform="translate(117 131)"/><path d="M21 0h100c11.598 0 21 9.402 21 21v100c0 11.598-9.402 21-21 21H21c-11.598 0-21-9.402-21-21V21C0 9.402 9.402 0 21 0Z" filter="url(#c)" transform="translate(117 131)"/><g clip-path="url(#d)" transform="translate(117 131)"><path fill="url(#e)" d="M0 0h142v142H0V0z"/><path d="M145-4v148H-3V-4h148Zm-24 4H21C9.402 0 0 9.402 0 21v100c0 11.598 9.402 21 21 21h100c11.598 0 21-9.402 21-21V21c0-11.598-9.402-21-21-21Z" style="mix-blend-mode:screen" filter="url(#f)"/></g><g clip-path="url(#g)" transform="translate(151 163)"><path fill="#FFF" d="M0 0h74v78.386H0V0z"/></g></g></svg>
