<svg width="29" height="29" viewBox="0 0 29 29" xmlns="http://www.w3.org/2000/svg" xmlns:xlink="http://www.w3.org/1999/xlink"><defs><linearGradient x1="50%" y1="0%" x2="50%" y2="100%" id="c"><stop stop-color="#6A7DAC" offset="0%"/><stop stop-color="#505F84" offset="100%"/></linearGradient><linearGradient x1="50%" y1="0%" x2="50%" y2="98.652%" id="d"><stop stop-color="#FFF" offset="0%"/><stop stop-color="#FFF" offset="100%"/></linearGradient><filter x="-14%" y="-10%" width="128%" height="128%" filterUnits="objectBoundingBox" id="a"><feOffset dy="1" in="SourceAlpha" result="shadowOffsetOuter1"/><feGaussianBlur stdDeviation="1" in="shadowOffsetOuter1" result="shadowBlurOuter1"/><feColorMatrix values="0 0 0 0 0 0 0 0 0 0 0 0 0 0 0 0 0 0 1 0" in="shadowBlurOuter1"/></filter><rect id="b" x="0" y="0" width="25" height="25" rx="5"/></defs><g fill="none" fill-rule="evenodd"><g transform="translate(2 1)"><use fill="#000" filter="url(#a)" xlink:href="#b"/><use fill="url(#c)" xlink:href="#b"/></g><path d="M4.395 0a.205.205 0 0 0-.16.076L1.43 3.482l4.817 4.933 5.582 5.728h3.63v-1.48l-3.63-3.717-3.632-3.729h.593L4.554.076A.205.205 0 0 0 4.394 0Zm9.051.076L9.211 5.218h2.617v3.21l3.63 3.716V5.218H18L13.765.076a.205.205 0 0 0-.318 0ZM0 5.217h2.617l-1.42-1.453L0 5.217Zm2.617 8.926h3.63V8.934l-3.63-3.716v8.925Z" transform="translate(5 6)" fill="url(#d)"/></g></svg>
