<svg width="25" height="25" viewBox="0 0 29 29" xmlns="http://www.w3.org/2000/svg" xmlns:xlink="http://www.w3.org/1999/xlink"><defs><linearGradient x1="50%" y1="0%" x2="50%" y2="100%" id="c"><stop stop-color="#6A7DAC" offset="0%"/><stop stop-color="#505F84" offset="100%"/></linearGradient><filter x="-14%" y="-10%" width="128%" height="128%" filterUnits="objectBoundingBox" id="a"><feOffset dy="1" in="SourceAlpha" result="shadowOffsetOuter1"/><feGaussianBlur stdDeviation="1" in="shadowOffsetOuter1" result="shadowBlurOuter1"/><feColorMatrix values="0 0 0 0 0 0 0 0 0 0 0 0 0 0 0 0 0 0 1 0" in="shadowBlurOuter1"/></filter><rect id="b" x="0" y="0" width="25" height="25" rx="5"/></defs><g fill="none" fill-rule="evenodd"><g transform="translate(2 1)"><use fill="#000" filter="url(#a)" xlink:href="#b"/><use fill="url(#c)" xlink:href="#b"/></g><path d="M15.706 5.53c.94.057 1.875.266 2.807.628A8.252 8.252 0 0 1 21 7.656l-3.16 3.125a3.295 3.295 0 0 0-1.259-.935c-.498-.212-.946-.319-1.345-.319-.37 0-.668.05-.896.149-.228.1-.342.27-.342.51 0 .227.118.394.353.5.234.106.615.244 1.142.414.54.17 1.11.365 1.707.585a7.45 7.45 0 0 1 1.655.85c.505.348.921.78 1.248 1.297.328.517.491 1.152.491 1.903 0 .793-.142 1.495-.427 2.104a4.935 4.935 0 0 1-1.13 1.563 5.137 5.137 0 0 1-1.634 1.01c-.619.24-1.263.39-1.932.446v1.616h-2.177v-1.595A9.31 9.31 0 0 1 10.4 20.2c-.93-.384-1.73-.858-2.4-1.425l3.095-3.275c.171.184.38.361.63.531.249.17.516.323.8.457.285.135.58.241.886.32.306.077.616.116.929.116.285 0 .544-.05.779-.149a.534.534 0 0 0 .352-.531.565.565 0 0 0-.117-.361c-.078-.1-.217-.199-.416-.298-.2-.1-.474-.21-.822-.33-.349-.12-.786-.265-1.313-.435a12.283 12.283 0 0 1-1.473-.596 5.135 5.135 0 0 1-1.249-.84 3.688 3.688 0 0 1-.864-1.2c-.214-.468-.32-1.02-.32-1.659 0-.75.128-1.413.384-1.987a4.539 4.539 0 0 1 1.024-1.467c.427-.404.922-.73 1.484-.978a7.225 7.225 0 0 1 1.74-.52V4h2.177v1.53Z" fill="#FFF" fill-rule="nonzero"/></g></svg>
