<svg width="104" height="108" viewBox="0 0 104 108" xmlns="http://www.w3.org/2000/svg" xmlns:xlink="http://www.w3.org/1999/xlink"><defs><filter x="-4%" y="-6%" width="108%" height="112%" filterUnits="objectBoundingBox" id="a"><feOffset dy="2" in="SourceAlpha" result="shadowOffsetOuter1"/><feGaussianBlur stdDeviation="1" in="shadowOffsetOuter1" result="shadowBlurOuter1"/><feColorMatrix values="0 0 0 0 0 0 0 0 0 0 0 0 0 0 0 0 0 0 0.5 0" in="shadowBlurOuter1" result="shadowMatrixOuter1"/><feOffset dy="-2" in="SourceAlpha" result="shadowOffsetOuter2"/><feGaussianBlur stdDeviation="1" in="shadowOffsetOuter2" result="shadowBlurOuter2"/><feColorMatrix values="0 0 0 0 0 0 0 0 0 0 0 0 0 0 0 0 0 0 0.5 0" in="shadowBlurOuter2" result="shadowMatrixOuter2"/><feMerge><feMergeNode in="shadowMatrixOuter1"/><feMergeNode in="shadowMatrixOuter2"/></feMerge></filter><filter x="-4%" y="-6%" width="108%" height="112%" filterUnits="objectBoundingBox" id="d"><feGaussianBlur stdDeviation="1.5" in="SourceAlpha" result="shadowBlurInner1"/><feOffset dy="1" in="shadowBlurInner1" result="shadowOffsetInner1"/><feComposite in="shadowOffsetInner1" in2="SourceAlpha" operator="arithmetic" k2="-1" k3="1" result="shadowInnerInner1"/><feColorMatrix values="0 0 0 0 0.286211759 0 0 0 0 0.331355929 0 0 0 0 0.449581385 0 0 0 1 0" in="shadowInnerInner1"/></filter><linearGradient x1="50%" y1="0%" x2="50%" y2="100%" id="c"><stop stop-color="#3E4964" offset="0%"/><stop stop-color="#1D2334" offset="100%"/></linearGradient><rect id="b" x="0" y="0" width="100" height="100" rx="21"/><path id="e" d="M0 0h63.577v57H0z"/></defs><g fill="none" fill-rule="evenodd"><g transform="translate(2 4)"><use fill="#000" filter="url(#a)" xlink:href="#b"/><use fill="url(#c)" xlink:href="#b"/><use fill="#000" filter="url(#d)" xlink:href="#b"/></g><g transform="translate(20 26)"><mask id="f" fill="#fff"><use xlink:href="#e"/></mask><g/><path d="M38.23 13.739h17.821V2.192H7.556V13.74h17.82v7.59C10.898 21.974 0 24.758 0 28.128s10.897 6.125 25.377 6.799v24.265H38.26V34.898c14.449-.645 25.316-3.43 25.316-6.77 0-3.34-10.867-6.154-25.347-6.799v-7.59Zm-6.38 19.225c-3.312 0-5.66-.088-6.472-.147C12.583 32.26 3.04 30.092 3.04 27.513c0-2.609 9.543-4.777 22.337-5.305v8.47c.842.058 3.22.205 6.532.205 3.973 0 5.96-.176 6.321-.205v-8.47c12.764.557 22.307 2.726 22.307 5.305 0 2.579-9.543 4.747-22.307 5.304-.36.03-2.227.147-6.381.147Z" fill="#FFF" fill-rule="nonzero" mask="url(#f)"/></g></g></svg>
