<svg width="29" height="29" viewBox="0 0 29 29" xmlns="http://www.w3.org/2000/svg" xmlns:xlink="http://www.w3.org/1999/xlink"><defs><linearGradient x1="50%" y1="0%" x2="50%" y2="100%" id="c"><stop stop-color="#6A7DAC" offset="0%"/><stop stop-color="#505F84" offset="100%"/></linearGradient><filter x="-14%" y="-10%" width="128%" height="128%" filterUnits="objectBoundingBox" id="a"><feOffset dy="1" in="SourceAlpha" result="shadowOffsetOuter1"/><feGaussianBlur stdDeviation="1" in="shadowOffsetOuter1" result="shadowBlurOuter1"/><feColorMatrix values="0 0 0 0 0 0 0 0 0 0 0 0 0 0 0 0 0 0 1 0" in="shadowBlurOuter1"/></filter><rect id="b" x="0" y="0" width="25" height="25" rx="5"/><path id="d" d="M0 0h17.846v16H0z"/></defs><g fill="none" fill-rule="evenodd"><g transform="translate(2 1)"><use fill="#000" filter="url(#a)" xlink:href="#b"/><use fill="url(#c)" xlink:href="#b"/></g><g transform="translate(6 6)"><mask id="e" fill="#fff"><use xlink:href="#d"/></mask><g/><path d="M10.731 3.857h5.003V.615H2.12v3.242h5.002v2.13C3.06 6.168 0 6.95 0 7.896c0 .946 3.059 1.719 7.123 1.908v6.811h3.617v-6.82c4.056-.18 7.106-.962 7.106-1.9 0-.937-3.05-1.727-7.115-1.908v-2.13ZM8.94 9.253c-.93 0-1.589-.025-1.817-.041-3.59-.157-6.27-.765-6.27-1.49 0-.731 2.68-1.34 6.27-1.488V8.61c.237.017.904.058 1.834.058 1.115 0 1.673-.05 1.774-.058V6.234c3.583.156 6.262.765 6.262 1.489 0 .724-2.679 1.332-6.262 1.489-.101.008-.625.04-1.791.04Z" fill="#FFF" fill-rule="nonzero" mask="url(#e)"/></g></g></svg>
