<svg viewBox="0 0 23 21" xmlns="http://www.w3.org/2000/svg" xmlns:xlink="http://www.w3.org/1999/xlink"><defs><path id="a" d="M0 0h22.52v20.19H0z"/></defs><g fill="none" fill-rule="evenodd"><mask id="b" fill="#fff"><use xlink:href="#a"/></mask><g/><path d="M13.542 4.867h6.312V.777H2.676v4.09H8.99v2.688C3.86 7.783 0 8.77 0 9.963c0 1.194 3.86 2.17 8.989 2.409v8.595h4.564V12.36c5.118-.228 8.967-1.214 8.967-2.398 0-1.183-3.85-2.18-8.978-2.408V4.867Zm-2.26 6.81c-1.174 0-2.005-.032-2.293-.053-4.532-.197-7.912-.965-7.912-1.879 0-.923 3.38-1.692 7.912-1.878v3c.298.02 1.14.072 2.314.072 1.407 0 2.11-.062 2.239-.072v-3c4.52.197 7.901.965 7.901 1.878 0 .914-3.38 1.682-7.901 1.88-.128.01-.79.051-2.26.051Z" fill="#FFF" fill-rule="nonzero" mask="url(#b)"/></g></svg>
