<svg width="25" height="25" viewBox="0 0 29 27" xmlns="http://www.w3.org/2000/svg" xmlns:xlink="http://www.w3.org/1999/xlink"><defs><linearGradient x1="50%" y1="0%" x2="50%" y2="100%" id="c"><stop stop-color="#6A7DAC" offset="0%"/><stop stop-color="#505F84" offset="100%"/></linearGradient><filter x="-14%" y="-10%" width="128%" height="128%" filterUnits="objectBoundingBox" id="a"><feOffset dy="1" in="SourceAlpha" result="shadowOffsetOuter1"/><feGaussianBlur stdDeviation="1" in="shadowOffsetOuter1" result="shadowBlurOuter1"/><feColorMatrix values="0 0 0 0 0 0 0 0 0 0 0 0 0 0 0 0 0 0 1 0" in="shadowBlurOuter1"/></filter><rect id="b" x="0" y="0" width="25" height="25" rx="5"/></defs><g fill="none" fill-rule="evenodd"><g transform="translate(2 1)"><use fill="#000" filter="url(#a)" xlink:href="#b"/><use fill="url(#c)" xlink:href="#b"/></g><path d="M14.748 13.944a3.971 3.971 0 0 1-3.857-4.083 3.971 3.971 0 0 1 7.942.114 4.033 4.033 0 0 1-4.085 3.97m1.436.722c2.618-.03 4.77 2.202 4.816 5 0 .824-1.612 1.5-2.408 1.5h-8.184c-.793 0-2.408-.674-2.408-1.5.046-2.798 2.197-5.032 4.816-5h3.368Z" fill="#FFF"/></g></svg>
