<svg width="146" height="150" viewBox="0 0 146 150" xmlns="http://www.w3.org/2000/svg"><defs><clipPath id="a"><path d="M375 0v667H0V0h375Z"/></clipPath><clipPath id="d"><path d="M121 0c11.598 0 21 9.402 21 21v100c0 11.598-9.402 21-21 21H21c-11.598 0-21-9.402-21-21V21C0 9.402 9.402 0 21 0h100Z"/></clipPath><clipPath id="g"><path d="M37.146 0c.354 0 .708.118 1.061.295.177.118 16.864 9.67 33.668 9.67 1.18 0 2.181 1.002 2.123 2.181v30.366c0 13.443-6.31 25-18.279 33.49-8.962 6.368-17.747 8.668-18.101 8.786-.177.059-.354.059-.53.059-.178 0-.355 0-.531-.06-.354-.058-9.199-2.358-18.16-8.667C6.366 67.69 0 56.073 0 42.57V12.147c0-1.179 1.002-2.181 2.182-2.181 16.627 0 33.726-9.552 33.903-9.67A2.207 2.207 0 0 1 37.146 0Zm21.227 30.601a2.939 2.939 0 0 0-4.246-.059l-19.811 19.87-11.498-11.497a2.99 2.99 0 0 0-4.245 0 2.939 2.939 0 0 0-.059 4.245l13.62 13.62c.531.59 1.298.885 2.123.885.767 0 1.533-.295 2.123-.884l21.993-21.993a3.027 3.027 0 0 0 0-4.187Z"/></clipPath><filter id="b" x="-5.479%" y="-4.11%" filterUnits="userSpaceOnUse" width="108.219%" height="108.219%"><feGaussianBlur stdDeviation="1" in="SourceAlpha" result="i2"/><feOffset dy="2" in="i2" result="i3"/><feColorMatrix values="0 0 0 0.0 0 0 0 0 0.0 0 0 0 0 0.0 0 0 0 0 0.5 0" in="i3"/></filter><filter id="c" x="-5.479%" y="-6.849%" filterUnits="userSpaceOnUse" width="108.219%" height="108.219%"><feGaussianBlur stdDeviation="1" in="SourceAlpha" result="i5"/><feOffset dy="-2" in="i5" result="i6"/><feColorMatrix values="0 0 0 0.0 0 0 0 0 0.0 0 0 0 0 0.0 0 0 0 0 0.5 0" in="i6"/></filter><filter id="f" x="-8.442%" y="-8.442%" filterUnits="userSpaceOnUse" width="109.091%" height="109.091%"><feGaussianBlur stdDeviation="1.5" in="SourceAlpha" result="i10"/><feOffset dy="1" in="i10" result="i11"/><feColorMatrix values="0 0 0 0.286211758852005 0 0 0 0 0.3313559293746948 0 0 0 0 0.4495813846588135 0 0 0 0 1.0 0" in="i11"/></filter><linearGradient id="e" x1="71" y1="0" x2="71" y2="142" gradientUnits="userSpaceOnUse"><stop stop-color="#3D4863" offset="0%"/><stop stop-color="#1C2234" offset="100%"/></linearGradient></defs><g clip-path="url(#a)" transform="translate(-115 -127)"><path d="M21 0h100c11.598 0 21 9.402 21 21v100c0 11.598-9.402 21-21 21H21c-11.598 0-21-9.402-21-21V21C0 9.402 9.402 0 21 0Z" filter="url(#b)" transform="translate(117 131)"/><path d="M21 0h100c11.598 0 21 9.402 21 21v100c0 11.598-9.402 21-21 21H21c-11.598 0-21-9.402-21-21V21C0 9.402 9.402 0 21 0Z" filter="url(#c)" transform="translate(117 131)"/><g clip-path="url(#d)" transform="translate(117 131)"><path fill="url(#e)" d="M0 0h142v142H0V0z"/><path d="M145-4v148H-3V-4h148Zm-24 4H21C9.402 0 0 9.402 0 21v100c0 11.598 9.402 21 21 21h100c11.598 0 21-9.402 21-21V21c0-11.598-9.402-21-21-21Z" style="mix-blend-mode:screen" filter="url(#f)"/></g><g clip-path="url(#g)" transform="translate(151 160)"><path fill="#FFF" d="M0 0h74v84.847H0V0z"/></g></g></svg>
