<svg width="29" height="29" viewBox="0 0 29 29" xmlns="http://www.w3.org/2000/svg" xmlns:xlink="http://www.w3.org/1999/xlink"><defs><linearGradient x1="50%" y1="0%" x2="50%" y2="100%" id="c"><stop stop-color="#6A7DAC" offset="0%"/><stop stop-color="#505F84" offset="100%"/></linearGradient><filter x="-14%" y="-10%" width="128%" height="128%" filterUnits="objectBoundingBox" id="a"><feOffset dy="1" in="SourceAlpha" result="shadowOffsetOuter1"/><feGaussianBlur stdDeviation="1" in="shadowOffsetOuter1" result="shadowBlurOuter1"/><feColorMatrix values="0 0 0 0 0 0 0 0 0 0 0 0 0 0 0 0 0 0 1 0" in="shadowBlurOuter1"/></filter><rect id="b" x="0" y="0" width="25" height="25" rx="5"/></defs><g fill="none" fill-rule="evenodd"><g transform="translate(2 1)"><use fill="#000" filter="url(#a)" xlink:href="#b"/><use fill="url(#c)" xlink:href="#b"/></g><path d="M8.916 10.663v6.002c0 .407.046.55.124.698a.799.799 0 0 0 .345.342c.149.078.298.123.702.123h8.827c.409 0 .552-.045.702-.123a.799.799 0 0 0 .344-.342c.078-.149.123-.297.123-.698v-1.964H21v1.706c0 .807-.085 1.105-.247 1.402-.162.297-.39.53-.689.685-.299.161-.591.245-1.41.245h-8.308c-.813 0-1.112-.084-1.411-.245a1.633 1.633 0 0 1-.689-.685C8.085 17.512 8 17.22 8 16.407v-5.744h.916ZM16.938 8 21 11.23l-4.063 3.23v-1.995c-2.437-.027-4.471 2.895-4.471 4.419 0-1.952.37-6.842 4.471-6.849V8Z" fill="#FFF" fill-rule="nonzero"/></g></svg>
