<svg width="18" height="15" viewBox="0 0 18 15" xmlns="http://www.w3.org/2000/svg" fill="#808CA6"><path d="M1.256 3.65v7.909c0 .536.06.723.164.92.103.195.257.348.455.45.198.103.395.162.928.162h11.668c.541 0 .73-.06.928-.162.197-.102.352-.255.455-.45.103-.197.163-.392.163-.92V8.97h1.212v2.247c0 1.064-.112 1.456-.327 1.848a2.156 2.156 0 0 1-.91.902c-.396.213-.782.323-1.865.323H3.147c-1.074 0-1.47-.11-1.865-.323a2.156 2.156 0 0 1-.91-.902c-.216-.391-.327-.775-.327-1.847V3.65h1.211ZM11.859.14l5.37 4.257-5.37 4.256v-2.63c-3.222-.034-5.911 3.814-5.911 5.823 0-2.571.49-9.016 5.911-9.024V.14Z" /></svg>
