<svg width="104" height="108" viewBox="0 0 104 108" xmlns="http://www.w3.org/2000/svg" xmlns:xlink="http://www.w3.org/1999/xlink"><defs><filter x="-4%" y="-6%" width="108%" height="112%" filterUnits="objectBoundingBox" id="a"><feOffset dy="2" in="SourceAlpha" result="shadowOffsetOuter1"/><feGaussianBlur stdDeviation="1" in="shadowOffsetOuter1" result="shadowBlurOuter1"/><feColorMatrix values="0 0 0 0 0 0 0 0 0 0 0 0 0 0 0 0 0 0 0.5 0" in="shadowBlurOuter1" result="shadowMatrixOuter1"/><feOffset dy="-2" in="SourceAlpha" result="shadowOffsetOuter2"/><feGaussianBlur stdDeviation="1" in="shadowOffsetOuter2" result="shadowBlurOuter2"/><feColorMatrix values="0 0 0 0 0 0 0 0 0 0 0 0 0 0 0 0 0 0 0.5 0" in="shadowBlurOuter2" result="shadowMatrixOuter2"/><feMerge><feMergeNode in="shadowMatrixOuter1"/><feMergeNode in="shadowMatrixOuter2"/></feMerge></filter><filter x="-4%" y="-6%" width="108%" height="112%" filterUnits="objectBoundingBox" id="d"><feGaussianBlur stdDeviation="1.5" in="SourceAlpha" result="shadowBlurInner1"/><feOffset dy="1" in="shadowBlurInner1" result="shadowOffsetInner1"/><feComposite in="shadowOffsetInner1" in2="SourceAlpha" operator="arithmetic" k2="-1" k3="1" result="shadowInnerInner1"/><feColorMatrix values="0 0 0 0 0.286211759 0 0 0 0 0.331355929 0 0 0 0 0.449581385 0 0 0 1 0" in="shadowInnerInner1"/></filter><linearGradient x1="50%" y1="0%" x2="50%" y2="100%" id="c"><stop stop-color="#3E4964" offset="0%"/><stop stop-color="#1D2334" offset="100%"/></linearGradient><rect id="b" x="0" y="0" width="100" height="100" rx="21"/></defs><g fill="none" fill-rule="evenodd"><g transform="translate(2 4)"><use fill="#000" filter="url(#a)" xlink:href="#b"/><use fill="url(#c)" xlink:href="#b"/><use fill="#000" filter="url(#d)" xlink:href="#b"/></g><path d="M21.864 39.137v31.856c0 2.16.242 2.914.656 3.703a4.24 4.24 0 0 0 1.829 1.818c.793.411 1.586.651 3.726.651h46.85c2.174 0 2.933-.24 3.727-.651a4.24 4.24 0 0 0 1.828-1.818c.414-.789.655-1.577.655-3.703V60.568H86v9.053c0 4.286-.448 5.864-1.311 7.441-.862 1.578-2.07 2.812-3.657 3.635-1.587.857-3.14 1.303-7.486 1.303H29.454c-4.313 0-5.9-.446-7.487-1.303-1.587-.857-2.829-2.057-3.657-3.635-.861-1.577-1.31-3.12-1.31-7.44V39.136h4.864ZM64.438 25 86 42.145 64.437 59.291V48.695C51.5 48.558 40.703 64.057 40.703 72.149c0-10.355 1.966-36.313 23.735-36.347V25Z" fill="#FFF" fill-rule="nonzero"/></g></svg>
